<?xml version="1.0" encoding="utf-8"?>
<!-- Generator: Adobe Illustrator 19.0.0, SVG Export Plug-In . SVG Version: 6.00 Build 0)  -->
<svg version="1.1" id="Layer_1" xmlns="http://www.w3.org/2000/svg" xmlns:xlink="http://www.w3.org/1999/xlink" x="0px" y="0px"
	 viewBox="0 0 4664 500" style="enable-background:new 0 0 4664 500;" xml:space="preserve">
<style type="text/css">
	.st0{fill:#FFFFFF;}
</style>
<g id="XMLID_9_">
	<g id="XMLID_4_">
		<g id="XMLID_28_">
			<polygon id="XMLID_29_" class="st0" points="4490.7,381.5 4159.9,381.5 4215.8,50.7 4546.6,50.7 			"/>
		</g>
		<g id="XMLID_26_">
			<polygon id="XMLID_27_" class="st0" points="4099.3,381.5 3768.4,381.5 3824.4,50.7 4155.2,50.7 			"/>
		</g>
		<g id="XMLID_24_">
			<polygon id="XMLID_25_" class="st0" points="3707.9,381.5 3377,381.5 3432.9,50.7 3763.8,50.7 			"/>
		</g>
		<g id="XMLID_22_">
			<polygon id="XMLID_23_" class="st0" points="3316.4,381.5 2985.6,381.5 3041.5,50.7 3372.4,50.7 			"/>
		</g>
		<g id="XMLID_20_">
			<polygon id="XMLID_21_" class="st0" points="2925,381.5 2594.2,381.5 2650.1,50.7 2980.9,50.7 			"/>
		</g>
		<g id="XMLID_17_">
			<polygon id="XMLID_19_" class="st0" points="2533.6,381.5 2202.8,381.5 2258.7,50.7 2589.5,50.7 			"/>
		</g>
		<g id="XMLID_15_">
			<polygon id="XMLID_16_" class="st0" points="2142.2,381.5 1811.4,381.5 1867.3,50.7 2198.1,50.7 			"/>
		</g>
		<g id="XMLID_13_">
			<polygon id="XMLID_14_" class="st0" points="1750.8,381.5 1420,381.5 1475.9,50.7 1806.7,50.7 			"/>
		</g>
		<g id="XMLID_10_">
			<polygon id="XMLID_12_" class="st0" points="1359.4,381.5 1028.5,381.5 1084.5,50.7 1415.3,50.7 			"/>
		</g>
		<g id="XMLID_7_">
			<polygon id="XMLID_8_" class="st0" points="968,381.5 637.1,381.5 693,50.7 1023.9,50.7 			"/>
		</g>
		<g id="XMLID_5_">
			<polygon id="XMLID_6_" class="st0" points="576.5,381.5 245.7,381.5 301.6,50.7 632.5,50.7 			"/>
		</g>
	</g>
</g>
</svg>
