<?xml version="1.0" encoding="utf-8"?>
<!-- Generator: Adobe Illustrator 21.0.1, SVG Export Plug-In . SVG Version: 6.00 Build 0)  -->
<svg version="1.1" id="Layer_1" xmlns="http://www.w3.org/2000/svg" xmlns:xlink="http://www.w3.org/1999/xlink" x="0px" y="0px"
	 viewBox="0 0 1024 1024" style="enable-background:new 0 0 1024 1024;" xml:space="preserve">
<style type="text/css">
	.st0{display:none;fill:#006D9A;}
	.st1{fill:#FFFFFF;}
	.st2{fill:url(#XMLID_2_);stroke:#FFFFFF;stroke-miterlimit:10;}
</style>
<rect y="0" class="st0" width="1024.1" height="1023.9"/>
<polygon class="st1" points="168,30 162,30 162,24 158,24 158,30 152,30 152,34 158,34 158,40 162,40 162,34 168,34 "/>
<polygon class="st1" points="108,30 98,30 98,20 94,20 94,30 84,30 84,34 94,34 94,44 98,44 98,34 108,34 "/>
<circle class="st1" cx="224" cy="32" r="2"/>
<path class="st1" d="M288,12c11,0,20,9,20,20s-9,20-20,20s-20-9-20-20S277,12,288,12 M288,8c-13.3,0-24,10.7-24,24s10.7,24,24,24
	s24-10.7,24-24S301.3,8,288,8L288,8z"/>
<circle class="st1" cx="352" cy="32" r="2"/>
<path class="st1" d="M352,12c11,0,20,9,20,20s-9,20-20,20s-20-9-20-20S341,12,352,12 M352,8c-13.3,0-24,10.7-24,24s10.7,24,24,24
	s24-10.7,24-24S365.3,8,352,8L352,8z"/>
<polygon class="st1" points="296,30 290,30 290,24 286,24 286,30 280,30 280,34 286,34 286,40 290,40 290,34 296,34 "/>
<path class="st1" d="M416,18.7c7.4,0,13.3,6,13.3,13.3s-6,13.3-13.3,13.3s-13.3-6-13.3-13.3S408.6,18.7,416,18.7 M416,16
	c-8.8,0-16,7.2-16,16s7.2,16,16,16s16-7.2,16-16S424.8,16,416,16L416,16z"/>
<rect x="414" y="8" class="st1" width="4" height="16"/>
<rect x="414" y="40" class="st1" width="4" height="16"/>
<rect x="424" y="30" class="st1" width="16" height="4"/>
<rect x="392" y="30" class="st1" width="16" height="4"/>
<radialGradient id="XMLID_2_" cx="480.5" cy="993.4533" r="22.9999" gradientTransform="matrix(1 0 0 -1 0 1026)" gradientUnits="userSpaceOnUse">
	<stop  offset="0.6154" style="stop-color:#FFFFFF;stop-opacity:0"/>
	<stop  offset="0.7399" style="stop-color:#FFFFFF;stop-opacity:4.000000e-02"/>
	<stop  offset="0.9048" style="stop-color:#FFFFFF;stop-opacity:0.15"/>
	<stop  offset="1" style="stop-color:#FFFFFF;stop-opacity:0.5"/>
</radialGradient>
<circle id="XMLID_4_" class="st2" cx="480.5" cy="32.5" r="22"/>
<g id="XMLID_10_">
	<path id="XMLID_16_" class="st1" d="M489.4,8.9c6.8,2.6,12.2,8,14.8,14.8l2.3-0.9c-2.9-7.4-8.8-13.3-16.2-16.2L489.4,8.9z"/>
</g>
<g id="XMLID_5_">
	<path id="XMLID_11_" class="st1" d="M504.3,41.9c-2.6,6.8-8,12.2-14.8,14.8l0.9,2.3c7.4-2.9,13.3-8.8,16.2-16.2L504.3,41.9z"/>
</g>
<g id="XMLID_12_">
	<path id="XMLID_13_" class="st1" d="M470.6,56.2c-6.8-2.6-12.2-8-14.8-14.8l-2.3,0.9c2.9,7.4,8.8,13.3,16.2,16.2L470.6,56.2z"/>
</g>
<g id="XMLID_14_">
	<path id="XMLID_15_" class="st1" d="M456.5,23.5c2.6-6.8,8-12.2,14.8-14.8l-0.9-2.3c-7.4,2.9-13.3,8.8-16.2,16.2L456.5,23.5z"/>
</g>
<circle id="XMLID_17_" class="st1" cx="480" cy="32" r="1.4"/>
</svg>
