<?xml version="1.0" encoding="utf-8"?>
<!-- Generator: Adobe Illustrator 19.0.0, SVG Export Plug-In . SVG Version: 6.00 Build 0)  -->
<svg version="1.1" id="Layer_1" xmlns="http://www.w3.org/2000/svg" xmlns:xlink="http://www.w3.org/1999/xlink" x="0px" y="0px"
	 viewBox="0 0 200 200" style="enable-background:new 0 0 200 200;" xml:space="preserve">
<style type="text/css">
	.st0{fill:#ED1F24;}
	.st1{fill:#FFFFFF;}
</style>
<g id="XMLID_2_">
	<polygon id="XMLID_35_" class="st0" points="1,26.3 1,1 26.3,1 43.2,43.2 	"/>
	<path id="XMLID_32_" class="st1" d="M25.6,2l15.8,39.4L2,25.6V2H25.6 M27,0H0v27l45,18L27,0L27,0z"/>
</g>
<g id="XMLID_1_">
	<polygon id="XMLID_30_" class="st0" points="173.7,1 199,1 199,26.3 156.8,43.2 	"/>
	<path id="XMLID_27_" class="st1" d="M198,2v23.6l-39.4,15.8L174.4,2H198 M200,0h-27l-18,45l45-18V0L200,0z"/>
</g>
<g id="XMLID_3_">
	<polygon id="XMLID_25_" class="st0" points="173.7,199 156.8,156.8 199,173.7 199,199 	"/>
	<path id="XMLID_22_" class="st1" d="M158.6,158.6l39.4,15.8V198h-23.6L158.6,158.6 M155,155l18,45h27v-27L155,155L155,155z"/>
</g>
<g id="XMLID_4_">
	<polygon id="XMLID_31_" class="st0" points="1,199 1,173.7 43.2,156.8 26.3,199 	"/>
	<path id="XMLID_20_" class="st1" d="M41.4,158.6L25.6,198H2v-23.6L41.4,158.6 M45,155L0,173v27h27L45,155L45,155z"/>
</g>
</svg>
