<?xml version="1.0" encoding="utf-8"?>
<!-- Generator: Adobe Illustrator 18.0.0, SVG Export Plug-In . SVG Version: 6.00 Build 0)  -->
<!DOCTYPE svg PUBLIC "-//W3C//DTD SVG 1.1//EN" "http://www.w3.org/Graphics/SVG/1.1/DTD/svg11.dtd">
<svg version="1.1" id="Layer_1" xmlns="http://www.w3.org/2000/svg" xmlns:xlink="http://www.w3.org/1999/xlink" x="0px" y="0px"
	 viewBox="0 0 1024 1024" enable-background="new 0 0 1024 1024" xml:space="preserve">
<path fill-rule="evenodd" clip-rule="evenodd" fill="#FFFFFF" d="M427.3,2.4l-416.6,415L10,1024l937.2-0.7l69.2-69.2L1017,1.8
	L427.3,2.4z M188.5,840.7c-41.6-67.8,21.8-153.5,88.8-218c-95.7-12.2-205-41.8-188.5-110.6C123,369,455.1,436.6,455.1,436.6
	c-8.4,0-290.8-11.2-285.2,75.5c2.5,38.9,63.9,72.2,126,93.4c50.7-45.7,98.2-77.1,98.2-77.1c-2.5,2.5-41.1,38.3-79.9,83
	c35.5,10.7,69.4,17.2,90.5,18.2c25.7,1.2-30.6,3.3-102.5-4C253.8,684,211,752.8,245.8,783.4c49,43.1,203.6-41.5,249.1-83
	C540.4,658.8,257.7,953.4,188.5,840.7z M566.9,598.8c-14,33.6-95.1,36.4-134.2-8.4C393.5,545.6,483,478.5,483,478.5
	s2.8,44.7,30.8,81.1C541.7,596,580.9,565.2,566.9,598.8z M970.7,586.8c-34.2,143.1-366.3,75.5-366.3,75.5
	c8.4,0,290.8,11.2,285.2-75.5c-2.9-44.5-82.7-81.7-152.6-101.7c-58.6,57.5-122,99.4-122,99.4c2.9-2.9,54.6-50.8,98.7-105.6
	c-23.3-5.6-44.2-8.9-58.9-9.6c-21.1-1,13.1-2.6,65.8,0.9c42.2-54.2,74.2-113.1,42.7-140.8c-49-43.1-203.6,41.5-249.1,83
	c-45.5,41.5,237.3-253.1,306.5-140.4c37.9,61.8-11.4,138.5-71.2,200.4C850.6,482,989,510,970.7,586.8z"/>
</svg>
