<?xml version="1.0" encoding="utf-8"?>
<!-- Generator: Adobe Illustrator 18.0.0, SVG Export Plug-In . SVG Version: 6.00 Build 0)  -->
<!DOCTYPE svg PUBLIC "-//W3C//DTD SVG 1.1//EN" "http://www.w3.org/Graphics/SVG/1.1/DTD/svg11.dtd">
<svg version="1.1" id="Layer_1" xmlns="http://www.w3.org/2000/svg" xmlns:xlink="http://www.w3.org/1999/xlink" x="0px" y="0px"
	 viewBox="0 0 128 128" enable-background="new 0 0 128 128" xml:space="preserve">
<path fill="#FFFFFF" d="M65.1,45.8L65.1,45.8c-1.8,0-3.3-1.5-3.3-3.3V37c0-1.8,1.5-3.3,3.3-3.3h0c1.8,0,3.3,1.5,3.3,3.3v5.4
	C68.4,44.3,66.9,45.8,65.1,45.8z"/>
<path fill="#FFFFFF" d="M92.6,75L92.6,75c0-1.8,1.5-3.3,3.3-3.3h5.4c1.8,0,3.3,1.5,3.3,3.3v0c0,1.8-1.5,3.3-3.3,3.3h-5.4
	C94.1,78.3,92.6,76.8,92.6,75z"/>
<path fill="#FFFFFF" d="M46.1,52.9L46.1,52.9c-1.3,1.3-3.4,1.3-4.7,0l-3.8-3.8c-1.3-1.3-1.3-3.4,0-4.7l0,0c1.3-1.3,3.4-1.3,4.7,0
	l3.8,3.8C47.3,49.5,47.3,51.6,46.1,52.9z"/>
<path fill="#FFFFFF" d="M36.4,71.3L36.4,71.3c0,1.8-1.5,3.3-3.3,3.3h-5.4c-1.8,0-3.3-1.5-3.3-3.3l0,0c0-1.8,1.5-3.3,3.3-3.3h5.4
	C34.9,68,36.4,69.5,36.4,71.3z"/>
<path fill="#FFFFFF" d="M39.9,60.7L39.9,60.7c-0.5,1.7-2.4,2.7-4.2,2.2l-5.2-1.6c-1.7-0.5-2.7-2.4-2.2-4.2l0,0
	c0.5-1.7,2.4-2.7,4.2-2.2l5.2,1.6C39.5,57.1,40.5,59,39.9,60.7z"/>
<path fill="#FFFFFF" d="M90.8,64.3L90.8,64.3c0.5,1.7,2.4,2.7,4.2,2.2l5.2-1.6c1.7-0.5,2.7-2.4,2.2-4.2l0,0
	c-0.5-1.7-2.4-2.7-4.2-2.2L93,60.1C91.2,60.7,90.2,62.6,90.8,64.3z"/>
<path fill="#FFFFFF" d="M75.8,48.3L75.8,48.3c1.6,0.9,3.6,0.2,4.5-1.4l2.5-4.8c0.9-1.6,0.2-3.6-1.4-4.5l0,0
	c-1.6-0.9-3.6-0.2-4.5,1.4l-2.5,4.8C73.5,45.4,74.2,47.4,75.8,48.3z"/>
<path fill="#FFFFFF" d="M54.9,47.2L54.9,47.2c-1.6,0.9-3.6,0.2-4.5-1.4L47.8,41c-0.9-1.6-0.2-3.6,1.4-4.5l0,0
	c1.6-0.9,3.6-0.2,4.5,1.4l2.5,4.8C57.1,44.4,56.5,46.4,54.9,47.2z"/>
<path fill="#FFFFFF" d="M91.8,47.7l-34,21.4c-1,0.5-1.9,1.1-2.7,1.9c-3.7,3.7-3.7,9.8,0,13.5c3.7,3.7,9.8,3.7,13.5,0
	c1-1,1.7-2.1,2.1-3.3l21.5-32.9"/>
<path fill="#FFFFFF" d="M37.6,83.5L37.6,83.5c-0.5-1.7-2.4-2.7-4.2-2.2l-5.2,1.6c-1.7,0.5-2.7,2.4-2.2,4.2h0
	c0.5,1.7,2.4,2.7,4.2,2.2l5.2-1.6C37.2,87.1,38.2,85.3,37.6,83.5z"/>
<path fill="#FFFFFF" d="M91.7,86L91.7,86c0.5-1.7,2.4-2.7,4.2-2.2l5.2,1.6c1.7,0.5,2.7,2.4,2.2,4.2v0c-0.5,1.7-2.4,2.7-4.2,2.2
	l-5.2-1.6C92.1,89.6,91.2,87.8,91.7,86z"/>
<path fill="#FFFFFF" d="M29,99l70.3,0.3l8.2,5.3c0,0-85.9-0.1-86.7-0.1S29,99,29,99z"/>
<path fill="#FFFFFF" d="M63.9,30.8c24.7,0,44.8,20.1,44.8,44.8c0,7.8-2,15.2-5.6,21.6l6.5,4.1c4.3-7.6,6.8-16.4,6.8-25.7
	c0-28.9-23.5-52.5-52.5-52.5c-28.9,0-52.5,23.5-52.5,52.5c0,9.4,2.5,18.2,6.8,25.9l6.5-4.1c-3.6-6.4-5.6-13.9-5.6-21.7
	C19.1,50.9,39.2,30.8,63.9,30.8z"/>
</svg>
