<?xml version="1.0" encoding="utf-8"?>
<!-- Generator: Adobe Illustrator 18.0.0, SVG Export Plug-In . SVG Version: 6.00 Build 0)  -->
<!DOCTYPE svg PUBLIC "-//W3C//DTD SVG 1.1//EN" "http://www.w3.org/Graphics/SVG/1.1/DTD/svg11.dtd">
<svg version="1.1" id="Layer_1" xmlns="http://www.w3.org/2000/svg" xmlns:xlink="http://www.w3.org/1999/xlink" x="0px" y="0px"
	 viewBox="0 0 128 128" enable-background="new 0 0 128 128" xml:space="preserve">
<g enable-background="new    ">
	<path opacity="0.15" fill="#FFFFFF" d="M77.1,58.4c5.4,2.3,10.1,5.9,13.5,10.5l16-9.4c-5.7-8.1-13.7-14.6-23-18.3L77.1,58.4z"/>
	<path opacity="0.15" fill="#FFFFFF" d="M93,72.5c2.7,4.8,4.3,10.2,4.3,16.1c0,0.2,0,0.3,0,0.3h18.6c0,0,0-0.1,0-0.3
		c0-9.5-2.6-18.2-7-25.8L93,72.5z"/>
	<path fill="#00C3FF" stroke="#A1EDFF" stroke-miterlimit="10" d="M56.5,56.7c2.5-0.6,5.1-0.9,7.7-0.9c3,0,6,0.4,8.8,1.2l6.7-17.2
		c-4.9-1.5-10-2.3-15.4-2.3c-5.1,0-10,0.7-14.6,2.1L56.5,56.7z"/>
	<path fill="#00C3FF" stroke="#A1EDFF" stroke-miterlimit="10" d="M38.3,68.4c3.7-4.7,8.6-8.3,14.2-10.5L46,40.8
		c-9.5,3.7-17.7,10.1-23.5,18.3L38.3,68.4z"/>
	<path fill="#00C3FF" stroke="#A1EDFF" stroke-miterlimit="10" d="M31.2,89c0,0,0-0.2,0-0.3c0-6.2,1.7-11.9,4.6-16.8l-15.7-9.4
		c-4.6,7.7-7.3,16.6-7.3,26.2c0,0.2,0,0.3,0,0.3H31.2z"/>
</g>
</svg>
