<?xml version="1.0" encoding="utf-8"?>
<!-- Generator: Adobe Illustrator 18.0.0, SVG Export Plug-In . SVG Version: 6.00 Build 0)  -->
<!DOCTYPE svg PUBLIC "-//W3C//DTD SVG 1.1//EN" "http://www.w3.org/Graphics/SVG/1.1/DTD/svg11.dtd">
<svg version="1.1" id="Layer_1" xmlns="http://www.w3.org/2000/svg" xmlns:xlink="http://www.w3.org/1999/xlink" x="0px" y="0px"
	 viewBox="0 0 128 128" enable-background="new 0 0 128 128" xml:space="preserve">
<path fill="#FFFFFF" d="M82.6,17.7l0.7,9.1l-40,0.5l1.8-9.6c0,0,7.9-2.7,17.9-2.7S82.6,17.7,82.6,17.7z"/>
<rect x="54.6" y="22.6" fill="#FFFFFF" width="18" height="10.8"/>
<rect x="86.3" y="68.7" fill="#FFFFFF" width="8.3" height="5.2"/>
<rect x="60.9" y="39.3" fill="#FFFFFF" width="5.2" height="8.3"/>
<rect x="34.1" y="68.3" fill="#FFFFFF" width="8.3" height="5.2"/>
<rect x="61.8" y="93" fill="#FFFFFF" width="5.2" height="8.3"/>
<path fill="#FFFFFF" d="M34.1,40.9L65,62.6c0.9,0.5,1.7,1.1,2.5,1.9c3.6,3.6,4.2,8.7,1.5,11.4c-2.7,2.7-7.8,2.1-11.4-1.5
	c-0.9-0.9-1.6-1.9-2.2-3L33.8,41.4"/>
<path fill="#FFFFFF" d="M36.5,52.4c-3.4,5.2-5.3,11.3-5.3,17.9c0,18.2,14.8,33,33,33s33-14.8,33-33c0-18.2-14.8-33-33-33
	c-7.2,0-13.9,2.3-19.3,6.3l-8.5-5.4c7.5-6.5,17.2-10.4,27.9-10.4c23.5,0,42.6,19.1,42.6,42.6s-19.1,42.6-42.6,42.6
	S21.7,93.8,21.7,70.3c0-10,3.5-19.2,9.3-26.5L36.5,52.4z"/>
</svg>
