<?xml version="1.0" encoding="utf-8"?>
<!-- Generator: Adobe Illustrator 18.0.0, SVG Export Plug-In . SVG Version: 6.00 Build 0)  -->
<!DOCTYPE svg PUBLIC "-//W3C//DTD SVG 1.1//EN" "http://www.w3.org/Graphics/SVG/1.1/DTD/svg11.dtd">
<svg version="1.1" id="Layer_1" xmlns="http://www.w3.org/2000/svg" xmlns:xlink="http://www.w3.org/1999/xlink" x="0px" y="0px"
	 viewBox="0 0 1024 1024" enable-background="new 0 0 1024 1024" xml:space="preserve">
<g>
	<path fill-rule="evenodd" clip-rule="evenodd" fill="#FFFFFF" d="M501.6,614.8c-29.3,41.7-58.5,87.5-52,99.3
		c9.2,9.8,63.9-27.1,103.3-55.6c-6.5-5.6-12.8-11.1-18.9-16.3C523.7,633.2,512.8,624.1,501.6,614.8z"/>
	<path fill-rule="evenodd" clip-rule="evenodd" fill="#FFFFFF" d="M254.5,578c17.9-4.5,64-40.3,106.1-74.4c-33-25.1-64-48.2-89.5-67
		C254.6,505.6,247.6,560.8,254.5,578z"/>
	<path fill-rule="evenodd" clip-rule="evenodd" fill="#FFFFFF" d="M595.3,387.3c-13.9-7.5-66.8,29.3-116.5,67.7
		c16.7,21.1,33.5,41.7,49.6,60.7C564.6,465.3,607.5,401.1,595.3,387.3z"/>
	<path fill-rule="evenodd" clip-rule="evenodd" fill="#FFFFFF" d="M725,592.6c-10.8-3.7-46.9,19.7-81.2,44.2
		c13.3,13.7,27.5,28.5,42.2,43.9C710.5,643.2,733.5,603,725,592.6z"/>
	<path fill-rule="evenodd" clip-rule="evenodd" fill="#FFFFFF" d="M624.9,842.1c17.1-3.9,55.7-30.3,80.2-47.3
		c-11-9.8-22.1-19.8-33.2-29.9C652.6,792.7,629.9,826.3,624.9,842.1z"/>
	<path fill-rule="evenodd" clip-rule="evenodd" fill="#FFFFFF" d="M425.5,0.3L7.7,416.4L7,1024.7l939.9-0.7l69.4-69.4l0.7-955.1
		L425.5,0.3z M894.4,938.8c-10,11.7-79.6-46.4-161.3-119.1c-0.9,0.6-1.8,1.3-2.7,1.9c-43.5,30.2-82.5,57.3-110.5,57.3
		c-9.1,0-17.1-2.9-23.7-9.5c-23.4-23.4,4.4-65.7,48.8-129c-21.9-19.7-43.4-39.2-63.9-57.4c-68.8,50.7-127,88.6-157.8,55.8
		c-26.8-28.6,3-80.7,50.2-147.2c-27.1-21.9-55.4-44.1-83-65.3c-93.5,76-137.5,107-161.5,78.6c-23.8-28.2-8.4-116.9,10.5-191.7
		c-21.9-16-35.2-25.5-35.2-25.5l61.4-65.9c0.8-2.4,1.5-4.7,2.2-6.8l3.2,1l57.4-61.6c0,0,60.5,84.9,128.1,171.8
		c82.8-64.5,137.4-95.5,166.1-63.2c31.3,35.2-12.3,102-69.6,180.8c12.8,14.4,24.9,27.2,35.7,37.6c8.5,8.2,18.4,18,29.3,29
		c61.5-44.5,109.7-72.4,135.2-40.9c24.1,29.7-2.9,80.8-41.5,138.3c15.8,16.8,31.7,34.1,47.2,51.2c19.4-11.5,33.4-16.6,45.3-14.3
		c7,1.3,12.9,5.2,16.7,10.9c15.2,22.8,10.6,57.5,5.2,79.9C871,888.8,901.3,930.7,894.4,938.8z"/>
	<path fill-rule="evenodd" clip-rule="evenodd" fill="#FFFFFF" d="M793.3,782c-2.7,1.1-6,2.7-9.7,4.7c3.8,4.3,7.5,8.5,11.2,12.7
		C795.1,792.9,794.7,786.9,793.3,782z"/>
</g>
</svg>
