<?xml version="1.0" encoding="utf-8"?>
<!-- Generator: Adobe Illustrator 19.0.0, SVG Export Plug-In . SVG Version: 6.00 Build 0)  -->
<svg version="1.1" id="Layer_1" xmlns="http://www.w3.org/2000/svg" xmlns:xlink="http://www.w3.org/1999/xlink" x="0px" y="0px"
	 viewBox="214 -92.1 1024 1024" style="enable-background:new 214 -92.1 1024 1024;" xml:space="preserve">
<style type="text/css">
	.st0{fill:#FFFFFF;}
</style>
<path id="XMLID_8_" class="st0" d="M1119.1-64.8L753.7-26.3c0,0-413.5,51.3-423.1,53.9s-63,77.4-65.9,86.1
	c-2.9,8.7-6.6,15.6-5.2,25.5c6.1,43.3,26.7,169.9,71,276.9C461.4,731.4,746,904.5,746,904.5s253.9-215.4,357.7-565.4
	C1176.8,104.4,1196,0.6,1196,0.6C1200.1-10.3,1134.5-66.1,1119.1-64.8z M960.4,354c-19.2,42.3-164.9,302.4-187.5,308.2
	c-7.5,1.9-36.3,2.6-40.4-1.9C728.5,655.7,596,527.6,534.4,407C496.1,331.9,496,235.2,496,235.2s6.3-51.9,30.8-53.9
	c23-1.8,417.8-40.7,439.9-41.8c9.6-0.5,46.6,28.4,43.8,39.9C1005,201.3,1002.3,270.8,960.4,354z"/>
<path id="XMLID_3_" class="st0" d="M895.1,348.6C879.9,382,764.9,587.4,747,592c-5.9,1.5-28.7,2.1-31.9-1.5
	c-3.2-3.6-107.8-104.8-156.4-200c-30.3-59.3-30.4-135.7-30.4-135.7s4.9-41,24.3-42.5c18.2-1.4,329.9-32.2,347.4-33
	c7.6-0.4,36.8,22.4,34.5,31.5C930.2,228.1,928.1,282.9,895.1,348.6z"/>
</svg>
