<?xml version="1.0" encoding="utf-8"?>
<!-- Generator: Adobe Illustrator 18.0.0, SVG Export Plug-In . SVG Version: 6.00 Build 0)  -->
<!DOCTYPE svg PUBLIC "-//W3C//DTD SVG 1.1//EN" "http://www.w3.org/Graphics/SVG/1.1/DTD/svg11.dtd">
<svg version="1.1" id="Layer_1" xmlns="http://www.w3.org/2000/svg" xmlns:xlink="http://www.w3.org/1999/xlink" x="0px" y="0px"
	 viewBox="0 0 1024 1024" enable-background="new 0 0 1024 1024" xml:space="preserve">
<path fill-rule="evenodd" clip-rule="evenodd" fill="#FFFFFF" d="M426.5,0.7L9.3,416.2l-0.7,607.4l938.5-0.7l69.3-69.3L1017,0
	L426.5,0.7z M173,662.5c-31.3-6.3-6.3-84.6,9.4-109.6c15.7-25,100.2-153.4,162.8-166c62.6-12.5,119,12.5,119,12.5s15.7,65.8,0,87.7
	C448.6,509,335.9,631.2,295.1,634.3C254.4,637.4,204.3,668.7,173,662.5z M724.4,753.6c-8.6,63.3-131.6,155.6-155.6,172.8
	c-24,17.2-100.6,47-108.8,16.2c-8.2-30.9,20-82.8,20.6-123.6C481.2,778.1,596.1,658,617,641.1c20.9-17,87.5-5.4,87.5-5.4
	S733,690.3,724.4,753.6z M717.9,615.5c0,0-62.6-15.7-103.4,3.1C573.9,637.4,458,790.9,458,790.9s-106.5,9.4-144-18.8
	c-37.6-28.2-3.1-109.6-3.1-109.6s159.7-137.2,178.5-177.9c18.8-40.7-1.6-82.4-1.6-82.4l-4.7-18.4c0,0,313.2-263.1,397.7-181.7
	C965.3,283.5,717.9,615.5,717.9,615.5z"/>
</svg>
