<?xml version="1.0" encoding="utf-8"?>
<!-- Generator: Adobe Illustrator 19.0.0, SVG Export Plug-In . SVG Version: 6.00 Build 0)  -->
<svg version="1.1" id="Layer_1" xmlns="http://www.w3.org/2000/svg" xmlns:xlink="http://www.w3.org/1999/xlink" x="0px" y="0px"
	 viewBox="0 0 100 100" style="enable-background:new 0 0 100 100;" xml:space="preserve">
<style type="text/css">
	.st0{fill:#FFFFFF;}
</style>
<path id="XMLID_143_" class="st0" d="M84.4,16.5c-13.9-13.9-36.6-13.9-50.6,0c-6.8,6.8-10.5,15.7-10.5,25.3c0,4.3,0.8,8.6,2.3,12.5
	c-0.3,0.2-0.5,0.4-0.7,0.7L8.6,71.2c-3.5,3.5-3.5,9.2,0,12.6l7.4,7.4c3.5,3.5,9.2,3.5,12.6,0L44.9,75c0.1-0.1,0.2-0.2,0.3-0.3
	c4.5,1.9,9.2,2.8,14,2.8c9.2,0,18.3-3.5,25.3-10.5c6.8-6.8,10.5-15.7,10.5-25.3S91.2,23.3,84.4,16.5z M76,58.7
	c-9.3,9.3-24.4,9.3-33.7,0c-4.5-4.5-7-10.5-7-16.9c0-6.4,2.5-12.4,7-16.9c4.6-4.6,10.8-7,16.9-7s12.2,2.3,16.9,7
	c4.5,4.5,7,10.5,7,16.9C83,48.2,80.5,54.1,76,58.7z"/>
</svg>
