<svg xmlns="http://www.w3.org/2000/svg" width="256" height="256" viewBox="0 0 256 256">
  <defs>
    <style>
      .cls-1 {
        fill: #1c1b18;
        opacity: 0.7;
      }

      .cls-2 {
        fill: #fff;
      }

      .cls-2, .cls-3, .cls-4 {
        fill-rule: evenodd;
      }

      .cls-3 {
        fill: #f30003;
      }

      .cls-4 {
        fill: #19f6ff;
      }
    </style>
  </defs>
  <circle id="fog_dark" data-name="fog dark" class="cls-1" cx="128" cy="128" r="128"/>
  <path id="Ring_merged" data-name="Ring merged" class="cls-2" d="M128,256A128,128,0,1,1,256,128,128,128,0,0,1,128,256ZM128,4A124,124,0,1,0,252,128,124,124,0,0,0,128,4Z"/>
  <g id="Work_Layers">
    <g id="ARENA_copy" data-name="ARENA copy">
      <path id="Ellipse_2_copy" data-name="Ellipse 2 copy" class="cls-2" d="M153,232c11.736-7.185,34.469-6.917,44.735-6.373A119.294,119.294,0,0,1,142.4,247.109C143.257,242.094,145.955,236.313,153,232Zm49.658-10.087c-15.7-2.428-48.337-2.429-58.658,11.087-4.345,5.69-5.595,10.59-5.459,14.512-1.122.1-2.246,0.19-3.376,0.257a77.908,77.908,0,0,1,15.05-105.61,36.691,36.691,0,0,1,8.322,1.343c-6.154,5.247-10.506,11.734-11.881,18.664-3.276,16.512,11.479,29.092,33.008,27.82s41.118-15.764,43.71-32.094c1.78-11.207-4.954-20.387-16.286-24.531a177.422,177.422,0,0,1,17.634-4A77.882,77.882,0,0,1,247.2,141.706,119.8,119.8,0,0,1,202.658,221.913ZM240,123s-22.355,1.608-36,6-19.272,9.116-29,10-21.574-4.246-26-1l-2-6s10.365-12.243,38-19,57,4,57,4ZM146,16c-0.181-.452,4.7,19.219,3,23s-21.2,20.223-24,21-20.041-13.035-22-15-3-30-3-30,6.486,3.783,12.863,7.271a43.248,43.248,0,0,1,18.964,2.1C138.026,20.941,146.117,16.292,146,16ZM80.043,190.273a39.823,39.823,0,0,1-32.831,3.77A106.784,106.784,0,0,0,80.043,190.273Zm6.989-91.355a301.889,301.889,0,0,0,51.119,7A44.468,44.468,0,0,1,87.032,98.918ZM153,41a3.39,3.39,0,0,0,.233-1.022,44.508,44.508,0,0,1-12.7,64.6c-5.148-.5-14-1.425-22.536-2.58-7.846-1.062-28.726-6.011-35.114-7.545A44.485,44.485,0,0,1,97.053,26.979C97.179,34.386,97.6,47.594,99,49a88.763,88.763,0,0,0,8.04,5.718,24.59,24.59,0,0,0-4.851,13.913c-0.409,13.187,9.681,23.987,22.536,24.123s23.606-10.444,24.014-23.63a23.628,23.628,0,0,0-6.452-17.108C147.573,47.263,152.259,42.647,153,41ZM63.561,155.843s-10.141-3.62-12-5.1-8.018-33.563-8.018-33.563l7.142-15.744s13.071,12.143,13.769,14.384c0.147,0.471.737,2.122,1.572,4.423,17.493,2.788,31.325,17.046,32.5,35.083a37.715,37.715,0,0,1-12.4,30.405,143.069,143.069,0,0,1-20.278,5.219c-8.277,1.23-19.556.912-24.41,0.693a37.739,37.739,0,0,1,.534-67.737C43.308,133.24,46.546,154.844,48,156a4.854,4.854,0,0,0,1.253.592,20.671,20.671,0,0,0-.849,6.55,19.912,19.912,0,0,0,21.051,19.337,20.964,20.964,0,0,0,19.687-21.565,19.908,19.908,0,0,0-15.058-18.751c1.035,2.8,1.722,4.655,1.722,4.655Z"/>
      <path id="Ellipse_2_copy_3" data-name="Ellipse 2 copy 3" class="cls-3" d="M161.344,144.181c2.175,0.526,4.411,1.034,6.609,1.4a9.129,9.129,0,0,0-2.441,5.325c-0.262,4.916,5.483,7.514,12.492,6.2,6.678-1.255,12.756-5.757,13.929-10.4a5.428,5.428,0,0,0-2.172-6.019,108.567,108.567,0,0,1,12.048-5.562,11.494,11.494,0,0,1,4.924,11.432c-1.447,10.294-14.039,20.549-28.124,22.907s-24.329-4.075-22.881-14.369A21.142,21.142,0,0,1,161.344,144.181Z"/>
      <path id="Ellipse_2_copy_4" data-name="Ellipse 2 copy 4" class="cls-4" d="M137.9,73.786A13.612,13.612,0,0,1,123,86.519c-7.573-.831-13.182-7.88-12.527-15.743a14.068,14.068,0,0,1,5.729-10.3c4.653,2.755,8.709,4.829,9.8,4.526,0.781-.217,3.1-1.894,6.078-4.277A14.813,14.813,0,0,1,137.9,73.786ZM124.5,67a7.525,7.525,0,0,0-7.5,7.219A7.014,7.014,0,0,0,124.5,81a7.525,7.525,0,0,0,7.5-7.219A7.014,7.014,0,0,0,124.5,67ZM76.652,173.2a10.527,10.527,0,0,1-12.513-7.929,11.333,11.333,0,0,1,.027-5.417L65,160l10.739-8.786a10.438,10.438,0,0,1,9.412,9.052A11.45,11.45,0,0,1,76.652,173.2Zm5.336-12.341a5.273,5.273,0,0,0-6.535-4.219,5.8,5.8,0,0,0-4.329,6.791,5.331,5.331,0,0,0,6.467,4.013A5.8,5.8,0,0,0,81.987,160.863Z"/>
    </g>
  </g>
</svg>
