<svg xmlns="http://www.w3.org/2000/svg" width="256" height="256" viewBox="0 0 256 256">
  <defs>
    <style>
      .cls-1 {
        fill: #1c1b18;
        opacity: 0.7;
      }

      .cls-2 {
        fill: #fff;
      }

      .cls-2, .cls-3 {
        fill-rule: evenodd;
      }

      .cls-3 {
        fill: #df4318;
      }
    </style>
  </defs>
  <circle id="fog_dark" data-name="fog dark" class="cls-1" cx="128" cy="128" r="128"/>
  <path id="Ring_merged" data-name="Ring merged" class="cls-2" d="M128,256A128,128,0,1,1,256,128,128,128,0,0,1,128,256ZM128,4A124,124,0,1,0,252,128,124,124,0,0,0,128,4Z"/>
  <g id="Work_Layers">
    <g id="brawl">
      <path class="cls-3" d="M128,248a119.628,119.628,0,0,1-85.688-36L53,211a85.272,85.272,0,0,0-27-22s16.029,0.147,28.733.369C42.67,164.559,31,141,31,141l45.768,45.767a9.511,9.511,0,0,0,1.675-2.248s-25.22-17.2-2.113-45.692c13.336-13.293,18.035-11.369,25.319-11.774,0,0,8.537-15.909,20.782-5.378,0,0,5.386-43.944,30.369-44.876,19.1-.712,21.742,24.948,22.2,33.2,0.558,10.027-.765,24.938-7.911,34.867a24.978,24.978,0,0,0-2.7.805C186.19,143.816,172,171,172,171a26.621,26.621,0,0,1,15.008,13.95L189,192l48-51-26,56a83.25,83.25,0,0,1,18.435-4.866A119.906,119.906,0,0,1,128,248Zm-7.523-103.855c-12.863-.109-18.1,14.11-18.1,14.11C87.037,161.692,90,181.312,90,181.312,91.379,159.5,109,168,109,168s-3.942-10.942,5.008-16.668c8.926-5.71,16.4.908,16.4,0.908S129.711,144.44,120.477,144.145ZM189,203c2.132-18.549-21.046-16.678-21.046-16.678C193.262,205.044,169,209,169,209c18.147,8.723,4,21,4,21,1.379,0.039,9.549,3.3,16-4C194.319,219.983,189,203,189,203Z"/>
      <path class="cls-2" d="M233.007,179.408s-25.919,19.921-25.08,25.931,3.172,4.828,6.945,4.116a8.894,8.894,0,0,1,1.324-.093A120,120,0,0,1,60.174,227c4.482-1.544,11.6-3.637,12.367-3.59,1.077,0.066-16.77-20.322-31.074-29.32,0,0,31.423,17.342,34.835,15.139s0.3-8.305-3.6-12.6S20,125,20,125s53.936,62.339,77,74c0.867-.349,6.476.886,14.121-3.288,7.629-4.164,11.288,1.523,11.288,1.523s23.9-51.8,29.014-85.093c1.468-9.927,6.5-6.46,1.814,5.719-4.695,12.214-13.338,67-10.447,84.2,0,0,14.148,7.567,12.867,12.022,0,0,8.018-8.25,6.49-9.155,1.058-.142,16.226,10.253,4.251,22.964a31.976,31.976,0,0,0,8.578,1.007c-0.278.214-.447,0.33-0.447,0.33a12.145,12.145,0,0,0,3.246-.608,11.127,11.127,0,0,0,6.081-2.866,24.716,24.716,0,0,0,4.184-3.458c5.593-5.762-1.356-18.972-1.356-18.972,1.3-11.29-5.921-15.131-11.771-16.412,1.631-.982,5.606-2.357,12.618,1.067l-0.306.287s11.1,5.3,1.014.052c0.4-.7.758-1.367,1.09-2.025,8.868-8.333,43.591-41.164,49.062-49.484,0,0-30.252,49.13-33.206,59.915C206.03,196.382,229.1,182.34,233.007,179.408Zm-44.931,8.063c0.114,0.523.163,0.849,0.163,0.849-0.245-.127-0.47-0.223-0.708-0.339Zm39.373-91.845c3.748,2.6-6.844,19.952-6.844,19.952s-9.365,3.655-11.08,7.3c-1.463,3.107-4.108-12.573-2.638-14C206.887,108.878,224.415,93.518,227.449,95.626ZM90.668,176.517A45.33,45.33,0,0,0,90,182s-7.147-24.308,10.377-27.745c0,0,5.237-14.219,18.1-14.11,7.456,0.238,9.346,5.365,9.8,7.332-1.438-1.687-3.825-3.205-7.8-3.332-12.863-.109-18.1,14.11-18.1,14.11C87.037,161.692,90,181.312,90,181.312A30.54,30.54,0,0,1,90.668,176.517ZM148.1,41.247c20.649-12.686,37.037-3.584,40.686,19.327,3.66,22.973.214,53.646-2.209,61.12,0,0,12.853.791,11.735,10.944,0,0,1.893,14.208-3.651,17.543,0,0,6.094,9,.414,16.886-0.42.583-1.845,3.527-3.867,4.883-2.161-5.358-7.671-7.059-7.2-7.361,0.792-.5,2.2-13.035-3.4-18-2.39-2.119-5.688-2.591-8.688-2.442a18.108,18.108,0,0,0-2.39-.056s8.66-12.766,9.138-27.522c0.459-14.145-2.688-24.3-5.829-30.816C169.032,70.374,149.519,68.611,138,74c-12.984,6.074-21.242,36.076-21.242,36.076-11.235-2.843-15.775,8.464-15.775,8.464-15.207-.573-17.555,1.523-28.621,16.277a47.086,47.086,0,0,0-9.3,21.527C61.869,151.51,61.5,142.8,67.4,129.8c9.653-21.247,15.707-21.555,19.636-22.439,0.458-.748,5.97-23.826,24.6-21.954C111.64,85.41,127.323,54.014,148.1,41.247ZM80,49c1.639,6.468-8,22-8,22s-8.468,2.392-10,6-8.939-19.586-7-21S78.361,42.532,80,49Z"/>
    </g>
  </g>
</svg>
