<svg xmlns="http://www.w3.org/2000/svg" width="256" height="256" viewBox="0 0 256 256">
  <defs>
    <style>
      .cls-1 {
        fill: #1c1b18;
        opacity: 0.7;
      }

      .cls-2 {
        fill: #fff;
      }

      .cls-2, .cls-3 {
        fill-rule: evenodd;
      }

      .cls-3 {
        fill: #b81615;
      }
    </style>
  </defs>
  <circle id="fog_dark" data-name="fog dark" class="cls-1" cx="128" cy="128" r="128"/>
  <path id="Ring_merged" data-name="Ring merged" class="cls-2" d="M128,256A128,128,0,1,1,256,128,128,128,0,0,1,128,256ZM128,4A124,124,0,1,0,252,128,124,124,0,0,0,128,4Z"/>
  <g id="Work_Layers">
    <g id="CTF01">
      <path id="_01" data-name="01" class="cls-2" d="M128,248c-0.991,0-1.978-.014-2.963-0.037L38,100s-3.227-5.645,5-4l94.857,151.6C134.606,247.859,131.32,248,128,248Z"/>
      <path id="_02" data-name="02" class="cls-3" d="M230,81s7.927,27.264-44,37c0,0,15.481,10.938,33,4,0,0-7.106,17.545-41,9s-46.4-17.027-75,2c-11.5,7.534-18.339,14.17-21.883,18.134C86.685,156.916,79.691,184.392,73,192c-3.368,3.829,16.972,2.265,32-1,11.457-2.489,40.986,24.028,42.4,55.432q-2.745.446-5.532,0.766C139.846,220.165,117.12,192.724,104,196c-15.863,3.961-40.284,3.848-35-4,6-8.912,13.314-31,9.348-37.494C78.117,154.824,78,155,78,155s0.057-.291.144-0.791C78.1,154.141,78.052,154.064,78,154c-2.347-2.868,1-16,1-16l0.286-.095C78.955,126.545,75.91,112.86,64,108c-19.128-7.806-22-8-22-8s43.445-51.714,96-43c28.813,6.839,43.132,33.892,60,37S229.818,89.184,230,81Z"/>
    </g>
  </g>
</svg>
