<svg xmlns="http://www.w3.org/2000/svg" width="256" height="256" viewBox="0 0 256 256">
  <defs>
    <style>
      .cls-1 {
        fill: #1c1b18;
        opacity: 0.7;
      }

      .cls-2 {
        fill: #fff;
      }

      .cls-2, .cls-3, .cls-4, .cls-5 {
        fill-rule: evenodd;
      }

      .cls-3 {
        fill: #e6e6e6;
      }

      .cls-4 {
        fill: #f30003;
      }

      .cls-5 {
        fill: #19f6ff;
      }
    </style>
  </defs>
  <circle id="fog_dark" data-name="fog dark" class="cls-1" cx="128" cy="128" r="128"/>
  <path id="Ring_merged" data-name="Ring merged" class="cls-2" d="M128,256A128,128,0,1,1,256,128,128,128,0,0,1,128,256ZM128,4A124,124,0,1,0,252,128,124,124,0,0,0,128,4Z"/>
  <g id="Work_Layers">
    <g id="duel">
      <path class="cls-3" d="M247,128.5a118.511,118.511,0,0,1-4.35,31.795,255.993,255.993,0,0,0-39.87,6.82c-13.79,3.674-21.769,8.619-25.7,11.658a62.927,62.927,0,0,1-30.706-44.089l0.29-.073c3.274,13.139,12.6,23.259,22.767,22.941,12.009-.376,19.411-15.026,16.422-31.662-2.8-15.579-13.709-26.649-24.289-25.622-0.136.014-.266,0.046-0.4,0.063,3.55-9.5,9.47-20.6,19.193-32.552a63.085,63.085,0,0,1,47.715-3.492A117.9,117.9,0,0,1,247,128.5ZM139.285,79.6s22.591-24.657,47.959-33.793c0,0-23.869,30.321-35.88,59.088-0.218.645-.437,1.276-0.654,1.938-0.118.159-.224,0.335-0.339,0.5a81.391,81.391,0,0,0-5.451,19.948l-1.991.193s-16.7-21.95-18.255-53.486Zm40.807,100.8c2.751-2.669,9.316-6.145,24.173-9.947a322.7,322.7,0,0,1,37.584-7.338,117.656,117.656,0,0,1-7.387,18.423A62.813,62.813,0,0,1,180.092,180.4ZM78.713,62.613s39.233,10,45.364,38.775c2.048,9.612-7.516,29.2-13.435,34.78C104.3,98.816,93.868,81.424,85.485,73.329,83.209,69.479,80.92,65.864,78.713,62.613ZM49.055,176.131c14.616,4.692,20.959,8.558,23.54,11.388a62.811,62.811,0,0,1-45.93,1.574A117.939,117.939,0,0,1,16.6,167.49,326.48,326.48,0,0,1,49.055,176.131Zm8.417-108.7A62.626,62.626,0,0,1,82.046,76.9a84.389,84.389,0,0,1,14.92,31.987c-0.357-.087-0.706-0.2-1.073-0.254-10.5-1.66-22.054,8.735-25.783,24.118-3.983,16.426,2.526,31.494,14.492,32.59,10.133,0.928,20.046-8.614,24.1-21.533l0.285,0.091A62.943,62.943,0,0,1,75.7,186.073c-3.738-3.269-11.407-8.688-24.962-13.187a248.251,248.251,0,0,0-35.192-8.5,118.621,118.621,0,0,1,9.408-93.5A62.682,62.682,0,0,1,57.472,67.434Z"/>
      <path id="Ellipse_11_copy" data-name="Ellipse 11 copy" class="cls-4" d="M153.206,132.944c1.167,4.544,4.068,8.064,7.183,8.069,3.793,0.007,6.069-5.156,5.054-11.151-0.95-5.615-4.443-9.71-7.781-9.466a3.81,3.81,0,0,0-1.365.373,71.62,71.62,0,0,1,1.113-7.446,6.827,6.827,0,0,1,.911-0.138c5.841-.432,11.925,6.444,13.552,15.9,1.737,10.094-2.278,18.805-8.912,18.818-5.608.01-10.8-6.241-12.688-14.209Z"/>
      <path id="Ellipse_11_copy_2" data-name="Ellipse 11 copy 2" class="cls-5" d="M98.355,121.722a6.876,6.876,0,0,1,.775.166c0.264,2.672.4,5.145,0.459,7.362a3.785,3.785,0,0,0-1.01-.29c-3.317-.444-7.05,3.434-8.335,8.982-1.373,5.924.589,11.213,4.375,11.434,3.111,0.182,6.218-3.157,7.654-7.623l2.884,0.922c-2.361,7.84-7.922,13.768-13.519,13.421-6.621-.411-10.106-9.347-7.766-19.319C86.064,127.439,92.55,120.941,98.355,121.722Z"/>
    </g>
  </g>
</svg>
