<svg xmlns="http://www.w3.org/2000/svg" width="256" height="256" viewBox="0 0 256 256">
  <defs>
    <style>
      .cls-1 {
        fill: #1c1b18;
        opacity: 0.7;
      }

      .cls-2 {
        fill: #fff;
      }

      .cls-2, .cls-3 {
        fill-rule: evenodd;
      }

      .cls-3 {
        fill: #1ebfed;
      }
    </style>
  </defs>
  <circle id="fog_dark" data-name="fog dark" class="cls-1" cx="128" cy="128" r="128"/>
  <path id="Ring_merged" data-name="Ring merged" class="cls-2" d="M128,256A128,128,0,1,1,256,128,128,128,0,0,1,128,256ZM128,4A124,124,0,1,0,252,128,124,124,0,0,0,128,4Z"/>
  <g id="Work_Layers">
    <g id="Instagib">
      <path id="fog_dark_copy_3" data-name="fog dark copy 3" class="cls-3" d="M206.45,109.189a4.062,4.062,0,0,1-4.065-4.058h-0.267a77.739,77.739,0,0,0-51.762-51.1V54.007a4.061,4.061,0,0,1-4.065-4.057c0-2.241,1.484-7.79,3.831-7.79v-0.2a90.174,90.174,0,0,1,62.114,59.679,4.2,4.2,0,0,1,.779,2.434C213.015,106.413,208.694,109.189,206.45,109.189Zm-58.021-3.443,31.58-22.13-37.038,35.709a17.576,17.576,0,0,0-5.747-6.376c2.985-5.129,10.077-18.579,10.077-18.579Zm-6.164,31.126,37.744,36.512-31.459-22.13-1.126,11.377s-9.029-17.15-10.986-20.1A17.568,17.568,0,0,0,142.265,136.872Zm-33.553,15.52L75.231,174.008l38.853-35.276a17.546,17.546,0,0,0,6.719,4.938c-1.959,2.962-10.966,20.1-10.966,20.1Zm3.709-33.748L73.991,82.992l32.586,21.616L107.7,93.231s7.975,15.149,10.559,19.421A17.564,17.564,0,0,0,112.421,118.644ZM105.644,53.83v0.024a77.861,77.861,0,0,0-51.762,51.264H53.615a4.068,4.068,0,0,1-4.065,4.071c-2.245,0-9.066-2.782-9.066-5.131a4.229,4.229,0,0,1,.779-2.443,90.306,90.306,0,0,1,62.114-59.87v0.2c2.347,0,6.332,5.564,6.332,7.812A4.068,4.068,0,0,1,105.644,53.83ZM49.55,148.265a4.055,4.055,0,0,1,4.065,4.045h0.266a77.622,77.622,0,0,0,51.762,50.937v0.023a4.055,4.055,0,0,1,4.065,4.045c0,2.234-3.985,7.777-6.332,7.777v0.2a90.047,90.047,0,0,1-62.114-59.488,4.184,4.184,0,0,1-.779-2.427C40.485,151.044,47.306,148.265,49.55,148.265Zm100.806,55.182v-0.024a77.741,77.741,0,0,0,51.762-51.1h0.267a4.062,4.062,0,0,1,4.065-4.058c2.244,0,6.565,2.785,6.565,5.127a4.2,4.2,0,0,1-.779,2.434,90.172,90.172,0,0,1-62.114,59.679v-0.2c-2.347,0-3.831-5.558-3.831-7.8A4.061,4.061,0,0,1,150.356,203.447Z"/>
      <path id="fog_dark_copy_2" data-name="fog dark copy 2" class="cls-2" d="M212.331,106.185a4.429,4.429,0,0,1-4.434-4.424h-0.291A84.781,84.781,0,0,0,151.138,46.05V46.024a4.424,4.424,0,1,1,0-8.847V36.967a94.083,94.083,0,0,1,64.815,62.255A4.413,4.413,0,0,1,212.331,106.185Zm-84.956,35.567a14.378,14.378,0,1,1,14.377-14.377A14.377,14.377,0,0,1,127.375,141.752Zm-25.014,75.822v0.21a93.951,93.951,0,0,1-64.815-62.056,4.36,4.36,0,0,1-.812-2.532,4.434,4.434,0,0,1,8.868,0h0.291a84.655,84.655,0,0,0,56.468,55.534v0.025A4.41,4.41,0,1,1,102.361,217.574Zm0-171.742v0.026a84.914,84.914,0,0,0-56.468,55.89H45.6A4.434,4.434,0,1,1,37.547,99.2a94.219,94.219,0,0,1,64.815-62.454v0.211A4.438,4.438,0,0,1,102.361,45.832Zm48.777,163.116v-0.025a84.782,84.782,0,0,0,56.468-55.712H207.9a4.434,4.434,0,0,1,8.868,0,4.384,4.384,0,0,1-.812,2.54,94.082,94.082,0,0,1-64.815,62.255v-0.211A4.424,4.424,0,1,1,151.138,208.947Z"/>
    </g>
  </g>
</svg>
