<svg xmlns="http://www.w3.org/2000/svg" width="256" height="256" viewBox="0 0 256 256">
  <defs>
    <style>
      .cls-1 {
        fill: #1c1b18;
        opacity: 0.7;
      }

      .cls-2 {
        fill: #fff;
      }

      .cls-2, .cls-3 {
        fill-rule: evenodd;
      }

      .cls-3 {
        fill: #e57100;
      }
    </style>
  </defs>
  <circle id="fog_dark" data-name="fog dark" class="cls-1" cx="128" cy="128" r="128"/>
  <path id="Ring_merged" data-name="Ring merged" class="cls-2" d="M128,256A128,128,0,1,1,256,128,128,128,0,0,1,128,256ZM128,4A124,124,0,1,0,252,128,124,124,0,0,0,128,4Z"/>
  <g id="Work_Layers">
    <g id="MCG">
      <path id="MCguff_copy_3" data-name="MCguff copy 3" class="cls-2" d="M219.111,172.307c-6.266,3.907-8.654,1.588-11.866,9.393s-8.116,17.676-12.714,19.7c0,0,3.378,3.289,4.789,1.361s-6.953,15.131-30.432,12.443c0,0,1.185,4.777-4.553,2.036s-19.393-8.84-19.393-8.84l-2.878,3.622s-11.768-4.547-13.52-14.386c0,0-21.885,12.065-25.761,12.106s-8.8-1.334-10.663,4.185a4.392,4.392,0,0,1-.354-5.1s-15.219,5.366-23.474-.01-10.151-6.5-12.929-5.893l2.76-5.321s-8.148-4.177-11.114-24.8c-0.966-6.761-11.011-6.659-18.921-2.046,0,0,6.929-18.626,27.673-7.123,3.742,2.339,2.389,4.75,3.468,4.871s4.553-2.036,4.553-2.036,1.842,17.439,9.084,18.121c0.778-.735,1.321-3.51,1.321-3.51s7.337-.179,9.342-0.676,14.214-1.855,15.334-4.523,15.4-20.094,31.141-2.251c0.915,1.037,9.855-11.245,21.68-3.275s17.308,15.881,24.3,11.9l-2.878,3.622s10.436-1.193,13.541-7.807,10.057-10.632,16.419-11.43,14.426,1.254,16.773-6.334C219.841,160.3,225.377,168.4,219.111,172.307ZM151,137c-34.713,9.493-61,3-61,3s-24.944-3.445-24-10c0.937-6.508,5.258-13.549,8-12,2.724,1.539,16,3,16,3l-2.714-13.219S63.768,38.224,65,32c1.606-8.114,33.592-19.254,50.5-20.328,14.754-.938,38.114-2.512,40.628,8.49s15.406,86.886,15.406,86.886S189.049,99.4,192,102C199.616,108.717,196.659,124.513,151,137Z"/>
      <path id="MCguff_copy_6" data-name="MCguff copy 6" class="cls-3" d="M83,97s44.757,10.108,85-12l5.715,20.855S144.545,138.734,89,121Z"/>
    </g>
  </g>
</svg>
