<svg xmlns="http://www.w3.org/2000/svg" width="256" height="256" viewBox="0 0 256 256">
  <defs>
    <style>
      .cls-1 {
        fill: #1c1b18;
        opacity: 0.7;
      }

      .cls-2 {
        fill: #fff;
      }

      .cls-2, .cls-3 {
        fill-rule: evenodd;
      }

      .cls-3 {
        fill: #b26fd1;
      }
    </style>
  </defs>
  <circle id="fog_dark" data-name="fog dark" class="cls-1" cx="128" cy="128" r="128"/>
  <path id="Ring_merged" data-name="Ring merged" class="cls-2" d="M128,256A128,128,0,1,1,256,128,128,128,0,0,1,128,256ZM128,4A124,124,0,1,0,252,128,124,124,0,0,0,128,4Z"/>
  <g id="Work_Layers">
    <g id="race">
      <path id="Rectangle_1_copy_3" data-name="Rectangle 1 copy 3" class="cls-3" d="M31.673,166.293c5.245-1.841,10.851-3.53,16.765-5.055L21.41,183.164q-1.894-3.652-3.54-7.449ZM105.1,152.679L63.432,229.164a120.5,120.5,0,0,1-17.9-13.995l48.36-61.627Q99.416,153.028,105.1,152.679Zm-34.9,3.953q4.719-.8,9.611-1.472L35.531,204.483a120.337,120.337,0,0,1-7.684-10.373Zm47.021-4.488q2.373-.066,4.769-0.1l-8.558,95.072a119.18,119.18,0,0,1-27.446-6.686ZM220.184,204.82l-44.123-49.542q4.923,0.689,9.672,1.511L227.964,194.4A120.328,120.328,0,0,1,220.184,204.82Zm-10.1,10.706A120.43,120.43,0,0,1,192,229.519L150.713,152.73q5.694,0.36,11.23.891Zm-40.809,25.187a119.24,119.24,0,0,1-27.582,6.5L133.8,152.056q2.4,0.04,4.774.108Zm65.376-57.659-25.932-21.248c6.262,1.68,12.159,3.547,17.634,5.583l11.856,8.149Q236.554,179.366,234.649,183.054Z"/>
      <path class="cls-2" d="M223.718,200.36l-10.71-60.834C198.844,130,157.215,104.287,124,107a154.274,154.274,0,0,0-78.481,29.532l-11.6,65.907q-3.426-4.323-6.454-8.957L55,73l0.059,0.235L56,69s69.72-41.516,146-1l2,9.374,26.013,113.808Q227.072,195.921,223.718,200.36ZM131.088,83.013l0.175,0L131.087,83v0.01Zm-28.055,24.253,0.956-21.023a154.457,154.457,0,0,0-27.848,9.236C75.419,95.806,75,96,75,96l0-.024-0.089.039-1.775,21.3A149.859,149.859,0,0,1,103.033,107.266ZM55,87l-5,22a139.7,139.7,0,0,1,21.657-12.09L75,95l-0.037.441,0.15-.063,3.679-20.237A158.545,158.545,0,0,0,55,87Zm99.27-31.108a161.008,161.008,0,0,0-23.451-1.532L130,65c-10.149-.08-25,2-25,2l0.827-10.75A216.817,216.817,0,0,0,82,61L80.084,73.454C86.887,70.346,105,67,105,67l-0.019.366a150.452,150.452,0,0,1,16.981-1.889,159.423,159.423,0,0,0-17,2.2L104,86c-3.461.092-9.429,2.01-15.054,4.142A148.52,148.52,0,0,1,104,86.081L104,86c1.218-2.843,27-4,27-4V65c2.134-.388,23.009,1.791,24.855,1.985ZM156.1,68.03L158,87c-3.3-3.027-23.635-3.878-26.621-3.987-0.1,0-.193.005-0.29,0.006l1.826,21.009a96.042,96.042,0,0,1,26.99,4.836L158,86c8.787,1.211,27,10,27,10l0.027,0.178c1.111,0.544,2.22,1.09,3.282,1.646C186.307,96.69,185,96,185,96l-4.9-20.57c-1.067-.455-2.158-0.909-3.285-1.358ZM199,71s-7.119-5.053-20.812-9.591L180,75l-1.031-.3c0.355,0.145.711,0.3,1.066,0.45L180,75c3.467,1.04,17.769,9.046,21.881,11.367Zm8,36,0.757,3.787c0.079,0.071.165,0.143,0.243,0.213Zm1,5s-8.358-8.045-22.948-15.661l3.832,24.909A214.352,214.352,0,0,1,213,136Z"/>
    </g>
  </g>
</svg>
