<svg xmlns="http://www.w3.org/2000/svg" width="256" height="256" viewBox="0 0 256 256">
  <defs>
    <style>
      .cls-1 {
        fill: #1c1b18;
        opacity: 0.7;
      }

      .cls-2 {
        fill: #fff;
      }

      .cls-2, .cls-3, .cls-4, .cls-5 {
        fill-rule: evenodd;
      }

      .cls-3 {
        fill: #e6e6e6;
      }

      .cls-4 {
        fill: #f30003;
      }

      .cls-5 {
        fill: #19f6ff;
      }
    </style>
  </defs>
  <circle id="fog_dark" data-name="fog dark" class="cls-1" cx="128" cy="128" r="128"/>
  <path id="Ring_merged" data-name="Ring merged" class="cls-2" d="M128,256A128,128,0,1,1,256,128,128,128,0,0,1,128,256ZM128,4A124,124,0,1,0,252,128,124,124,0,0,0,128,4Z"/>
  <g id="Work_Layers">
    <g id="TDM">
      <path class="cls-3" d="M174.164,238.792a119.067,119.067,0,0,1-24.658,7.283q-1.635-1.144-3.195-2.382c3.237-2.054,10.372-4.12,25.692-4.818C172.737,238.841,173.442,238.821,174.164,238.792Zm8.148-3.762c-3.727-.007-7.446.07-11.084,0.272-14.249.79-23.067,4.007-27.534,6.182a62.922,62.922,0,0,1-21.089-49.415l0.317-.014c0.529,13.53,7.581,25.337,17.6,27.1,11.835,2.077,22.064-10.76,22.523-27.656,0.43-15.823-8-28.882-18.565-30.03-0.136-.014-0.269-0.009-0.405-0.019,5.41-8.581,13.466-18.246,25.417-27.964A63.031,63.031,0,0,1,241.822,166.1,120.362,120.362,0,0,1,182.312,235.03ZM233.1,108.474a37.575,37.575,0,0,1-47.311,11.15c1.645-1.588,5.571-3.65,14.456-5.888A173.518,173.518,0,0,1,233.1,108.474Zm7.367-22.392a37.446,37.446,0,0,1-6.4,21.032,162.925,162.925,0,0,0-34.7,4.625c-8.246,2.164-13.021,5.1-15.372,6.905a37.559,37.559,0,0,1-18.551-28.85l0.05-.007c1.283,8.987,7.305,16.353,13.987,16.169,7.17-.2,11.621-8.926,9.874-18.863-1.564-8.894-7.56-15.329-13.6-15.367A52.175,52.175,0,0,1,189.19,51.1,37.458,37.458,0,0,1,222.5,54.034,119.812,119.812,0,0,1,240.468,86.082ZM151.1,65.818c0.2,6.082-7.772,16.974-11.987,19.725,0.212-23.447-4.239-35.173-8.463-41.022-0.966-2.6-1.967-5.06-2.958-7.287C127.7,37.234,150.513,47.61,151.1,65.818Zm-42.449,71.334c4.531,8.947.032,31.033-4.348,37.466C90.951,143.862,78.5,130.85,69.6,125.453c-5.008-5.286-10.076-10.133-14.721-14.171C54.877,111.282,95.361,110.9,108.656,137.152Zm-27.718,96.44c-1.326,1.045-2.7,2.033-4.112,2.972a119.857,119.857,0,0,1-13.27-7.322C73.295,230.256,78.368,231.935,80.938,233.592Zm29.387-120.911A38.97,38.97,0,0,1,65.439,89.732,179.9,179.9,0,0,1,97.224,103.17C105.619,107.625,109.062,110.674,110.325,112.681Zm9.739-12.2c6.073,1.672,13.147-3.065,17.029-10.494l0.174,0.092a38.963,38.963,0,0,1-24.892,22.063c-1.921-2.4-6-6.54-13.77-10.762a169.07,169.07,0,0,0-33.8-13.252A38.979,38.979,0,0,1,128.2,46.365a52.249,52.249,0,0,1,5.567,21.062c-0.208-.092-0.409-0.2-0.626-0.271-6.217-2.159-14.393,2.914-18.346,11.88C110.572,88.61,112.892,98.5,120.064,100.478ZM136.416,159.2q-1.924,3.053-3.9,6.485-0.665.589-1.3,1.252a84.65,84.65,0,0,0-8.534,17.586l-1.988-.216s-11.884-24.889-6.985-56.082l13.162,8.471A122.827,122.827,0,0,1,173,120S151.917,137.643,136.416,159.2Zm32.9-84.6a11.846,11.846,0,0,0-1.077,1.29,54.738,54.738,0,0,0-2.874,9.273c-0.294.88-.587,1.786-0.879,2.7l-0.752.07a62.434,62.434,0,0,1-10.777-31.967l8.709,3.384s13.54-14.668,28.7-20.065a207.693,207.693,0,0,0-13.458,19.62c0.582-.557,1.2-1.081,1.815-1.6A84.144,84.144,0,0,0,169.311,74.6Zm-83.83,76.725a13.684,13.684,0,0,0-2.215.043c-10.575,1.082-19.083,14.089-18.75,29.914,0.355,16.9,10.5,29.8,22.352,27.795,11.291-1.91,18.925-16.564,17.71-32.139,0.027,0.238.066,0.471,0.091,0.71A62.925,62.925,0,0,1,83.57,231.4c-4.291-2.124-12.641-5.238-26.007-6.246a119.836,119.836,0,0,1-49.525-94.16,62.945,62.945,0,0,1,50.369-7.761A68,68,0,0,1,85.481,151.329Z"/>
      <path id="Ellipse_11_copy_4" data-name="Ellipse 11 copy 4" class="cls-4" d="M169.861,91.229c0.686,2.713,2.4,4.825,4.26,4.835,2.264,0.012,3.634-3.064,3.042-6.645-0.555-3.354-2.631-5.806-4.624-5.668a2.273,2.273,0,0,0-.813.229,42.9,42.9,0,0,1,.679-4.452,4.133,4.133,0,0,1,.543-0.08c3.488-.245,7.1,3.873,8.055,9.519,1.014,6.029-1.4,11.22-5.362,11.213-3.347-.006-6.434-3.749-7.542-8.51ZM129.649,191.756c0.216,4.686,2.34,8.722,5.39,9.362,3.711,0.778,6.99-3.812,7.217-9.889,0.213-5.691-2.373-10.411-5.691-10.851a3.807,3.807,0,0,0-1.412.087,71.749,71.749,0,0,1,2.605-7.064,6.956,6.956,0,0,1,.92.05c5.806,0.766,10.364,8.737,10.032,18.323-0.354,10.236-6.058,17.947-12.555,16.61-5.493-1.131-9.306-8.309-9.531-16.494Z"/>
      <path id="Ellipse_11_copy_5" data-name="Ellipse 11 copy 5" class="cls-5" d="M133.209,75.4a4.291,4.291,0,0,1,.455.185c-0.131,1.66-.317,3.185-0.526,4.544a2.353,2.353,0,0,0-.582-0.295c-1.973-.633-4.671,1.322-6.061,4.563-1.483,3.46-.865,6.9,1.417,7.446,1.875,0.45,4.125-1.251,5.489-3.814l1.665,0.882c-2.3,4.52-6.331,7.525-9.7,6.7-3.99-.974-5.137-6.8-2.622-12.621C125.1,77.54,129.758,74.289,133.209,75.4ZM89,163.393a6.926,6.926,0,0,1,.786-0.038c0.939,2.514,1.711,4.871,2.332,7a3.831,3.831,0,0,0-1.049-.022c-3.32.421-5.936,5.125-5.758,10.816,0.19,6.078,3.441,10.689,7.157,9.934,3.053-.621,5.2-4.644,5.448-9.329l3.024,0.153c-0.275,8.184-4.133,15.338-9.633,16.435-6.506,1.3-12.162-6.449-12.453-16.687C78.578,172.066,83.185,164.124,89,163.393Z"/>
    </g>
  </g>
</svg>
