<svg xmlns="http://www.w3.org/2000/svg" width="256" height="256" viewBox="0 0 256 256">
  <defs>
    <style>
      .cls-1 {
        fill: #1c1b18;
        opacity: 0.7;
      }

      .cls-2 {
        fill: #fff;
      }

      .cls-2, .cls-3 {
        fill-rule: evenodd;
      }

      .cls-3 {
        fill: #ff6b31;
      }
    </style>
  </defs>
  <circle id="fog_dark" data-name="fog dark" class="cls-1" cx="128" cy="128" r="128"/>
  <path id="Ring_merged" data-name="Ring merged" class="cls-2" d="M128,256A128,128,0,1,1,256,128,128,128,0,0,1,128,256ZM128,4A124,124,0,1,0,252,128,124,124,0,0,0,128,4Z"/>
  <g id="Work_Layers">
    <g id="wipeout">
      <path class="cls-3" d="M128,248A120.034,120.034,0,0,1,16.628,172.746C16.8,166.558,21.4,163.6,25,162c5.313-2.358,9,7,9,7s8.507-5.729,16,2-3,22-3,22c11.274-1.509,2.373,14,1,16s9,12,9,12-6.615-17.795,5-23,15.551,2.217,25,7,13-10,13-10c5.606-5.217,10,2,10,2,16.149-5.119,15.092-63.612,14-69s4-7,4-7c0.543,90.735,15.022,91.17,19,93s12.593,0.344,18-1,9,7,9,7a117.429,117.429,0,0,0,11-7c3.4-2.7-.649-7.227-7-8-5.927-.721-13.758-13.66-4-23,7.338-7.024,20.638,3.819,19,6s5,4,5,4-9.067-19.764,0-27,16,6,16,6,2.1-3.926,9-1,1.249,15.276-3,16-5.259-1.268-1,4,5,2,5,2-1.381-2.649,5-13c2.848-4.62,7.535-7.9,11.853-10.122A120.045,120.045,0,0,1,128,248Z"/>
      <path class="cls-2" d="M150,89h4l-1,10-4,1-2-6-1.009-3.026a22.051,22.051,0,0,1-8.1,6.124L137,102h-2l2,4-4,5-3,2-2-2,1-4,1-5-0.276-3.041C129.481,98.967,129.245,99,129,99a21.984,21.984,0,0,1-2.638-.17L125,107l-4,3-3-6,1-2-3-3V95h0.413a22.25,22.25,0,0,1-3.679-3.225A27.505,27.505,0,0,1,108,90v4l-5,6-2-4,1-4,2-3V85s2.946-6.1,3-7a0.113,0.113,0,0,1,.048-0.055C107.034,77.629,107,77.319,107,77a22,22,0,1,1,43.591,4.183L152,84Z"/>
    </g>
  </g>
</svg>
