<svg xmlns="http://www.w3.org/2000/svg" viewBox="0 0 512 512">
  <style type="text/css">
    .st0{fill:#FFFFFF;}
  </style>
  <path class="st0" d="M504 256c0 136.997-111.043 248-248 248S8 392.997 8 256C8 119.083 119.043 8 256 8s248 111.083 248 248zM262.655 90c-54.497 0-89.255 22.957-116.549 63.758-3.536 5.286-2.353 12.415 2.715 16.258l34.699 26.31c5.205 3.947 12.621 3.008 16.665-2.122 17.864-22.658 30.113-35.797 57.303-35.797 20.429 0 45.698 13.148 45.698 32.958 0 14.976-12.363 22.667-32.534 33.976C247.128 238.528 216 254.941 216 296v4c0 6.627 5.373 12 12 12h56c6.627 0 12-5.373 12-12v-1.333c0-28.462 83.186-29.647 83.186-106.667 0-58.002-60.165-102-116.531-102zM256 338c-25.365 0-46 20.635-46 46 0 25.364 20.635 46 46 46s46-20.636 46-46c0-25.365-20.635-46-46-46z"/>
  <path style="fill:#222;" d="m 263.0255,90 c -54.497,0 -89.25483,22.95681 -116.54883,63.75781 -3.536,5.286 -2.35316,12.41481 2.71484,16.25781 l 34.69922,26.31055 c 5.205,3.947 12.62202,3.00695 16.66602,-2.12305 17.864,-22.658 30.11273,-35.79687 57.30273,-35.79687 20.429,0 45.69727,13.14898 45.69727,32.95898 0,14.976 -12.36221,22.66757 -32.53321,33.97657 -23.524,13.187 -54.65234,29.5992 -54.65234,70.6582 v 4 c 0,6.627 5.373,12 12,12 h 56 c 6.627,0 12,-5.373 12,-12 v -1.33203 c 0,-28.462 83.18555,-29.64797 83.18555,-106.66797 0,-58.002 -60.16525,-102 -116.53125,-102 z m -6.6543,248 c -25.365,0 -46,20.635 -46,46 0,25.364 20.635,46 46,46 25.365,0 46,-20.636 46,-46 0,-25.365 -20.635,-46 -46,-46 z"/>
</svg>
