<svg xmlns="http://www.w3.org/2000/svg" viewBox="0 0 24 24"><defs><style>.st0{fill:#fff;}</style></defs><title>cypherX2</title><path class="st0" d="M10,5.78V.22A.22.22,0,0,1,10.22,0h3.56A.22.22,0,0,1,14,.22V5.78a.22.22,0,0,1-.22.22H10.22A.22.22,0,0,1,10,5.78ZM10.22,24h3.56a.22.22,0,0,0,.22-.22V18.22a.22.22,0,0,0-.22-.22H10.22a.22.22,0,0,0-.22.22v5.56A.22.22,0,0,0,10.22,24ZM0,10.22v3.56A.22.22,0,0,0,.22,14H5.78A.22.22,0,0,0,6,13.78V10.22A.22.22,0,0,0,5.78,10H.22A.22.22,0,0,0,0,10.22Zm18,0v3.56a.22.22,0,0,0,.22.22h5.56a.22.22,0,0,0,.22-.22V10.22a.22.22,0,0,0-.22-.22H18.22A.22.22,0,0,0,18,10.22Z"/></svg>