<?xml version="1.0" encoding="UTF-8" standalone="no"?>
<!-- Generator: Adobe Illustrator 21.0.1, SVG Export Plug-In . SVG Version: 6.00 Build 0)  -->

<svg
   xmlns:dc="http://purl.org/dc/elements/1.1/"
   xmlns:cc="http://creativecommons.org/ns#"
   xmlns:rdf="http://www.w3.org/1999/02/22-rdf-syntax-ns#"
   xmlns:svg="http://www.w3.org/2000/svg"
   xmlns="http://www.w3.org/2000/svg"
   xmlns:sodipodi="http://sodipodi.sourceforge.net/DTD/sodipodi-0.dtd"
   xmlns:inkscape="http://www.inkscape.org/namespaces/inkscape"
   version="1.1"
   id="Layer_1"
   x="0px"
   y="0px"
   viewBox="0 0 256 256"
   style="enable-background:new 0 0 256 256;"
   xml:space="preserve">
<style>
	.st0{fill:#FFFFFF;}
</style>
     <path class="st0"
     d="M 100.48242 42.09375 C 72.741168 50.914857 50.922946 72.740374 42.101562 100.48242 L 46.792969 100.48242 C 55.268223 75.167066 75.188751 55.201064 100.48242 46.681641 L 100.48242 42.09375 z M 155.51758 42.09375 L 155.51758 46.681641 C 180.81125 55.201064 200.73178 75.167066 209.20703 100.48242 L 213.89844 100.48242 C 205.07706 72.740374 183.25883 50.914857 155.51758 42.09375 z M 42.101562 155.51758 C 50.922946 183.25963 72.741168 205.08514 100.48242 213.90625 L 100.48242 209.01953 C 75.285745 200.53473 55.419356 180.69246 46.888672 155.51758 L 42.101562 155.51758 z M 209.11133 155.51758 C 200.58064 180.69246 180.71425 200.53473 155.51758 209.01953 L 155.51758 213.90625 C 183.25883 205.08514 205.07706 183.25963 213.89844 155.51758 L 209.11133 155.51758 z "/>
</svg>