<?xml version="1.0" encoding="utf-8"?>
<!-- Generator: Adobe Illustrator 21.0.1, SVG Export Plug-In . SVG Version: 6.00 Build 0)  -->
<svg version="1.1" id="Layer_1" xmlns="http://www.w3.org/2000/svg" xmlns:xlink="http://www.w3.org/1999/xlink" x="0px" y="0px"
	 viewBox="0 0 256 256" style="enable-background:new 0 0 256 256;" xml:space="preserve">
<style type="text/css">
	.st0{fill:#FFFFFF;}
</style>
    <path class="st0" d="M 128 50.9375 A 77.063301 77.063301 0 0 0 50.9375 128 A 77.063301 77.063301 0 0 0 128 205.0625 A 77.063301 77.063301 0 0 0 205.0625 128 A 77.063301 77.063301 0 0 0 128 50.9375 z M 128 60.605469 A 67.39547 67.39547 0 0 1 195.39453 128 A 67.39547 67.39547 0 0 1 128 195.39453 A 67.39547 67.39547 0 0 1 60.605469 128 A 67.39547 67.39547 0 0 1 128 60.605469 z "/>
    <polygon class="st0" points="153.7,121.6 134.4,121.6 134.4,102.3 121.6,102.3 121.6,121.6 102.3,121.6 102.3,134.4 121.6,134.4 121.6,153.7 134.4,153.7 134.4,134.4 153.7,134.4 "/>
</svg>
