<?xml version="1.0" encoding="utf-8"?>
<!-- Generator: Adobe Illustrator 21.0.1, SVG Export Plug-In . SVG Version: 6.00 Build 0)  -->
<svg version="1.1" id="Layer_1" xmlns="http://www.w3.org/2000/svg" xmlns:xlink="http://www.w3.org/1999/xlink" x="0px" y="0px"
	 viewBox="0 0 256 256" style="enable-background:new 0 0 256 256;" xml:space="preserve">
<style type="text/css">
	.st0{fill:#FFFFFF;}
</style>
    <circle class="st0" cx="128" cy="128" r="7.6"/>
    <path class="st0" d="M 128 37.107422 A 90.893188 90.893188 0 0 0 37.107422 128 A 90.893188 90.893188 0 0 0 128 218.89258 A 90.893188 90.893188 0 0 0 218.89258 128 A 90.893188 90.893188 0 0 0 128 37.107422 z M 128 47.078125 A 80.921783 80.921783 0 0 1 208.92188 128 A 80.921783 80.921783 0 0 1 128 208.92188 A 80.921783 80.921783 0 0 1 47.078125 128 A 80.921783 80.921783 0 0 1 128 47.078125 z " />
</svg>
