<?xml version="1.0" encoding="utf-8"?>
<!-- Generator: Adobe Illustrator 21.0.1, SVG Export Plug-In . SVG Version: 6.00 Build 0)  -->
<svg version="1.1" id="Layer_1" xmlns="http://www.w3.org/2000/svg" xmlns:xlink="http://www.w3.org/1999/xlink" x="0px" y="0px"
	 viewBox="0 0 256 256" style="enable-background:new 0 0 256 256;" xml:space="preserve">
<style type="text/css">
	.st0{fill:#FFFFFF;}
</style>
    <path class="st0" d="M 128 64.527344 A 63.471825 63.471825 0 0 0 64.527344 128 A 63.471825 63.471825 0 0 0 128 191.47266 A 63.471825 63.471825 0 0 0 191.47266 128 A 63.471825 63.471825 0 0 0 128 64.527344 z M 128 73.923828 A 54.075691 54.075691 0 0 1 182.07617 128 A 54.075691 54.075691 0 0 1 128 182.07617 A 54.075691 54.075691 0 0 1 73.923828 128 A 54.075691 54.075691 0 0 1 128 73.923828 z " />
    <rect x="120.1" y="33" class="st0" width="15.8" height="63.3"/>
    <rect x="120.1" y="159.7" class="st0" width="15.8" height="63.3"/>
    <rect x="159.7" y="120.1" class="st0" width="63.3" height="15.8"/>
    <rect x="33" y="120.1" class="st0" width="63.3" height="15.8"/>
</svg>
