<?xml version="1.0" encoding="utf-8"?>
<!-- Generator: Adobe Illustrator 21.0.1, SVG Export Plug-In . SVG Version: 6.00 Build 0)  -->
<svg version="1.1" id="Layer_1" xmlns="http://www.w3.org/2000/svg" xmlns:xlink="http://www.w3.org/1999/xlink" x="0px" y="0px"
	 viewBox="0 0 256 256" style="enable-background:new 0 0 256 256;" xml:space="preserve">
<style type="text/css">
	.st0{fill:#FFFFFF;}
</style>
<g id="XMLID_4_">
	<path class="st0" d="M129.6,204.8c-42.9,0-77.8-34.9-77.8-77.8c0-42.9,34.9-77.8,77.8-77.8c42.9,0,77.8,34.9,77.8,77.8
		C207.4,169.9,172.5,204.8,129.6,204.8z M129.6,55.4C90.1,55.4,58,87.6,58,127c0,39.5,32.1,71.6,71.6,71.6
		c39.5,0,71.6-32.1,71.6-71.6C201.2,87.6,169,55.4,129.6,55.4z"/>
</g>
<g id="XMLID_10_">
	<path id="XMLID_16_" class="st0" d="M159.8,46.9c23.1,8.8,41.4,27.2,50.3,50.3l7.8-3.1c-9.8-25.1-29.9-45.2-55-55L159.8,46.9z"/>
</g>
<g id="XMLID_5_">
	<path id="XMLID_11_" class="st0" d="M210.4,158.9c-8.8,23.1-27.2,41.4-50.3,50.3l3.1,7.8c25.1-9.8,45.2-29.9,55-55L210.4,158.9z"/>
</g>
<g id="XMLID_12_">
	<path id="XMLID_13_" class="st0" d="M96,207.5c-23.1-8.8-41.4-27.2-50.3-50.3l-7.8,3.1c9.8,25.1,29.9,45.2,55,55L96,207.5z"/>
</g>
<g id="XMLID_14_">
	<path id="XMLID_15_" class="st0" d="M48.1,96.5C56.9,73.4,75.3,55,98.3,46.2l-3.1-7.8c-25.1,9.8-45.2,29.9-55,55L48.1,96.5z"/>
</g>
<circle id="XMLID_17_" class="st0" cx="127.9" cy="125.3" r="4.8"/>
<g>
</g>
<g>
</g>
<g>
</g>
<g>
</g>
<g>
</g>
<g>
</g>
<g>
</g>
<g>
</g>
<g>
</g>
<g>
</g>
<g>
</g>
<g>
</g>
<g>
</g>
<g>
</g>
<g>
</g>
</svg>
