<?xml version="1.0" encoding="utf-8"?>
<!-- Generator: Adobe Illustrator 24.0.1, SVG Export Plug-In . SVG Version: 6.00 Build 0)  -->
<svg version="1.1" id="Layer_1" xmlns="http://www.w3.org/2000/svg" xmlns:xlink="http://www.w3.org/1999/xlink" x="0px" y="0px"
	 viewBox="0 0 512 512" style="enable-background:new 0 0 512 512;" xml:space="preserve">
<style type="text/css">
	.st0{fill:#FFFFFF;}
</style>
<path class="st0" d="M464.01,16H47.99C30.3,16,15.97,30.34,15.97,48.02v416.95c0,17.69,14.34,32.02,32.02,32.02H464
	c17.69,0,32.02-14.34,32.02-32.02V48.02C496.03,30.34,481.69,16,464.01,16z M451.88,437.32c0,8.53-6.91,15.44-15.44,15.44H75.56
	c-8.53,0-15.44-6.91-15.44-15.44V75.68c0-8.53,6.91-15.44,15.44-15.44h360.87c8.53,0,15.44,6.91,15.44,15.44v361.64H451.88z"/>
<rect x="122" y="331" class="st0" width="271" height="46"/>
<polygon class="st0" points="390.81,255.66 257.97,122.82 257.88,122.91 257.8,122.82 124.96,255.66 160.3,291 231,220.3 231,304 
	284,304 284,219.54 355.46,291 "/>
</svg>
