<?xml version="1.0" encoding="utf-8"?>
<!-- Generator: Adobe Illustrator 24.0.1, SVG Export Plug-In . SVG Version: 6.00 Build 0)  -->
<svg version="1.1" id="Layer_1" xmlns="http://www.w3.org/2000/svg" xmlns:xlink="http://www.w3.org/1999/xlink" x="0px" y="0px"
	 viewBox="0 0 512 512" style="enable-background:new 0 0 512 512;" xml:space="preserve">
<style type="text/css">
	.st0{fill:#FFFFFF;}
</style>
<polygon class="st0" points="316.86,91.92 147.97,260.8 148.08,260.91 147.97,261.02 316.86,429.9 361.79,384.97 237.73,260.91 
	361.79,136.85 "/>
<path class="st0" d="M464.01,16H47.99c-17.69,0-32.02,14.34-32.02,32.02v416.95c0,17.69,14.34,32.02,32.02,32.02h416.01
	c17.69,0,32.02-14.34,32.02-32.02V48.02C496.03,30.34,481.69,16,464.01,16z M451.88,437.32c0,8.53-6.91,15.44-15.44,15.44H75.56
	c-8.53,0-15.44-6.91-15.44-15.44V75.68c0-8.53,6.91-15.44,15.44-15.44h360.87c8.53,0,15.44,6.91,15.44,15.44V437.32z"/>
</svg>
