<?xml version="1.0" encoding="utf-8"?>
<!-- Generator: Adobe Illustrator 21.0.1, SVG Export Plug-In . SVG Version: 6.00 Build 0)  -->
<svg version="1.1" id="Layer_1" xmlns="http://www.w3.org/2000/svg" xmlns:xlink="http://www.w3.org/1999/xlink" x="0px" y="0px"
	 viewBox="0 0 256 256" style="enable-background:new 0 0 256 256;" xml:space="preserve">
<style type="text/css">
	.st0{fill:#FFFFFF;}
</style>
<g>
	<path class="st0" d="M79.6,84.1c0,0-16.4,10.3-16.8,24.4c-0.4,14.1,22.6,24.5,16,38.8c-6.7,14.4-44.4,37.7-56.7,54.4
		c-11.5,15.6-8.9,18.9-5.7,23.7c0,0,0,0,0,0c0,0,0,0.1,0.1,0.1c0.2,0.3,0.4,0.6,0.6,0.9c0.7,1.1,4,4.6,5.7,6.3
		c1.7,1.8,3.3,3.1,4.4,3.8c0.3,0.2,0.6,0.4,0.9,0.6c0,0,0.1,0,0.1,0.1c0,0,0,0,0,0c4.8,3.3,10,7.7,25.6-3.8
		c16.8-12.3,40.1-50.1,54.4-56.7c14.4-6.7,24.7,16.4,38.8,16s24.4-16.8,24.4-16.8l-46-46L79.6,84.1z"/>
	<path class="st0" d="M235.7,81.8l-2.2-2.4l-50.6,43.6l42-52.2l-16.7-16.7l-17.2,9.7l11.3-15.6l-24.8-24.8L141.9,52L171,17l-2.7-2.6
		c-4.2-4.2-9.9-3-15.2-0.8c-5.3,2.3-48.7,45.7-48.7,45.7l91.7,91.7c0,0,44.3-39.7,46.8-49.1S241,87.1,235.7,81.8z"/>
	
		<rect x="129.5" y="52.5" transform="matrix(0.7071 -0.7071 0.7071 0.7071 -42.2414 131.6884)" class="st0" width="16.7" height="128.7"/>
</g>
</svg>
