<svg xmlns="http://www.w3.org/2000/svg" width="4430" height="527" viewBox="0 0 4430 527">
  <defs>
    <style>
      .cls-1 {
        fill: #fff;
      }

      .cls-1, .cls-2 {
        fill-rule: evenodd;
      }

      .cls-2 {
        fill: #00bdff;
      }
    </style>
  </defs>
  <path class="cls-1" d="M2097,0c28.42-.4,56.12-0.739,79,5,135.38,33.957,260.43,185.746,186,360-38.07,89.128-109.71,142.11-220,160-41.34,6.706-86.54-5.418-115-17-106.01-43.136-215.9-176.808-155-334,27.74-71.591,77.32-125.468,147-155l55-16ZM3313,19c104.06-1.746,186.15,26.01,226,88q-42,38-84,76c-20.63-16.112-34.88-35.3-62-46-68.59-27.06-137.71,9.263-163,52-10.47,17.69-13.95,38.483-18,63-14.54,87.916,71.33,163.249,161,142,38.83-9.2,55.96-31.6,82-52q3.495,3.5,7,7,29.49,26.5,59,53c5.19,4.568,18.97,11.986,16,18-8.56,17.933-30.09,30.943-46,42-99.21,68.969-248.57,50.328-333-17-95.11-75.851-112.13-273.206-10-356,30.12-24.418,61.1-45.891,103-59ZM50,497V207H183V391c114.039,1.267,187.867,1.284,213-88,5.539-19.678,7.957-54.76,2-77-4.935-18.425-12.624-34.865-23-48-14.861-18.813-39.717-32.86-66-40-25.152-6.833-60.26-4-91-4H47L0,28C256.9,26.479,479.03-5.146,531,206c12.67,51.477,2.114,115.509-14,153C448.82,517.623,272.411,497.265,50,497ZM606,28H740V497H606V28Zm380,0h132q103.995,234.477,208,469H1187q-67.995-168.982-136-338h-1q-29.49,74.493-59,149h66q19.005,48.995,38,98H951l-37,91H778Q881.989,262.523,986,28Zm378,0c126.16-1.061,313.83-16.6,385,37,62.86,47.351,49.15,159.545-22,187v1c84.75,16.621,118.45,147.636,46,204-75.13,58.449-274.56,40.257-409,40V28Zm1037,0h422V133H2679V497H2546V133H2401V28Zm472,0h134V497H2873V28Zm737,0h134V392h224V497H3610V28Zm462,0h358V133H4206v77h137V315H4206v77h224V497H4072V28ZM2106,123q-17.505,4-35,8c-36.39,14.2-66.5,42.931-81,79-37.6,93.541,41.11,208.637,143,192,57.03-9.312,96.8-39.26,116-86C2292.54,210.018,2208.3,122.075,2106,123Zm-610,1v90c58.42,0.869,173.77,15.142,159-54C1644.49,110.811,1555.31,123.222,1496,124Zm0,182v95c63.73,0.817,196.56,18.094,182-56C1667.19,290.007,1561.19,305.279,1496,306Z"/>
  <path id="Ellipse_1_copy" data-name="Ellipse 1 copy" class="cls-2" d="M2013,256h50c0.6,73.972,114.02,73.829,113,0h51c-12.78,52.3-20.79,79.721-66,99C2086.77,386.654,2012.69,327.032,2013,256Z"/>
</svg>
