<?xml version="1.0" encoding="UTF-8"?>
<svg width="360mm" height="360mm" version="1.1" viewBox="0 0 360 360" xmlns="http://www.w3.org/2000/svg">
  <style type="text/css">
  .st0{}
  </style>
  <path class="st0" fill="#ff0000" d="M 179.99997,1.2769073 C 136.04286,23.911215 104.55439,45.290841 0.64268099,42.108988 0.64268099,195.38774 53.386364,294.50128 179.99997,358.7231 306.61357,294.50128 359.35733,195.38774 359.35733,42.108988 255.44562,45.290841 223.95708,23.911215 179.99997,1.2769073 Z"/>
  <g transform="translate(52 43.004)">
    <path class="st1" fill="#ffffff" d="M 128.00001,67.480505 A 60.519466,60.519466 0 1 1 67.480644,128.00002 60.519466,60.519466 0 0 1 128.00001,67.480505 m 0,-53.399495 A 113.91899,113.91899 0 1 0 241.91899,128.00002 113.91899,113.91899 0 0 0 128.00001,14.08101 Z"/>
    <path class="st1" fill="#ffffff" d="m 152.63499,128.00002 a 24.634995,24.634995 0 1 1 -49.26996,0 H 81.613704 a 46.386395,46.386397 0 1 0 92.772656,0 z"/>
  </g>
</svg>
