<?xml version="1.0" encoding="utf-8"?>
<!-- Generator: Adobe Illustrator 24.2.3, SVG Export Plug-In . SVG Version: 6.00 Build 0)  -->
<svg version="1.1" id="Layer_1" xmlns="http://www.w3.org/2000/svg" xmlns:xlink="http://www.w3.org/1999/xlink" x="0px" y="0px"
	 viewBox="0 0 725.7 725.7" style="enable-background:new 0 0 725.7 725.7;" xml:space="preserve">
<style type="text/css">
	.st0{fill:#FFFFFF;}
</style>
<path class="st0" d="M362.8,39.9c-178.3,0-322.9,144.6-322.9,322.9s144.6,322.9,322.9,322.9s322.9-144.6,322.9-322.9
	C685.8,184.5,541.2,39.9,362.8,39.9z M362.8,534.4c-94.7,0-171.6-76.8-171.6-171.6c0,0,0,0,0,0c0-94.7,76.8-171.6,171.6-171.6
	c94.7,0,171.6,76.8,171.6,171.6S457.6,534.4,362.8,534.4z M685.8,362.8L685.8,362.8L685.8,362.8L685.8,362.8z M432.7,362.8h61.7
	c0,0.1,0,0.3,0,0.4c-0.1,72.6-59.1,131.4-131.7,131.3c-72.6-0.1-131.4-59.1-131.3-131.7H293c0,0.1,0,0.1,0,0.2
	c0,38.6,31.3,69.8,69.9,69.8C401.5,432.7,432.7,401.4,432.7,362.8z"/>
</svg>
