<svg xmlns="http://www.w3.org/2000/svg" viewBox="0 0 1093.15 128"><defs><style>.cls-1{fill:#f2f2f2;}.cls-2{fill:#00bdff;}</style></defs><title>Asset 1Diabotical</title><g id="Layer_2" data-name="Layer 2"><g id="Dibotical"><path class="cls-1" d="M123,33.84A53.16,53.16,0,0,0,100.29,14q-14.62-7-33.54-7H0L11.73,32.7H65.44Q80.23,32.7,89.2,41t9,23q0,14.67-9,23T65.44,95.31H44.89V50.49H12.34v70.58H66.75q18.91,0,33.54-7A53.1,53.1,0,0,0,123,94.17Q131,81.29,131,64T123,33.84Z"/><polygon class="cls-1" points="148.14 6.94 148.14 32.51 148.14 121.07 180.69 121.07 180.69 32.51 180.69 6.94 148.14 6.94"/><path class="cls-1" d="M272.92,6.94H240.86l-50.8,114.13h33.21l9-22.17h35.22L258,75.09H241.85l14.79-36.52,14.8,36.52L281,98.9l9,22.17h33.87Z"/><path class="cls-1" d="M945.51,6.94H913.45l-50.8,114.13h33.21l9-22.17h35.22l-9.55-23.81H914.44l14.79-36.52L944,75.09l9.54,23.81,9,22.17h33.87Z"/><path class="cls-1" d="M437,72.24a32.25,32.25,0,0,0-15.46-10.68A28,28,0,0,0,433,51.37a26.88,26.88,0,0,0,4-14.59q0-13.7-11.51-21.77T392,6.94H333.09V121.07h62.15q23,0,35.18-8.15t12.17-23.15A27.91,27.91,0,0,0,437,72.24Zm-71.68-42h22.36q16.43,0,16.44,10.92,0,11.09-16.44,11.09H365.32Zm27.29,67.49H365.32V74.6h27.29q17.1,0,17.1,11.58T392.61,97.75Z"/><path class="cls-1" d="M586.12,6.94v25.6h35.34v88.53H654V32.54H689.2V6.94Z"/><polygon class="cls-1" points="701.37 6.94 701.37 32.51 701.37 121.07 733.92 121.07 733.92 32.51 733.92 6.94 701.37 6.94"/><path class="cls-1" d="M816.12,96.61a33.68,33.68,0,0,1-16.69-4.07A28.35,28.35,0,0,1,788.09,81a35,35,0,0,1-4-17,35.09,35.09,0,0,1,4-17,28.35,28.35,0,0,1,11.34-11.5,33.79,33.79,0,0,1,16.69-4.07q15.95,0,27.13,13.37L864,26.18a54.77,54.77,0,0,0-21-16,70.29,70.29,0,0,0-28.44-5.54q-18.09,0-32.48,7.58a57,57,0,0,0-22.6,21.11A57.9,57.9,0,0,0,751.18,64a57.86,57.86,0,0,0,8.22,30.65A56.93,56.93,0,0,0,782,115.77q14.38,7.58,32.48,7.58a70.29,70.29,0,0,0,28.44-5.54,54.67,54.67,0,0,0,21-16L843.25,83.24Q832.06,96.62,816.12,96.61Z"/><path class="cls-1" d="M1038.23,95.47V6.94h-32.55V121.07h87.47V95.47Z"/><path class="cls-1" d="M517.46,30a34,34,0,1,1-34,34,34,34,0,0,1,34-34m0-30a64,64,0,1,0,64,64,64,64,0,0,0-64-64Z"/><path class="cls-2" d="M531.3,62.34a13.84,13.84,0,1,1-27.68,0H491.4a26.06,26.06,0,1,0,52.12,0Z"/></g></g></svg>