<?xml version="1.0" encoding="utf-8"?>
<!-- Generator: Adobe Illustrator 22.1.0, SVG Export Plug-In . SVG Version: 6.00 Build 0)  -->
<svg version="1.1" id="Layer_1" xmlns="http://www.w3.org/2000/svg" xmlns:xlink="http://www.w3.org/1999/xlink" x="0px" y="0px"
     viewBox="0 0 256 27.4" style="enable-background:new 0 0 256 27.4;" xml:space="preserve">
  <style type="text/css">
	.st0{fill:#a7b3be;}
</style>
<g class="st0">
	<path d="M53.7,0.7l-9.9,26.5h5.6l1.9-5.4h10.7l1.9,5.4h5.6L59.8,0.7L53.7,0.7z M52.8,17.7l3.9-11.3l3.9,11.3H52.8z"/>
  <path d="M218.9,0.7L209,27.1h5.6l1.9-5.4h10.7l1.9,5.4h5.6L225,0.7L218.9,0.7z M217.9,17.7l3.9-11.3l3.9,11.3H217.9z"/>
  <polygon points="247,23 247,0.4 241.7,0.4 241.7,27.1 256,27.1 256,23 	"/>
  <path d="M17,2c-2.1-1.1-4.6-1.7-7.5-1.7L0,0.4v12.1h5.3V5h3.7c2.9,0,5.1,0.8,6.7,2.3c1.6,1.5,2.4,3.7,2.4,6.4
		c0,2.7-0.8,4.9-2.4,6.4c-1.6,1.5-3.8,2.3-6.7,2.3H5.3V15H0v12.2h9.5c2.9,0,5.4-0.6,7.5-1.7c2.1-1.1,3.7-2.7,4.9-4.7
		c1.1-2,1.7-4.4,1.7-7c0-2.7-0.6-5-1.7-7C20.8,4.7,19.1,3.1,17,2z"/>
  <rect x="31.6" y="0.4" width="5.3" height="26.8"/>
  <path d="M194.5,21.2c-1.2,0.8-2.7,1.3-4.4,1.3c-1.4,0-2.7-0.4-3.8-1.1c-1.1-0.7-2-1.7-2.7-3c-0.5-1-0.8-2.1-0.9-3.4h-5.4
		c0.1,2.1,0.7,4.1,1.5,5.8c1.1,2.1,2.6,3.7,4.5,4.9c2,1.1,4.2,1.7,6.8,1.7c3.3,0,6.1-0.9,8.3-2.6c2.2-1.7,3.7-4.1,4.4-7h-5.6
		C196.7,19.2,195.8,20.3,194.5,21.2z"/>
  <rect x="163.9" y="0.4" width="5.3" height="26.8"/>
  <polygon points="136.7,4.6 144.1,4.6 144.1,27.1 149.4,27.1 149.4,4.6 156.8,4.6 156.8,0.4 136.7,0.4 	"/>
  <path d="M198.5,2.7c-2.2-1.7-5-2.6-8.3-2.6h0c-2.6,0-4.8,0.6-6.8,1.7c-1.9,1.1-3.5,2.7-4.5,4.8c-0.9,1.7-1.4,3.7-1.5,5.8h5.4
		c0.1-1.3,0.4-2.4,0.9-3.4c0.6-1.3,1.5-2.3,2.7-3c1.1-0.7,2.4-1.1,3.8-1.1c1.7,0,3.2,0.4,4.4,1.3c1.2,0.8,2.1,2,2.7,3.4h5.6
		C202.2,6.7,200.7,4.4,198.5,2.7z"/>
  <path d="M124,1.7c-2-1.2-4.3-1.7-6.8-1.7c-2.5,0-4.8,0.6-6.8,1.7c-2,1.2-3.6,2.8-4.8,4.9c-1,1.8-1.5,3.7-1.7,5.9h5.5
		c0.1-1.3,0.4-2.4,0.9-3.4c0.7-1.3,1.6-2.4,2.8-3.1c1.2-0.7,2.6-1.1,4.1-1.1c1.6,0,2.9,0.4,4.1,1.1c1.2,0.7,2.1,1.7,2.8,3.1
		c0.5,1,0.8,2.2,1,3.4h5.5c-0.2-2.2-0.7-4.1-1.7-5.9C127.7,4.5,126.1,2.9,124,1.7z"/>
  <path d="M124.1,18.3c-0.7,1.3-1.6,2.3-2.8,3c-1.2,0.7-2.6,1.1-4.1,1.1c-1.6,0-2.9-0.4-4.1-1.1c-1.2-0.7-2.1-1.7-2.8-3
		c-0.5-1-0.8-2.1-0.9-3.4h-5.5c0.2,2.1,0.7,4.1,1.7,5.8c1.2,2.1,2.8,3.7,4.8,4.9c2,1.2,4.3,1.7,6.8,1.7c2.5,0,4.8-0.6,6.8-1.7
		c2-1.2,3.7-2.8,4.8-4.9c1-1.8,1.6-3.7,1.7-5.8h-5.5C124.9,16.2,124.6,17.3,124.1,18.3z"/>
  <path d="M91.5,13.3c1.4-0.3,2.6-1,3.4-2.1c0.9-1.1,1.3-2.4,1.3-4.1c0-2.1-0.7-3.8-2.2-5c-1.4-1.2-3.5-1.8-6.2-1.8H76.6v26.8H88
		c2.9,0,5-0.6,6.5-1.9c1.5-1.3,2.3-3.1,2.3-5.3c0-1.6-0.5-3-1.5-4.2C94.4,14.4,93.1,13.7,91.5,13.3z M81.9,4.7h4.7
		c1.4,0,2.5,0.3,3.1,0.9c0.7,0.6,1,1.5,1,2.6c0,1.1-0.4,2-1.1,2.6c-0.7,0.6-1.7,0.9-3,0.9h-4.8V4.7z M90.2,21.9
		c-0.8,0.6-1.8,0.9-3.3,0.9h-5.1v-7.4h5c1.4,0,2.5,0.3,3.3,1c0.8,0.6,1.2,1.5,1.2,2.7C91.4,20.3,91,21.2,90.2,21.9z"/>
</g>
</svg>
