<?xml version="1.0" encoding="utf-8"?>
<!-- Generator: Adobe Illustrator 24.2.3, SVG Export Plug-In . SVG Version: 6.00 Build 0)  -->
<svg version="1.1" id="Layer_1" xmlns="http://www.w3.org/2000/svg" xmlns:xlink="http://www.w3.org/1999/xlink" x="0px" y="0px"
	 viewBox="0 0 1093.2 128" style="enable-background:new 0 0 1093.2 128;" xml:space="preserve">
<style type="text/css">
	.st0{fill:#F2F2F2;}
	.st1{fill:#00BDFF;}
</style>
<g id="Layer_2_1_">
	<g id="Dibotical">
		<path class="st0" d="M123,33.8c5.3,8.6,8,18.6,8,30.2s-2.7,21.6-8,30.2c-5.5,8.7-13.4,15.6-22.7,19.9c-9.8,4.7-20.9,7-33.5,7H12.3
			V50.5h32.5v44.8h20.5c9.8,0,17.8-2.8,23.8-8.3s9-13.2,9-23c0-9.8-3-17.5-9-23s-13.9-8.3-23.8-8.3H11.7L0,7h66.8
			c12.6,0,23.8,2.3,33.5,7C109.6,18.3,117.5,25.2,123,33.8z M148.1,32.5v88.6h32.5V32.5V6.9h-32.5V32.5z M240.9,6.9l-50.8,114.1
			h33.2l9-22.2h35.2L258,75.1h-16.1l14.8-36.5l14.8,36.5l9.6,23.8l9,22.2h33.9L272.9,6.9H240.9z M913.5,6.9l-50.8,114.1h33.2l9-22.2
			h35.2l-9.5-23.8h-16.1l14.8-36.5L944,75.1l9.5,23.8l9,22.2h33.9L945.5,6.9H913.5z M437,72.2c3.8,5,5.8,11.2,5.6,17.5
			c0,10-4.1,17.7-12.2,23.1s-19.8,8.2-35.2,8.2h-62.1V6.9H392c14.7,0,25.8,2.7,33.5,8.1S437,27.6,437,36.8c0.1,5.1-1.3,10.2-4,14.6
			c-2.8,4.4-6.8,7.9-11.5,10.2C427.6,63.5,433,67.2,437,72.2z M365.3,52.3h22.4c11,0,16.4-3.7,16.4-11.1c0-7.3-5.5-10.9-16.4-10.9
			h-22.4V52.3z M409.7,86.2c0-7.7-5.7-11.6-17.1-11.6h-27.3v23.1h27.3l0,0C404,97.8,409.7,93.9,409.7,86.2z M586.1,32.5h35.3v88.5
			H654V32.5h35.2V6.9H586.1V32.5z M701.4,32.5v88.6h32.5V32.5V6.9h-32.5V32.5z M843.3,83.2c-7.5,8.9-16.5,13.4-27.1,13.4
			c-5.8,0.1-11.6-1.3-16.7-4.1c-4.8-2.7-8.8-6.7-11.3-11.5c-2.7-5.2-4.1-11.1-4-17c-0.1-5.9,1.3-11.8,4-17
			c2.6-4.9,6.5-8.8,11.3-11.5c5.1-2.8,10.9-4.2,16.7-4.1c10.6,0,19.7,4.5,27.1,13.4L864,26.2c-5.6-7-12.8-12.5-21-16
			c-9-3.8-18.7-5.7-28.4-5.5c-12.1,0-22.9,2.5-32.5,7.6c-9.3,4.8-17.2,12.1-22.6,21.1c-5.6,9.2-8.4,19.9-8.3,30.7
			c-0.2,10.8,2.7,21.4,8.2,30.7c5.4,9,13.3,16.3,22.6,21.1c9.6,5.1,20.4,7.6,32.5,7.6c9.8,0.1,19.4-1.7,28.4-5.5
			c8.2-3.5,15.4-9,21-16L843.3,83.2z M1038.2,95.5V6.9h-32.5v114.1h87.5V95.5H1038.2z M581.5,64c0,35.3-28.7,64-64,64
			c-35.3,0-64-28.7-64-64c0-35.3,28.7-64,64-64C552.8,0,581.5,28.7,581.5,64z M551.5,64c0-18.8-15.2-34-34-34c-18.8,0-34,15.2-34,34
			c0,18.8,15.2,34,34,34C536.2,98,551.5,82.8,551.5,64z"/>
		<path class="st1" d="M531.3,62.3c0,7.6-6.2,13.8-13.8,13.9c-7.6,0-13.8-6.2-13.9-13.8c0,0,0,0,0,0h-12.2
			c0,14.4,11.7,26.1,26.1,26.1c14.4,0,26.1-11.7,26.1-26.1H531.3z"/>
	</g>
</g>
</svg>
