<?xml version="1.0" encoding="utf-8"?>
<!-- Generator: Adobe Illustrator 24.2.3, SVG Export Plug-In . SVG Version: 6.00 Build 0)  -->
<svg version="1.1" id="Layer_1" xmlns="http://www.w3.org/2000/svg" xmlns:xlink="http://www.w3.org/1999/xlink" x="0px" y="0px"
	 viewBox="0 0 1020.5 1020.5" style="enable-background:new 0 0 1020.5 1020.5;" xml:space="preserve">
<style type="text/css">
	.st0{fill:#FF0000;}
	.st1{fill:#FFFFFF;}
</style>
<path class="st0" fill="#ff0000" d="M510.2,3.6C385.6,67.8,296.4,128.4,1.8,119.4c0,434.5,149.5,715.4,508.4,897.5c358.9-182,508.4-463,508.4-897.5
	C724.1,128.4,634.8,67.8,510.2,3.6z"/>
<path class="st1" fill="#ffffff" d="M510.2,161.8c-178.3,0-322.9,144.6-322.9,322.9s144.6,322.9,322.9,322.9s322.9-144.6,322.9-322.9
	C833.2,306.4,688.6,161.8,510.2,161.8z M510.2,656.3c-94.7,0-171.6-76.8-171.6-171.6c0,0,0,0,0,0c0-94.7,76.8-171.6,171.6-171.6
	c94.7,0,171.6,76.8,171.6,171.6S605,656.3,510.2,656.3z M833.2,484.7L833.2,484.7L833.2,484.7L833.2,484.7z M580.1,484.7h61.7
	c0,0.1,0,0.3,0,0.4c-0.1,72.6-59.1,131.4-131.7,131.3c-72.6-0.1-131.4-59.1-131.3-131.7h61.7c0,0.1,0,0.1,0,0.2
	c0,38.6,31.3,69.8,69.9,69.8C548.9,554.6,580.1,523.3,580.1,484.7z"/>
</svg>
