<?xml version="1.0" encoding="utf-8"?>
<!-- Generator: Adobe Illustrator 24.0.1, SVG Export Plug-In . SVG Version: 6.00 Build 0)  -->
<svg version="1.1" id="Layer_1" xmlns="http://www.w3.org/2000/svg" xmlns:xlink="http://www.w3.org/1999/xlink" x="0px" y="0px"
	 viewBox="0 0 440.5 440.5" style="enable-background:new 0 0 440.5 440.5;" xml:space="preserve">
<style type="text/css">
	.st0{fill:#FFFFFF;}
</style>
<path style="opacity:0.5; fill:#69CDFF;" d="M385.61,287.1l-28.31-16.35l8.86-2.37c12.3-3.3,19.62-15.98,16.33-28.28c-3.29-12.3-15.98-19.63-28.28-16.33
	l-53.46,14.33l-32.03-18.49l32.65-18.85l52.62,14.1c1.96,0.52,3.97,0.79,5.97,0.79c10.43,0,19.6-7.04,22.3-17.12
	c3.29-12.3-4.03-24.98-16.33-28.28l-8-2.14l27.77-16.03c11.03-6.37,14.81-20.52,8.45-31.54c-6.37-11.02-20.51-14.81-31.54-8.45
	l-28.31,16.35l2.37-8.86c3.29-12.3-4.03-24.98-16.34-28.28c-12.31-3.28-24.98,4.05-28.26,16.33l-14.33,53.47l-32.12,18.54v-37.64
	l38.51-38.51c4.36-4.36,6.76-10.16,6.76-16.33c0-6.17-2.4-11.97-6.76-16.33c-9-9-23.64-9-32.65,0l-5.86,5.86V44.61
	c0-12.73-10.36-23.09-23.09-23.09s-23.09,10.36-23.09,23.09V77.3l-6.49-6.49c-4.36-4.36-10.16-6.76-16.33-6.76
	c-6.17,0-11.97,2.4-16.32,6.76c-4.36,4.36-6.76,10.16-6.76,16.33c0,6.17,2.4,11.97,6.76,16.33l39.14,39.14v36.97l-32.6-18.82
	l-14.1-52.61c-3.29-12.29-15.99-19.61-28.28-16.33c-12.3,3.3-19.62,15.98-16.33,28.28l2.15,8.01L82.5,112.06
	c-11.01-6.36-25.17-2.57-31.54,8.45c-3.08,5.34-3.9,11.56-2.31,17.52c1.6,5.96,5.42,10.93,10.76,14.02l28.31,16.34l-8.86,2.37
	c-12.3,3.3-19.62,15.98-16.33,28.28c2.7,10.08,11.87,17.12,22.3,17.12c2.01,0,4.02-0.26,5.98-0.79l53.47-14.32l32.07,18.52
	l-32.59,18.82l-52.63-14.1c-12.29-3.28-24.98,4.05-28.27,16.33c-3.29,12.3,4.03,24.98,16.33,28.28l8.01,2.15l-27.77,16.03
	c-11.03,6.37-14.81,20.52-8.45,31.54c4.11,7.12,11.78,11.55,20.01,11.55c4.04,0,8.03-1.07,11.54-3.09l28.31-16.35l-2.37,8.86
	c-3.29,12.3,4.03,24.98,16.34,28.28c1.96,0.52,3.97,0.79,5.97,0.79c10.43,0,19.6-7.04,22.3-17.12l14.32-53.46l32.04-18.5v37.75
	l-38.51,38.51c-4.36,4.36-6.76,10.16-6.76,16.33c0,6.17,2.4,11.97,6.77,16.33c4.36,4.36,10.16,6.76,16.32,6.76
	c6.17,0,11.97-2.4,16.33-6.76l5.86-5.86v32.07c0,12.73,10.36,23.09,23.09,23.09s23.09-10.36,23.09-23.09v-32.69l6.49,6.49
	c4.36,4.36,10.16,6.76,16.33,6.76c6.17,0,11.96-2.4,16.33-6.76c4.36-4.36,6.76-10.16,6.76-16.33c0-6.17-2.4-11.97-6.76-16.33
	l-39.14-39.14v-37.11l32.58,18.81l14.1,52.61c2.7,10.08,11.87,17.12,22.3,17.12c2.01,0,4.02-0.26,5.99-0.79
	c12.3-3.3,19.62-15.98,16.33-28.28l-2.15-8l27.77,16.03c3.5,2.02,7.49,3.09,11.53,3.09c8.23,0,15.89-4.42,20.01-11.54
	C400.42,307.62,396.64,293.47,385.61,287.1z"/>
<path class="st0" d="M379.83,297.09l-52.45-30.28l35.78-9.59c6.16-1.65,9.81-7.98,8.16-14.14c-1.65-6.16-7.97-9.81-14.14-8.16
	l-58.08,15.56l-53.49-30.88l54.11-31.24l57.23,15.33c1,0.27,2.01,0.4,3,0.4c5.1,0,9.76-3.4,11.15-8.56c1.65-6.16-2-12.49-8.16-14.14
	l-34.92-9.36l51.91-29.97c5.52-3.19,7.42-10.25,4.23-15.77c-3.19-5.52-10.25-7.41-15.77-4.23l-52.45,30.28l9.59-35.78
	c1.65-6.16-2-12.49-8.16-14.14c-6.17-1.64-12.49,2.01-14.14,8.16l-15.57,58.09l-53.58,30.93V137.2l41.9-41.89
	c4.51-4.51,4.51-11.82,0-16.33c-4.51-4.51-11.82-4.51-16.33,0l-25.57,25.57V44.61c0-6.38-5.17-11.54-11.54-11.54
	s-11.54,5.17-11.54,11.54v60.56l-26.2-26.19c-4.51-4.51-11.82-4.51-16.33,0c-4.51,4.51-4.51,11.82,0,16.33l42.52,42.52v61.74
	l-54.06-31.21l-15.33-57.23c-1.65-6.16-7.97-9.81-14.14-8.16c-6.16,1.65-9.81,7.98-8.16,14.14l9.36,34.93l-51.91-29.97
	c-5.51-3.18-12.58-1.29-15.77,4.23c-3.19,5.52-1.29,12.58,4.23,15.77l52.45,30.28l-35.78,9.59c-6.16,1.65-9.81,7.98-8.16,14.14
	c1.38,5.16,6.05,8.56,11.15,8.56c0.99,0,1.99-0.13,3-0.4l58.08-15.56l53.54,30.91l-54.05,31.21l-57.23-15.34
	c-6.17-1.64-12.49,2.01-14.14,8.16c-1.65,6.16,2,12.49,8.16,14.14l34.93,9.36l-51.91,29.97c-5.52,3.19-7.42,10.25-4.23,15.77
	c2.14,3.7,6.02,5.77,10.01,5.77c1.96,0,3.95-0.5,5.76-1.55l52.45-30.28l-9.59,35.78c-1.65,6.16,2,12.49,8.16,14.14
	c1,0.27,2.01,0.4,3,0.4c5.1,0,9.76-3.4,11.15-8.56l15.56-58.08l53.49-30.88v62.53l-41.89,41.89c-4.51,4.51-4.51,11.82,0,16.33
	c2.25,2.25,5.21,3.38,8.16,3.38s5.91-1.13,8.16-3.38l25.57-25.57v59.94c0,6.38,5.17,11.54,11.54,11.54
	c6.37,0,11.54-5.17,11.54-11.54v-60.57l26.2,26.2c2.25,2.25,5.21,3.38,8.16,3.38s5.91-1.13,8.16-3.38c4.51-4.51,4.51-11.82,0-16.33
	l-42.52-42.52V239.6l54.04,31.2l15.33,57.23c1.38,5.16,6.05,8.56,11.15,8.56c0.99,0,1.99-0.13,3-0.4c6.16-1.65,9.81-7.98,8.16-14.14
	l-9.36-34.93l51.91,29.97c1.82,1.05,3.8,1.55,5.76,1.55c3.99,0,7.87-2.07,10.01-5.77C387.25,307.34,385.36,300.28,379.83,297.09z"/>
</svg>
