<?xml version="1.0" encoding="utf-8"?>
<!-- Generator: Adobe Illustrator 24.0.1, SVG Export Plug-In . SVG Version: 6.00 Build 0)  -->
<svg version="1.1" id="Layer_1" xmlns="http://www.w3.org/2000/svg" xmlns:xlink="http://www.w3.org/1999/xlink" x="0px" y="0px"
	 viewBox="0 0 512 512" style="enable-background:new 0 0 512 512;" xml:space="preserve">
<style type="text/css">
	.st0{fill:#FFFFFF;}
</style>
<path class="st0" d="M486.78,24.25l-5.72,5.23l5.47-5.47L361.48,37.63L158.51,280.79c-24.3-24.67-59.87-64.87-59.14-65.61
	l-37.19,37.19l64.57,80.14l-97.6,89.82l-3.83,23.3l19.14,19.14l1.56,1.56l21.09,21.09l22.56-3.09l90.55-98.34l78.2,62.62
	l37.19-37.19c-0.73,0.73-40.93-34.84-65.61-59.14l243.17-202.97L486.78,24.25z M451.47,139.27L215.69,336.44l-17.74-19.82
	L461.91,44.33L451.47,139.27z"/>
<path class="st0" d="M492.06,22.5l-5.72,5.23l5.47-5.47L366.76,35.89L163.79,279.05c-24.3-24.67-59.87-64.87-59.14-65.61
	l-37.19,37.19l64.57,80.14l-97.6,89.82l-3.83,23.3l19.14,19.14l1.56,1.56l21.09,21.09l22.56-3.09l90.55-98.34l78.2,62.62
	l37.19-37.19c-0.73,0.73-40.93-34.84-65.61-59.14l243.17-202.97L492.06,22.5z M456.75,137.52L220.97,334.7l-17.74-19.82
	L467.18,42.59L456.75,137.52z"/>
</svg>
