<?xml version="1.0" encoding="utf-8"?>
<!-- Generator: Adobe Illustrator 24.2.3, SVG Export Plug-In . SVG Version: 6.00 Build 0)  -->
<svg version="1.1" id="Layer_1" xmlns="http://www.w3.org/2000/svg" xmlns:xlink="http://www.w3.org/1999/xlink" x="0px" y="0px"
	 viewBox="0 0 128 128" style="enable-background:new 0 0 128 128;" xml:space="preserve">
<style type="text/css">
	.st0{fill:#FFFFFF;}
</style>
<path class="st0" d="M65.1,45.8c-1.8,0-3.3-1.5-3.3-3.3V37c0-1.8,1.5-3.3,3.3-3.3c1.8,0,3.3,1.5,3.3,3.3v5.4
	C68.4,44.3,66.9,45.8,65.1,45.8z M104.6,75c0-1.8-1.5-3.3-3.3-3.3h-5.4c-1.8,0-3.3,1.5-3.3,3.3s1.5,3.3,3.3,3.3h5.4
	C103.1,78.3,104.6,76.8,104.6,75z M46.1,52.9c1.2-1.3,1.2-3.4,0-4.7l-3.8-3.8c-1.3-1.3-3.4-1.3-4.7,0c-1.3,1.3-1.3,3.4,0,4.7
	l3.8,3.8C42.7,54.2,44.8,54.2,46.1,52.9z M24.4,71.3c0,1.8,1.5,3.3,3.3,3.3h5.4c1.8,0,3.3-1.5,3.3-3.3S34.9,68,33.1,68h-5.4
	C25.9,68,24.4,69.5,24.4,71.3z M28.3,57.1c-0.5,1.8,0.5,3.7,2.2,4.2l5.2,1.6c1.8,0.5,3.7-0.5,4.2-2.2c0.6-1.7-0.4-3.6-2.2-4.2
	l-5.2-1.6C30.7,54.4,28.8,55.4,28.3,57.1z M98.2,58.5L93,60.1c-1.8,0.6-2.8,2.5-2.2,4.2c0.5,1.7,2.4,2.7,4.2,2.2l5.2-1.6
	c1.7-0.5,2.7-2.4,2.2-4.2C101.9,59,100,58,98.2,58.5z M80.3,46.9l2.5-4.8c0.9-1.6,0.2-3.6-1.4-4.5c-1.6-0.9-3.6-0.2-4.5,1.4
	l-2.5,4.8c-0.9,1.6-0.2,3.6,1.4,4.5C77.4,49.2,79.4,48.5,80.3,46.9z M53.7,37.9c-0.9-1.6-2.9-2.3-4.5-1.4c-1.6,0.9-2.3,2.9-1.4,4.5
	l2.6,4.8c0.9,1.6,2.9,2.3,4.5,1.4c1.6-0.8,2.2-2.8,1.3-4.5L53.7,37.9z M55.1,71c-3.7,3.7-3.7,9.8,0,13.5c3.7,3.7,9.8,3.7,13.5,0
	c1-1,1.7-2.1,2.1-3.3l21.5-32.9l-0.4-0.6l-34,21.4C56.8,69.6,55.9,70.2,55.1,71z M33.4,81.3l-5.2,1.6c-1.7,0.5-2.7,2.4-2.2,4.2
	c0.5,1.7,2.4,2.7,4.2,2.2l5.2-1.6c1.8-0.6,2.8-2.4,2.2-4.2C37.1,81.8,35.2,80.8,33.4,81.3z M95.9,83.8c-1.8-0.5-3.7,0.5-4.2,2.2
	c-0.5,1.8,0.4,3.6,2.2,4.2l5.2,1.6c1.8,0.5,3.7-0.5,4.2-2.2c0.5-1.8-0.5-3.7-2.2-4.2L95.9,83.8z M29,99c0,0-9,5.5-8.2,5.5
	s86.7,0.1,86.7,0.1l-8.2-5.3L29,99z M63.9,23.1c-28.9,0-52.5,23.5-52.5,52.5c0,9.4,2.5,18.2,6.8,25.9l6.5-4.1
	c-3.6-6.4-5.6-13.9-5.6-21.7c0-24.8,20.1-44.9,44.8-44.9s44.8,20.1,44.8,44.8c0,7.8-2,15.2-5.6,21.6l6.5,4.1
	c4.3-7.6,6.8-16.4,6.8-25.7C116.4,46.7,92.9,23.1,63.9,23.1z"/>
</svg>
