<?xml version="1.0" encoding="utf-8"?>
<!-- Generator: Adobe Illustrator 24.2.3, SVG Export Plug-In . SVG Version: 6.00 Build 0)  -->
<svg version="1.1"
	 id="Layer_1" xmlns:cc="http://creativecommons.org/ns#" xmlns:dc="http://purl.org/dc/elements/1.1/" xmlns:rdf="http://www.w3.org/1999/02/22-rdf-syntax-ns#" xmlns:svg="http://www.w3.org/2000/svg"
	 xmlns="http://www.w3.org/2000/svg" xmlns:xlink="http://www.w3.org/1999/xlink" x="0px" y="0px" viewBox="0 0 256 256"
	 style="enable-background:new 0 0 256 256;" xml:space="preserve">
<style type="text/css">
	.st0{fill:#FFFFFF;}
</style>
<path class="st0" d="M252.8,52.2c-0.3-4.4-1.5-11.3-2.6-14.2c-1.4-3.7-0.4-4.5-18.6,13.7L215.2,68l-9.9-3.3
	c-5.6-1.9-10.1-3.6-10.4-4c-0.3-0.4-2.1-5.2-4-10.7l-3.5-10l16.4-16.4c9.4-9.4,16.3-16.6,16.2-16.9c-0.1-0.2-1.7-0.9-3.4-1.4
	c-9.9-3.1-22-3-31.7,0.2c-8.1,2.7-15.3,7.3-21.3,13.5c-5.3,5.6-9.2,12.1-11.7,19.5c-3.1,9.2-3.2,21.7-0.4,30.9l0.8,2.5l-0.9,0.9
	C150.2,74,11,202.2,6.9,206c-1.9,1.8-3.6,3.6-3.7,4.2c-0.4,1.4,2,9,4.2,13.8c2.7,5.7,5.2,9.3,9.3,13.5c6.9,7.2,13.9,11.4,23.6,14.3
	v0c4.6,1.4,5.3,1.5,6.6,0.8c0.5-0.3,31.6-33.9,69-74.8s68.3-74.3,68.6-74.2c6.5,2,8,2.2,16.6,2.2c7.9,0,8.8-0.1,12.4-1.1
	c13.4-3.6,24.3-11.5,31.6-22.8C250.4,73.5,253.4,62.2,252.8,52.2z M45.9,231.9L45.9,231.9c-6.7,1.8-12.7,0.2-17.3-4.6
	c-1.3-1.3-2.8-3.5-3.4-4.8c-1-2.1-1.1-2.8-1.1-7c0-4.4,0.1-4.8,1.3-7.3c1.6-3.3,5.2-6.8,8.5-8.4c2.1-1,2.8-1.1,7-1.1
	c4.4,0,4.8,0.1,7.3,1.3c3.2,1.6,6.9,5.2,8.3,8.3C60.7,217.6,55.5,229.2,45.9,231.9z"/>
</svg>
