<?xml version="1.0" encoding="UTF-8" standalone="no"?>
<svg
   xmlns:dc="http://purl.org/dc/elements/1.1/"
   xmlns:cc="http://creativecommons.org/ns#"
   xmlns:rdf="http://www.w3.org/1999/02/22-rdf-syntax-ns#"
   xmlns:svg="http://www.w3.org/2000/svg"
   xmlns="http://www.w3.org/2000/svg"
   version="1.1"
   id="Layer_1"
   width="256"
   height="256"
   viewBox="0 0 256 256">

  <style
     type="text/css">
	 .st0{fill:#FFFFFF;stroke-width:10;}
  </style>
  <path class="st0"
     d="m 40.273263,251.81138 c -9.702828,-2.88155 -16.744278,-7.15021 -23.640586,-14.33136 -4.087545,-4.25639 -6.57016,-7.88557 -9.2688232,-13.54956 -2.2760498,-4.77701 -4.60112,-12.34546 -4.2375766,-13.79394 0.1333875,-0.53148 1.8159297,-2.4018 3.7389693,-4.15626 C 11.034364,202.17661 150.15469,73.995167 151.45284,72.761424 l 0.89861,-0.854011 -0.78086,-2.506882 c -2.85006,-9.150009 -2.68801,-21.674513 0.39968,-30.890649 2.48693,-7.422981 6.37081,-13.883204 11.71265,-19.482103 5.95459,-6.241126 13.18242,-10.8441654 21.25268,-13.5347585 9.73763,-3.2464921 21.82265,-3.3243048 31.69982,-0.2041107 1.74111,0.5500213 3.28746,1.1971343 3.43635,1.4380457 0.15416,0.2494551 -6.80103,7.5113565 -16.15551,16.8679295 l -16.42624,16.429896 3.49551,9.972156 c 1.92253,5.484681 3.72016,10.279378 3.99473,10.65488 0.28441,0.388962 4.7393,2.11495 10.35337,4.011278 l 9.85414,3.328535 16.46122,-16.42029 c 18.15636,-18.111206 17.18065,-17.393734 18.574,-13.657996 1.1124,2.982435 2.36773,9.808906 2.61878,14.240838 0.57069,10.074622 -2.39189,21.3733 -7.80722,29.775135 -7.28854,11.308123 -18.19596,19.184093 -31.58348,22.805623 -3.64516,0.98607 -4.51095,1.06008 -12.40189,1.06008 -8.58096,0 -10.08428,-0.20234 -16.61573,-2.23634 -0.25154,-0.0784 -31.11451,33.30543 -68.58434,74.18615 -37.469843,40.88071 -68.530499,74.55312 -69.023693,74.82756 -1.240994,0.69057 -1.936179,0.60983 -6.552154,-0.76101 z m 5.655434,-19.95448 c 9.534053,-2.61943 14.743657,-14.26171 10.514947,-23.49845 -1.410808,-3.08161 -5.042788,-6.732 -8.268921,-8.31084 -2.518639,-1.2326 -2.880233,-1.29661 -7.295521,-1.29131 -4.191253,0.005 -4.873895,0.11202 -6.980756,1.09417 -3.259307,1.51937 -6.883643,5.09348 -8.486686,8.36906 -1.231057,2.51549 -1.296881,2.88575 -1.296881,7.29552 0,4.20677 0.103363,4.86612 1.094315,6.98092 0.60188,1.28446 2.133261,3.4246 3.403077,4.75588 4.617713,4.84119 10.633802,6.44108 17.316426,4.60505 z"
     />
</svg>
