<?xml version="1.0" encoding="utf-8"?>
<!-- Generator: Adobe Illustrator 24.2.3, SVG Export Plug-In . SVG Version: 6.00 Build 0)  -->
<svg version="1.1" id="Layer_1" xmlns="http://www.w3.org/2000/svg" xmlns:xlink="http://www.w3.org/1999/xlink" x="0px" y="0px"
	 viewBox="0 0 256 256" style="enable-background:new 0 0 256 256;" xml:space="preserve">
<style type="text/css">
	.st0{opacity:0.25;fill:#FFFFFF;enable-background:new    ;}
	.st1{fill:#FFFFFF;}
</style>
<path class="st0" d="M137.5,36.9V14c122,0.4,106.9,67.5,106.7,144.5c-15.3,4.9-51.1,22.2-106.7,19.4V155
	c17.4-1.1,29.6-12.3,29.6-29.9V66.8C167.1,49.1,154.8,38,137.5,36.9z M118.5,177.9V155c-17.4-1.1-29.6-12.2-29.6-29.9V66.8
	c0-17.6,12.2-28.8,29.6-29.9V14C-3.4,14.4,11.7,81.5,11.9,158.5C27.2,163.4,63,180.7,118.5,177.9z M103.6,66.3v6.8h-0.1v43.6h48.6
	V73.1h0.3v-6.8c0-5.5-7.9-13.4-13.4-13.4h-10h-2h-10C111.5,52.9,103.6,60.8,103.6,66.3z M245.2,175.1c-13,3.5-54.1,20.1-117.2,20.5
	c-63.1-0.5-104.2-17-117.2-20.5c0,30-1.5,45.1-0.8,66.9h236C246.8,220.2,245.3,205.2,245.2,175.1z"/>
<path class="st1" d="M152.4,116.7v8.9c0,5.5-7.9,13.4-13.4,13.4h-10h-2h-10c-5.5,0-13.4-7.9-13.4-13.4v-8.9H152.4z M73.2,147.5
	c-0.2-0.2-0.3-0.4-0.4-0.6s-0.1-0.5-0.1-0.9s0-0.7,0-1s0-0.7,0-1s0-0.7,0-1s0-0.6-0.1-0.9s-0.2-0.5-0.4-0.6s-0.3-0.4-0.4-0.6
	s-0.1-0.5-0.1-0.9s0-0.7,0-1s0-0.7,0-1s0-0.7,0-1s0-0.6-0.1-0.9s-0.2-0.5-0.4-0.6s-0.3-0.4-0.4-0.6s-0.1-0.5-0.1-0.9s0-0.7,0-1
	s0-0.7,0-1s0-0.7,0-1s0-0.6-0.1-0.9s-0.2-0.5-0.4-0.6s-0.3-0.4-0.4-0.6s-0.1-0.5-0.1-0.9s0-0.7,0-1s0-0.7,0-1s0-0.7,0-1
	s0-0.6-0.1-0.9s-0.2-0.5-0.4-0.6s-0.3-0.4-0.4-0.6s-0.1-0.5-0.1-0.9s0-0.7,0-1s0-0.7,0-1s0-0.7,0-1s0-0.6-0.1-0.9s-0.3-0.4-0.5-0.5
	s-0.5-0.1-0.8,0s-0.5,0.2-0.6,0.4s-0.3,0.3-0.5,0.5s-0.3,0.3-0.5,0.5s-0.3,0.3-0.5,0.5s-0.3,0.3-0.5,0.5s-0.3,0.3-0.5,0.5
	s-0.3,0.3-0.5,0.5s-0.3,0.3-0.5,0.5s-0.3,0.3-0.5,0.5s-0.3,0.3-0.5,0.5c-0.2,0.2-0.3,0.3-0.5,0.5c-0.2,0.2-0.3,0.3-0.5,0.5
	c-0.2,0.2-0.3,0.3-0.5,0.5c-0.2,0.2-0.3,0.3-0.5,0.5c-0.2,0.2-0.3,0.3-0.5,0.5c-0.2,0.2-0.3,0.3-0.5,0.5c-0.2,0.2-0.3,0.3-0.5,0.5
	c-0.2,0.2-0.3,0.3-0.5,0.5c-0.2,0.2-0.3,0.3-0.5,0.5c-0.2,0.2-0.4,0.3-0.6,0.4s-0.5,0.1-0.8,0s-0.5-0.2-0.6-0.4
	c-0.2-0.2-0.3-0.3-0.5-0.5c-0.2-0.2-0.3-0.4-0.4-0.6c-0.1-0.3-0.2-0.5-0.3-0.8c-0.1-0.3-0.2-0.5-0.4-0.6c-0.2-0.2-0.3-0.3-0.5-0.5
	c-0.2-0.2-0.3-0.3-0.5-0.5c-0.2-0.2-0.3-0.3-0.5-0.5c-0.2-0.2-0.3-0.3-0.5-0.5c-0.2-0.2-0.3-0.4-0.4-0.6c-0.1-0.3-0.2-0.5-0.3-0.8
	c-0.1-0.3-0.2-0.5-0.4-0.6c-0.2-0.2-0.3-0.4-0.4-0.6c-0.1-0.3-0.2-0.5-0.3-0.8c-0.1-0.3-0.2-0.5-0.4-0.6c-0.2-0.2-0.3-0.4-0.4-0.6
	c-0.1-0.3-0.2-0.5-0.3-0.8c-0.1-0.3-0.2-0.5-0.4-0.6c-0.2-0.2-0.3-0.3-0.5-0.5c-0.2-0.2-0.3-0.3-0.5-0.5c-0.2-0.2-0.3-0.4-0.4-0.6
	c-0.1-0.3-0.2-0.5-0.3-0.8c-0.1-0.3-0.2-0.5-0.4-0.6c-0.2-0.2-0.3-0.4-0.4-0.6c-0.1-0.3-0.2-0.5-0.3-0.8c-0.1-0.3-0.2-0.5-0.4-0.6
	c-0.2-0.2-0.3-0.4-0.4-0.6c-0.1-0.3-0.1-0.5-0.1-0.9s0-0.7,0-1s0-0.6-0.1-0.9c-0.1-0.3-0.2-0.5-0.4-0.6c-0.2-0.2-0.3-0.4-0.4-0.6
	c-0.1-0.3-0.1-0.5-0.1-0.9s0-0.7,0-1s0-0.7,0-1s0-0.7,0-1s0-0.7,0-1s0-0.7,0-1s0-0.7,0-1s0-0.7,0-1s0-0.6-0.1-0.9
	c-0.1-0.3-0.3-0.4-0.5-0.5s-0.5-0.1-0.9-0.1c-0.3,0-0.7,0-1,0c-0.3,0-0.7,0-1,0c-0.3,0-0.7,0-1,0c-0.3,0-0.7,0-1,0c-0.3,0-0.7,0-1,0
	c-0.3,0-0.7,0-1,0c-0.3,0-0.7,0-1,0c-0.3,0-0.7,0-1,0c-0.3,0-0.7,0-1,0c-0.3,0-0.7,0-1,0c-0.3,0-0.7,0-1,0c-0.3,0-0.7,0-1,0h-0.5V98
	v0.5V99v0.5v0.5v0.5v0.5v0.5v0.5v0.5l0.4,0.1c0.3,0.1,0.4,0.3,0.5,0.5c0.1,0.3,0.1,0.5,0.1,0.9s0,0.7,0,1s0,0.6,0.1,0.9
	c0.1,0.3,0.2,0.5,0.4,0.6c0.2,0.2,0.3,0.4,0.4,0.6c0.1,0.3,0.1,0.5,0.1,0.9s0,0.7,0,1s0,0.6,0.1,0.9c0.1,0.3,0.2,0.5,0.4,0.6
	c0.2,0.2,0.3,0.4,0.4,0.6c0.1,0.3,0.1,0.5,0.1,0.9s0,0.6,0.1,0.9c0.1,0.3,0.2,0.5,0.4,0.6c0.2,0.2,0.3,0.4,0.4,0.6
	c0.1,0.3,0.1,0.5,0.1,0.9s0,0.7,0,1s0,0.6,0.1,0.9c0.1,0.3,0.2,0.5,0.4,0.6c0.2,0.2,0.3,0.3,0.5,0.5c0.2,0.2,0.3,0.3,0.5,0.5
	c0.2,0.2,0.3,0.4,0.4,0.6c0.1,0.3,0.2,0.5,0.3,0.8c0.1,0.3,0.2,0.5,0.4,0.6c0.2,0.2,0.3,0.3,0.5,0.5c0.2,0.2,0.3,0.3,0.5,0.5
	c0.2,0.2,0.3,0.4,0.4,0.6c0.1,0.3,0.2,0.5,0.3,0.8c0.1,0.3,0.2,0.5,0.4,0.6c0.2,0.2,0.3,0.4,0.4,0.6c0.1,0.3,0.2,0.5,0.3,0.8
	c0.1,0.3,0.2,0.5,0.4,0.6c0.2,0.2,0.3,0.3,0.5,0.5c0.2,0.2,0.3,0.3,0.5,0.5c0.2,0.2,0.3,0.4,0.4,0.6c0.1,0.3,0.2,0.5,0.3,0.8
	c0.1,0.3,0.2,0.5,0.4,0.6c0.2,0.2,0.3,0.3,0.5,0.5c0.2,0.2,0.3,0.3,0.5,0.5c0.2,0.2,0.3,0.3,0.5,0.5c0.2,0.2,0.3,0.3,0.5,0.5
	c0.2,0.2,0.3,0.4,0.4,0.6c0.1,0.3,0.2,0.5,0.3,0.8c0.1,0.3,0.2,0.5,0.4,0.6c0.2,0.2,0.3,0.3,0.5,0.5c0.2,0.2,0.3,0.3,0.5,0.5
	c0.2,0.2,0.3,0.3,0.5,0.5c0.2,0.2,0.3,0.3,0.5,0.5c0.2,0.2,0.3,0.4,0.4,0.6c0.1,0.3,0.2,0.5,0.3,0.8c0.1,0.3,0.2,0.5,0.4,0.6
	c0.2,0.2,0.3,0.3,0.3,0.5s-0.1,0.3-0.3,0.5c-0.2,0.2-0.3,0.3-0.5,0.5c-0.2,0.2-0.3,0.3-0.5,0.5c-0.2,0.2-0.3,0.3-0.5,0.5
	c-0.2,0.2-0.3,0.3-0.5,0.5c-0.2,0.2-0.3,0.3-0.5,0.5c-0.2,0.2-0.3,0.3-0.5,0.5c-0.2,0.2-0.3,0.3-0.5,0.5c-0.2,0.2-0.3,0.3-0.5,0.5
	c-0.2,0.2-0.3,0.3-0.5,0.5c-0.2,0.2-0.3,0.3-0.5,0.5c-0.2,0.2-0.3,0.3-0.5,0.5c-0.2,0.2-0.3,0.3-0.5,0.5c-0.2,0.2-0.3,0.3-0.5,0.5
	c-0.2,0.2-0.3,0.3-0.5,0.5c-0.2,0.2-0.3,0.3-0.5,0.5c-0.2,0.2-0.3,0.3-0.5,0.5c-0.2,0.2-0.3,0.3-0.5,0.5c-0.2,0.2-0.3,0.3-0.5,0.5
	c-0.2,0.2-0.3,0.3-0.5,0.5c-0.2,0.2-0.3,0.3-0.5,0.5c-0.2,0.2-0.3,0.3-0.3,0.5s0.1,0.3,0.4,0.4s0.5,0.1,0.9,0.1c0.3,0,0.7,0,1,0
	c0.3,0,0.7,0,1,0c0.3,0,0.7,0,1,0c0.3,0,0.6,0,0.9,0.1s0.5,0.2,0.6,0.4c0.2,0.2,0.4,0.3,0.6,0.4s0.5,0.1,0.9,0.1c0.3,0,0.7,0,1,0
	c0.3,0,0.7,0,1,0c0.3,0,0.7,0,1,0c0.3,0,0.6,0,0.9,0.1s0.5,0.2,0.6,0.4c0.2,0.2,0.4,0.3,0.6,0.4s0.5,0.1,0.9,0.1c0.3,0,0.7,0,1,0
	c0.3,0,0.7,0,1,0c0.3,0,0.7,0,1,0c0.3,0,0.6,0,0.9,0.1s0.5,0.2,0.6,0.4c0.2,0.2,0.4,0.3,0.6,0.4s0.5,0.1,0.9,0.1c0.3,0,0.7,0,1,0
	c0.3,0,0.7,0,1,0c0.3,0,0.7,0,1,0c0.3,0,0.6,0,0.9,0.1s0.5,0.2,0.6,0.4c0.2,0.2,0.4,0.3,0.6,0.4s0.5,0.1,0.9,0.1s0.7,0,1,0
	s0.7,0,1,0s0.7,0,1,0s0.6,0,0.9,0.1s0.5,0.2,0.6,0.4s0.4,0.3,0.6,0.4s0.5,0.1,0.9,0.1s0.7,0,1,0s0.7,0,1,0s0.7,0,1,0s0.6,0,0.9-0.1
	s0.4-0.3,0.5-0.5s0.1-0.5,0.1-0.9s0-0.7,0-1s0-0.7,0-1s0-0.7,0-1s0-0.6-0.1-0.9S73.4,147.7,73.2,147.5z"/>
</svg>
