<?xml version="1.0" encoding="utf-8"?>
<!-- Generator: Adobe Illustrator 24.2.3, SVG Export Plug-In . SVG Version: 6.00 Build 0)  -->
<svg version="1.1" id="Layer_1" xmlns="http://www.w3.org/2000/svg" xmlns:xlink="http://www.w3.org/1999/xlink" x="0px" y="0px"
	 viewBox="0 0 256 256" style="enable-background:new 0 0 256 256;" xml:space="preserve">
<style type="text/css">
	.st0{fill:#FFFFFF;}
	.st1{opacity:0.25;fill:#FFFFFF;enable-background:new    ;}
</style>
<path class="st0" d="M152.4,66.3v6.8h-48.8v-6.8c0-5.5,7.9-13.4,13.4-13.4h10h2h10C144.5,52.9,152.4,60.8,152.4,66.3z M103.6,125.6
	c0,5.5,7.9,13.4,13.4,13.4h10h2h10c5.5,0,13.4-7.9,13.4-13.4v-8.9h-48.8V125.6z M58.4,129.8c-10.6-10.6-13.7-21.6-13.2-31.6
	c-0.5-10,2.6-21,13.2-31.6L70,78.1l6.7-38.6l-38.6,6.7L49.8,58c0,0-18.5,16.5-19,40.2c0.6,23.7,19,40.2,19,40.2l-11.6,11.7l38.6,6.7
	L70,118.3L58.4,129.8z"/>
<path class="st1" d="M137.5,36.9V14c122,0.4,106.9,67.5,106.7,144.5c-15.3,4.9-51.1,22.2-106.7,19.4V155
	c17.4-1.1,29.6-12.3,29.6-29.9V66.8C167.1,49.1,154.8,38,137.5,36.9z M118.5,177.9V155c-17.4-1.1-29.6-12.2-29.6-29.9V66.8
	c0-17.6,12.2-28.8,29.6-29.9V14C-3.4,14.4,11.7,81.5,11.9,158.5C27.2,163.4,63,180.7,118.5,177.9z M152.1,73.1h-48.6v43.6h48.6V73.1
	z M245.2,175.1c-13,3.5-54.1,20.1-117.2,20.5c-63.1-0.5-104.2-17-117.2-20.5c0,30-1.5,45.1-0.8,66.9h236
	C246.8,220.2,245.3,205.2,245.2,175.1z"/>
</svg>
