<?xml version="1.0" encoding="utf-8"?>
<!-- Generator: Adobe Illustrator 24.2.3, SVG Export Plug-In . SVG Version: 6.00 Build 0)  -->
<svg version="1.1" id="Layer_1" xmlns="http://www.w3.org/2000/svg" xmlns:xlink="http://www.w3.org/1999/xlink" x="0px" y="0px"
	 viewBox="0 0 422 256" style="enable-background:new 0 0 422 256;" xml:space="preserve">
<style type="text/css">
	.st0{fill:#FFFFFF;}
</style>
<path class="st0" d="M359.8,17.5H62.3c-21,0-38.3,17.2-38.3,38.3v144.5c0,21,17.2,38.3,38.3,38.3h297.5c21,0,38.3-17.2,38.3-38.3
	V55.8C398,34.7,380.8,17.5,359.8,17.5z M379.6,175.8L379.6,175.8c-0.1,12-9.9,21.8-21.9,21.8H64.3c-12,0-21.8-9.8-21.8-21.8V57.3
	c0-12,9.8-21.8,21.8-21.8h293.5c12,0,21.8,9.8,21.8,21.8V175.8z M85.6,118.4c0,18.1,10.8,29.6,28.9,29.6c6.3,0,13-1.2,17.2-3l3,16.2
	c-3.6,1.7-12.2,3.9-23.1,3.9c-31.3,0-47.5-19.6-47.5-45.4c0-30.9,22-48,49.5-48c10.6,0,18.7,2,22.3,4l-4.3,16.1
	c-4-1.7-9.8-3.4-17.2-3.4C98.3,88.4,85.6,98.2,85.6,118.4z M170.4,97.9h14.7V113h-14.7v23.8c0,7.9,2,11.6,8.1,11.6
	c2.8,0,4.2-0.1,6-0.5l0.1,15.5c-2.6,0.9-7.5,1.7-13.2,1.7c-6.6,0-12.1-2.3-15.5-5.6c-3.8-3.9-5.6-10.2-5.6-19.5v-27h-8.7V97.9h8.7
	V85.7l20.1-5.5V97.9z M232.9,96.3c1.9,0,2.8,0.1,4.3,0.4v19.2c-1.6-0.3-3.2-0.5-5.5-0.5c-7.5,0-12.6,4-14,10.4
	c-0.3,1.3-0.4,3-0.4,4.6v33.3h-20.4v-44.2c0-9.7-0.1-16-0.5-21.6h17.5l0.8,12.1h0.5C218.6,100.3,226.5,96.3,232.9,96.3z M247.6,68.2
	H268v95.4h-20.4V68.2z"/>
</svg>
