<?xml version="1.0" encoding="utf-8"?>
<!-- Generator: Adobe Illustrator 21.0.1, SVG Export Plug-In . SVG Version: 6.00 Build 0)  -->
<svg version="1.1" id="Layer_1" xmlns="http://www.w3.org/2000/svg" xmlns:xlink="http://www.w3.org/1999/xlink" x="0px" y="0px"
	 viewBox="0 0 256 256" style="enable-background:new 0 0 256 256;" xml:space="preserve">
<style type="text/css">
	.st0{opacity:0.25;fill:#FFFFFF;}
	.st1{fill:#FFFFFF;}
</style>
<path class="st0" d="M167.1,66.8v58.3c0,17.6-12.2,28.8-29.6,29.9v22.9c55.6,2.8,91.4-14.5,106.7-19.4
	c0.2-77,15.3-144.1-106.7-144.5v22.9C154.8,38,167.1,49.1,167.1,66.8z"/>
<path class="st0" d="M118.5,177.9V155c-17.4-1.1-29.6-12.2-29.6-29.9V66.8c0-17.6,12.2-28.8,29.6-29.9V14
	C-3.4,14.4,11.7,81.5,11.9,158.5C27.2,163.4,63,180.7,118.5,177.9z"/>
<path class="st1" d="M152.4,73.1v-6.8c0-5.5-7.9-13.4-13.4-13.4h-10h-2h-10c-5.5,0-13.4,7.9-13.4,13.4v6.8H152.4z"/>
<path class="st1" d="M103.6,116.7v8.9c0,5.5,7.9,13.4,13.4,13.4h10h2h10c5.5,0,13.4-7.9,13.4-13.4v-8.9H103.6z"/>
<rect x="103.5" y="73.1" class="st0" width="48.6" height="43.6"/>
<path class="st0" d="M246,242c0.8-21.8-0.7-36.8-0.8-66.9c-13,3.5-54.1,20.1-117.2,20.5c-63.1-0.5-104.2-17-117.2-20.5
	c0,30-1.5,45.1-0.8,66.9H246z"/>
<g transform="translate(30.7,39.5)">
<path class="st1" d="M 37,1.5 Q 37.25,1.25 37.625,1.125 38,1 38.5,1 q 0.5,0 1,0 0.5,0 1,0 0.5,0 1,0 0.5,0 0.875,0.125 0.375,0.125 0.5,0.5 Q 43,2 43,2.5 q 0,0.5 0,1 0,0.5 0,1 0,0.5 0,1 Q 43,6 42.875,6.375 42.75,6.75 42.5,7 42.25,7.25 42.125,7.625 42,8 42,8.5 q 0,0.5 0,1 0,0.5 0,1 0,0.5 0,1 0,0.5 -0.125,0.875 Q 41.75,12.75 41.5,13 41.25,13.25 41.125,13.625 41,14 41,14.5 q 0,0.5 0,1 0,0.5 0,1 0,0.5 0,1 0,0.5 -0.125,0.875 Q 40.75,18.75 40.5,19 40.25,19.25 40.125,19.625 40,20 40,20.5 q 0,0.5 0,1 0,0.5 0,1 0,0.5 0,1 0,0.5 -0.125,0.875 Q 39.75,24.75 39.5,25 39.25,25.25 39.125,25.625 39,26 39,26.5 q 0,0.5 0,1 0,0.5 0,1 0,0.5 0,1 0,0.5 -0.125,0.875 Q 38.75,30.75 38.5,31 38.25,31.25 38.125,31.625 38,32 38,32.5 q 0,0.5 0,1 0,0.5 0,1 0,0.5 0,1 0,0.5 -0.125,0.875 -0.125,0.375 -0.5,0.5 Q 37,37 36.625,36.875 36.25,36.75 36,36.5 35.75,36.25 35.5,36 35.25,35.75 35,35.5 34.75,35.25 34.5,35 34.25,34.75 34,34.5 33.75,34.25 33.5,34 33.25,33.75 33,33.5 32.75,33.25 32.5,33 32.25,32.75 32,32.5 31.75,32.25 31.5,32 31.25,31.75 31,31.5 30.75,31.25 30.5,31 30.25,30.75 30,30.5 29.75,30.25 29.5,30 29.25,29.75 29,29.5 28.75,29.25 28.5,29 28.25,28.75 28,28.5 27.75,28.25 27.5,28 27.25,27.75 27,27.5 26.75,27.25 26.375,27.125 26,27 25.625,27.125 25.25,27.25 25,27.5 24.75,27.75 24.5,28 24.25,28.25 24.125,28.625 24,29 23.875,29.375 23.75,29.75 23.5,30 23.25,30.25 23,30.5 22.75,30.75 22.5,31 22.25,31.25 22,31.5 21.75,31.75 21.5,32 21.25,32.25 21.125,32.625 21,33 20.875,33.375 20.75,33.75 20.5,34 20.25,34.25 20.125,34.625 20,35 19.875,35.375 19.75,35.75 19.5,36 19.25,36.25 19.125,36.625 19,37 18.875,37.375 18.75,37.75 18.5,38 18.25,38.25 18,38.5 17.75,38.75 17.5,39 17.25,39.25 17.125,39.625 17,40 16.875,40.375 16.75,40.75 16.5,41 16.25,41.25 16.125,41.625 16,42 15.875,42.375 15.75,42.75 15.5,43 15.25,43.25 15.125,43.625 15,44 15,44.5 q 0,0.5 0,1 0,0.5 -0.125,0.875 Q 14.75,46.75 14.5,47 14.25,47.25 14.125,47.625 14,48 14,48.5 q 0,0.5 0,1 0,0.5 0,1 0,0.5 0,1 0,0.5 0,1 0,0.5 0,1 0,0.5 0,1 0,0.5 0,1 0,0.5 -0.125,0.875 -0.125,0.375 -0.5,0.5 Q 13,57 12.5,57 q -0.5,0 -1,0 -0.5,0 -1,0 -0.5,0 -1,0 -0.5,0 -1,0 -0.5,0 -1,0 -0.5,0 -1,0 -0.5,0 -1,0 -0.5,0 -1,0 -0.5,0 -1,0 -0.5,0 -1,0 -0.5,0 -1,0 -0.5,0 -1,0 H 0 V 56.5 56 55.5 55 54.5 54 53.5 53 52.5 52 L 0.375,51.875 Q 0.75,51.75 0.875,51.375 1,51 1,50.5 1,50 1,49.5 1,49 1.125,48.625 1.25,48.25 1.5,48 1.75,47.75 1.875,47.375 2,47 2,46.5 2,46 2,45.5 2,45 2.125,44.625 2.25,44.25 2.5,44 2.75,43.75 2.875,43.375 3,43 3,42.5 3,42 3.125,41.625 3.25,41.25 3.5,41 3.75,40.75 3.875,40.375 4,40 4,39.5 4,39 4,38.5 4,38 4.125,37.625 4.25,37.25 4.5,37 4.75,36.75 5,36.5 5.25,36.25 5.5,36 5.75,35.75 5.875,35.375 6,35 6.125,34.625 6.25,34.25 6.5,34 6.75,33.75 7,33.5 7.25,33.25 7.5,33 7.75,32.75 7.875,32.375 8,32 8.125,31.625 8.25,31.25 8.5,31 8.75,30.75 8.875,30.375 9,30 9.125,29.625 9.25,29.25 9.5,29 9.75,28.75 10,28.5 10.25,28.25 10.5,28 10.75,27.75 10.875,27.375 11,27 11.125,26.625 11.25,26.25 11.5,26 11.75,25.75 12,25.5 12.25,25.25 12.5,25 12.75,24.75 13,24.5 13.25,24.25 13.5,24 13.75,23.75 13.875,23.375 14,23 14.125,22.625 14.25,22.25 14.5,22 14.75,21.75 15,21.5 15.25,21.25 15.5,21 15.75,20.75 16,20.5 16.25,20.25 16.5,20 16.75,19.75 16.875,19.375 17,19 17.125,18.625 17.25,18.25 17.5,18 17.75,17.75 17.75,17.5 17.75,17.25 17.5,17 17.25,16.75 17,16.5 16.75,16.25 16.5,16 16.25,15.75 16,15.5 15.75,15.25 15.5,15 15.25,14.75 15,14.5 14.75,14.25 14.5,14 14.25,13.75 14,13.5 13.75,13.25 13.5,13 13.25,12.75 13,12.5 12.75,12.25 12.5,12 12.25,11.75 12,11.5 11.75,11.25 11.5,11 11.25,10.75 11,10.5 10.75,10.25 10.5,10 10.25,9.75 10,9.5 9.75,9.25 9.5,9 9.25,8.75 9,8.5 8.75,8.25 8.5,8 8.25,7.75 8,7.5 7.75,7.25 7.5,7 7.25,6.75 7.25,6.5 7.25,6.25 7.625,6.125 8,6 8.5,6 9,6 9.5,6 10,6 10.5,6 11,6 11.5,6 12,6 12.375,5.875 12.75,5.75 13,5.5 13.25,5.25 13.625,5.125 14,5 14.5,5 q 0.5,0 1,0 0.5,0 1,0 0.5,0 1,0 Q 18,5 18.375,4.875 18.75,4.75 19,4.5 19.25,4.25 19.625,4.125 20,4 20.5,4 q 0.5,0 1,0 0.5,0 1,0 0.5,0 1,0 Q 24,4 24.375,3.875 24.75,3.75 25,3.5 25.25,3.25 25.625,3.125 26,3 26.5,3 q 0.5,0 1,0 0.5,0 1,0 0.5,0 1,0 Q 30,3 30.375,2.875 30.75,2.75 31,2.5 31.25,2.25 31.625,2.125 32,2 32.5,2 q 0.5,0 1,0 0.5,0 1,0 0.5,0 1,0 Q 36,2 36.375,1.875 36.75,1.75 37,1.5"/>
</g>
<g>
</g>
<g>
</g>
<g>
</g>
<g>
</g>
<g>
</g>
<g>
</g>
<g>
</g>
<g>
</g>
<g>
</g>
<g>
</g>
<g>
</g>
<g>
</g>
<g>
</g>
<g>
</g>
<g>
</g>
</svg>
