<?xml version="1.0" encoding="utf-8"?>
<!-- Generator: Adobe Illustrator 21.0.1, SVG Export Plug-In . SVG Version: 6.00 Build 0)  -->
<svg version="1.1" id="Layer_1" xmlns="http://www.w3.org/2000/svg" xmlns:xlink="http://www.w3.org/1999/xlink" x="0px" y="0px"
	 viewBox="0 0 422 256" style="enable-background:new 0 0 422 256;" xml:space="preserve">
<style type="text/css">
	.st0{fill:#FFFFFF;}
</style>
<path class="st0" d="M359.8,17.5H62.3c-21,0-38.3,17.2-38.3,38.3v144.5c0,21,17.2,38.3,38.3,38.3h297.5c21,0,38.3-17.2,38.3-38.3
	V55.8C398,34.7,380.8,17.5,359.8,17.5z M379.5,175.8c0,12-9.8,21.8-21.8,21.8H64.3c-12,0-21.8-9.8-21.8-21.8V57.3
	c0-12,9.8-21.8,21.8-21.8h293.5c12,0,21.8,9.8,21.8,21.8V175.8z"/>
<g>
	<path class="st0" d="M134.7,145.2c-3.6,1.7-12.2,3.9-23.1,3.9c-31.3,0-47.5-19.6-47.5-45.4c0-30.9,22-48,49.5-48
		c10.6,0,18.7,2,22.3,4l-4.3,16.1c-4-1.7-9.8-3.4-17.2-3.4c-16.1,0-28.8,9.8-28.8,30c0,18.1,10.8,29.6,28.9,29.6
		c6.3,0,13-1.2,17.2-3L134.7,145.2z"/>
	<path class="st0" d="M170.4,64.2v17.7h14.7V97h-14.7v23.8c0,7.9,2,11.6,8.1,11.6c2.8,0,4.2-0.1,6-0.5l0.1,15.5
		c-2.6,0.9-7.5,1.7-13.2,1.7c-6.6,0-12.1-2.3-15.5-5.6c-3.8-3.9-5.6-10.2-5.6-19.5V97h-8.7V81.9h8.7V69.7L170.4,64.2z"/>
	<path class="st0" d="M196.9,103.5c0-9.7-0.1-16-0.5-21.6h17.5l0.8,12.1h0.5c3.4-9.7,11.3-13.7,17.7-13.7c1.9,0,2.8,0.1,4.3,0.4
		v19.2c-1.6-0.3-3.2-0.5-5.5-0.5c-7.5,0-12.6,4-14,10.4c-0.3,1.3-0.4,3-0.4,4.6v33.3h-20.4V103.5z"/>
	<path class="st0" d="M247.6,52.2H268v95.4h-20.4V52.2z"/>
</g>
<g>
</g>
<g>
</g>
<g>
</g>
<g>
</g>
<g>
</g>
<g>
</g>
<g>
</g>
<g>
</g>
<g>
</g>
<g>
</g>
<g>
</g>
<g>
</g>
<g>
</g>
<g>
</g>
<g>
</g>
</svg>
