<?xml version="1.0" encoding="utf-8"?>
<!-- Generator: Adobe Illustrator 21.0.1, SVG Export Plug-In . SVG Version: 6.00 Build 0)  -->
<svg version="1.1" id="Layer_1" xmlns="http://www.w3.org/2000/svg" xmlns:xlink="http://www.w3.org/1999/xlink" x="0px" y="0px"
	 viewBox="0 0 256 256" style="enable-background:new 0 0 256 256;" xml:space="preserve">
<style type="text/css">
	.st0{fill:#FFFFFF;}
	.st1{opacity:0.25;fill:#FFFFFF;}
</style>
<path class="st0" d="M167.1,66.8v58.3c0,17.6-12.2,28.8-29.6,29.9v22.9c55.6,2.8,91.4-14.5,106.7-19.4
	c0.2-77,15.3-144.1-106.7-144.5v22.9C154.8,38,167.1,49.1,167.1,66.8z"/>
<path class="st1" d="M118.5,177.9V155c-17.4-1.1-29.6-12.2-29.6-29.9V66.8c0-17.6,12.2-28.8,29.6-29.9V14
	C-3.4,14.4,11.7,81.5,11.9,158.5C27.2,163.4,63,180.7,118.5,177.9z"/>
<path class="st1" d="M152.4,73.1v-6.8c0-5.5-7.9-13.4-13.4-13.4h-10h-2h-10c-5.5,0-13.4,7.9-13.4,13.4v6.8h-0.1v43.6h0.1v8.9
	c0,5.5,7.9,13.4,13.4,13.4h10h2h10c5.5,0,13.4-7.9,13.4-13.4v-8.9h-0.3V73.1H152.4z"/>
<path class="st1" d="M246,242c0.8-21.8-0.7-36.8-0.8-66.9c-13,3.5-54.1,20.1-117.2,20.5c-63.1-0.5-104.2-17-117.2-20.5
	c0,30-1.5,45.1-0.8,66.9H246z"/>
<g>
</g>
<g>
</g>
<g>
</g>
<g>
</g>
<g>
</g>
<g>
</g>
<g>
</g>
<g>
</g>
<g>
</g>
<g>
</g>
<g>
</g>
<g>
</g>
<g>
</g>
<g>
</g>
<g>
</g>
</svg>
