<svg xmlns="http://www.w3.org/2000/svg" viewBox="0 0 260.66 425.21"><defs>
<style>
.a{fill:#fff;}
.st0 {}
</style></defs><title>Flag</title>
<path class="st0" fill="#ff0000" d="M253.66,53V365.6a2.41,2.41,0,0,1-3,2.34c-61-15.86-123.57-32.45-184.45-48.27a3.37,3.37,0,0,1-2.53-3.29L64.66,57c0-2.58,1.42-5,4-5Z"/>
<path class="a" d="M260.2,9.9a16.76,16.76,0,0,1,.25,6.38,19.79,19.79,0,0,0,0,3.77q0,4.08,0,8.17h-1.16c0-4.4-.16-8.3-.5-9.39-3.2-.42-8.23-.3-9.91.23-.6.82.2,2.11-1,2.72-1.46-.43-.65-2.21-1.87-3H59.73L58.1,20.26a33.25,33.25,0,0,0-.57,7.42H56.31c0-1.45,0-2.91,0-4.37s.1-3,1.21-4.07c-1-1.14-2-2.12-2.86-3.25a14.85,14.85,0,0,0-7.85-5.61,9.14,9.14,0,0,1-1.48-.63l.23-1c4.93,1.14,8.32,4.13,11.14,8.2l2.16-2A23.36,23.36,0,0,0,57,12.3l1-.39c.56.72,1.09,1.48,1.6,2.28H257a17.16,17.16,0,0,0,1.76-.14c.08,0,.14-.08.21-.14l.19-.18v-3.1c-2.55-2.62-5.87-3.58-8.79-5.24a8.73,8.73,0,0,0-2.56-1l.17-.89a19.56,19.56,0,0,1,6.51,2.66C256.46,7.44,258.41,8.74,260.2,9.9Zm-2,7.19c.37-.12.63-.59,1.38-1.36-1.64,0-2.69-.08-3.75-.08H60.55a1.74,1.74,0,0,0-1.92,1.46c.8,0,1.54.1,2.28.1l195.57,0A6.35,6.35,0,0,0,258.23,17.09Zm1.08,11.13c0,6.11-.31,13.18-.82,14.91a32,32,0,0,1-10.44,0l0,.14a7.9,7.9,0,0,1,3.32,1.7h7.24a12.67,12.67,0,0,0,1.34-2.51,15.26,15.26,0,0,0,.52-3.74c0-3.51,0-7,0-10.55ZM248.9,19.06c-.6.82.2,2.11-1,2.72-1.46-.43-.65-2.21-1.87-3H59.73L58.1,20.26a33.25,33.25,0,0,0-.57,7.42,102.17,102.17,0,0,0,1,14.38c3.45.49,186.4.5,188.21,0,.07-1.36-.14-2.8.94-4.17,1.9,1.85-.23,3.56.16,5.19l.2.06a32,32,0,0,0,10.44,0c.51-1.73.82-8.8.82-14.91,0-4.4-.16-8.3-.5-9.39C255.61,18.41,250.58,18.53,248.9,19.06Zm-1.05,24.06c-.39-1.63,1.74-3.34-.16-5.19-1.08,1.37-.87,2.81-.94,4.17-1.81.46-184.76.45-188.21,0a102.17,102.17,0,0,1-1-14.38H56.31c0,1.57,0,3.12,0,4.67a16.61,16.61,0,0,1-10.76,8.56,15.74,15.74,0,0,1-12.15-1.77c-7.7-4.5-9.25-13.77-6-21a13.33,13.33,0,0,1,1.9-3.07l-1-.35a16.71,16.71,0,0,0-3.89,11.84A16.21,16.21,0,0,0,29.68,37.7c7,6.73,17.88,7.27,26-2.21a10.61,10.61,0,0,1,.2,1.28c0,.41-.06.83-.09,1.16-5.12,6.66-14.07,8.3-22,5.17a18.86,18.86,0,0,1-9-7.25l-1,.36a24.87,24.87,0,0,0,2.46,3.11,20.36,20.36,0,0,0,9.35,5.76,21.58,21.58,0,0,0,10.94.28c3.85-.81,6.48-3.35,9.62-6.2.21,2.16.37,3.83.53,5.58a4.21,4.21,0,0,1,3.35-1.66H246.06a7.91,7.91,0,0,1,2,.24l0-.14Zm-7-40.25Q149.46,3.05,58.11,3C54.62,3,51.22,2.83,48,1.44A9.79,9.79,0,0,0,46.39,1L44.66,3.7C40.13,3,35.87,4.34,31.6,5.9,30.29,4,29.07,2.29,27.94.7L27.06,1l1.63,2.85A8.22,8.22,0,0,1,27.46,5a19.38,19.38,0,0,0-6.33,6.21l.91.6A19,19,0,0,1,29.66,5c.37.55.63,1,1,1.55C24.33,11.12,20.43,17,20.4,25a19.63,19.63,0,0,0,3.47,11.24l1-.36A18.84,18.84,0,0,1,22,27.44c-.84-8.31,1.92-15.16,9.41-19.79.41.53.75.89,1,1.31s.43.88.72,1.48a23.27,23.27,0,0,0-4.77,4.27l1,.35a12.55,12.55,0,0,1,2.77-2.45c1.15-.73,2.56-1.4,2.35-3.16a12.41,12.41,0,0,1,8.49-1c.81.42,1.59.92,2.4,1.34l.23-1-.36-.08c.26-1.09.47-2,.72-3A18.5,18.5,0,0,1,57,12.3l1-.39A21.45,21.45,0,0,0,46.37,4.27a5.09,5.09,0,0,1,.11-1A3.83,3.83,0,0,1,47,2.57a10.18,10.18,0,0,1,1.66.34A23.5,23.5,0,0,0,57.56,4.2q93.75-.06,187.5-.06a13,13,0,0,1,2.75.27l.17-.89A33,33,0,0,0,240.8,2.87ZM56.22,372a14.64,14.64,0,0,1-.75-6c0-1.42,0-2.85,0-4.13l-1-1.28-.68.41a14.83,14.83,0,0,1,.45,2.28c.07,1.59,0,3.2,0,4.79a5.73,5.73,0,0,0,.17,2c1,2.35.8,4.79.8,7.22v17.16l.39.3c.27-.32.54-.63.82-.94,0-6.85,0-13.6,0-20.35A3.86,3.86,0,0,0,56.22,372ZM53.61,47.78c-2.71.2-4.88.43-7,.53a60.83,60.83,0,0,1-9.34.21,19.44,19.44,0,0,1-7.17-2.29C23.12,42.4,19.34,36.4,18.26,28.47A23.83,23.83,0,0,1,20.4,14.71,24.41,24.41,0,0,1,22,11.8l-.91-.6c-.56.81-1.07,1.66-1.56,2.52a21.15,21.15,0,0,0-2.89,9.83,25.74,25.74,0,0,0,2.38,12.54,27.59,27.59,0,0,0,4.87,7,24.23,24.23,0,0,0,13,6.89,23.49,23.49,0,0,0,5.8-.06c2.26-.16,4.51-.5,6.77-.71.9-.08,1.82,0,3.13,0a46.11,46.11,0,0,1,.55,4.58c.06,4.89,0,9.78,0,14.67A4.93,4.93,0,0,1,52.66,71l.83.54c.32-.46.62-.93.93-1.4,0-4.49,0-9,0-13.42,0-2.58-.25-5.16-.4-8.05l1.92-1.61a4.2,4.2,0,0,1,.55-1.86Zm1.63,346.67.39.3-2.66,3-.41,2.2-2.79,2.57,5.83,6.87c-.42,2.55-.85,4.74-2.36,6.58a37.91,37.91,0,0,0-2.41,3.25,13.46,13.46,0,0,0-1.48,2.87,3.57,3.57,0,0,1-2.8,2.59,23.23,23.23,0,0,1-9.54,0,2.81,2.81,0,0,1-2.47-1.91c-.5-2.26-1.91-3.94-3.31-5.59a16.07,16.07,0,0,1-3.32-7.69l5.9-7-2.74-2.42c-.1-.74-.21-1.48-.34-2.43a7.44,7.44,0,0,1-3.11-3.59l.83-.05L32,397.77c.1.72.2,1.46.28,2,3.73,5.27,17.1,3.88,19-.1.07-.62.16-1.36.19-1.64Zm-3.5,22a14.7,14.7,0,0,0,2.58-6.56c-2.09-3.47-3-4.53-5.55-6.32a26.2,26.2,0,0,1-14.42-.13c-1.78,2.08-3.56,4.17-5.19,6.1,1.07,4.71,1.11,4.68,3.55,8,1.27,1.74,2.36,3.62,3.68,5.68,3.38,1,8.11,1,10.68,0C48.81,420.64,50.15,418.44,51.74,416.41Zm2.53-48.34c0-1.59,0-3.2,0-4.79a14.83,14.83,0,0,0-.45-2.28,73.62,73.62,0,0,1-11.28,1,85.7,85.7,0,0,1-12.82-.87c-.09,1.06-.21,2-.27,3-.11,2-.14,4-.3,6s-.59,4.15-.64,6.23c-.1,4.72,0,9.43,0,14.15V394L32,397.77c.1.72.2,1.46.28,2,3.73,5.27,17.1,3.88,19-.1.07-.62.16-1.36.19-1.64l3.8-3.55V377.29c0-2.43.16-4.87-.8-7.22A5.73,5.73,0,0,1,54.27,368.07Zm-.34-11q0-28,0-55.92a10,10,0,0,0-.28-3c-.81-2.56-1.83-5.07-2.68-7.62a11.42,11.42,0,0,1-.72-3.38c-.06-7.17,0-14.34,0-21.51V172.81c0-1.06.08-2.13.12-3.22a5,5,0,0,0,4-2.51v-4l-1.2-1.83-.92.29a6.16,6.16,0,0,1,.69,4.6H24.24c-.06-.74-.14-1.46-.15-2.19,0-4.47.11-8.95-.12-13.41-.52-9.93-1.22-19.85-1.85-29.78-.36-5.71-.67-11.43-1.07-17.15a16.55,16.55,0,0,0-.69-3.7Q15.7,85.17,10.93,70.5a32.56,32.56,0,0,0-2-4.63C6.71,61.43,4.37,57,2.15,52.59a6.87,6.87,0,0,1-.77-2.88Q1.26,26.43,1.25,3.15a9.54,9.54,0,0,1,.16-1,14.28,14.28,0,0,1,2.48-.64c2.69-.21,5.38-.4,8.08-.44,5-.07,10,0,15.09,0L27.94.7c-.16-.23-.32-.45-.47-.68C19.61,0,12.11,0,4.62.08A5.66,5.66,0,0,0,0,1.91V4.69c0,12.23,0,24.46.08,36.69,0,3.37-.41,6.88.4,10.06s3,6,4.43,9.05a97.61,97.61,0,0,1,5,10.76c3.3,9.64,6.28,19.39,9.36,29.11a12.42,12.42,0,0,1,.57,3c.4,6.31.75,12.62,1.12,18.93.18,3,.39,5.89.55,8.83.47,8.92,1,17.84,1.35,26.76.13,3,0,6.06,0,9.2L25,169.19l8.37.52v119c-.52,1.37-1,2.65-1.45,3.88L33,293c.42-1.12.86-2.24,1.27-3.36l.5.11V169.23H48.63V288.84c2.34,4.79,4.15,9,4.12,13.92-.11,18,0,35.92,0,53.88v2.89c-1.77.9-5.88,1.39-10.21,1.45v1a73.62,73.62,0,0,0,11.28-1l.68-.41-.54-.7Zm-5.16,46.43a26.2,26.2,0,0,1-14.42-.13c-1.78,2.08-3.56,4.17-5.19,6.1,1.07,4.71,1.11,4.68,3.55,8,1.27,1.74,2.36,3.62,3.68,5.68,3.38,1,8.11,1,10.68,0,1.74-2.54,3.08-4.74,4.67-6.77a14.7,14.7,0,0,0,2.58-6.56C52.23,406.38,51.3,405.32,48.77,403.53ZM51.92,71.91a53.32,53.32,0,0,0-6.84,3.24l.45.83a23.44,23.44,0,0,1,5.18-2.34.92.92,0,0,1,.23.09.33.33,0,0,1,.11.22q.06,41.58.11,83.17c0,.5-.08,1-.14,1.74-6.07-2.52-11.19-6-16.52-9.35l-.52.84c.32.23.65.45,1,.67,2.77,1.77,5.52,3.57,8.36,5.22,2,1.19,4.19,2.15,6.3,3.2a6.55,6.55,0,0,1,2.58,2.07l.92-.29-.68-1V73.13c.35-.54.7-1.06,1-1.6L52.66,71A4.15,4.15,0,0,1,51.92,71.91Zm1.24-18.12a46.11,46.11,0,0,0-.55-4.58c-1.31,0-2.23-.07-3.13,0-2.26.21-4.51.55-6.77.71a23.49,23.49,0,0,1-5.8.06,24.23,24.23,0,0,1-13-6.89,27.59,27.59,0,0,1-4.87-7,25.74,25.74,0,0,1-2.38-12.54,21.15,21.15,0,0,1,2.89-9.83c.49-.86,1-1.71,1.56-2.52A19.38,19.38,0,0,1,27.46,5a8.22,8.22,0,0,0,1.23-1.11L27.06,1C21.92,1,16.94,1,12,1.05c-2.7,0-5.39.23-8.08.44a14.28,14.28,0,0,0-2.48.64,9.54,9.54,0,0,0-.16,1q0,23.28.13,46.56a6.87,6.87,0,0,0,.77,2.88C4.37,57,6.71,61.43,9,65.87a32.56,32.56,0,0,1,2,4.63q4.77,14.67,9.43,29.38a16.55,16.55,0,0,1,.69,3.7c.4,5.72.71,11.44,1.07,17.15.63,9.93,1.33,19.85,1.85,29.78.23,4.46.08,8.94.12,13.41,0,.73.09,1.45.15,2.19H52.9a6.16,6.16,0,0,0-.69-4.6,6.55,6.55,0,0,0-2.58-2.07c-2.11-1.05-4.27-2-6.3-3.2-2.84-1.65-5.59-3.45-8.36-5.22-.34-.22-.67-.44-1-.67-.54-.38-1-.76-1.53-1.09V83.58c2-2.08,7.6-5.69,12.63-8.43a53.32,53.32,0,0,1,6.84-3.24,4.15,4.15,0,0,0,.74-.92,4.93,4.93,0,0,0,.54-2.53C53.15,63.57,53.22,58.68,53.16,53.79ZM51.92,21.65c1.49,4.17-.46,8.72-4.53,11.58a10.12,10.12,0,0,1-11.78,0,10.78,10.78,0,0,1-4.75-7.14,10.6,10.6,0,0,1,.11-4A12.86,12.86,0,0,1,36.08,14a23.11,23.11,0,0,1,4.63-1.91C46.8,13.07,50.13,16.62,51.92,21.65ZM48.39,23a3.79,3.79,0,0,0-.88-3.71C44.89,16.22,40.32,16,37.1,17.87c-3,1.8-4.66,6.61-.66,9.52a19.6,19.6,0,0,0,4.24,1.84C46.5,28.22,47.59,26.17,48.39,23Zm-7,9.2c3.45-.63,6.49-1.56,7.08-5.6-1.94,1.92-4,3.63-6.85,3.78a8.61,8.61,0,0,1-7.18-3.31l-.38.48L37,31ZM37.1,17.87c-3,1.8-4.66,6.61-.66,9.52a19.6,19.6,0,0,0,4.24,1.84c5.82-1,6.91-3.06,7.71-6.22a3.79,3.79,0,0,0-.88-3.71C44.89,16.22,40.32,16,37.1,17.87Zm4.57,12.52a8.61,8.61,0,0,1-7.18-3.31l-.38.48L37,31l4.46,1.18c3.45-.63,6.49-1.56,7.08-5.6C46.58,28.53,44.51,30.24,41.67,30.39ZM32.45,83.58v65.68c.48.33,1,.71,1.53,1.09l.52-.84-.76-.48V83.88A98.16,98.16,0,0,1,45.53,76l-.45-.83C40.05,77.89,34.5,81.5,32.45,83.58ZM31.16,359.86c-.05-.71-.18-1.53-.18-2.34q0-28.57,0-57.15a11.27,11.27,0,0,1,.6-3.45c.44-1.32.92-2.63,1.41-3.94l-1.07-.4c-.47,1.22-.91,2.4-1.37,3.57a15.89,15.89,0,0,0-1,5.92q.06,27.45,0,54.91v2.87L28.73,361l1,.07a85.7,85.7,0,0,0,12.82.87v-1A41.51,41.51,0,0,1,31.16,359.86ZM28,362.07c0,1.38,0,2.74,0,4.08a15.47,15.47,0,0,1-.22,4.27,23.23,23.23,0,0,0-.74,7.26c0,3.62.19,7.26-.05,10.87a12.65,12.65,0,0,0,.64,5.52l.83-.05v-3.51c0-4.72-.07-9.43,0-14.15.05-2.08.48-4.15.64-6.23s.19-4,.3-6c.06-1,.18-2,.27-3l-1-.07Z"/></svg>