<?xml version="1.0" encoding="utf-8"?>
<!-- Generator: Adobe Illustrator 24.0.1, SVG Export Plug-In . SVG Version: 6.00 Build 0)  -->
<svg version="1.1" id="Layer_1" xmlns="http://www.w3.org/2000/svg" xmlns:xlink="http://www.w3.org/1999/xlink" x="0px" y="0px"
	 viewBox="0 0 512 512" style="enable-background:new 0 0 512 512;" xml:space="preserve">
<style type="text/css">
	.st0{fill:#FFFFFF;}
</style>
<path class="st0" d="M60.13,472.46l-19.8-19.8c-4.7-4.7-4.7-12.32,0-17.01l173-173l36.82,36.82l-173,173
	C72.45,477.16,64.83,477.16,60.13,472.46z"/>
<polygon class="st0" points="467.08,136.34 403.92,218.19 403.92,326.37 339.92,481 439.89,381.03 475.86,308.81 "/>
<polygon class="st0" points="377.02,45.72 295.17,108.87 186.99,108.87 32.36,172.88 132.33,72.9 204.55,36.94 "/>
<path class="st0" d="M294.89,145.4l-36.11,36.11l-36.96,53.95l54.94,54.94l54.8-36.11l36.11-36.11L294.89,145.4z M320,191l27,28
	l-25,24l-43,29l-20-20L320,191z"/>
<path class="st0" d="M394.86,64.13l-81,62.3l72.5,72.5l62.59-80.71L394.86,64.13z"/>
</svg>
