<?xml version="1.0" encoding="utf-8"?>
<!-- Generator: Adobe Illustrator 24.2.3, SVG Export Plug-In . SVG Version: 6.00 Build 0)  -->
<svg version="1.1" id="Layer_1" xmlns="http://www.w3.org/2000/svg" xmlns:xlink="http://www.w3.org/1999/xlink" x="0px" y="0px"
	 viewBox="0 0 414.7 455.7" style="enable-background:new 0 0 414.7 455.7;" xml:space="preserve">
<style type="text/css">
	.st0{fill:#FFFFFF;}
</style>
<path class="st0" d="M215.5,243.2l62.6,19.9L264.5,306l-62.6-19.9L182,348.7l-42.8-13.6l19.9-62.6l-62.6-19.9l13.6-42.8l62.6,19.9
	l19.9-62.6l42.8,13.6L215.5,243.2z M413.4,175.2c-2.6,7-5.1,14.1-7.6,20.9l-0.1,0.3c-4.2,11.8-8.5,23.9-13.1,35.7
	c-2.1,5.4-7.3,9.5-11.6,11.6c-0.4,0.2-0.7,0.4-0.9,0.5v0.2c0.4,23.5-2.2,41.9-8.2,58c-3.8,10.3-8,20.4-12.7,29.9
	c-2.8,5.9-5.9,11.8-9,17.4c-10.2,18.3-24.2,34.2-41,46.7c-8.5,6.3-17.5,11.7-26.3,17c-4.6,2.8-9.3,5.6-13.8,8.5
	c-1.7,1.2-3.1,2.6-4.3,4.3c-0.8,1-1.5,2-2.2,3c-4.2,5.8-9,12.4-18.4,15.7c-20.2,7.2-41.4,10.9-62.9,11.1c-22.2,0-43.8-4.1-66.1-12.6
	c-30-11.4-56.6-31.3-81.2-60.6c-5.5-6.3-9.9-13.5-13.1-21.2c-3.2-8.3-2.7-16.5,1.4-23.3C3.5,302.5-3.4,264.5,1.6,225.1
	c3.8-30.1,14.2-57.2,30.8-80.7c0.2-0.3,0.4-0.5,0.5-0.7l1.9-2.8c2.5-3.6,5.1-7.3,8-10.7c1.5-1.8,1.6-2.3,1.6-2.4
	c-0.2-0.4-0.5-0.8-0.9-1.1c-3-3.4-3.3-8.9-2.1-12.7c3.8-12,7.7-24,11.5-35.6c2.4-7.2,4.7-14.3,6.9-21.3c2.6-8,7.7-13,16.2-15.8
	c3.6-1.4,6.7-3.6,9.3-6.4c4.4-4.6,8.2-9.6,11.5-15c5.6-9.4,13.8-14.7,26.4-17.3c11.9-2.6,24.2-3.2,36.4-1.9
	c6.3,0.7,13.1,0.3,19.7-0.1c4-0.3,8.1-0.5,12.3-0.5h0.9c6,0,12.1-0.1,18.2,1.4c43.2,10.7,80.7,23.6,114.6,39.6
	c8.3,3.9,15.3,9.8,22,15.6c2.8,2.4,5.6,4.8,8.5,7c1.5,1.1,2.8,2.3,4,3.5c1.5,1.5,3.1,2.8,5,3.8c16.9,7.6,27.5,20.6,38.7,35.6
	c2,2.8,3.1,6.2,3.1,9.7v3.1c0.1,8.2,0.3,16.6-0.3,25c-0.4,5.9,1,10.2,4.3,13.9C414.8,163,415.8,168.7,413.4,175.2z M57.5,118
	l0.6-0.7c3.5-4,6.8-8.3,9.8-12.8c3.1-5,6.2-11.1,5.6-19.2c-0.6-7.6,0.5-15.1,1.6-22.4c-0.8,1.8-1.5,3.7-2.1,5.7
	c-1.7,5.3-3.4,10.6-5.1,15.7c-3.1,9.9-6.4,20-9.9,30C57.2,116.2,57,117.1,57.5,118z M363.5,243.6L363.5,243.6
	c-0.1-0.9-0.3-1.9-0.6-2.9l-0.2-0.6c-0.4-1.6-1-3.3-1.6-5c-1.5-4.4-3.3-9.4-2.6-14.7c1.1-8.9-1-16.9-3.1-23.6
	c-1.4-4.4-3.7-6.7-8.2-8.4c-10.7-4-21.5-8.1-31.9-12.1c-18.3-7-37.2-14.3-56-20.6c-44.9-15.2-90.9-29.8-135.4-44l-19.6-6.2
	c-5.1-1.7-8.4-1.3-9.4-0.8c-6.6,2.9-13.2,6.5-16.3,13.4c-1.8,3.5-4.3,6.6-7.5,8.8c-2,1.5-4.1,2.9-6.3,4.1c-3,1.8-5.8,3.5-7.6,5.5
	c-4.2,4.8-8.1,9.8-11.7,15c-2.1,3.1-4,6.2-5.8,9.5c-20.5,38-27.3,77.2-20.4,116.3l0.7,4l2.4,10.3c0.5,1.4,7.7,22.9,11.7,33.4
	c2.8,7.4,6.3,11.4,11.5,13.7c64.2,27,130,50,197.1,68.8c8.8,2.5,17.2,1.1,27-4.4c15.4-8.7,33-19.6,46.8-35.3
	c9.1-10.3,17.8-20.5,24.1-31.8c1.9-3.3,3.7-6.7,5.4-10.2C358.5,300.2,364.5,272,363.5,243.6z M396.3,172.9L396.3,172.9
	c-2.6,5-5.8,9.6-9.3,13.9c-6.9,8.1-9.4,17.7-11,29.6c-0.4,3.6-0.4,7.3-0.1,10.9c1.9-0.5,2.8-1.9,3.9-5.3
	c4.4-14.7,9.6-29.1,15.7-43.3C396.3,177,396.7,174.9,396.3,172.9z"/>
</svg>
