<?xml version="1.0" encoding="UTF-8" standalone="no"?>
<svg
   xmlns:dc="http://purl.org/dc/elements/1.1/"
   xmlns:cc="http://creativecommons.org/ns#"
   xmlns:rdf="http://www.w3.org/1999/02/22-rdf-syntax-ns#"
   xmlns:svg="http://www.w3.org/2000/svg"
   xmlns="http://www.w3.org/2000/svg"
   version="1.1"
   id="Layer_1"
   width="256"
   height="256"
   viewBox="0 0 256 256">
   
<style type="text/css">
	.st0{fill:#FFFFFF;}
</style>

  <g
     transform="translate(0,-71.679993)"
     id="g4744">
    <path class="st0"
       d="m 78.576954,316.91958 c -3.536858,-3.90814 -6.037893,-13.04542 -6.037893,-22.0586 v -8.578 l -5.251338,0.50079 c -5.817198,0.55472 -10.226134,-2.63415 -10.226134,-7.39644 0,-1.40654 -0.580403,-2.91613 -1.289757,-3.35452 -0.709386,-0.43845 -1.289789,-4.90916 -1.289789,-9.93497 v -9.13782 l -9.995863,0.81428 c -13.300138,1.08357 -15.79991,0.33982 -15.79991,-4.7009 0,-8.04715 11.059297,-23.83156 18.309929,-26.13283 1.686598,-0.53535 2.327599,-2.04518 2.329915,-5.48825 0.0136,-15.82126 12.258585,-42.63735 24.324716,-53.25839 l 5.747676,-5.05932 -2.871388,-3.05656 c -2.162206,-2.3015 -2.770449,-4.28759 -2.462441,-8.04032 0.357888,-4.35845 0.854519,-5.03505 3.959021,-5.39221 2.902899,-0.33421 3.435703,-0.92168 2.923347,-3.22448 -3.486494,-15.67008 -7.178365,-39.57645 -6.864737,-44.45229 0.378469,-5.881632 0.615336,-6.205928 7.058682,-9.659046 10.304726,-5.522389 24.95057,-8.852248 40.04466,-9.104573 18.21935,-0.30432 17.49292,-1.334557 20.24307,28.703469 1.19666,13.07047 2.45991,24.2243 2.80716,24.78615 0.34746,0.56192 2.27919,0.69208 4.2932,0.28953 2.01399,-0.40262 4.94962,-0.0431 6.52372,0.79933 2.3515,1.25853 2.76182,2.37421 2.30097,6.25619 -0.30836,2.59854 -0.97382,5.65328 -1.47842,6.78837 -0.70902,1.5951 1.0745,3.12674 7.85243,6.74354 18.11405,9.66583 29.09816,27.76349 31.41276,51.75645 0.68724,7.12482 0.9609,14.40516 0.60803,16.17862 -0.46978,2.36134 0.166,3.80677 2.37528,5.39959 l 3.01681,2.17507 2.03756,-7.33425 c 1.12069,-4.03383 2.45664,-10.49793 2.96874,-14.36478 1.14107,-8.6149 4.87925,-12.96112 11.14775,-12.96112 6.91254,0 10.01903,3.02737 10.01903,9.76402 0,3.16161 -0.51272,6.75624 -1.1393,7.98806 -2.95336,5.80562 -4.87917,11.49831 -17.50433,51.74179 -7.42868,23.67929 -13.80628,43.35287 -14.17259,43.71918 -0.3664,0.36639 -3.14446,0.14562 -6.17371,-0.49022 -4.64053,-0.97409 -5.57005,-1.69376 -5.90315,-4.57071 -0.30832,-2.66367 8.24999,-37.40168 10.95655,-44.47195 0.3211,-0.83935 -1.5165,-1.84316 -4.34647,-2.37403 -3.92211,-0.73585 -5.16335,-0.47476 -6.20382,1.30472 -4.56074,7.80024 -12.79334,17.35598 -14.9528,17.35598 -1.35862,0 -2.47025,0.83774 -2.47025,1.86161 0,1.02385 -1.28996,2.76502 -2.86658,3.86935 -1.5766,1.1043 -2.10004,2.00778 -1.16316,2.00778 2.83125,0 0.40492,15.02842 -3.74826,23.21618 -4.73141,9.32783 -8.24824,12.89792 -12.70548,12.89792 -3.25389,0 -4.07658,-1.00023 -8.22115,-9.99587 -2.53298,-5.49772 -4.9597,-11.22131 -5.39276,-12.71917 -0.70971,-2.45477 -1.32481,-2.61702 -6.23873,-1.64524 -2.99829,0.593 -9.24725,0.73976 -13.88668,0.32615 -8.32367,-0.74191 -8.45738,-0.70308 -10.10604,2.93505 -0.91889,2.02778 -4.087869,7.58092 -7.042162,12.34028 -4.726008,7.61369 -5.85109,8.65982 -9.363378,8.70607 -2.261746,0.0281 -4.902352,-0.95332 -6.092537,-2.26845 z"
    />
  </g>
</svg>
