<svg xmlns="http://www.w3.org/2000/svg" viewBox="0 0 440.51 440.54"><defs><style>.a{fill:#fff;} .st0{fill:#fff;}</style></defs><title>hp1</title><path class="st0" d="M392.91,216.87A172.66,172.66,0,0,0,98.13,98.2,172.85,172.85,0,0,0,217,392.91l3.31,0A172.68,172.68,0,0,0,392.91,216.87ZM110.15,248.15V192.36h82.24V110.13h55.78v82.23h82.21v55.79H248.17v82.24H192.39V248.15ZM376,64.51a220.25,220.25,0,0,0-325.13,15A218.36,218.36,0,0,0,7.59,162.82a223.16,223.16,0,0,0-3.68,99.43A218.16,218.16,0,0,0,178.13,436.59a230.76,230.76,0,0,0,42.22,4A220.28,220.28,0,0,0,376,64.51Zm-32.59,304.1c-44.23,36.76-102.64,51.7-160.26,41-76.83-14.29-138-75.51-152.24-152.35C20.24,199.64,35.21,141.25,72,97a192.38,192.38,0,0,1,148.3-69.58c106.3,0,192.78,86.49,192.78,192.8A192.39,192.39,0,0,1,343.41,368.61Z"/></svg>