<svg xmlns="http://www.w3.org/2000/svg" viewBox="0 0 405.07 227.49"><defs><style>.a{fill:#fff;} .st0{fill:#fff;}</style></defs><title>Garmor</title><path class="st0" d="M378.17,46.43c8.95,10.07,13.71,22.74,18.2,35.24,3.33,9.29,5.65,19,8.08,28.54a33.42,33.42,0,0,1,.53,9.39c-.49,12.24-1.3,24.48-1.68,36.72-.29,9.54-12.36,15-19.6,11.72a11.78,11.78,0,0,1-2.92-2.43l1.28-1.05c3.06,2.88,7.32,2.87,11.63.41a80.85,80.85,0,0,1-9.94-10.71l1.42-.81a53.19,53.19,0,0,0,6.25,6.77,10.41,10.41,0,0,0,6.78,2.45c.92,0,2.25-3.58,2.44-5.62.65-7.2.88-14.44,1.4-24.09,0-6.19,1-15-.28-23.38-1.45-9.48-4.5-18.81-7.76-27.9-4.43-12.41-9.23-24.92-17.9-35.05-3.34-3.91-6.89-7.65-10.51-11.31l1.11-1.1C370.62,38.21,374.46,42.26,378.17,46.43Zm-19.82,81.74-1.75.88c6.35,13.29,13.37,26.19,24.18,36.56l1.28-1.05a9.7,9.7,0,0,1-1.05-1.15c-5.6-7.27-11.55-14.44-15.95-22.43C362.74,136.74,360.49,132.48,358.35,128.17Zm7.24-92.85c-4.67-4.71-9.49-9.31-14.18-14a39.9,39.9,0,0,0-6.89-5.29c-3.92-2.49-5.54-1.35-6.2,3.41-1.32,9.46.47,18.67,2.54,27.72a355.09,355.09,0,0,0,33.74,89.09,118.58,118.58,0,0,0,10.57,17.18,53.19,53.19,0,0,0,6.25,6.77,10.41,10.41,0,0,0,6.78,2.45c.92,0,2.25-3.58,2.44-5.62.65-7.2.88-14.44,1.4-24.09,0-6.19,1-15-.28-23.38-1.45-9.48-4.5-18.81-7.76-27.9-4.43-12.41-9.23-24.92-17.9-35.05C372.76,42.72,369.21,39,365.59,35.32ZM348.64,121a22.05,22.05,0,0,0,3.31.2q-4.12-10.74-8.16-21.21L335,77.19c-2.51,1.4-5,2.78-7.5,4.17s-5.06,2.84-7.55,4.3A2.91,2.91,0,0,0,318.68,88c1.36,9.32,2.75,18.64,4.37,27.93.61,3.45,2.44,5.49,5.17,6a9.23,9.23,0,0,0,3.87-.28A33.87,33.87,0,0,1,348.64,121ZM329.88,46.54l-1.55.31c1.74,8.38,3.66,16.73,5.36,25.12a4.91,4.91,0,0,1-1,3.55,19.7,19.7,0,0,1-5.81,4.72l.63,1.12c2.48-1.39,5-2.77,7.5-4.17L343.79,100l1.75-.67a332.1,332.1,0,0,1-15.05-49.94C330.28,48.41,330.08,47.47,329.88,46.54Zm-2.07,77.1a9.36,9.36,0,0,0,3.86.28,54.19,54.19,0,0,1,16.62-.74c4.24.47,6.49,2,8.31,5.87l1.75-.88Q351.27,114,345.54,99.29l-1.75.67q4,10.46,8.16,21.21a22.05,22.05,0,0,1-3.31-.2,33.87,33.87,0,0,0-16.55.62,9.23,9.23,0,0,1-3.87.28Zm13.05-76.46c-2.07-9-3.86-18.26-2.54-27.72.66-4.76,2.28-5.9,6.2-3.41a39.9,39.9,0,0,1,6.89,5.29c4.69,4.67,9.51,9.27,14.18,14l1.11-1.1c-6.07-6.17-12.31-12.17-18.52-18.19-3.27-3.17-7.4-5.31-12.14-2-.94.65-2.34.69-3.18,1.4-2.26,1.92-5.58,3.73-6.19,6.16a34,34,0,0,0-.56,13.85c.68,3.82,1.43,7.64,2.22,11.45l1.55-.31c-1.46-7.12-2.56-14.38-1.45-21.8.79-5.29,1.63-6.51,6.63-7.65.69,8,.84,15.93,2.19,23.65a220.64,220.64,0,0,0,6.48,26.83,376,376,0,0,0,25.53,63.14c4.29,8.24,8.84,16.28,14.49,23.55l1.42-.81a118.58,118.58,0,0,1-10.57-17.18A355.09,355.09,0,0,1,340.86,47.18Zm-166,155.09a12.79,12.79,0,0,0,2.17-6.66q.22-62.16.17-124.32c0-3.71,1.23-5.59,4.15-6.39a13,13,0,0,1,2.3-.4,208,208,0,0,1,37.76,0,10.2,10.2,0,0,1,2.79.6c2.36.91,3.48,2.81,3.49,6v62.68h.06c0,20.78,0,41.56.05,62.34a8.51,8.51,0,0,0,1.09,4.57c4.36,6.35,9,12.51,13.42,18.81,1.3,1.84,2.81,2.17,4.85,1.6a87,87,0,0,1,9.85-2.47,12.24,12.24,0,0,0,7.51-4.11,21.6,21.6,0,0,0,1.87-2.38,369.85,369.85,0,0,1,35-43.7c2-2.12,3.93-4.31,5.81-6.53,4.15-4.89,8.11-10,12.14-14.95a6.57,6.57,0,0,0,1.29-4.13c-.81-15.25-1.57-30.51-2.76-45.73-.58-7.35-3-14.12-6.61-20.78-7.4-13.83-17-25.88-27.28-37.57-1.64-1.86-3-4.13-4.69-5.94a11.82,11.82,0,0,0-2.49-2.11c-10.53-6.43-20.24-14.37-32.15-18.32-9.15-3-17.74-7.51-27.62-8.61-17.12-1.92-33.72-1.1-49.7,5.94-5,2.2-10.45,3.54-15.23,6.14-7.77,4.25-15.18,9.19-22.71,13.87a12.19,12.19,0,0,0-1.74,1.31,11.28,11.28,0,0,0-.91.92C113.31,47.31,100,62.63,91.07,81.16A27.63,27.63,0,0,0,89,86.67c-4.32,18.67-4.87,37.68-4.76,56.73a6.52,6.52,0,0,0,1.41,3.75c6.22,7.57,12.62,15,18.86,22.55,2.39,2.9,4.83,5.76,7.29,8.63,7.34,8.59,14.73,17.15,21.08,26.43,6.25,9.12,13.23,15.25,24.33,16.2a2.13,2.13,0,0,1,.33.11c2.35.89,3.92.05,5.32-2C166.78,213.45,171,208,174.81,202.27Zm152.07-122A60.78,60.78,0,0,1,317.75,84c-1-1.67-1.87-3-2.62-4.48a171.15,171.15,0,0,0-26-37.18c-3.1-3.34-5.89-7-8.86-10.43l-1.11.94c1.66,1.81,3.05,4.08,4.69,5.94,10.25,11.69,19.88,23.74,27.28,37.57,3.57,6.66,6,13.43,6.61,20.78,1.19,15.22,2,30.48,2.76,45.73a6.57,6.57,0,0,1-1.29,4.13c-4,5-8,10.06-12.14,14.95l.95.81c4.14-4.85,8.36-9.64,12.55-14.44a9.42,9.42,0,0,0,2.41-7c-.18-6.46-.06-12.93-.06-19,1.66.33,3.3.9,4.85,1.28l.41-1.77c-2.73-.47-4.56-2.51-5.17-6-1.62-9.29-3-18.61-4.37-27.93A2.91,2.91,0,0,1,320,85.66c2.49-1.46,5-2.89,7.55-4.3ZM264.47,214.55l1.66.65c.82-.91,1.62-1.87,2.39-2.87q15.8-20.51,32.09-40.62,3.66-4.53,7.45-9l-.95-.81c-1.88,2.22-3.81,4.41-5.81,6.53a369.85,369.85,0,0,0-35,43.7A21.6,21.6,0,0,1,264.47,214.55ZM183.6,64.5a13,13,0,0,0-2.3.4v1.77h42l.87-1.55a10.2,10.2,0,0,0-2.79-.6A208,208,0,0,0,183.6,64.5Zm5.53,131.16V81.31l.8,0V195.66ZM214.75,81.32h.84V195.66l-.84,0Zm-30.3,126.46c3.22-4.84,6.25-9.4,9.63-14.51h16.63c3.29,5,6.33,9.55,9.63,14.51-6,1.94-11.55,3.78-17.18,5.58a3,3,0,0,1-1.69-.05C195.93,211.53,190.4,209.73,184.45,207.78ZM220,201a8.52,8.52,0,0,1-1.46-4.47c0-33.26,0-66.53,0-99.79,0-5.26-.26-10.5-.49-15.74-.12-2.6-1.63-4.13-4.2-4.17-4,0-7.9-.07-11.86-.07q-5.44,0-10.91.06c-3.19,0-4.38,2-4.41,5.07-.11,12.24-.39,24.49-.41,36.75,0,25.67.06,51.35,0,77a11.15,11.15,0,0,1-1.78,5.76c-4.4,6.75-9.06,13.33-13.62,20-.7,1-1.25,1.81-1.74,2.41l1.62,1.28c3.49-4.44,7.12-8.77,10.49-13.3,1.18-1.58,2.21-2,4.06-1.4,5.63,1.89,11.3,5.09,17,5.08s11.57-3.18,17.32-5.08c1.85-.62,2.87-.19,4.06,1.4,3.33,4.49,6.93,8.79,10.4,13.2l1.63-1.29c-.5-.61-1.05-1.42-1.77-2.46C229.21,214.49,224.52,207.8,220,201Zm-8-22.46H192.76v-3.88c0-29.63.09-59.25,0-88.89,0-3.41,1-4.48,4.33-4.25a95.11,95.11,0,0,0,11.2,0c2.86-.15,3.78.8,3.76,3.73-.09,19.61,0,39.2,0,58.8q0,15.23,0,30.44Zm-8.13,12v-5.1h7.76v5.1Zm-10.68-8.08c0-.32,0-.63,0-.94h18.38l0,.94Zm0,8v-5H201v5ZM181.41,2.51C170.87,5,160.69,9.63,150.83,14.32a102.14,102.14,0,0,0-24,15.94l.7.8a12.19,12.19,0,0,1,1.74-1.31c7.53-4.68,14.94-9.62,22.71-13.87,4.78-2.6,10.22-3.94,15.23-6.14,16-7,32.58-7.86,49.7-5.94,9.88,1.1,18.47,5.58,27.62,8.61,11.91,3.95,21.62,11.89,32.15,18.32a11.82,11.82,0,0,1,2.49,2.11l1.11-.94-.21-.24a13.75,13.75,0,0,0-3.18-3.23c-11.09-6.38-21.06-14.75-33.45-18.81-8.06-2.63-16-5.82-24.21-7.72A83.12,83.12,0,0,0,181.41,2.51ZM179.74,71.2c3.3,2.35,2.95,5.24,2.94,8.19q-.09,56.88-.07,113.76c0,1.8.5,4-2.87,3.87Zm42.44,113.74q-.08-54.25-.07-108.52c0-1.71,1.28-3.41,2-5.12l1,.26V196.91l-1,.5c-.63-1-1.73-2-1.81-3C222,191.25,222.18,188.08,222.18,184.94Zm-111.36-5.78c9.51,11.12,18.35,22.77,26.76,34.8a21.44,21.44,0,0,0,12.85,9,142.53,142.53,0,0,1,13.75,4c2.76,1,4.69.37,6.41-1.82l.12-.15-1.62-1.28c-1.79,2.18-2.78,1.75-7.16-.28,9-6.16,14.13-15.68,20.94-23.68a9.91,9.91,0,0,0,2-5.94c.12-28.83.06-57.67.05-86.49,0-9.22.05-18.42.09-27.63,0-1.25.12-2.5.2-4.1h32.46c2.44,0,2,1.8,2,3.24,0,9.09.09,18.18.09,27.27,0,29.19-.07,58.37.05,87.55A11.37,11.37,0,0,0,222,200c4.29,5.83,8.8,11.5,13.47,17,2.06,2.44,4.67,4.39,7.23,6.74-4.39,1.67-5.38,2-7.11-.06L234,225l.2.25c1.72,2.19,3.66,2.78,6.4,1.82A116.92,116.92,0,0,1,253,223.43c5.5-1.26,9.57-4.27,13.11-8.23l-1.66-.65a12.24,12.24,0,0,1-7.51,4.11,87,87,0,0,0-9.85,2.47c-2,.57-3.55.24-4.85-1.6-4.44-6.3-9.06-12.46-13.42-18.81a8.51,8.51,0,0,1-1.09-4.57c-.07-20.78-.05-41.56-.05-62.34h-.06V71.13c0-3.2-1.13-5.1-3.49-6l-.87,1.55c-1.46,6-2.18,6.51-7.27,6.45-8.84-.1-17.71-.13-26.56,0-5.72,0-5.72.16-8.3-6.42h.15V64.9c-2.92.8-4.15,2.68-4.15,6.39q0,62.16-.17,124.32a12.79,12.79,0,0,1-2.17,6.66c-3.8,5.73-8,11.18-12,16.83-1.4,2-3,2.86-5.32,2a2.13,2.13,0,0,0-.33-.11c-11.1-1-18.08-7.08-24.33-16.2-6.35-9.28-13.74-17.84-21.08-26.43Zm-25.19-32a6.52,6.52,0,0,1-1.41-3.75c-.11-19.05.44-38.06,4.76-56.73a27.63,27.63,0,0,1,2.09-5.51C100,62.63,113.31,47.31,126.65,32a11.28,11.28,0,0,1,.91-.92l-.7-.8a123.58,123.58,0,0,0-17.42,19.22c-5,6.76-10.43,13.12-14.37,20.6-2.48,4.72-5.32,9.25-7.95,13.79-4.47-1.34-7.07-2.34-9.45-3.83l-.6,1c2.29,1.39,4.58,2.77,6.81,4.23,1,.63,2.28,1.94,2.16,2.77-1.37,9.67-2.94,19.32-4.54,29a6.91,6.91,0,0,1-5.23,5.08l.23,1.8a8.93,8.93,0,0,0,4.62-1.94c.09-.07.4.11.7.21,0,6.86,0,13.73,0,20.61a6.38,6.38,0,0,0,.89,3.57c4,5.32,7.76,10.9,12.38,15.64q8.17,8.36,15.7,17.21l1-.83c-2.46-2.87-4.9-5.73-7.29-8.63C98.25,162.15,91.85,154.72,85.63,147.15ZM72.73,78.37a24.62,24.62,0,0,1-2.6-2.1c-5.8,15-11.47,29.75-17.46,45.31a43.94,43.94,0,0,1,22.39.41,3.07,3.07,0,0,0,1.21.07A6.91,6.91,0,0,0,81.5,117C83.1,107.35,84.67,97.7,86,88c.12-.83-1.21-2.14-2.16-2.77-2.23-1.46-4.52-2.84-6.81-4.23C75.62,80.15,74.16,79.28,72.73,78.37ZM56.28,18.48c-5.69,5.66-11.7,11.07-17.34,16.77A133.11,133.11,0,0,0,29.33,46c-13.78,17.4-21,38.19-25.6,59.63-2,9.53-1.25,19.67-1.74,29.53l.88,0c.39,7.46.69,14.92,1.23,22.38a10.54,10.54,0,0,0,.73,3.53,2.92,2.92,0,0,0,2.88,1.81c2,0,4.24-1.33,5.76-2.72a55.5,55.5,0,0,0,6.21-6.82,120.86,120.86,0,0,0,10.56-17.18A370.31,370.31,0,0,0,49,95.67,343.47,343.47,0,0,0,63.86,47.4c2.16-9.41,4-19,2.52-28.76-.55-3.72-2.44-4.8-5.66-2.94A21.07,21.07,0,0,0,56.28,18.48ZM50.87,96.42q1.35-3.47,2.68-6.94c5-12.9,8.53-26.38,12.14-39.76,2.72-10.12,4.66-20.48,3.11-31.11A6.62,6.62,0,0,1,69,17c5.45,1,6.59,2.55,7.35,7.32,1.09,6.86.28,13.6-1,20.2l1.58.31c.68-3.47,1.33-7,1.91-10.44.76-4.45.77-9.75-1-13.73-2.23-5-8.15-6.84-13.34-8.07-1.94-.46-4.55,1.55-6.75,2.63a11,11,0,0,0-2.66,2.22c-5.68,5.64-11.38,11.25-17,16.92l.92.91c5.64-5.7,11.65-11.11,17.34-16.77a21.07,21.07,0,0,1,4.44-2.78c3.22-1.86,5.11-.78,5.66,2.94C67.84,28.43,66,38,63.86,47.4A343.47,343.47,0,0,1,49,95.67Zm-26.8,66.67c-.12.15-.24.31-.37.46l1.23,1c4.16-5.14,8.6-10.13,12.15-15.68,4.58-7.14,8.33-14.82,12.48-22.23.54-1,1.31-2.43,2.09-2.51,5.41-.56,10.92-1.48,16.27-1,3,.29,5.82,1,8.58.69l-.23-1.8a3.07,3.07,0,0,1-1.21-.07,43.94,43.94,0,0,0-22.39-.41c6-15.56,11.66-30.28,17.46-45.31a24.62,24.62,0,0,0,2.6,2.1c1.43.91,2.89,1.78,4.34,2.66l.6-1a40.4,40.4,0,0,1-5.13-4c-1.61-1.41-1.87-2.59-1.38-4.78,2-8.81,4-17.62,5.73-26.48l-1.58-.31c-.28,1.48-.6,3-.91,4.43a340.89,340.89,0,0,1-34.95,92.6C35.22,149.22,29.49,156.12,24.07,163.09Zm-2.73-9.39C34.59,136.5,43,116.59,50.87,96.42L49,95.67a370.31,370.31,0,0,1-18.72,40.49,120.86,120.86,0,0,1-10.56,17.18ZM3,162c2.06,3.88,6.4,5.69,11,6.83a9.72,9.72,0,0,0,10.49-3.69l.46-.57-1.23-1c-3.29,3.83-7.64,4.11-12.39,1.62a122.52,122.52,0,0,0,10-11.47l-1.66-.36a55.5,55.5,0,0,1-6.21,6.82c-1.52,1.39-3.81,2.71-5.76,2.72a2.92,2.92,0,0,1-2.88-1.81ZM4.29,93.54c-2,6.54-4.2,13.37-4.27,20.1-.08,7.17.1,14.36.43,21.55L2,135.12c.49-9.86-.3-20,1.74-29.53C8.3,84.15,15.55,63.36,29.33,46a133.11,133.11,0,0,1,9.61-10.71L38,34.34q-4.14,4.15-8.23,8.35a60.1,60.1,0,0,0-7.69,9.92C14.16,65.37,8.69,79.26,4.29,93.54ZM2.87,135.16l-.88,0-1.54.07c.32,7.39.79,14.77,1.26,22.15A11,11,0,0,0,3,162l1.87-.9a10.54,10.54,0,0,1-.73-3.53C3.56,150.08,3.26,142.62,2.87,135.16Z"/></svg>