<?xml version="1.0" encoding="utf-8"?>
<!-- Generator: Adobe Illustrator 24.2.3, SVG Export Plug-In . SVG Version: 6.00 Build 0)  -->
<svg version="1.1" id="Layer_1" xmlns="http://www.w3.org/2000/svg" xmlns:xlink="http://www.w3.org/1999/xlink" x="0px" y="0px"
	 viewBox="0 0 285.9 459.8" style="enable-background:new 0 0 285.9 459.8;" xml:space="preserve">
<style type="text/css">
	.st0{fill:#FFFFFF;}
</style>
<path class="st0" d="M109.9,197.6l26.5,7.1l7.1-26.5l1-3.9l3.9,1l20.8,5.6l3.9,1l-1,3.9l-7.1,26.5l26.5,7.1l3.9,1l-1,3.9l-5.6,20.8
	l-1,3.9l-3.9-1l-26.6-7.1l-7.1,26.5l-1,3.9l-3.9-1l-20.8-5.6l-3.9-1l1-3.9l7.1-26.5l-26.5-7.1l-3.9-1l1-3.9l5.7-20.9l1-3.9
	L109.9,197.6z M285.2,82.8c-1.9,9.6-3.3,19.6-4.6,29.2c-1,7.5-2.1,15.3-3.4,23c-0.9,5.1-4.4,9.1-7.2,12.3l-0.1,0.1
	c-1.8,1.9-3.9,3.5-6.2,4.6c-0.7,0.4-1.4,0.8-1.9,1.2c-5.8,3.8-9.9,5.4-14.2,5.4c-2.2,0-4.5-0.4-6.6-1.2c-0.2,0.6-0.3,1.1-0.5,1.7
	c-3.5,13.1-7,26.1-10.5,39.2l-1.1,3.9C218.5,241,207.8,281,197,320.6c-1.2,4.6-0.6,5,1.3,6c9.7,5.6,14,14.6,13,27.5
	c-0.9,11.6-0.9,23.7-0.9,35.3v1.1c0,1.5,0,3,0,4.5c0,9.5-5.8,13.5-10.8,16c-1.8,1.2-3.3,2.8-4.2,4.8c-1.5,3.3-2.5,6.8-3,10.4
	c-2.9,15.5-14.9,20.9-25.1,23.8c-3.1,0.9-6.4,1.9-9.3,2.9c-5.5,1.8-11.3,3.6-17.2,4.9c-4.7,1.2-9.5,1.9-14.4,2
	c-2.3,0-4.5-0.2-6.7-0.7c-16.6-3.9-33.3-8.5-49.5-12.8c-5.7-1.5-12.1-3.3-18.3-5c-8.6-2.3-16-7.2-22.5-15
	c-4.3-5.3-9.3-10.3-14.1-15.1l-0.1-0.1c-1.4-1.4-2.8-2.9-4.3-4.3c-7.7-7.9-14.6-17.8-8.5-31.5c0.3-1,0.6-2,0.7-3
	c0.3-1.9,0.8-3.8,1.5-5.6c1.9-4.5,1.4-7.2-1.8-10.3C-0.5,353-0.8,346,1.4,342c3.7-7,7.6-14,11.4-20.9c4.3-7.8,8.8-16,13-24.1
	c4.5-8.5,12-10,17.5-11c1.6-0.2,3.1-0.6,4.6-1c0.8-0.3,1.5-0.7,2.1-1.2C63.6,234,77.1,183.2,90.2,134.1l0.1-0.2l4.2-15.9
	c-1.4-0.3-2.8-0.8-4.2-1.4c-13.1-6.2-20.4-24.8-15.2-38.3C82,61,88.7,44,95.5,27.1c4.1-9.9,13-13.7,21-16.5c3.1-1,6.3-1.8,9.5-2.5
	c3.7-0.7,7.3-1.8,10.7-3.2c6.9-3.2,14.3-4.9,21.9-4.9c5.5,0,11,0.8,16.3,2.3c17.5,4.9,36.5,10.2,60,16.6c8.2,2.3,14.9,6.8,21.2,14.3
	c4.5,5.3,9.5,10.4,14.4,15.4c1.7,1.7,3.3,3.4,5,5.1C281.1,59.4,288,68.6,285.2,82.8z M47.7,304l-1.4,0c-2.5,0-4.5,0-6.3,0.2
	l-0.1,0.1c-0.5,0.9-1,1.7-1.5,2.6c0.7-0.1,1.5-0.1,2.2-0.1c2,0,4.1,0.2,6.1,0.5l0.3-1l0.2-0.8C47.4,305,47.6,304.5,47.7,304z
	 M194.8,344.9c-1.9-1.3-3.9-2.5-6-3.8c-0.3,1.2-0.6,2.4-0.9,3.6h0c2.4,0.6,4.7,1.4,6.9,2.5c0-0.4,0-0.8,0-1.2
	C194.8,345.6,194.8,345.2,194.8,344.9z M226.9,148.5l-115.5-30.9c-0.8,2.7-1.4,4.9-2,7.2c-5.4,21.9-11.6,43.9-17.6,65.2
	c-11.1,39.8-22.6,80.9-29.7,122.3l86,23l1.3,0.4l22.4,6c14.5-39.7,25-80.5,35.3-120.1C213.3,197.6,219.7,172.9,226.9,148.5z"/>
</svg>
