<?xml version="1.0" encoding="UTF-8"?>
<svg version="1.1" viewBox="0 0 256 256" id="Layer_1" xmlns="http://www.w3.org/2000/svg">
<style type="text/css">
	.st0{fill:#FFFFFF;}
</style>
 <g transform="translate(0 -229.27)">
    <path class="st0" d="m102.36 425.09c-0.59923-0.21989-3.0895-0.91307-5.534-1.5402-3.8647-0.9914-5.4223-2.4558-11.94-11.226-4.1226-5.547-12.786-15.52-19.251-22.162l-11.756-12.076v-7.2617c0-7.6726-0.1005-7.8676-3.2008-6.2084-1.2498 0.66887-3.2775 0.67779-5.5557 0.024-5.9422-1.7042-7.7536-0.45603-13.42 9.2467-2.9096 4.982-7.454 11.182-10.099 13.777-4.0277 3.9529-5.5052 4.7192-9.0985 4.7192-5.7957 0-10.056-3.3153-11.26-8.7622-0.51795-2.3438-0.68917-11.125-0.38051-19.514 0.60943-16.563 2.1975-23.183 8.7215-36.357 4.3117-8.7068 21.466-28.217 27.343-31.098l4.2591-2.0878 4.9547 2.6326c3.9562 2.1021 5.127 3.401 5.8096 6.4457 1.202 5.3611 0.08432 16.621-2.9971 30.198-0.42218 1.8601 0.19476 2.8015 2.6778 4.0855 1.7745 0.91761 3.444 1.6684 3.7098 1.6684 0.266 0 3.0499-4.2897 6.1867-9.5327 3.1368-5.243 6.0206-9.7779 6.4083-10.078 0.38788-0.29977 3.2823-3.5429 6.4322-7.2074 6.7779-7.885 19.467-15.996 32.347-20.675 7.7261-2.8072 10.138-3.1668 21.245-3.1668 11.106 0 13.518 0.35947 21.244 3.1668 10.026 3.6428 25.887 12.892 29.063 16.947 1.1908 1.5206 3.9836 4.7257 6.2061 7.1225 2.2226 2.3968 6.661 8.6476 9.8632 13.891 3.2022 5.243 6.0254 9.5327 6.2738 9.5327 1.1755 0 6.8783-3.4176 6.8641-4.1134-8e-3 -0.43399-0.70087-3.7306-1.5377-7.3259-2.1178-9.0975-2.9852-19.987-1.9527-24.513 0.67212-2.9465 1.9131-4.3892 5.4598-6.3478 6.8962-3.8082 10.102-2.2855 21.73 10.321 11.406 12.367 15.689 19.269 20.131 32.446 2.9076 8.6248 3.3975 11.824 3.8491 25.135 0.28454 8.3888 0.0741 16.932-0.46978 18.984-2.0799 7.8621-12.479 10.974-18.395 5.5042-3.8799-3.5878-10.233-12.251-14.17-19.322-3.6192-6.5006-5.2723-7.3802-10.934-5.817-2.5804 0.71252-4.7006 0.73438-5.9578 0.0625-3.0806-1.6488-3.1845-1.4476-3.1845 6.1686v7.2132l-12.576 13.044c-6.9166 7.174-15.333 16.979-18.704 21.79-6.4931 9.2664-8.9564 10.963-17.843 12.288-5.9289 0.88448-6.3342 0.56953-14.125-10.976l-5.3879-7.9846v-67.645h-10.895v67.524l-4.8424 7.5546c-2.6634 4.155-5.7139 8.5724-6.7789 9.8163-1.738 2.0298-5.5511 2.7848-8.5337 1.6896z"/>
 </g>
</svg>
