<?xml version="1.0" encoding="UTF-8"?>
<svg version="1.1" viewBox="0 0 256 256" id="Layer_1" xmlns="http://www.w3.org/2000/svg">
<style type="text/css">
	.st0{fill:#FFFFFF;}
</style>
 <g transform="translate(0 -229.27)">
    <path class="st0" d="m99.072 416.29c-2.5877-0.33679-3.8818-1.5172-6.1597-5.6181-3.8405-6.9144-14.32-19.697-23.808-29.04l-7.7059-7.5882v-6.4515c0-5.4342-0.2724-6.3469-1.7273-5.7886-0.95 0.36444-2.302 0.66282-3.0045 0.66282-0.70249 0-4.2235 7.3283-7.8244 16.285-6.1792 15.37-6.8236 16.474-11.467 19.642-4.5468 3.1027-5.2513 3.2687-9.2852 2.1877-6.2221-1.6674-26.806-11.873-27.478-13.624-0.31004-0.808-0.006199-3.1586 0.67535-5.2234 0.97689-2.96 1.9799-3.9021 4.7405-4.4523 3.4442-0.6865 3.6859-1.1597 14.785-28.953 9.3343-23.374 11.079-28.637 10.101-30.465-0.65049-1.2154-1.1827-3.2446-1.1827-4.5092 0-2.6743 3.9985-10.948 5.2909-10.948 1.9388 0 16.733 5.4538 26.709 9.846 11.557 5.0884 11.869 5.5351 8.9885 12.848-0.87967 2.233-1.0025 3.1297-0.27281 1.9927 0.72949-1.1369 4.4665-5.6968 8.3045-10.133 7.912-9.1454 16.322-14.49 28.177-17.906 7.4233-2.139 7.4352-2.1389 9.2459 0.0598 1.5849 1.9243 3.1137 2.2012 12.152 2.2012 9.062 0 10.524-0.2662 11.837-2.157 1.4651-2.1094 1.6551-2.1152 8.5962-0.26373 13.924 3.7139 26.862 13.495 36.385 27.507 2.2689 3.3386 2.3287 2.5704 0.19688-2.5316-0.90091-2.1561-1.638-4.6029-1.638-5.4374 0-2.1035 32.433-16.025 37.333-16.025 0.50322 0 1.9916 2.2161 3.3075 4.9246 2.0827 4.2869 2.2368 5.5082 1.1896 9.4312-1.1611 4.3502-0.84717 5.3743 9.0487 29.514 5.6384 13.754 10.552 26.205 10.919 27.668 0.48827 1.9454 1.6517 2.8447 4.3309 3.3473 2.9529 0.55396 3.9035 1.4152 4.9023 4.4416 0.68148 2.0649 0.97002 4.4555 0.6412 5.3124-0.76391 1.9906-17.996 10.672-25.759 12.978-5.9188 1.7577-5.936 1.7558-10.063-1.1041-5.7251-3.9675-5.5189-3.6248-12.43-20.655-3.4041-8.3888-6.2591-15.335-6.3445-15.437-0.0854-0.10121-1.5056-0.52312-3.156-0.93738l-3.0008-0.75313v13.215l-8.3011 8.4644c-11.636 11.865-19.407 21.231-22.825 27.511-2.6987 4.9584-3.3118 5.4289-7.8921 6.0567-2.7314 0.37434-5.5727 0.68072-6.3141 0.68072-1.4764 0-11.889-15.45-13.046-19.359-0.59571-2.0114 0.56168-3.6189 6.683-9.282 4.072-3.767 10.023-9.4978 13.224-12.735l5.8209-5.8858-0.72112-10.494c-0.52303-7.6121-1.1951-10.869-2.4474-11.859-2.7746-2.194-3.8388-1.6317-7.4933 3.9592-4.1404 6.3341-5.3721 6.6877-23.299 6.6877-17.763 0-18.861-0.31492-23.157-6.6507-3.812-5.6218-4.8789-6.1809-7.6263-3.9963-1.2538 0.99697-1.8891 4.2062-2.3563 11.903l-0.63964 10.538 10.61 10.409c5.8358 5.7251 11.79 11.342 13.232 12.483 3.4072 2.6952 2.8129 4.9361-4.1951 15.819-5.8305 9.0546-5.5239 8.8953-14.806 7.6869z"/>
 </g>
</svg>
