<?xml version="1.0" encoding="utf-8"?>
<!-- Generator: Adobe Illustrator 24.2.3, SVG Export Plug-In . SVG Version: 6.00 Build 0)  -->
<svg version="1.1" id="Layer_1" xmlns="http://www.w3.org/2000/svg" xmlns:xlink="http://www.w3.org/1999/xlink" x="0px" y="0px"
	 viewBox="0 0 440.5 440.5" style="enable-background:new 0 0 440.5 440.5;" xml:space="preserve">
<style type="text/css">
	.st0{fill:#FFFFFF;}
</style>
<path class="st0" d="M392.9,216.9c-1.9-95.3-80.6-171.1-176-169.3c-44.7,0.9-87.2,19-118.8,50.6c-67.3,67.7-67,177.1,0.6,244.4
	C130.3,374,172.6,392,217,392.9h3.3c95.4,0,172.7-77.4,172.6-172.7C392.9,219.1,392.9,218,392.9,216.9z M330.4,248.1h-82.2v82.2
	h-55.8v-82.2h-82.2v-55.8h82.2v-82.2h55.8v82.2h82.2V248.1z M376,64.5c-86-86-225.5-86-311.5,0c-4.8,4.8-9.3,9.8-13.6,15
	c-20.3,24.3-35.1,52.7-43.3,83.3c-8.7,32.4-10,66.4-3.7,99.4C20.4,350.7,89.6,420,178.1,436.6c13.9,2.6,28.1,4,42.2,4
	c121.7,0,220.2-98.7,220.2-220.4C440.5,161.8,417.3,105.8,376,64.5z M343.4,368.6L343.4,368.6c-44.2,36.8-102.6,51.7-160.3,41
	c-76.8-14.3-138-75.5-152.2-152.4C20.2,199.6,35.2,141.2,72,97c36.6-44.1,91-69.6,148.3-69.6c106.3,0,192.8,86.5,192.8,192.8
	C413.1,277.6,387.6,332,343.4,368.6z"/>
</svg>
