<?xml version="1.0" encoding="utf-8"?>
<!-- Generator: Adobe Illustrator 24.2.3, SVG Export Plug-In . SVG Version: 6.00 Build 0)  -->
<svg version="1.1" id="Layer_1" xmlns="http://www.w3.org/2000/svg" xmlns:xlink="http://www.w3.org/1999/xlink" x="0px" y="0px"
	 viewBox="0 0 493.7 394.7" style="enable-background:new 0 0 493.7 394.7;" xml:space="preserve">
<style type="text/css">
	.st0{fill:#FFFFFF;}
</style>
<path class="st0" d="M363.6,25.1C308.1,0.8,248.3-2.3,187.5,1.2c-50.5,8-57.3,28.3-76.3,38.1C47.4,53.5,0.4,118.1,0,196
	c-0.3,83.5,51.9,140.8,116.2,160.4c27.2,26.2,32.5,26.5,76.1,36.9c32.7,6,162.5-7.5,178.3-29.9c69.1-62.6,116.4-66.1,123.2-167.5
	C486.4,90.2,421,81.6,363.6,25.1z M175.7,346.4l-0.1-0.5C83.1,353.4,32,302.1,17,239.8c10.2,31.1,32.2,55.6,66.5,58.5
	c21.3-0.6,38.2-11.8,50.4-27.5c12.2-15.7,19.6-35.7,21.9-54.2c13.7-66.9-46.8-164-115-101.6c-8.6,8.2-15.4,18.6-20.3,30.4
	c11.6-37,35.5-69.5,70.3-86.9c0,0,24.8-10.3,46.3-12.4c78.4-7.5,64.3,28.3,104.6,26.4c56.5,69.3,61.8,166.7,2.3,248.5
	C208.8,320,206.5,344.7,175.7,346.4z M62.8,142.4c0-3.3,0-6.7,0-10.1v-5.1h25.9c0,0.8,0.1,1.6,0.1,2.4c0,0.3,0,0.7,0,1.1
	c0,5.9,0,11.7,0,17.6c0,6,0,12,0,17.9c0,8.5,1.8,10.2,10.5,10.2c3.5,0,7.1,0,10.6,0c4,0,7.9,0,11.9,0c1,0,2,0,3.1,0.1
	c0.8,8.1,0.9,32.7,0,41c-1.2,0.1-2.4,0.1-3.6,0.1c-3.1,0-6.3,0-9.4,0c-4.3,0-8.7,0-13,0c-7.3,0.1-9.9,2.7-9.9,9.9
	c-0.1,8.4,0,16.9,0,25.1c0,3.5,0,6.9,0,10.4v3.7c-8.6,0.8-17.2,0.8-25.8,0c-0.1-1-0.1-2.1-0.1-3.2c0-0.2,0-0.3,0-0.4
	c0-6.9,0-13.7,0-20.6v-13.6c0-10-1.4-11.3-11.1-11.4H45c-4.2,0-8.5,0-12.7,0c-1.1,0-2.3-0.1-3.7-0.1c-0.2-9.5-0.1-18.7-0.1-28.4
	c0-3.7,0-7.4,0-11.2c1-0.1,1.8-0.2,2.6-0.2c3.7-0.2,7.3-0.3,11-0.5c4.2-0.2,8.4-0.3,12.5-0.5c6.1-0.3,8.2-2.5,8.2-8.7
	C62.9,159.3,62.8,150.7,62.8,142.4z M369.3,301.1c-40.2,14.9-58.2,10.3-98.2,8.4c16.3-30.5,26.3-61.1,29.8-91.2
	c6.7-43.6-8.2-101.4-31.1-134c31-0.7,88.3,0.4,95.3,10.4c56.7,61.9,55.1,131.5,14.7,197.8C377.4,296.4,373.7,299.5,369.3,301.1z
	 M391.5,298.4L391.5,298.4C419,249.5,437,213.5,423,159.5c-7.1-27.4-14.9-41-31.5-63.8C434,46.1,494.7,157.2,485.3,204
	C487.9,238.8,436.8,348.3,391.5,298.4z"/>
</svg>
