<?xml version="1.0" encoding="UTF-8" standalone="no"?>
<svg
   xmlns:dc="http://purl.org/dc/elements/1.1/"
   xmlns:cc="http://creativecommons.org/ns#"
   xmlns:rdf="http://www.w3.org/1999/02/22-rdf-syntax-ns#"
   xmlns:svg="http://www.w3.org/2000/svg"
   xmlns="http://www.w3.org/2000/svg"
   xmlns:sodipodi="http://sodipodi.sourceforge.net/DTD/sodipodi-0.dtd"
   xmlns:inkscape="http://www.inkscape.org/namespaces/inkscape"
   viewBox="0 0 256 256"
   height="256"
   width="256"
   id="Layer_1"
   version="1.1">
<style type="text/css">
	.st0{fill:#FFFFFF;}
</style>
  <defs
     id="defs3636" />
  <g
     id="g4185"
     transform="matrix(1.2519714,0,0,1.2519715,-77.323309,-77.156305)">
    <path class="st0"
       d="m 145.76,232.65538 c -7.76766,-0.19194 -9.87556,-0.36022 -15.84,-1.26457 -7.91865,-1.20065 -14.27102,-2.8124 -15.8594,-4.02392 -0.58861,-0.44895 -1.36326,-0.92468 -1.72145,-1.05718 -1.24316,-0.45988 -10.54328,-7.91405 -10.8956,-8.73297 -0.32874,-0.7641 -0.76082,-0.90969 -6.013207,-2.02617 -5.234167,-1.11261 -5.959751,-1.35631 -9.664685,-3.24611 l -4.00566,-2.04319 -1.80241,-2.97064 c -0.991325,-1.63385 -2.107517,-3.67338 -2.480426,-4.53228 -0.417446,-0.96148 -1.698086,-2.62172 -3.332259,-4.32 -3.626016,-3.76825 -4.848652,-5.77152 -6.141865,-10.06336 -4.570022,-15.16672 -3.409866,-44.86802 2.116867,-54.1942 0.594051,-1.00245 2.336243,-3.1515 3.871539,-4.77568 1.897206,-2.00703 3.134717,-3.65334 3.862989,-5.13908 0.58935,-1.20232 1.738275,-3.25119 2.553171,-4.55304 1.473334,-2.35376 1.503021,-2.37819 5.305856,-4.36713 3.58086,-1.87285 4.192099,-2.07783 9.604764,-3.22109 5.348496,-1.12969 5.806616,-1.28163 6.129546,-2.03286 0.3527,-0.82049 9.62364,-8.25266 10.86917,-8.71341 0.37041,-0.13702 1.16239,-0.62205 1.75996,-1.07783 1.73369,-1.322353 7.99005,-2.844891 17.1231,-4.167047 l 8.16,-1.181296 h 24.63999 24.64 l 8.16,1.189376 c 9.09723,1.32598 15.42939,2.867107 17.1394,4.171397 0.58861,0.44895 1.36326,0.92468 1.72145,1.05718 1.24316,0.45988 10.54328,7.91405 10.8956,8.73297 0.32874,0.7641 0.76082,0.90969 6.01321,2.02617 5.23416,1.11261 5.95975,1.35631 9.66468,3.24611 l 4.00566,2.04319 1.80241,2.97064 c 0.99133,1.63385 2.10752,3.67338 2.48043,4.53228 0.41744,0.96148 1.69808,2.62172 3.33226,4.32 3.62601,3.76825 4.84865,5.77152 6.14186,10.06336 4.57002,15.16672 3.40987,44.86802 -2.11687,54.1942 -0.59405,1.00245 -2.33624,3.1515 -3.87153,4.77568 -1.89721,2.00703 -3.13472,3.65334 -3.86299,5.13908 -0.58935,1.20232 -1.73828,3.25119 -2.55317,4.55304 -1.47334,2.35376 -1.50302,2.37819 -5.30586,4.36713 -3.58086,1.87285 -4.1921,2.07783 -9.60476,3.22109 -5.3485,1.12969 -5.80662,1.28163 -6.12955,2.03286 -0.3527,0.82049 -9.62364,8.25266 -10.86917,8.71341 -0.37041,0.13702 -1.16239,0.62205 -1.75996,1.07783 -1.75524,1.33879 -7.9882,2.84881 -16.9631,4.10954 l -8,1.12378 -17.12,0.13207 c -9.41599,0.0726 -21.15199,0.0324 -26.07999,-0.0893 z"
       inkscape:connector-curvature="0" />
  </g>
</svg>
