<?xml version="1.0" encoding="UTF-8" standalone="no"?>
<svg
   xmlns:dc="http://purl.org/dc/elements/1.1/"
   xmlns:cc="http://creativecommons.org/ns#"
   xmlns:rdf="http://www.w3.org/1999/02/22-rdf-syntax-ns#"
   xmlns:svg="http://www.w3.org/2000/svg"
   xmlns="http://www.w3.org/2000/svg"
   version="1.1"
   id="Layer_1"
   width="256"
   height="256"
   viewBox="0 0 256 256">
<style type="text/css">
	.st0{fill:#FFFFFF;}
</style>
  <defs
     id="defs2518" />
  <g transform="matrix(1.7,0,0,1.7,-150.76612,-150.61442)">
    <path class="st0"
       d="m 160.16,233.61574 c -2.57932,-0.27631 -5.5633,-1.02842 -7.68,-1.93575 -0.80895,-0.34675 -2.36388,-0.86091 -3.45541,-1.14258 -1.99798,-0.51558 -6.81905,-3.02827 -8.78932,-4.58091 -0.58383,-0.46008 -1.69184,-1.77251 -2.46225,-2.91651 l -1.40074,-2.08 -0.65447,-5.58352 -0.65446,-5.58352 1.58719,-7.53648 c 0.87295,-4.14506 1.65431,-7.8281 1.73636,-8.18453 0.0821,-0.35644 1.01296,-1.29244 2.0687,-2.08 l 1.91952,-1.43195 -0.15842,-6.72 c -0.19903,-8.44261 -0.7767,-42.80115 -0.7767,-46.19647 v -2.5323 l -1.06351,-0.19951 c -0.58492,-0.10973 -1.70427,-0.60588 -2.48744,-1.10255 l -1.42393,-0.90304 -1.69815,-7.07073 -1.69815,-7.07073 0.40708,-6.73491 0.40709,-6.73491 1.8389,-2.03749 c 1.24627,-1.38084 2.54615,-2.40912 4.03341,-3.19066 1.20698,-0.634251 3.53204,-2.099874 5.16679,-3.256939 2.73579,-1.936378 3.16742,-2.13272 5.42509,-2.467808 3.10216,-0.460426 23.96109,-0.46296 27.22279,-0.0033 2.12203,0.299046 2.64926,0.528966 5.03947,2.197673 1.46822,1.025027 3.85773,2.536928 5.31002,3.359779 1.74403,0.988145 3.24773,2.161575 4.42894,3.456175 l 1.78841,1.96008 0.37725,6.94383 0.37726,6.94383 -1.71136,6.88 -1.71136,6.88 -1.25431,0.86061 c -0.68986,0.47334 -1.7943,0.954 -2.4543,1.06813 l -1.2,0.20751 v 2.33233 c 0,3.51404 -0.59359,38.7322 -0.78225,46.41141 l -0.1651,6.72 1.92656,1.44 c 1.05961,0.792 1.99571,1.728 2.08022,2.08 0.0845,0.352 0.86527,4.024 1.73504,8.16 l 1.58139,7.52 -0.66014,5.6 -0.66014,5.6 -1.42231,2.10532 c -0.78227,1.15793 -2.09978,2.6121 -2.92779,3.2315 -2.34582,1.75481 -6.10985,3.68082 -8.29007,4.24195 -1.09153,0.28092 -2.61609,0.78146 -3.38791,1.1123 -3.98485,1.70811 -10.30692,2.51322 -15.42749,1.96468 z"
    />
  </g>
</svg>
