<?xml version="1.0" encoding="UTF-8" standalone="no"?>
<svg
   xmlns:dc="http://purl.org/dc/elements/1.1/"
   xmlns:cc="http://creativecommons.org/ns#"
   xmlns:rdf="http://www.w3.org/1999/02/22-rdf-syntax-ns#"
   xmlns:svg="http://www.w3.org/2000/svg"
   xmlns="http://www.w3.org/2000/svg"
   version="1.1"
   id="Layer_1"
   width="256"
   height="256"
   viewBox="0 0 256 256">
   
<style type="text/css">
	.st0{fill:#FFFFFF;}
</style>

  <g
     id="g1384"
     transform="matrix(1.7,0,0,1.7,-150.79999,-150.75454)">
    <path class="st0"
       d="m 131.4317,232.76042 c -1.52331,-2.31312 -1.81901,-3.90465 -0.95472,-5.13851 0.7004,-0.9999 0.63456,-1.51778 -0.32745,-2.57548 -0.61795,-0.67943 -0.63985,-0.99162 -0.45783,-6.52543 0.11172,-3.3968 0.33185,-5.95256 0.52973,-6.15044 0.22389,-0.22389 0.33857,-3.78416 0.33857,-10.51113 0,-9.3971 0.0488,-10.3009 0.63984,-11.856 0.61363,-1.6145 0.63984,-2.45986 0.64,-20.64344 L 131.84,150.4 h -1.61005 c -1.01317,0 -1.65281,-0.14829 -1.72541,-0.4 -0.0635,-0.22 -0.36121,-5.08 -0.66166,-10.8 l -0.54629,-10.4 -1.76795,-5.6 c -0.97238,-3.08 -2.47011,-7.00139 -3.3283,-8.71419 L 120.64,111.37163 v -8.62693 c 0,-6.500789 0.0974,-8.687132 0.39522,-8.871196 0.21738,-0.134345 2.50302,-0.30414 5.0792,-0.377324 l 4.68398,-0.133066 0.54213,0.918442 c 0.50333,0.8527 0.66021,0.910163 2.1916,0.802783 0.99274,-0.06961 1.79085,-0.309023 2.00459,-0.601324 0.27293,-0.373258 0.64538,-0.428112 1.6092,-0.237011 0.68974,0.136761 16.01408,0.335356 34.05407,0.441324 l 32.8,0.192669 1.68,0.930858 1.68,0.930857 v 6.349138 6.34915 h -2.08 -2.08 v 52.48 52.47999 h -0.81146 c -0.58705,0 -57.88437,-14.89547 -62.30853,-16.19822 -0.52101,-0.15342 -0.56,0.31121 -0.56,6.67266 0,4.41688 0.12084,6.95841 0.34135,7.17892 0.20273,0.20273 0.41774,2.76549 0.52946,6.31073 0.17857,5.66723 0.15561,6.00548 -0.45368,6.68265 -0.9911,1.10151 -1.08436,1.70943 -0.36248,2.36272 0.87578,0.79258 0.6722,3.12369 -0.40375,4.62302 -0.424,0.59083 -0.9187,1.36523 -1.09934,1.72089 -0.28147,0.55418 -0.69382,0.65975 -2.88387,0.73834 l -2.55545,0.0917 z m 8.0883,-62.04043 c 0,-20.10666 -0.007,-20.31999 -0.64,-20.31999 -0.63289,0 -0.64,0.21333 -0.64,19.18111 0,11.37641 0.12018,19.25539 0.29537,19.36367 0.16247,0.1004 0.38991,0.6129 0.50543,1.13888 0.11553,0.52599 0.27061,0.95633 0.34462,0.95633 0.074,0 0.13458,-9.144 0.13458,-20.32 z m -0.0803,-45.01824 c -0.0509,-3.92796 -0.0927,-0.80575 -0.0927,6.93825 -8e-5,7.744 0.0416,10.95778 0.0926,7.14175 0.051,-3.81604 0.0511,-10.15204 1.3e-4,-14.08 z"
    />
  </g>
</svg>
