<?xml version="1.0" encoding="utf-8"?>
<!-- Generator: Adobe Illustrator 23.0.1, SVG Export Plug-In . SVG Version: 6.00 Build 0)  -->
<svg version="1.1"
	 id="Layer_1" xmlns:cc="http://creativecommons.org/ns#" xmlns:dc="http://purl.org/dc/elements/1.1/" xmlns:rdf="http://www.w3.org/1999/02/22-rdf-syntax-ns#" xmlns:svg="http://www.w3.org/2000/svg"
	 xmlns="http://www.w3.org/2000/svg" xmlns:xlink="http://www.w3.org/1999/xlink" x="0px" y="0px" viewBox="0 0 256 256"
	 style="enable-background:new 0 0 256 256;" xml:space="preserve">
<style type="text/css">
	.st0{fill:#FFFFFF;}
</style>
<path class="st0" d="M129,6.6C83.7,6.6,22.8,52,25,70.6c4,34-18,35.9-18,58c0,43.6-2.3,76.5,57,110c12-11,41.2,12,65,12
	c67.4,0,122-54.6,122-122S196.3,6.6,129,6.6z M148,241.6c-68,11-134-47.3-134-105c0-14.2,23.9-18.7,29-31c5.2-12.5-9-35,7-42
	c19-8,39.8-34,69-34c57.7,0,101,21,119,62C261,167.6,216,230.6,148,241.6z"/>
<path class="st0" d="M137,216.6c44.2,0,80-35.8,80-80s-35.8-80-80-80s-80,35.8-80,80S92.8,216.6,137,216.6z M122.6,66.5
	c41.1-6.7,81,28.6,81,63.5c0,8.6-14.4,11.3-17.5,18.7c-3.1,7.5,1.2,19.4-4.2,25.4c-6.7-2.4-24.1,20.6-41.7,20.6
	c-34.9,0-61.1-12.7-71.9-37.5C54.3,111.2,81.5,73.1,122.6,66.5z"/>
<path class="st0" d="M29,162.6c0,0,16,27,23,41c5,10,18.6,20.5,23.1,25.7c1.8,2.1,4.2,3.7,6.9,4.6c0,0,40,16.7,73,9.7
	c-35-5-59-20-78-32S58,193.6,29,162.6z"/>
</svg>
