<?xml version="1.0" encoding="utf-8"?>
<!-- Generator: Adobe Illustrator 24.2.3, SVG Export Plug-In . SVG Version: 6.00 Build 0)  -->
<svg version="1.1"
	 id="Layer_1" xmlns:cc="http://creativecommons.org/ns#" xmlns:dc="http://purl.org/dc/elements/1.1/" xmlns:rdf="http://www.w3.org/1999/02/22-rdf-syntax-ns#" xmlns:svg="http://www.w3.org/2000/svg"
	 xmlns="http://www.w3.org/2000/svg" xmlns:xlink="http://www.w3.org/1999/xlink" x="0px" y="0px" viewBox="0 0 256 256"
	 style="enable-background:new 0 0 256 256;" xml:space="preserve">
<style type="text/css">
	.st0{fill:#FFFFFF;}
</style>
<path class="st0" d="M129,6.6C83.7,6.6,22.8,52,25,70.6c4,34-18,35.9-18,58c0,43.6-2.3,76.5,57,110c12-11,41.2,12,65,12
	c67.4,0,122-54.6,122-122S196.3,6.6,129,6.6z M148,241.6c-0.8,0.1-1.6,0.2-2.5,0.4c-29.9-6.1-51.3-19.5-68.5-30.4
	c-19-12-19-18-48-49c0,0,16,27,23,41c4.3,8.5,14.7,17.4,20.5,23c-34.3-19.8-58.5-55-58.5-90c0-14.2,23.9-18.7,29-31
	c5.2-12.5-9-35,7-42c19-8,39.8-34,69-34c57.7,0,101,21,119,62C261,167.6,216,230.6,148,241.6z M137,56.6c-44.2,0-80,35.8-80,80
	c0,44.2,35.8,80,80,80s80-35.8,80-80C217,92.4,181.2,56.6,137,56.6z M186.1,148.7c-3.1,7.5,1.2,19.4-4.2,25.4
	c-6.7-2.4-24.1,20.6-41.7,20.6c-34.9,0-61.1-12.7-71.9-37.5c-14-46,13.2-84.1,54.3-90.7c41.1-6.7,81,28.6,81,63.5
	C203.6,138.6,189.2,141.3,186.1,148.7z"/>
</svg>
