<svg xmlns="http://www.w3.org/2000/svg" viewBox="0 0 445.44 215.72"><defs><style>.a{fill:#fff;} .st0{fill:#fff;}</style></defs><title>Yarmor</title><path class="st0" d="M443.94,150.5c-3.19-11.24-2.38-9.17-12.41-11.37a5.27,5.27,0,0,1-3.29-2.69C417.11,109.31,406.4,82,394.9,55c-3.65-8.55-5.55-16.37-1.07-25a5.53,5.53,0,0,0-.24-4.15c-2-4.55-4.33-9-6.48-13.45-1.22-2.58-2.76-3.52-5.75-2.35-18,7.07-36.15,13.94-54.22,21-4.52,1.75-5.58,4.52-3.75,9.06q6.15,15.33,12.34,30.65c.42,1,.76,2.11,1.14,3.16l-.68.35c-.68-1.13-1.4-2.24-2-3.4a188.6,188.6,0,0,0-13.68-21.94q-5-7-10.69-13.57A120.08,120.08,0,0,0,296.25,21.6a68.6,68.6,0,0,0-16.18-10.35c-3.75-1.7-7.25-4-11.12-5.34-6-2.05-12.2-3.5-18.32-5.2-4.57-1.26-5-1.21-7.09,3.23-1.14,2.37-2.63,3.07-5.18,3-10-.13-19.92-.2-29.88,0-3.37.07-5.61-.57-6.83-4-.93-2.6-2.79-3.53-5.8-2.57-6.14,2-12.44,3.45-18.63,5.29a55.76,55.76,0,0,0-6.72,2.75c-15.77,7-28.4,17.77-38.48,31.67-1.06,1.46-2.44,2.67-3.49,4.12-3.17,4.36-6.44,8.65-9.29,13.2-3.42,5.44-6.44,11.13-9.64,16.71l-.82-.32c.4-1.06.76-2.13,1.18-3.18q6.23-15.47,12.45-30.94c1.64-4.1.49-7-3.69-8.6C102.36,24.72,86,18.25,69.57,12.05c-9.17-3.45-8.76-3-13.72,5.53-4.15,7.11-5.13,13.76-1.35,21.06,1.34,2.57.77,5-.3,7.59C42.61,74.43,30.9,102.58,19.77,131c-2.28,5.82-4.94,9.32-11.32,9.36-2.89,0-4.31,1.94-5.09,4.45-.87,2.83-1.66,5.69-2.49,8.53-1.47,5-1.4,5.81,2.79,8.86,13.82,10.06,28.83,17.74,45.47,22a5.64,5.64,0,0,0,4-.77c4.25-2.79,8.28-5.91,12.48-8.77A14.22,14.22,0,0,0,71,167.79q10.09-25.56,20.47-51c.42-1,1.75-2.71,2.17-2.57,3.76,1.21,7,0,10.4-2.31,0,1.51,0,2.43,0,3.34-.11,5.72-.32,11.43-.27,17.15a6.88,6.88,0,0,0,1.44,4c5.14,6.33,10.19,12.77,15.75,18.72,15.47,16.53,30,33.76,40.56,53.93a7.1,7.1,0,0,0,5.67,4A124.41,124.41,0,0,1,181,215.4c3.33.86,5.15-.24,6.86-2.81,2.87-4.33,6-8.46,8.8-12.85,1.49-2.36,3-2.66,5.5-1.77q9,3.19,18.13,5.87a9.65,9.65,0,0,0,5.17,0c6.3-1.85,12.55-3.88,18.75-6,2.1-.73,3.27-.29,4.47,1.52,3.1,4.68,6.41,9.22,9.56,13.86,1.47,2.18,3.14,3,5.89,2.35a114.4,114.4,0,0,1,13.14-2.22,8.83,8.83,0,0,0,7.39-5.11,199.13,199.13,0,0,1,26.89-38.45c7.6-8.69,15-17.57,23.06-25.85,6.1-6.26,8.59-13.17,7.38-21.74-.44-3.16-.07-6.43-.07-9.23,2.56.5,5.32,1.66,7.91,1.38s3.56.28,4.45,2.54c5,12.61,10.83,24.93,14.91,37.81s11.14,22.2,22.78,28.55a6.48,6.48,0,0,0,5.29.9c15.23-4.05,29.06-11.1,42-19.9C446.57,159.2,446.35,159,443.94,150.5ZM236.59,179.34c-3.45,0-7.21.1-10.94-.13-.52,0-1.38-1.68-1.31-2.53s1.12-2.09,1.8-2.12c3.87-.21,7.77-.1,11.68-.1C237.45,176,237.1,177.34,236.59,179.34Zm-31.79-7.89c0-.19,0-.38,0-.57h36.09c0,.19,0,.38,0,.57Zm3,3c3.94,0,7.91-.11,11.86.13.63,0,1.58,1.65,1.62,2.57a2.79,2.79,0,0,1-1.77,2.12c-3.46.22-6.95.1-10.48.1C208.58,177.49,208.23,176.11,207.82,174.45ZM145.12,80.6c4.94,1.2,5.31,1.69,5,6.39-1,13.81-2,27.6-2.83,41.41-.16,2.59-1.2,4.09-4.11,5.38C144,115.74,142.14,98.11,145.12,80.6Zm135.29,7.34a4,4,0,0,1,1.46,3.55c.19,2.9.4,5.81.59,8.64L268.86,91a13.55,13.55,0,0,1,.75-1.21C273.59,84.05,274.64,83.85,280.41,87.94Zm-8.75,7.85c9.16,3.73,11,12,11.91,20.65a48.42,48.42,0,0,1,0,5.39c-.08,3.69,1.12,7.63-2.47,10.59-1.71,1.4-6.28.8-7-1.31-3.43-10.56-6.83-21.13-10.08-31.74-.25-.8.48-2.65,1.09-2.83C267.28,96,269.87,95.06,271.66,95.79ZM164,89.93a4.37,4.37,0,0,1,2.36-2.55c7.23-3.49,4.92-3.89,9.68,2.4a10.09,10.09,0,0,1,.83,1.36l-13.67,9C163.43,96.78,163.5,93.32,164,89.93Zm-.27,18.29c1-5.6,4.4-9.21,9.22-12.08,3-1.78,5.29-.77,7.64.49.68.36,1.09,2.26.8,3.2-3.15,10.31-6.46,20.58-9.74,30.85-.82,2.55-5.25,3.32-7.25,1.62-3.66-3.14-2.11-7.21-3-11.07C162.18,116.9,162.94,112.56,163.73,108.22Zm10.35,27c2.74-9.77,6-19.4,9-29.11.82-2.64,2.11-2.79,4.53-1.85a24.85,24.85,0,0,0,8.42,2c17.6.18,35.19.07,52.79.12,3.33,0,6.5-.19,9.41-2.14,2-1.37,3.49-.76,4.25,1.72,3,9.7,6.3,19.33,9,29.11,1.09,3.87.64,7.91-2.71,11-7.05,6.59-13.95,13.33-21.08,19.82a8.34,8.34,0,0,1-5,1.95c-6.66.23-13.35.1-20,.1s-13.15.12-19.71-.1a8.3,8.3,0,0,1-5-1.87c-7.21-6.56-14.2-13.35-21.29-20C173.47,142.94,173,139,174.08,135.19ZM291.26,79.6c-4.7-2.75-9.66-5-14.51-7.55l.06-1c.8-.14,1.75-.64,2.41-.39,6.24,2.26,12.43,4.66,19.35,7.28C295.93,79.67,294.3,81.37,291.26,79.6ZM255,96.11H190.61c0-.29,0-.58,0-.86a643,643,0,0,1,64.38,0Zm-86.12-25c0,.32,0,.65,0,1-5.41,2.77-10.75,5.74-16.32,8.16-1.23.53-3.32-.91-5-1.45.06-.36.12-.71.19-1.07,6.21-2.35,12.4-4.75,18.64-7C167.1,70.44,168,70.93,168.86,71.08ZM295.55,87.16c-.33-4.76-.17-5,5-6.72,2.91,17.76,1.15,35.37,1.92,53.33-2.7-1.23-3.89-2.58-4.05-5.2C297.56,114.76,296.53,101,295.55,87.16ZM142.72,137.51l5.63-4.46c.82.76,1.6,1.42,2.32,2.14q21.65,22.13,43.28,44.28c1.17,1.2,2.11,2.63,3.23,3.89,1.7,1.87,1.35,3.35-1.1,4.8ZM248.51,183.3c1-1.1,1.77-2.39,2.8-3.44q21.94-22.5,43.95-45c.58-.58,1.23-1.11,2-1.82l5,3.92c-16.45,18.42-35,34.34-53,50.92C247.11,186.79,246.73,185.29,248.51,183.3ZM203.8,12.37c0-2.09.83-2.75,2.83-2.72,5.51.09,11,0,16.52,0,5.29,0,10.58.06,15.88,0,2,0,2.87.63,2.83,2.73-.07,3.91,0,7.83.14,11.74.07,2.07-.82,2.48-2.71,2.28a151.78,151.78,0,0,0-32.94,0c-1.89.21-2.77-.21-2.7-2.29C203.79,20.21,203.85,16.29,203.8,12.37ZM68.12,167.91a12.7,12.7,0,0,1-3.8,4.8c-3.2,2.6-6.79,4.72-10,7.29-2.26,1.79-4.42,2.31-7.6.47,4.12-2.56,8-4.66,11.55-7.31a16.63,16.63,0,0,0,5.39-6.28q26.11-63,51.89-126c.75-1.82,1.18-4.22,4.4-2.19-.33,1-.64,2.07-1.06,3.1Q93.54,104.84,68.12,167.91Zm35.81-61.61c-.9,5.09-4.65,6.83-10,4.54l13.41-33.38,1,.19c-.68,4.11-1.4,8.22-2,12.34C105.48,95.42,104.89,100.89,103.93,106.3Zm81.43,105.89-1.06-.11c-.07-1-.58-2.26-.14-2.86,5.46-7.54,11.06-15,16.67-22.42a4.83,4.83,0,0,1,1.52-.94l.78.73Q194.25,199.39,185.36,212.19Zm74.94,0-17.77-25.66c.3-.27.61-.52.91-.78a18.46,18.46,0,0,1,2.27,2.14c5.16,6.85,10.26,13.75,15.4,20.6C262.14,209.88,262.75,211.06,260.3,212.21Zm81.43-105.84c-1.58-9.27-2.93-18.58-4.35-27.87-.05-.28.12-.6.89-1.15L351.7,110.8C346.53,113.17,342.6,111.42,341.73,106.37Zm49.89,73.89c-9.61-5.38-15-13.4-19-23.71C357.83,118.11,342.14,80,326.79,41.78c-.4-1-.73-2-1.12-3,2.67-2.07,3.48-.36,4.34,1.73q23.61,57.62,47.29,115.22c1.6,3.92,3,7.95,4.93,11.71a15.75,15.75,0,0,0,4.57,5.39c3.75,2.71,7.83,5,12.14,7.65C395.94,182.19,394,181.59,391.62,180.26Z"/></svg>