<?xml version="1.0" encoding="UTF-8" standalone="no"?>
<svg
   xmlns:dc="http://purl.org/dc/elements/1.1/"
   xmlns:cc="http://creativecommons.org/ns#"
   xmlns:rdf="http://www.w3.org/1999/02/22-rdf-syntax-ns#"
   xmlns:svg="http://www.w3.org/2000/svg"
   xmlns="http://www.w3.org/2000/svg"
   version="1.1"
   id="Layer_1"
   width="256"
   height="256"
   viewBox="0 0 256 256">
<style type="text/css">
	.st0{fill:#FFFFFF;}
</style>
  <g transform="translate(0,-71.679993)">
    <path class="st0"
       d="m 115.28099,311.37003 -11.12913,-1.52688 -9.599067,-4.33033 -9.599044,-4.33032 -4.709836,-5.14306 c -2.590406,-2.82867 -5.837612,-5.81917 -7.216018,-6.64551 -2.429912,-1.45675 -11.966321,-11.46458 -21.684108,-22.75611 -3.614022,-4.19928 -5.275393,-6.73 -8.001931,-12.18905 -3.000675,-6.00797 -3.65226,-7.87268 -5.092557,-14.57387 -2.274864,-10.58424 -3.787019,-24.60809 -3.787019,-35.12111 0,-8.35339 0.06839,-8.89432 2.160511,-17.09279 1.504171,-5.89435 2.79058,-9.64308 4.234536,-12.33976 l 2.074025,-3.87336 -0.995442,-1.95619 c -1.425871,-2.80199 -6.413712,-18.96927 -6.413712,-20.78895 0,-1.94545 5.229899,-21.54446 8.001268,-29.98476 l 2.108291,-6.42083 6.250898,-4.77286 c 8.03492,-6.13511 13.7416,-9.250476 23.909489,-13.052598 28.710846,-10.73597 75.529136,-10.757071 104.163226,-0.0469 10.25931,3.837323 16.27372,7.105308 24.09627,13.092938 l 6.34142,4.85388 2.10371,6.38362 c 2.79032,8.46698 7.98104,27.84736 7.98104,29.79851 0,1.73562 -5.1955,18.64031 -6.48166,21.0895 -0.7997,1.52284 -0.75846,1.71714 1.18411,5.58072 1.20474,2.39613 2.88467,7.31356 4.18507,12.2504 2.12626,8.07231 2.17239,8.43488 2.17239,17.07662 0,10.72511 -1.49285,24.64983 -3.78701,35.32392 -1.44177,6.70807 -2.08933,8.55972 -5.09683,14.57387 -2.7437,5.48671 -4.39439,7.99363 -8.10719,12.31236 -9.81633,11.41839 -18.85977,20.91727 -21.4797,22.56136 -1.48422,0.93139 -4.80298,3.99297 -7.37506,6.8035 l -4.6765,5.11008 -9.37957,4.27392 -9.37959,4.27392 -11.89914,1.61265 c -6.54454,0.88696 -12.3599,1.58738 -12.92309,1.5565 -0.56315,-0.0311 -6.03202,-0.74327 -12.15304,-1.58303 z"
    />
  </g>
</svg>
