<?xml version="1.0" encoding="utf-8"?>
<!-- Generator: Adobe Illustrator 24.2.3, SVG Export Plug-In . SVG Version: 6.00 Build 0)  -->
<svg version="1.1" id="Layer_1" xmlns="http://www.w3.org/2000/svg" xmlns:xlink="http://www.w3.org/1999/xlink" x="0px" y="0px"
	 viewBox="0 0 405.1 227.5" style="enable-background:new 0 0 405.1 227.5;" xml:space="preserve">
<style type="text/css">
	.st0{fill:#FFFFFF;}
</style>
<path class="st0" d="M385.1,153.5c-4-5.4-7.5-11.1-10.5-17.1c-15.2-28.1-26.6-58.1-33.7-89.1c-1.6-6.8-2.9-13.7-3-20.7
	c0,7,1.4,13.9,3,20.7c7.2,31.1,18.5,61,33.7,89.1C377.6,142.3,381.2,148,385.1,153.5c1.9,2.4,4,4.7,6.3,6.7c1.9,1.6,4.3,2.5,6.8,2.5
	c0.9,0,2.3-3.6,2.4-5.6c0.6-7.2,0.9-14.4,1.4-24.1c0-3.9,0.4-8.8,0.4-13.9c0-3.1-0.2-6.3-0.7-9.4c-1.5-9.5-4.5-18.8-7.8-27.9
	c-4.4-12.4-9.2-24.9-17.9-35c-1.3-1.5-2.6-3-3.9-4.4c-2.1-2.3-4.4-4.6-6.6-6.9l0,0c0,0,0,0,0,0l1.1-1.1
	c-6.1-6.2-12.3-12.2-18.5-18.2c-3.3-3.2-7.4-5.3-12.1-2c-0.9,0.7-2.3,0.7-3.2,1.4c-2.3,1.9-5.6,3.7-6.2,6.2
	c-1.1,4.5-1.3,9.2-0.6,13.8c0.7,3.8,1.4,7.6,2.2,11.5l0,0c1.7,8.4,3.7,16.7,5.3,25.1c0.1,1.3-0.2,2.5-1,3.5
	c-1.6,1.9-3.6,3.5-5.8,4.7l0,0c-2.9,1.5-6,2.7-9.2,3.7c-1-1.7-1.9-3-2.6-4.5c-7-13.5-15.7-26-26-37.2c-3.1-3.3-5.9-7-8.9-10.4
	l-1,0.9c0,0,0,0,0,0l1-0.9l-0.2-0.2c-0.9-1.2-1.9-2.3-3.2-3.2c-11.1-6.4-21.1-14.8-33.5-18.8c-8.1-2.6-16-5.8-24.2-7.7
	c-12.5-2.7-25.4-2.5-37.8,0.6c-10.5,2.5-20.7,7.1-30.6,11.8c-8.7,4.2-16.8,9.5-24,15.9l0,0c-6.5,5.8-12.3,12.2-17.4,19.2
	c-5,6.8-10.4,13.1-14.4,20.6c-2.5,4.7-5.3,9.3-8,13.8c-4.5-1.3-7.1-2.3-9.4-3.8l-0.6,1c0,0,0,0-0.1,0c-1.4-0.9-2.9-1.7-4.3-2.6
	c-0.9-0.6-1.8-1.3-2.6-2.1c-5.8,15-11.5,29.7-17.4,45.3c0,0,0,0,0,0c6-15.6,11.7-30.3,17.5-45.3c0.8,0.8,1.7,1.5,2.6,2.1
	c1.4,0.9,2.9,1.8,4.3,2.7l0.6-1c-1.8-1.2-3.5-2.5-5.1-4c-1.6-1.4-1.9-2.6-1.4-4.8c2-8.8,4-17.6,5.7-26.4l0.1,0
	c0.7-3.5,1.3-7,1.9-10.4c0.8-4.5,0.8-9.8-1-13.7c-2.2-5-8.2-6.8-13.3-8.1c-1.9-0.5-4.5,1.6-6.8,2.6c-1,0.6-1.9,1.3-2.7,2.2
	c-5.7,5.6-11.4,11.3-17,16.9l0.9,0.9c0,0,0,0,0,0c0,0,0,0,0,0L38,34.3c-2.8,2.8-5.5,5.6-8.2,8.4c-2.9,3-5.5,6.4-7.7,9.9
	C14.2,65.4,8.7,79.3,4.3,93.5c-2,6.5-4.2,13.4-4.3,20.1c-0.1,7.2,0.1,14.4,0.4,21.6l1.5-0.1c0,0,0,0,0,0l-1.5,0.1
	c0.3,7.4,0.8,14.8,1.3,22.2c0.1,1.6,0.5,3.2,1.3,4.6c2.1,3.9,6.4,5.7,11,6.8c3.9,1.1,8.1-0.4,10.5-3.7l0.5-0.6l-1.2-1
	c-3.3,3.8-7.6,4.1-12.4,1.6c3.6-3.6,6.9-7.4,10-11.5l-1.7-0.4c-1.9,2.4-4,4.7-6.2,6.8c-1.5,1.4-3.8,2.7-5.8,2.7
	c-1.2,0.1-2.4-0.6-2.9-1.8l0,0c0.5,1.1,1.6,1.8,2.9,1.8c2,0,4.2-1.3,5.8-2.7c2.3-2.1,4.3-4.4,6.2-6.8c4-5.4,7.5-11.2,10.6-17.2
	c7.1-13.1,13.3-26.6,18.8-40.5c-5.4,13.9-11.7,27.4-18.7,40.5c-3,6-6.6,11.8-10.6,17.2l1.6,0.4c13.3-17.2,21.7-37.1,29.5-57.3
	c0.9-2.3,1.8-4.6,2.7-6.9c5-12.9,8.5-26.4,12.1-39.8c2.7-10.1,4.7-20.5,3.1-31.1c0-0.5,0.1-1.1,0.2-1.6c5.5,1,6.6,2.5,7.3,7.3
	c1.1,6.8,0.3,13.5-1,20.1l-0.1,0c-0.3,1.5-0.6,3-0.9,4.4c-7.1,32.4-18.9,63.6-35,92.6c-4.2,7.8-10,14.7-15.4,21.6
	c-0.1,0.2-0.2,0.3-0.4,0.5l1.2,1c4.2-5.1,8.6-10.1,12.2-15.7c4.6-7.1,8.3-14.8,12.5-22.2c0.5-1,1.3-2.4,2.1-2.5
	c5.4-0.6,10.9-1.5,16.3-1c3,0.3,5.8,1,8.6,0.7l0,0.1c1.7-0.2,3.3-0.9,4.6-1.9c0.1-0.1,0.4,0.1,0.7,0.2c0,6.9,0,13.7,0,20.6
	c-0.1,1.3,0.2,2.5,0.9,3.6c4,5.3,7.8,10.9,12.4,15.6c5.4,5.6,10.7,11.3,15.7,17.2l0.1,0c9.5,11.1,18.3,22.7,26.7,34.8
	c3,4.5,7.6,7.7,12.8,9c4.6,1.1,9.2,2.4,13.8,4c2.8,1,4.7,0.4,6.4-1.8l0.1-0.1l0.1,0.1c3.5-4.4,7.1-8.8,10.5-13.3
	c1.2-1.6,2.2-2,4.1-1.4c5.6,1.9,11.3,5.1,17,5.1s11.6-3.2,17.3-5.1c1.9-0.6,2.9-0.2,4.1,1.4c3.3,4.5,6.9,8.8,10.4,13.2l0,0l0.2,0.3
	c1.7,2.2,3.7,2.8,6.4,1.8c4.1-1.4,8.2-2.7,12.4-3.6c5.5-1.3,9.6-4.3,13.1-8.2l-1.6-0.6c0,0,0,0,0,0l1.6,0.6c0.8-0.9,1.6-1.9,2.4-2.9
	c10.5-13.7,21.2-27.2,32.1-40.6c2.4-3,4.9-6,7.4-9l0,0c4.1-4.8,8.4-9.6,12.5-14.4c1.7-1.9,2.6-4.4,2.4-7c-0.2-6.5-0.1-12.9-0.1-19
	c1.7,0.3,3.3,0.9,4.8,1.3l0.4-1.7c0,0,0,0,0,0l-0.4,1.7c1.3,0.4,2.6,0.5,3.9,0.3c5.5-1.1,11.1-1.4,16.6-0.7c4.2,0.5,6.5,2,8.3,5.9
	l1.8-0.9c-4.7-9.4-9-19.1-12.8-28.9l0,0c-6.3-16.2-11.3-32.9-15-49.9c-0.2-1-0.4-1.9-0.6-2.9l0,0c-1.5-7.1-2.5-14.3-1.4-21.7
	c0.8-5.3,1.6-6.5,6.6-7.7c0.7,8,0.8,15.9,2.2,23.7c1.6,9.1,3.8,18,6.5,26.8c6.6,21.8,15.1,42.9,25.5,63.1
	c4.3,8.2,8.8,16.3,14.5,23.5l0,0c0,0,0,0,0,0L385.1,153.5z M3.6,106.2c-1.2,6-1.3,12.2-1.4,18.5C2.3,118.5,2.4,112.2,3.6,106.2z
	 M3.9,104.9C8.5,83.7,15.7,63.2,29.3,46C15.7,63.2,8.5,83.7,3.9,104.9z M66.7,31.1C67,27,67,22.8,66.4,18.6c-0.3-2.1-1-3.3-2.2-3.7
	c1.2,0.3,1.9,1.6,2.2,3.7C67,22.8,67,27,66.7,31.1z M222.1,76.4c0-1.7,1.3-3.4,2-5.1l1,0.3v125.3l-1,0.5c-0.6-1-1.7-2-1.8-3
	c-0.3-3.2-0.1-6.3-0.1-9.5C222.1,148.8,222.1,112.6,222.1,76.4z M223.3,66.7c-1.5,6-2.2,6.5-7.3,6.5c-8.8-0.1-17.7-0.1-26.6,0
	c-5.7,0-5.7,0.2-8.3-6.4h0.2v-1.8c0,0,0,0,0,0v1.8L223.3,66.7L223.3,66.7z M179.7,197V71.2c3.3,2.4,3,5.2,2.9,8.2
	c-0.1,37.9-0.1,75.8-0.1,113.8C182.6,194.9,183.1,197.1,179.7,197z M126.7,32c0.3-0.3,0.6-0.6,0.9-0.9l0,0c0.5-0.5,1.1-0.9,1.7-1.3
	c7.5-4.7,14.9-9.6,22.7-13.9c4.8-2.6,10.2-3.9,15.2-6.1c2-0.9,4-1.7,6-2.3c-2,0.7-4,1.5-5.9,2.3c-5,2.2-10.4,3.5-15.2,6.1
	c-7.8,4.3-15.2,9.2-22.7,13.9c-0.6,0.4-1.2,0.8-1.7,1.3C127.3,31.3,127,31.6,126.7,32c-8.9,10.2-17.8,20.5-25.4,31.7
	C108.8,52.5,117.7,42.2,126.7,32z M81.5,117.1c-0.6,2.5-2.7,4.5-5.2,5.1l0-0.1C78.8,121.5,80.9,119.5,81.5,117.1
	c1.6-9.7,3.2-19.4,4.5-29.1c0.1-0.5-0.4-1.2-1-1.8c0.6,0.6,1.1,1.3,1.1,1.9C84.7,97.7,83.1,107.4,81.5,117.1z M157.5,221.1
	c-0.1,0-0.2-0.1-0.3-0.1c-11.1-1-18.1-7.1-24.3-16.2c-6.3-9.3-13.7-17.8-21-26.4l0,0c-2.5-2.9-4.9-5.7-7.3-8.6
	c-6.3-7.6-12.7-15.1-18.9-22.6v0c-0.9-1.1-1.3-2.4-1.4-3.8c-0.1-19,0.4-38.1,4.8-56.7c0.4-1.5,0.9-2.9,1.5-4.3
	c-0.6,1.4-1.1,2.8-1.5,4.3c-4.3,18.7-4.9,37.7-4.8,56.7c0.1,1.4,0.6,2.7,1.4,3.8c6.2,7.6,12.6,15,18.9,22.5c2.4,2.9,4.8,5.8,7.3,8.6
	c7.3,8.6,14.7,17.2,21.1,26.4c6.3,9.1,13.2,15.3,24.3,16.2C157.3,221,157.4,221,157.5,221.1c0.8,0.3,1.5,0.3,2.1,0.3
	C158.9,221.5,158.2,221.4,157.5,221.1z M203.2,213.4c-0.6,0.1-1.1,0.1-1.7,0c-5.5-1.8-11.1-3.6-17-5.5c3.2-4.8,6.3-9.4,9.6-14.5
	h16.6c3.3,5,6.3,9.6,9.6,14.5C214.3,209.7,208.8,211.6,203.2,213.4z M189.1,195.7V81.3h0.8v114.3H189.1z M192.8,85.8
	c0-3.4,1-4.5,4.3-4.3c3.7,0.2,7.5,0.2,11.2,0c2.9-0.1,3.8,0.8,3.8,3.7c-0.1,19.6,0,39.2,0,58.8c0,10.2,0,20.3,0,30.4l0,4h-19.2v-3.9
	C192.8,145,192.8,115.4,192.8,85.8z M193.2,182.5c0-0.3,0-0.6,0-0.9h18.4v0.9H193.2z M201,185.5v5h-7.8v-5H201z M203.9,185.4h7.8
	v5.1h-7.8V185.4z M214.8,195.7V81.3h0.8v114.3H214.8z M235.6,223.7L235.6,223.7c-0.4-0.7-1-1.5-1.7-2.5c-4.7-6.8-9.4-13.4-13.9-20.2
	c-0.9-1.3-1.4-2.9-1.5-4.5c0-33.3,0-66.5,0-99.8c0-5.3-0.3-10.5-0.5-15.7c-0.1-2.6-1.6-4.1-4.2-4.2c-4,0-7.9-0.1-11.9-0.1
	c-3.6,0-7.3,0-10.9,0.1c-3.2,0-4.4,2-4.4,5.1c-0.1,12.2-0.4,24.5-0.4,36.8c0,25.7,0.1,51.4,0,77c-0.1,2-0.7,4-1.8,5.8
	c-4.4,6.8-9.1,13.3-13.6,20c-0.7,1-1.2,1.8-1.7,2.4l-0.1-0.1c-1.8,2.2-2.8,1.8-7.2-0.3c9-6.2,14.1-15.7,20.9-23.7
	c1.3-1.7,2-3.8,2-5.9c0.1-28.8,0.1-57.7,0.1-86.5c0-9.2,0-18.4,0.1-27.6c0-1.3,0.1-2.5,0.2-4.1h32.5c2.4,0,2,1.8,2,3.2
	c0,9.1,0.1,18.2,0.1,27.3c0,29.2-0.1,58.4,0,87.5c0.1,2.3,0.8,4.5,2.2,6.4c4.3,5.8,8.8,11.5,13.5,17c2.1,2.4,4.7,4.4,7.2,6.7
	C238.4,225.4,237.3,225.7,235.6,223.7z M247.1,221.1c-2,0.6-3.5,0.2-4.8-1.6c-4.4-6.3-9.1-12.5-13.4-18.8c-0.8-1.4-1.2-3-1.1-4.6
	c-0.1-20.8,0-41.6,0-62.3h-0.1V71.1c0-3.2-1.1-5.1-3.5-6l0,0c-0.9-0.3-1.8-0.5-2.8-0.6c-10.7-1-21.4-1.1-32.1-0.4
	c10.7-0.7,21.4-0.5,32.1,0.4c1,0.1,1.9,0.3,2.8,0.6c2.4,0.9,3.5,2.8,3.5,6v62.7h0.1c0,20.8,0,41.6,0,62.3c-0.1,1.6,0.3,3.2,1.1,4.6
	c4.4,6.4,9,12.5,13.4,18.8C243.6,221.3,245.1,221.7,247.1,221.1c3.3-1,6.6-1.9,9.9-2.5c1.1-0.2,2.1-0.5,3.1-0.9
	c-1,0.4-2.1,0.8-3.2,0.9C253.6,219.3,250.3,220.1,247.1,221.1z M318.6,87.9c0-0.6,0.3-1.1,0.6-1.5c-0.3,0.5-0.6,1-0.6,1.6
	c1.4,9.3,2.8,18.6,4.4,27.9c0.2,0.9,0.4,1.6,0.7,2.3c-0.3-0.7-0.6-1.5-0.7-2.4C321.4,106.5,320,97.2,318.6,87.9z M324.2,119.1
	c-0.1-0.2-0.3-0.5-0.4-0.8C323.9,118.7,324.1,118.9,324.2,119.1z M351.9,121.2c-0.9-2.3-1.7-4.5-2.6-6.8
	C350.2,116.6,351.1,118.9,351.9,121.2C351.9,121.2,351.9,121.2,351.9,121.2z M346.4,106.7c-0.9-2.2-1.7-4.5-2.6-6.7l0,0
	C344.7,102.2,345.5,104.5,346.4,106.7z M341.3,93.7L335,77.2c0,0,0,0,0,0L341.3,93.7z M405,119.6c-0.5,12.2-1.3,24.5-1.7,36.7
	c-0.3,9.5-12.4,15-19.6,11.7c-1.1-0.6-2.1-1.5-2.9-2.4c-10.8-10.4-17.8-23.3-24.2-36.6l1.8-0.9c2.1,4.3,4.4,8.6,6.7,12.8
	c4.4,8,10.4,15.2,16,22.4c0.3,0.4,0.7,0.8,1,1.2c3.1,2.9,7.3,2.9,11.6,0.4c-3.6-3.3-6.9-6.8-9.9-10.7l1.4-0.8c0,0,0,0,0,0l0,0
	c1.9,2.4,4,4.7,6.3,6.8c1.9,1.6,4.3,2.5,6.8,2.5c0.9,0,2.3-3.6,2.4-5.6c0.7-7.2,0.9-14.4,1.4-24.1c0-3.9,0.4-8.8,0.4-13.9
	c0-3.1-0.2-6.3-0.7-9.5c-1.5-9.5-4.5-18.8-7.8-27.9c-4.4-12.4-9.2-24.9-17.9-35c-1.3-1.5-2.6-2.9-3.9-4.4c-2.1-2.3-4.4-4.6-6.6-6.9
	l1.1-1.1c0,0,0,0,0,0l0,0c3.9,4,7.8,8,11.5,12.2c9,10.1,13.7,22.7,18.2,35.2c3.3,9.3,5.6,19,8.1,28.5
	C405.1,113.3,405.2,116.5,405,119.6z"/>
</svg>
