<svg xmlns="http://www.w3.org/2000/svg" viewBox="0 0 285.85 459.79"><defs><style>.st0{fill:#fff;}</style></defs><title>Hp2</title><path class="st0" d="M275.6,53.74c-1.66-1.73-3.33-3.43-5-5.13-4.89-5-9.94-10.11-14.43-15.43-6.31-7.47-13.06-12-21.23-14.27-23.47-6.43-42.54-11.7-60-16.58A60.94,60.94,0,0,0,158.64,0a52,52,0,0,0-21.9,4.86A56.67,56.67,0,0,1,126,8.06a94,94,0,0,0-9.45,2.52c-8,2.76-16.9,6.54-21,16.49C88.67,44,82,61,75.17,78.34c-5.28,13.45,2.09,32.05,15.15,38.28A20.72,20.72,0,0,0,94.51,118l-4.24,15.87-.06.22C77.11,183.22,63.56,234,50,283.81a6.39,6.39,0,0,1-2.1,1.24,40.25,40.25,0,0,1-4.6,1c-5.51,1-13.06,2.45-17.53,11-4.21,8.11-8.7,16.22-13,24.07C9,328,5.08,335,1.38,342-.75,346-.55,353,2.91,356.38c3.2,3.08,3.66,5.76,1.77,10.26a25.79,25.79,0,0,0-1.49,5.61,15.2,15.2,0,0,1-.73,3.05C-3.63,389,3.35,398.9,11,406.77q2.12,2.18,4.25,4.32l.09.1C20.12,416,25.07,421,29.4,426.26c6.47,7.8,13.82,12.72,22.47,15,6.25,1.66,12.67,3.41,18.34,4.95,16.16,4.38,32.86,8.91,49.49,12.83a29.48,29.48,0,0,0,6.7.72,66.9,66.9,0,0,0,14.4-2c5.88-1.32,11.61-3.14,17.15-4.91,2.89-.92,6.18-2,9.33-2.87,10.16-2.92,22.2-8.26,25.06-23.79a39.22,39.22,0,0,1,3-10.38,11.3,11.3,0,0,1,4.2-4.79c5-2.49,10.73-6.55,10.77-16,0-1.5,0-3,0-4.5v-1.08c0-11.62,0-23.64.93-35.29,1-12.92-3.27-21.92-13-27.53-1.82-1-2.5-1.43-1.26-6,10.77-39.58,21.5-79.62,31.87-118.34l1.06-3.93q5.25-19.62,10.52-39.23c.15-.56.31-1.11.48-1.67a19.85,19.85,0,0,0,6.57,1.19c4.31,0,8.43-1.57,14.21-5.39.57-.38,1.24-.76,1.94-1.16a22.81,22.81,0,0,0,6.2-4.64l.13-.14c2.82-3.23,6.34-7.27,7.21-12.33,1.32-7.68,2.4-15.45,3.44-23,1.34-9.62,2.72-19.57,4.59-29.2C288,68.63,281.06,59.42,275.6,53.74Zm-48.67,94.73c-7.25,24.45-13.62,49.16-19.79,73.09-10.2,39.55-20.73,80.4-35.25,120.09l-22.42-6-1.32-.35-85.95-23C69.28,270.93,80.79,229.8,91.92,190c6-21.32,12.13-43.35,17.56-65.22.55-2.24,1.2-4.48,2-7.17Zm-39,196.27c.29-1.19.58-2.39.87-3.62,2.11,1.27,4.13,2.52,6,3.81,0,.29,0,.64,0,1.08s0,.81,0,1.21A38.24,38.24,0,0,0,187.9,344.74ZM47.7,304c-.14.48-.28,1-.41,1.44l-.23.8-.29,1a43.78,43.78,0,0,0-6.07-.54,15.84,15.84,0,0,0-2.24.14c.48-.87,1-1.73,1.46-2.6l.07-.08c1.8-.11,3.79-.15,6.32-.15ZM106,196.63l3.86,1,26.49,7.11,7.11-26.49,1-3.86,3.86,1L169.11,181l3.87,1-1,3.87-7.11,26.49,26.49,7.11,3.86,1-1,3.86-5.56,20.77-1,3.86-3.86-1L157.2,240.9l-7.11,26.48-1,3.86-3.87-1-20.76-5.56-3.87-1,1-3.87,7.11-26.48-26.49-7.11-3.86-1,1-3.86L105,200.5Z"/></svg>