<?xml version="1.0" encoding="utf-8"?>
<!-- Generator: Adobe Illustrator 24.2.3, SVG Export Plug-In . SVG Version: 6.00 Build 0)  -->
<svg version="1.1" id="Layer_1" xmlns="http://www.w3.org/2000/svg" xmlns:xlink="http://www.w3.org/1999/xlink" x="0px" y="0px"
	 viewBox="0 0 441.8 210.6" style="enable-background:new 0 0 441.8 210.6;" xml:space="preserve">
<style type="text/css">
	.st0{fill:#FFFFFF;}
</style>
<path class="st0" d="M189.9,142.6l0.5,0.5l-1.4,1.8l-0.6-0.4c-0.9-0.6-1.8-1.3-2.8-1.9c-1.4-0.9-2.8-1.9-4.2-2.9
	c-0.8-0.6-1.5-1.1-2.3-1.7c-2.9-2.3-5.8-4.7-8.6-7.1l-3.3-2.8c-2.8-2.2-4-5.7-3.3-9.2l0.5-2.3l0.9,2.1c0.2,0.4,0.4,0.8,0.5,1.2
	c0.5,0.9,0.8,1.9,1.2,2.9c0.4,1.3,1.2,2.5,2.3,3.3c2.4,1.9,4.9,3.8,7.3,5.7c2.4,1.9,4.8,3.7,7.2,5.6l3.5,2.8c0.6,0.5,1.1,1,1.7,1.5
	L189.9,142.6z M277.1,118.5l-0.7-0.2l-0.3,0.7c-0.2,0.4-0.3,0.8-0.5,1.2c-0.4,0.9-0.8,1.9-1.1,2.8c-0.4,1.4-1.2,2.5-2.3,3.4
	l-4.9,3.8c-3.9,3-7.7,6-11.5,9l-1.5,1.2c-0.6,0.5-1.2,1.1-1.8,1.6c-0.2,0.2-0.5,0.5-0.7,0.7l-0.5,0.5l0.4,0.5
	c0.1,0.2,0.3,0.3,0.4,0.5l0.4,0.4l0.5-0.3l0.5-0.2c0.4-0.2,0.8-0.4,1.2-0.6l6.2-4.8c4.9-3.8,9.7-7.5,14.4-11.3
	c2.1-1.7,2.5-4.1,2.9-6.3c0.1-0.5,0.2-1,0.3-1.5l0.2-0.7l-0.8-0.2C277.5,118.6,277.3,118.6,277.1,118.5z M439.7,144.7l-2.1,1.3
	c-2.6,1.6-5.3,3.3-8,4.8l-2.6,1.4c-6.2,3.4-12.5,6.9-18.9,10.1c-2.6,1.2-5.2,2-8,2.5l-1.2,0.3c-0.8,0.2-1.9-0.1-3.3-1
	c-2.7-1.7-5.4-3.6-8.3-5.6c-0.7-0.6-1.7-0.8-2.5-0.3c-0.9,0.5-1.9,1-2.9,1.5s-2,1-3,1.6c-3,1.6-6.3,2.5-9.7,2.5h-0.1
	c-2,0-6-3.9-6.2-6c0-0.4-0.1-0.8-0.1-1.2c-0.2-1.8-0.5-3.8,1.5-5.6c0.2-0.1,0.3-0.4,0.3-0.7c-0.2-0.7-0.6-1.2-1.2-1.6
	c-2.1-1.3-3-3.3-3.9-5.2l-1.2-2.6c-1.5-3.1-3-6.3-4.4-9.6c-0.3-0.8-0.4-1.6-0.5-2.5c0-0.4-0.1-0.7-0.1-1.1c-0.1-0.2-0.1-0.4-0.1-0.6
	c0-0.5-0.1-1-0.3-1.4c-0.8-1.8-1.7-3.7-2.5-5.5c-1-2-1.9-4.1-2.8-6.1c-0.5-1.1-1-1.4-2.1-1.1c-2.1,0.5-4,0.9-5.8,1.3
	c-1,0.2-1.2,0.4-1.1,1.5c0.1,1.9,0.2,3.9,0.2,5.8c0,1.1,0.1,2.3,0.1,3.4c0.4,5.2-1.2,10.3-4.5,14.4c-1.1,1.3-2,2.7-2.9,4.1
	c-1.5,2.6-3.6,5.3-7.7,5.6c-0.2,0-0.7,0.2-1.5,1.1c-3.8,4.1-8,8.5-12.6,13.5c-0.8,0.8-1.5,1.8-2.1,2.7l-1.4,2.3
	c-4.5,7.3-9.2,14.9-13.7,22.4c-1,1.7-2.4,3.5-5.1,3.6c-1.9,0.1-3.7,1.3-4.6,3c-0.4,0.6-0.9,1.3-1.4,1.9c-0.5,0.6-1,1.3-1.5,2
	c-2.5,4.1-6.5,5.4-9.8,6.1c-1.3,0.3-2.7,0.5-4.1,0.8c-2.4,0.5-4.8,0.9-7.2,1.6c-0.7,0.2-1.4,0.3-2,0.3c-2,0-3.9-1.1-5-2.8
	c-1.1-1.5-2.2-3-3.2-4.5l-0.8-1.2l-1.5-2.1c-1.5-2.1-3-4.3-4.5-6.6c-0.7-1.1-1.3-1.3-2.5-0.8c-2.2,0.8-4.4,1.5-6.6,2.2
	c-2.7,0.9-5.5,1.8-8.3,2.8c-2.4,0.9-5.1,0.9-7.4,0c-2.7-0.9-5.4-1.8-8-2.6c-2.2-0.7-4.4-1.4-6.6-2.2c-1.4-0.5-2-0.3-2.7,0.9
	c-2.9,4.4-5.9,8.6-8.9,12.9c-0.8,1.2-1.8,2.3-2.9,3.2c-1,0.7-2.2,1.1-3.4,0.9c-6-1.3-11.5-2.5-17-4c-1.8-0.7-3.4-1.8-4.6-3.3
	c-1.6-1.8-3-3.7-4.4-5.7l-0.3-0.5c-0.6-1.1-1.8-1.8-3-1.9c-3.5-0.3-5.2-2.5-6.5-4.6c-2.3-4.1-4.8-8.2-7.2-12.1c-1.5-2.5-3-5-4.5-7.5
	c-2.7-4.4-6-8.4-9.6-12.1l-0.8-0.8c-2.2-2.3-4.5-4.7-6.6-7.1c-0.8-1.2-2.1-1.9-3.6-2.1c-2.1-0.2-4-1.5-5-3.4c-1.6-2.5-3-4.5-4.3-6.3
	c-3-4-4.5-8.9-4.2-13.9c0.1-1,0.1-2,0.1-3c0-2.1,0.1-4.3,0.2-6.5c0-1-0.1-1.1-0.7-1.3c-1.6-0.3-3.1-0.7-4.6-1l-2-0.4
	c0,0-0.1,0-0.1,0c-0.7-0.2-1.3,0.2-1.5,0.9c-1.2,2.6-2.4,5.2-3.6,7.8c-0.7,1.5-1.4,3-2.1,4.5l-0.1,0.2c-0.1,0.2-0.2,0.4-0.2,0.5
	c0.8,2.1-0.1,3.9-0.9,5.5c-0.2,0.4-0.4,0.7-0.5,1.1c-1,2.2-2.1,4.5-3.1,6.7c-0.5,1.2-1.1,2.4-1.6,3.6c-0.7,2-2,3.7-3.7,5
	c-0.5,0.3-0.9,0.7-1,1.3c0,0.8,0.3,1.5,0.9,2.1c1.3,1.7,1,3.5,0.7,5c-0.1,0.3-0.2,0.7-0.2,1c-0.4,3.2-5.2,6-8.2,5.6
	c-3.3-0.4-6.4-1.5-9.1-3.3c-5-3.2-5-3.2-10.1,0.2c-0.2,0.1-0.5,0.3-0.7,0.4c-0.5,0.3-0.9,0.6-1.3,0.9c-4.9,5.2-10.7,3.1-14.5,1.1
	c-7.9-4-15.7-8.4-23.3-12.6c-2.7-1.5-5.5-3.1-8.3-4.6c-0.9-0.5-1.8-1.1-2.5-1.9c-0.7-0.9-1-2-0.8-3.1c1.3-4.4,2.6-7.8,3.8-11
	c0.7-1.2,1.8-2.1,3.2-2.5c1.8-0.4,3.6-0.8,5.4-1l2-0.3c1,0,2-0.7,2.4-1.6c2.3-5.1,4.7-10.1,7-15.1l3.2-6.8c0.1-0.2,0.1-0.3,0.2-0.5
	l-4.5-2.1c-2.8-1.3-3.4-2.1-2.1-5.1l0.1-0.3c3-7,6-14.1,9.3-21.1c3.3-7,6.8-14.1,10.1-20.9c1.3-2.6,2.5-5.2,3.8-7.7
	c0.3-0.5,0.6-1.1,0.9-1.6L45,43c1.3-2.3,3.1-2,4.4-1.3c0.8,0.4,1.6,0.8,2.4,1.1c0.6,0.3,1.2,0.5,1.8,0.8c0.3,0.2,0.6,0.2,0.8,0.2
	c0.2-0.1,0.3-0.3,0.4-0.5c0.3-0.6,0.6-1.3,0.9-1.9c0.6-1.2,1.2-2.4,1.6-3.6c0.2-0.8,0.2-1.5-0.1-2.3c-0.8-3.4-1.7-6.8-2.7-10.1
	c-0.5-1.5-0.3-3.1,0.5-4.5c1.5-2.6,3-5.3,4.5-7.8c0.9-1.6,1.8-3.3,2.7-4.9c1.4-2.4,2.6-3.4,5.7-2.6l3.3,0.9C77,8,83.2,9.7,89,12
	c7.4,2.8,14.8,6.2,22,9.4l3.4,1.4c4.2,1.9,5.1,4.3,3.2,8.6c-0.4,0.9-0.8,1.9-1.3,2.9l-0.7,1.5l0.5,0.2c0.6,0.3,1.2,0.5,1.8,0.6
	c2.8-0.1,4.7,1.3,6.5,2.7l0.2,0.1c0.8,0.6,1.4,1.2,2.1,1.8l1,0.9c2.6,2.5,2.8,6.5,0.6,9.3c-0.3,0.4-0.6,0.7-1,1.1
	c1.2,0.2,2.4-0.2,3.1-1.2c2.7-3.1,5.4-6.2,8.2-9.3c2.9-3.3,6-6.8,8.9-10.2c2.5-2.9,5.4-5.5,8.7-7.5l0.3-0.2c3.7-2.2,7.5-4.5,11.1-7
	c4.8-3.5,10.1-6.2,15.7-8c2.1-0.5,3.8-1.8,5-3.6c1.5-2.5,4.2-4.1,7.1-4c3.2-0.2,6.5-0.5,9.7-0.8C209.4,0.5,213.7,0,218,0
	c5.1-0.1,10.4,0.3,15.4,0.7c2,0.1,4,0.3,6,0.4c1.3,0.1,2.6,0.2,3.9,0.3c1.6,0.2,3.2,0.3,4.8,0.4c1.8-0.1,3.6,0.8,4.5,2.4
	c1.7,2.9,4.4,4.8,8.3,5.9c5.1,1.4,9.4,4.3,13.5,7.1c1.4,1,2.9,2,4.3,2.9c12.9,8,13.1,8.2,22.7,19.6l0.5,0.6c1.5,1.8,3,3.5,4.6,5.3
	c1.6,1.8,3.2,3.7,4.8,5.5c0.8,1.1,2.1,1.8,3.5,1.7c-1.7-1.6-2.6-4-2.5-6.3c0-1.2,0.4-2.3,1.2-3.2c1.4-1.4,2.9-2.6,4.4-3.8l0.7-0.6
	c1.5-1.4,3.4-2.1,5.5-2c0.4,0,0.9-0.1,1.3-0.3l0.4-0.1c0.2-0.1,0.5-0.2,0.6-0.4c0-0.3,0-0.5-0.1-0.8c-0.7-1.5-1.4-3-1.9-4.3
	c-1.4-3.4-0.6-6.1,2.6-7.6c12-5.9,27.9-13.2,45.3-17.5c4.8-1.2,5.8-0.8,8.3,3.6c0.7,1.2,1.3,2.3,1.9,3.5c1.4,2.5,2.9,5.2,4.4,7.7
	c1,1.5,1.2,3.3,0.6,5c-0.5,1.5-0.8,2.9-1.3,4.5s-0.9,3.3-1.4,4.9c-0.5,1.4-0.4,3,0.4,4.3c0.6,1.1,1.2,2.3,1.7,3.5l0.6,1.3h0.1
	c1.6-0.7,3-1.3,4.4-2c3-1.3,3.8-1.1,5.4,1.8l0.5,0.8c0.9,1.7,1.8,3.4,2.7,5.1c7.1,15.3,13.5,29.1,20,43.1c2.3,5,2.1,5.5-3,7.9
	c-0.8,0.4-1.5,0.7-2.3,1.1l-0.5,0.2l0.3,0.6c0.6,1.4,1.2,2.7,1.8,4l2.6,5.5c1.8,3.8,3.7,7.8,5.4,11.7c0.5,1.3,1.6,2.2,3,2.3
	c1,0.1,2,0.3,3,0.5c1.2,0.2,2.4,0.4,3.5,0.5c2,0.2,3.3,1.3,4,3.5c0.9,2.9,2,6.1,3.2,9.1c0,0,0,0.1,0,0.1
	C442.3,141.7,441.5,143.9,439.7,144.7z M41.1,85.8c6.1-8.4,9.6-16.6,10.6-25.1c0.4-3,0.8-6,1.3-9.2c0.2-1.3,0.4-2.5,0.5-3.8
	l-0.1-0.2c-0.2-0.4-0.5-0.7-0.8-1c-0.7-0.4-1.3-0.8-2.1-1.1l-0.8-0.3c-0.6-0.4-1.3-0.6-2.1-0.8h-0.1c-0.3,0.1-0.7,1.1-1.1,1.9
	L42.3,55c-5.8,12.2-11.8,24.8-17.4,37.3c-0.4,0.8-0.7,1.5-1,2.1h0c-0.5,0.7-0.8,1.5-0.9,2.4c0.1,0.4,1.3,0.9,2.9,1.6l1.9,0.8
	c0,0,0,0,0,0c0.6,0.4,1.4,0.2,1.8-0.4c1.3-1.4,2.6-2.8,3.9-4.1C36.2,91.9,38.8,88.9,41.1,85.8z M60.8,144.3c0.1-0.3,0.3-0.7,0.4-1
	c0.3-0.4,0.4-0.9,0.5-1.4c0-2.2,0.6-4.3,1.7-6.2c0.1-0.4,0.3-0.7,0.4-1l0.6-1.4c1.2-2.7,2.5-5.5,3.9-8.2c0.7-1.3,1.5-2.5,2.3-3.7
	c1-1.4,1.8-2.8,2.6-4.3c5.9-12.3,11.7-24.9,17.3-37l3.7-8c0.2-0.5,0.3-1,0.4-1.5c0-0.2,0.1-0.4,0.1-0.6c0.1-0.4,0.2-0.8,0.2-1.2
	c0.1-0.9,0.3-1.8,0.7-2.6c1.1-2.1,2.1-4.3,3.1-6.3c1.7-4.1,3.9-8.1,6.4-11.8c2.5-3.7,4.7-7.6,6.5-11.8c0.8-1.8,1.7-3.5,2.6-5.3
	c0.2-0.4,0.4-0.9,0.5-1.3c0-0.1,0.1-0.1,0.1-0.2l-4-2.2l-0.2,0.3c-0.4,0.8-0.8,1.6-1.2,2.4c-3.6,7.7-7.2,15.4-10.8,23.2
	c-6.7,14.3-13.4,28.7-20.1,43c-3.2,6.8-6.4,13.5-9.5,20.3c-4.7,9.9-9.5,20.2-14.2,30.3c-1,2.3-2.8,4.3-5.1,5.5c-3,1.7-5.9,3.4-9,5.3
	l-2.9,1.7l0.7,0.4c1.3,0.7,2.5,1.2,3.7,1.9c0.9,0.6,2.2,0.5,3-0.2c3.2-2.2,6.9-4.8,10.7-7.1c1.5-0.8,2.5-2.3,2.8-3.9
	c0.4-1.5,0.9-3,1.5-4.4C60.4,145.4,60.6,144.9,60.8,144.3z M75.1,158.9c1.3-1.9,1.2-4.4-0.2-6.1c-0.5-0.7-0.8-1.5-0.7-2.4
	c0.1-0.6,0.3-1.3,0.6-1.8l-2.2-1.8l-8.1-2.9c-2.1,3.8-3.3,8-3.5,12.3v0.5c0.7,0.4,1.4,0.8,2.1,1.2c2.4,1.7,5.2,2.3,8.1,2.8
	C73,161.1,74,160.3,75.1,158.9L75.1,158.9z M107,79.7c0.2-0.3,0.3-0.7,0.4-1c0.6-1.6,1.3-3.4,3.6-4c0-0.1,0.2-0.5,0.3-0.7l0.8-1.8
	c1.9-4,3.8-8.2,5.7-12.3c0.7-1.3,0.3-2.9-0.9-3.7c-0.3-0.2-0.5-0.5-0.7-0.7c-0.1-0.1-0.2-0.2-0.3-0.3l0.8-1.2
	c0.7,0.4,1.5,0.5,2.3,0.3c0.6-0.4,1-0.9,1.1-1.6l0.1-0.5h0.5c0.5,0,1,0,1.5,0c0.6,0.1,1.2,0,1.8-0.2c1.4-0.9,2.3-2.3,2.5-4
	c0.1-1.7-0.7-3.4-2-4.4c-0.2-0.2-0.5-0.4-0.7-0.6c-0.4-0.3-0.9-0.7-1.3-1.1c-1.6-1.5-3.6-1.6-5.7-1.7c-0.7,0-1.4,0-2.1-0.1
	c-0.3,0-0.5,0.2-0.7,0.4c-2.2,2.7-4.4,5.6-5.5,9.3l6.5,3.1l-0.4,0.7c-0.1,0.1-0.2,0.3-0.2,0.4l-0.3,0.7l-0.7-0.3l-0.8-0.3
	c-0.5-0.2-1.1-0.5-1.5-0.7c-0.4-0.2-1-0.3-1.4-0.5l-1-0.3c-2.3-0.8-2.9-0.6-3.9,1.6c-2.1,4.4-4.3,9-6.3,13.5
	c-0.2,0.6-0.4,1.2-0.5,1.8c0,0.2-0.1,0.4-0.1,0.7s-0.2,0.7-0.2,1.1c0,0.8-0.2,1.5-0.5,2.2c-7,15.1-13.9,30-20.6,44.2
	c-0.2,0.4-0.4,0.9-0.6,1.3c-0.6,1.7-1.4,3.6-3.6,4.6c-0.1,0.2-0.2,0.4-0.3,0.6l-0.2,0.3l-1.3,2.8c-1.8,3.8-3.6,7.7-5.4,11.6
	c-0.8,1.9-0.6,2.4,1.2,3.4c1.6,0.9,3.3,1.7,4.9,2.5l1.3,0.6l0.3,0.1h0.2c0.3,0,0.7,0.1,1,0.1c3.1,0.9,3.4,0.8,4.8-2.2
	c1.6-3.5,3.3-7,4.9-10.5l0.3-0.6c0.8-1.6,1.5-3,0.9-4.6c-0.1-0.7,0-1.5,0.4-2.1c0.1-0.1,0.2-0.2,0.2-0.3l0.1-0.2
	C93,109.8,100,94.8,107,79.7z M104.3,92.6l-8.2,17.4l7,1.5L104.3,92.6z M126.5,56.1c-0.3-0.2-0.7-0.2-1-0.2c-0.9,0-1.7,0.1-2.5,0.2
	h-0.2h-0.2c-1.3,0.3-1.5,0.5-1.3,1.5c0.1,1.2,0,2.3-0.5,3.4c-1.8,4.1-3.9,8.6-6.6,14.2c-0.4,0.9-1,1.7-1.8,2.3
	c-2,1.3-3.1,3.3-3.6,6.4c-0.8,5.1-1.3,10.3-1.7,15.5c-0.6,9.6-1,18.9-1.2,27.9c-0.1,3.1,0.7,6.2,2.4,8.8c0.7,1,1.4,2,2.1,3
	c1,1.4,2.1,2.9,3,4.4c1.2,2,2.9,2.6,5.4,2.6c0-0.6,0-1.2,0-1.8c0-1.9,0-3.8,0-5.6c0.2-3.4,0.5-6.6,2.8-9.4c0.4-0.6,0.6-1.2,0.7-1.9
	c0.3-3,0.5-5.5,0.6-7.9c0.1-3.1,0.2-6.2,0.3-9.4c0.2-5.8,0.4-11.7,0.7-17.5c0.6-10.5,1.5-20.7,2.6-32.9
	C126.7,57.9,126.8,56.4,126.5,56.1z M251.3,92.7l7-1v0c6.5-1,13.3-1.9,19.8-3l-18.2,2.1c-2.2,0.2-4.4,0.5-6.6,0.8
	C252.3,91.8,251.6,92,251.3,92.7z M266,97.1c-0.5-0.3-1-0.5-1.6-0.5c-1.5,0.3-3,0.8-4.5,1.3l-0.9,0.3c2.6,7.9,5.1,15.5,7.7,23.3
	l0.6,1.8c1.6-4,4-12.5,4.2-16.2v-0.4C271.7,100.3,271.7,100.3,266,97.1z M192.6,90.5c0.2,0.5,0.6,1,1,1.4l0.1-0.2
	c0.5-0.6,0.9-1.1,1.3-1.6l1.7-2.4c2.1-2.8,4.1-5.6,6.1-8.5c1.2-1.9,3.3-3,5.5-2.8c8.9,0.1,17,0.1,24.9,0h0.1c2.3-0.1,4.4,1,5.6,2.9
	c2,2.8,4,5.6,6,8.4l1.9,2.7c0.3,0.5,0.7,0.9,1.1,1.3c0,0,0.1,0.1,0.1,0.1c0.4-0.4,0.8-0.8,1.1-1.3c0.1-0.3-0.4-0.9-0.9-1.7
	c-0.9-1.2-1.7-2.4-2.6-3.6c-1.9-2.7-3.9-5.5-5.9-8.3c-0.6-1-1.7-1.5-2.8-1.4h-3.7c-11.2,0.1-20.2,0.1-28.5,0
	c-1.3-0.1-2.5,0.6-3.1,1.7c-1.9,2.8-3.8,5.5-5.7,8.2l-2.4,3.4C193,89.6,192.6,90.2,192.6,90.5z M245.6,93.4
	c-1.3-1.8-2.6-3.6-3.9-5.5c-1.6-2.2-3.2-4.4-4.8-6.6c-0.7-1.2-2-1.9-3.4-1.7c-7.3,0.1-16,0.2-24.9,0c-1.7-0.1-3.3,0.7-4.2,2.2
	c-2.1,3.1-4.4,6.3-6.6,9.3l-1.9,2.6c-0.4,0.7-1,1.2-1.6,1.7c1,0.1,1.9,0.1,2.7,0.1c1,0.1,2.1-0.4,2.6-1.3c1.5-2,3-4.1,4.5-6.1
	c1.2-1.6,2.4-3.2,3.6-4.9c1-1.8,2.9-2.9,5-2.8c4.8,0.1,10.1,0.1,16.6,0h0.1c1.8,0,3.6,0.9,4.5,2.5c1.3,1.8,2.6,3.5,3.8,5.3
	c1.4,1.9,2.9,3.9,4.3,5.9c0.6,1.1,1.8,1.6,3,1.4c0.8-0.1,1.7-0.2,2.5-0.2C246.7,94.8,246.1,94.2,245.6,93.4z M191.1,102.3
	c-0.8,0.3-1.7,0.7-2.6,0.9c-0.8,0.2-1.7,0.5-2.5,0.9c-0.6,0.3-1.1,0.8-1.4,1.4c-2.1,6.6-4.2,13.5-6.5,21.3c-0.1,0.5,0.1,1,0.3,1.3
	l1.3,1c5.3,4.2,10.8,8.4,16.4,12.4c6.4,4.6,13.9,7.3,21.2,9.9l2.3,0.9c0.6,0.2,1.3,0.3,2,0.1c13.9-4,27.1-11.7,41.5-24.2
	c0.2-0.2,0.4-0.5,0.6-0.7v-0.1c-0.2-0.6-0.3-1.1-0.5-1.6c-0.5-1.6-1-3.1-1.5-4.7c-1.3-3.6-2.3-7.3-3.2-11c-1-4.8-3.2-7-7.3-7.5
	c-0.4,0-0.8-0.2-1.1-0.4c-0.2-0.2-0.4-0.3-0.6-0.5c-0.7-0.4-1.3-1.1-1.7-1.8c-0.4-0.9-0.9-1.2-2-1c-2.4,0.4-4.7-0.7-5.9-2.8
	c-1.4-2-2.9-3.9-4.3-5.8c-1.3-1.7-2.6-3.5-3.9-5.3c-0.6-1-1.7-1.5-2.8-1.4c-6,0.1-11.3,0.1-16.2,0c-1.2-0.1-2.4,0.5-3,1.6
	c-1.4,2-2.9,3.9-4.3,5.8c-1.4,1.8-2.7,3.7-4.1,5.6c-1.1,1.8-3.2,2.8-5.3,2.5c-0.3,0-0.5-0.1-0.8-0.1c-0.9,0-1.3,0.3-1.6,1.3
	C193.4,101.2,191.8,102,191.1,102.3z M182.7,98.2c-2.4-1.1-3.7-1.7-4.9-1.7c-1.5,0-2.7,0.8-5.3,2.6l-0.3,0.3c-0.3,0.2-0.6,0.5-1,0.7
	c-1,0.5-1.3,1.2-1.3,2.9c0.3,6.1,1.7,12.3,4.4,20.2c0,0.1,0.1,0.2,0.1,0.3L182.7,98.2z M164.3,88.9c6,1.2,12.2,2,18.2,2.7
	c2.6,0.3,5.2,0.6,7.9,1c-0.7-0.7-1.6-1-2.5-1L164.3,88.9z M203.8,183.4c-1.9-0.3-3.1,0.4-4.4,2.5c-1.9,3.3-4,6.5-6,9.5
	c-0.8,1.3-1.7,2.6-2.5,3.9l-0.6,0.9c-1.7,2.6-3.4,5.2-6,7.1c1.7,0.5,2.1,0.2,3.3-1.2c0.3-0.4,0.6-0.7,0.8-1.1l3.2-4.6
	c3.4-4.9,6.9-10,10.4-15C202.6,184.7,203.2,184,203.8,183.4z M239.1,189.6l-0.1-0.2c-0.5-0.6-0.9-1.2-1.2-1.8
	c-0.8-1.7-2.1-2.3-4.5-2.2c-5.9,0.3-11.7,0.4-17.2,0.4c-1.8,0-3.6-0.1-5.3-0.2c-1.2-0.1-2.4-0.1-3.7-0.2c-1.3,0-1.6,0.2-1.6,0.2
	c-0.9,1-1.7,2.1-2.4,3.2l-0.5,0.7c0.1,0.1,0.1,0.1,0.2,0.1l3.4,1.1c4.5,1.5,9.1,3,13.6,4.4c0.8,0.2,1.7,0.1,2.5-0.2
	c2.5-0.7,5-1.6,7.4-2.4l3.1-1l4.5-1.5L239.1,189.6z M287.8,88.3l-0.2,0.1c-0.9,0.4-1.6,0.8-2.4,1.1c-1.6,0.6-2.3,1.5-2.1,3.1
	c0,0.7-0.1,1.4-0.4,2.1c-0.1,0.3-0.2,0.5-0.2,0.8l-0.1,0.7l-0.7-0.1l-0.7-0.1h-0.6l-0.3-2.6c-0.1-0.6-0.1-1.1-0.2-1.7
	c-2.1,0-3.3,0.4-4.3,2c-0.6,1.1-0.9,1.6-0.6,2.4c0.3,1.1,0.4,2.2,0.2,3.3c-0.3,7.7-1.7,15.3-4.2,22.6c-1,2.9-2.2,5.2-4.6,7
	c-2.8,2.1-5.6,4.3-8.3,6.4c-3.2,2.6-6.6,5.2-10,7.7c-7.9,5.8-17.3,9.1-25.7,12c-1,0.4-2,0.4-3,0.1c-1.5-0.6-3.1-1.3-4.6-1.9
	c-4.9-2-10-4-14.8-6.4c-5.8-2.9-10.9-7-15.9-10.9c-1.9-1.5-3.9-3.1-5.9-4.6l-0.8-0.6c-4.6-3.6-7.1-7.6-7.9-12.6
	c-0.1-0.6-0.3-1.1-0.5-1.6c-0.3-0.7-0.5-1.4-0.6-2.1c-0.2-1.3-0.3-2.6-0.5-3.9c-0.6-4.5-1.2-9.1-1.4-13.7c-0.2-4-0.8-5.2-4.8-5.3
	c-0.2,1.2-0.3,2.4-0.5,3.7l-0.1,0.7l-2-0.1l-0.1-0.6c-0.1-0.6-0.2-1.2-0.3-1.8c0-1.1-0.3-2.2-0.8-3.1c-0.9-0.8-2-1.4-3.1-1.8l-1-0.5
	v0.3c0,0.8,0,1.6,0.1,2.4c1.4,11.1,2.9,22.6,7.5,33.2c0.5,1.2,1.3,2.3,2.3,3.1c4.9,4,10.3,8.2,17.2,13c3.8,2.7,7.8,5.4,11.6,8.1
	l4.4,3c0.5,0.4,1.1,0.7,1.6,0.9l7,2.9c4.6,1.9,9.3,3.8,13.9,5.7c1,0.4,2.1,0.4,3.1-0.1c2.4-1.1,4.9-2.1,7.4-3.1
	c1.9-0.8,3.8-1.5,5.6-2.3c0.9-0.4,1.8-0.7,2.7-1.1c2.3-0.8,4.4-1.8,6.5-3c3.4-2.3,7-4.7,10.5-7.1c2.4-1.6,4.5-3.1,6.5-4.6
	c6.2-4.5,11.6-8.5,16.4-12.5v0c0.6-0.5,1.1-1.1,1.4-1.8l0.8-2.5c1.4-4.1,2.9-8.3,4-12.6c1-4.1,1.7-8.2,2.3-12.3l0.2-1.5
	c0.3-2,0.5-4.1,0.7-6.4C287.7,89.6,287.7,89,287.8,88.3z M335.1,107.3c-0.6-8.1-1.3-15.9-2.1-23.2c-0.4-3.1-1.5-5.3-3.6-6.6
	c-0.7-0.5-1.3-1.3-1.6-2.1c-2.2-4.6-4.5-9.5-6.7-14.4c-0.5-1.1-0.6-2.2-0.5-3.4c0.1-0.4,0-0.8-0.1-1.1c-0.2-0.2-0.4-0.3-0.6-0.3
	c-1.3-0.1-2.5-0.1-3.8-0.1h-1.1c0.1,0.7,0.1,1.3,0.2,1.9c0.2,1.5,0.4,3,0.6,4.5c0.4,3.1,0.9,6.3,1.1,9.5c0.5,8.2,0.9,16.5,1.2,24.6
	c0.2,3.7,0.3,7.5,0.5,11.2c0.3,6.3,0.6,12.8,1,19.2c0,0.6,0.1,1.2,0.5,1.7c2.8,3.4,3.1,7.5,3.1,11.3v0c0,1.4,0,2.8,0,4.3v1.6
	c2.6-0.1,4.2-0.6,5.4-2.6c0.7-1.1,1.5-2.2,2.2-3.2c1.1-1.4,2-2.8,2.8-4.4c1.4-2.7,2.2-5.7,2.4-8.7
	C335.9,120.7,335.5,114.3,335.1,107.3z M345.5,110c-2.8-6-5.5-11.7-8.3-17.6c0.5,6.5,0.9,12.7,1.3,19.2l0.6-0.1L345.5,110z
	 M366.6,145.7c0.5-0.1,0.9-0.2,1.4-0.3l0.6-0.1l0.8-0.4c1.8-0.9,3.7-1.8,5.5-2.8c2.1-1.1,2.3-1.6,1.3-3.8l-0.6-1.4
	c-1.1-2.4-2.2-4.8-3.4-7.1c-0.4-0.8-0.8-1.7-1.1-2.6c-0.8-2.2-1.6-4.2-3.8-5.4c-0.4-0.3-0.7-0.7-0.8-1.2c0-0.1-0.1-0.2-0.1-0.3
	c-1.6-3.4-3.1-6.7-4.7-10.1c-4.6-9.9-9.4-20.1-14-30.2c-0.4-0.9-0.9-1.8-1.4-2.7c-1.5-2.7-3-5.5-2.6-9v-0.1l-0.1-0.1l-1.9-4.1
	c-1.7-3.6-3.4-7.3-5.2-11c-0.7-1.4-1.5-1.7-3.1-1.1c-1.2,0.5-2.5,0.9-3.7,1.4l-2.2,0.8l-0.7,0.3l-0.8-1.7l0.7-0.3l4.6-2.2l1.9-0.9
	c-1-3.4-3-6.2-5.3-9.1c-0.2-0.2-0.4-0.4-0.6-0.5c-0.8,0.1-1.5,0.1-2.3,0.1c-1.8,0-3.4-0.1-4.8,1c-1.2,0.9-2.7,2.1-4.2,3.3
	c-0.3,0.2-0.6,0.5-0.7,0.9c-0.1,2-0.3,3.9,1.1,5.5c1.2,1.5,2.4,1.8,3.9,1l0.7-0.3l0.3,0.7c0.6,1.2,1,1.8,1.3,2
	c0.8,0.1,1.6,0,2.4-0.3l1.3-0.3l-0.4,1.3l-0.1,0.2c-0.1,0.3-0.2,0.6-0.4,0.8c-2.3,2.2-2.4,2.6-1.1,5.4c1.7,3.7,3.5,7.4,5.2,11.2
	l0.2,0.5c0.6,1.3,1.1,2.5,2.5,2.8c0.7,0.2,1,0.9,1.4,1.6l21.4,46.1c0.1,0.3,0.2,0.5,0.4,0.8c0.7,1.5,1.6,3.2,1,5.3
	c0,0.5,0.2,1,0.5,1.5l0.1,0.2v0c1.9,4.2,3.9,8.5,6.1,13.2C363.8,145.9,364.6,146.3,366.6,145.7z M380.7,156.2
	c-0.1-4.3-1.3-8.5-3.6-12.2c-1.9,0.7-3.9,1.3-5.8,2l-2.2,0.8l-2.2,1.8c0,0,0,0.1,0,0.1c0.3,0.6,0.4,1.1,0.5,1.8
	c0.1,0.8-0.2,1.7-0.7,2.3c-1.5,1.7-1.6,4.3-0.3,6.1c0.9,1.4,2.6,2.1,4.2,1.9c3.6-0.3,6.5-1.9,9.6-3.7l0.3-0.2V156.2z M403.8,159.6
	c-0.2-0.2-0.5-0.4-0.7-0.5l-2.7-1.6c-2.9-1.7-5.8-3.5-8.8-5.1c-2.1-1.1-3.7-2.9-4.7-5.1c-4.4-9.4-8.8-18.9-13.2-28.1l-39.3-83.8
	c-0.8-1.8-1.6-3.5-2.5-5.4l-1.1-2.4l-0.2,0.1l-4.2,2.3l3.3,6.2l6.8,12.9c0.1,0.1,0.2,0.2,0.3,0.3c0.2,0.2,0.3,0.3,0.5,0.5l0.7,0.9
	c0.7,0.8,1.3,1.7,1.9,2.7c1,1.8,1.8,3.6,2.5,5.5c0.5,1.3,1.1,2.6,1.8,3.8c1.4,2.7,2.9,5.4,2.7,8.8c0.1,0.2,0.1,0.3,0.2,0.4l0.2,0.4
	l5.7,12.2c4.5,9.7,9.2,19.8,13.7,29.7c0.9,1.8,1.9,3.5,3,5.1c0.8,1.2,1.6,2.4,2.4,3.7c2.2,4.1,4.2,8.3,5.9,12.6
	c0.5,1.4,1,2.8,1.3,4.2c0.2,1,0.5,2,0.8,2.9c0.9,2.8,2,5.7,3.3,9.1v0c0.2,0.6,0.7,1.2,1.2,1.6c4.1,2.8,8.1,5.5,12.1,8.1
	c0.5,0.3,1.1,0.5,1.7,0.5c1.5-0.5,2.9-1.3,4.5-2L403.8,159.6z M413.6,99.1c1-0.3,1.9-0.7,2.9-1.2c0.5-0.2,1-0.5,1.5-0.7
	c0.2-0.1,0.5-0.2,0.6-0.5c0-0.3,0-0.6-0.1-0.8c-0.1-0.3-0.3-0.7-0.4-1s-0.2-0.6-0.4-0.9l-3.5-7.8c-3.7-8.2-7.6-16.8-11.5-25.1v0
	c-2-4.3-4.2-8.7-6.4-12.8l-1.4-2.8c-0.3-0.4-0.6-0.9-1-1.2l-0.2-0.2c-0.4,0.2-0.7,0.4-1.1,0.5c-1.1,0.5-2.1,1-3.2,1.5
	c-1.1,0.4-1.4,1.1-1.2,2.4l0.1,0.9c0.6,3.8,1.2,7.8,1.6,11.8c0.5,5.3,2.5,10.2,4.5,14.6c3.7,8,9.8,14.4,15.7,20.7
	c0.7,0.7,1.3,1.4,2,2.1C412.6,99,413.1,99.2,413.6,99.1z"/>
</svg>
