<svg xmlns="http://www.w3.org/2000/svg" viewBox="0 0 414.66 455.71"><defs><style>.st0{fill:#fff;}</style></defs><title>Hp3</title><path class="st0" d="M215.5,243.22l62.64,19.88L264.54,306,201.9,286.07,182,348.71,139.17,335.1l19.88-62.64L96.4,252.58,110,209.73l62.64,19.88L192.53,167l42.85,13.6Zm197.88-68.06c-2.56,7-5.1,14.06-7.56,20.93l-.11.29c-4.2,11.77-8.53,23.87-13.1,35.66-2.06,5.4-7.32,9.53-11.56,11.58-.42.2-.71.36-.91.48v.23c.37,23.45-2.23,41.86-8.16,57.95-3.79,10.29-8.05,20.36-12.66,29.91-2.85,5.94-5.9,11.78-9.05,17.35a148.76,148.76,0,0,1-41,46.69c-8.46,6.25-17.54,11.69-26.33,16.95-4.58,2.75-9.27,5.56-13.8,8.45a18.2,18.2,0,0,0-4.33,4.25c-.76,1-1.5,2-2.23,3-4.22,5.82-9,12.42-18.41,15.7a191.61,191.61,0,0,1-62.88,11.09c-22.21,0-43.82-4.12-66.09-12.6-30-11.44-56.56-31.26-81.17-60.6A77.42,77.42,0,0,1,20.9,361.24c-3.2-8.27-2.7-16.53,1.4-23.35C3.54,302.48-3.43,264.54,1.57,225.1,5.38,195,15.74,167.87,32.36,144.38c.23-.31.37-.51.51-.71l1.93-2.75c2.48-3.57,5.06-7.26,8-10.74,1.5-1.8,1.6-2.28,1.59-2.38a5.92,5.92,0,0,0-.86-1.13c-3-3.36-3.31-8.92-2.13-12.66,3.75-12,7.67-24,11.46-35.59,2.36-7.22,4.66-14.28,6.93-21.34,2.57-8,7.72-13,16.22-15.76a24.44,24.44,0,0,0,9.28-6.44,86.59,86.59,0,0,0,11.52-15c5.64-9.37,13.78-14.7,26.39-17.28A115.4,115.4,0,0,1,159.57.71c6.32.7,13.13.27,19.72-.14,4-.26,8.12-.51,12.25-.55h.91c6,0,12.12-.1,18.24,1.43,43.16,10.67,80.66,23.64,114.64,39.64,8.28,3.92,15.27,9.85,22,15.59,2.78,2.36,5.63,4.79,8.45,7,1.46,1.12,2.76,2.33,4,3.49A22.25,22.25,0,0,0,364.76,71c16.91,7.6,27.51,20.62,38.66,35.61a17.21,17.21,0,0,1,3.1,9.67l0,3.08c.13,8.18.25,16.63-.31,25-.37,5.94.95,10.23,4.3,13.91h0C414.81,163,415.76,168.68,413.38,175.16ZM57.5,118l.59-.71a122.66,122.66,0,0,0,9.76-12.8c3.13-5,6.24-11.12,5.58-19.16-.64-7.59.47-15.12,1.56-22.4a46.93,46.93,0,0,0-2.09,5.68c-1.74,5.28-3.43,10.58-5.05,15.71-3.14,9.86-6.37,20-9.95,30C57.18,116.21,57,117.14,57.5,118Zm306,125.68a15.32,15.32,0,0,0-.59-2.92l-.15-.59c-.4-1.58-1-3.31-1.57-5-1.52-4.42-3.25-9.41-2.61-14.66,1.08-8.88-1-16.9-3.09-23.58-1.38-4.36-3.69-6.72-8.23-8.4-10.71-3.95-21.49-8.09-31.91-12.09-18.32-7-37.22-14.28-56-20.63C214.41,140.6,168.44,126,124,111.8l-19.6-6.24c-5.11-1.65-8.36-1.25-9.36-.81-6.62,2.89-13.17,6.51-16.28,13.4A24.12,24.12,0,0,1,71.21,127a70.29,70.29,0,0,1-6.32,4.13c-3,1.8-5.83,3.51-7.59,5.53a169.82,169.82,0,0,0-11.72,15,104.75,104.75,0,0,0-5.81,9.47c-20.48,38-27.34,77.15-20.39,116.25l.71,3.95,2.36,10.34c.47,1.39,7.68,22.88,11.69,33.4,2.82,7.35,6.27,11.44,11.53,13.66a1664.41,1664.41,0,0,0,197.09,68.8c8.84,2.49,17.18,1.13,27-4.41,15.4-8.65,33-19.61,46.82-35.34,9.08-10.32,17.76-20.52,24.11-31.79,1.85-3.27,3.66-6.7,5.36-10.19A174.37,174.37,0,0,0,363.5,243.63Zm32.8-70.7A85.88,85.88,0,0,1,387,186.86c-6.92,8.09-9.41,17.68-11,29.59h0a60,60,0,0,0-.11,10.91c1.86-.47,2.78-1.87,3.86-5.31a420.46,420.46,0,0,1,15.65-43.25A9.16,9.16,0,0,0,396.3,172.93Z"/></svg>