<?xml version="1.0" encoding="utf-8"?>
<!-- Generator: Adobe Illustrator 24.2.3, SVG Export Plug-In . SVG Version: 6.00 Build 0)  -->
<svg version="1.1"
	 id="Layer_1" xmlns:cc="http://creativecommons.org/ns#" xmlns:dc="http://purl.org/dc/elements/1.1/" xmlns:rdf="http://www.w3.org/1999/02/22-rdf-syntax-ns#" xmlns:svg="http://www.w3.org/2000/svg"
	 xmlns="http://www.w3.org/2000/svg" xmlns:xlink="http://www.w3.org/1999/xlink" x="0px" y="0px" viewBox="0 0 256 256"
	 style="enable-background:new 0 0 256 256;" xml:space="preserve">
<style type="text/css">
	.st0{fill:#FFFFFF;}
</style>
<path class="st0" d="M227.3,133.5c0,3.2-0.5,6.8-1.1,8c-3,5.8-4.9,11.5-17.5,51.7c-7.4,23.7-13.8,43.4-14.2,43.7
	c-0.4,0.4-3.1,0.1-6.2-0.5c-4.6-1-5.6-1.7-5.9-4.6c-0.3-2.7,8.3-37.4,11-44.5c0.3-0.8-1.5-1.8-4.3-2.4c-3.9-0.7-5.2-0.5-6.2,1.3
	c-4.6,7.8-12.8,17.4-15,17.4c-1.4,0-2.5,0.8-2.5,1.9s-1.3,2.8-2.9,3.9s-2.1,2-1.2,2c2.8,0,0.4,15-3.7,23.2
	c-4.7,9.3-8.2,12.9-12.7,12.9c-3.3,0-4.1-1-8.2-10c-2.5-5.5-5-11.2-5.4-12.7c-0.7-2.5-1.3-2.6-6.2-1.6c-3,0.6-9.2,0.7-13.9,0.3
	c-8.3-0.7-8.5-0.7-10.1,2.9c-0.9,2-4.1,7.6-7,12.3c-4.7,7.6-5.9,8.7-9.4,8.7c-2.3,0-4.9-1-6.1-2.3v0c-3.5-3.9-6-13-6-22.1v-8.6
	l-5.3,0.5c-5.8,0.6-10.2-2.6-10.2-7.4c0-1.4-0.6-2.9-1.3-3.4c-0.7-0.4-1.3-4.9-1.3-9.9v-9.1l-10,0.8c-13.3,1.1-15.8,0.3-15.8-4.7
	c0-8,11.1-23.8,18.3-26.1c1.7-0.5,2.3-2,2.3-5.5c0-15.8,12.3-42.6,24.3-53.3l5.7-5.1l-2.9-3.1c-2.2-2.3-2.8-4.3-2.5-8
	c0.4-4.4,0.9-5,4-5.4c2.9-0.3,3.4-0.9,2.9-3.2c-3.5-15.7-7.2-39.6-6.9-44.5c0.4-5.9,0.6-6.2,7.1-9.7c10.3-5.5,25-8.9,40-9.1
	c18.2-0.3,17.5-1.3,20.2,28.7c1.2,13.1,2.5,24.2,2.8,24.8c0.3,0.6,2.3,0.7,4.3,0.3c2-0.4,4.9,0,6.5,0.8c2.4,1.3,2.8,2.4,2.3,6.3
	c-0.3,2.6-1,5.7-1.5,6.8c-0.7,1.6,1.1,3.1,7.9,6.7c18.1,9.7,29.1,27.8,31.4,51.8c0.7,7.1,1,14.4,0.6,16.2c-0.5,2.4,0.2,3.8,2.4,5.4
	l3,2.2l2-7.3c1.1-4,2.5-10.5,3-14.4c1.1-8.6,4.9-13,11.1-13C224.2,123.7,227.3,126.8,227.3,133.5z"/>
</svg>
