<?xml version="1.0" encoding="UTF-8"?>
<svg version="1.1" viewBox="0 0 256 256" id="Layer_1" xmlns="http://www.w3.org/2000/svg">
<style type="text/css">
	.st0{fill:#FFFFFF;}
</style>
 <g transform="translate(0 -229.27)">
    <path class="st0" d="m102.92 416.03c-3.3605-0.54164-5.6269-1.8133-8.1784-4.5887-1.9413-2.1116-4.0385-4.0406-4.6605-4.2866-0.62196-0.24604-2.5504-2.9008-4.2854-5.8995-3.6469-6.3031-14.4-17.992-16.552-17.992-0.80458 0-2.9381-2.0364-4.741-4.5254-2.4179-3.3377-3.2782-5.7397-3.2782-9.1522 0-3.313-0.51624-4.8248-1.818-5.3244-2.3633-0.90687-3.0631-0.0618-5.1686 6.2432-0.96127 2.8785-2.8198 7.2948-4.13 9.814-1.3102 2.5192-2.2602 5.6376-2.1111 6.9297 0.14919 1.2922-0.34249 2.7286-1.0921 3.192-0.74985 0.46341-7.4891 0.98443-14.976 1.1578l-13.613 0.31529-9.0709-5.1428c-9.3592-5.3063-10.043-6.2991-8.0128-11.638 0.71483-1.8801 2.1629-3.0389 4.3425-3.4748 2.6698-0.53398 3.774-1.7547 6.0155-6.6508 3.2493-7.0974 3.3154-7.8022 0.89757-9.5702-1.6406-1.1996-1.6903-1.8859-0.44323-6.1177 1.4571-4.9446 10.211-23.203 12.375-25.81 0.6785-0.81756 2.3849-1.2663 3.7921-0.99733 3.584 0.68509 4.8864-2.1892 3.3138-7.3133-1.1053-3.6014-0.94759-4.609 1.3912-8.8904 1.559-2.854 3.4146-4.8286 4.5374-4.8286 2.3013 0 16.505 5.1169 25.871 9.32 6.4422 2.8911 6.7852 3.2328 6.197 6.1738-0.5207 2.6034-0.17475 3.2836 2.1124 4.1531 1.5043 0.57192 3.1161 2.07 3.5819 3.3291 0.76864 2.0777 1.4172 1.6396 7.0211-4.7434 5.6635-6.4508 19.061-16.052 22.399-16.052 0.71363 0 2.4001-1.1041 3.7476-2.4535 1.9908-1.9936 4.035-2.5557 10.904-2.9987 12.711-0.8197 25.83 0.22626 27.353 2.1809 0.70091 0.89961 3.2373 2.5333 5.6362 3.6304 8.3915 3.8376 16.401 9.8076 21.759 16.218 4.9235 5.891 5.4775 6.2595 6.2538 4.1609 0.4685-1.2664 2.3241-2.8159 4.1236-3.4432 2.8527-0.9945 3.1205-1.4232 2.0907-3.3475-0.90097-1.6835-0.81188-2.5762 0.37587-3.7638 2.1058-2.1058 24.147-11.142 29.064-11.916 3.7569-0.59091 4.0575-0.39936 6.4327 4.1 1.8984 3.5962 2.4176 6.1477 2.1809 10.717-0.30581 5.9062-0.26707 5.9924 2.5693 5.6624 2.1354-0.24853 3.4388 0.45632 5.0415 2.7261 3.4419 4.8745 8.5435 15.598 10.719 22.532 1.9452 6.1993 1.9451 6.4278-4e-3 7.8531-1.9342 1.4144-1.9087 1.7152 0.69793 8.2301 2.2789 5.696 3.2734 6.9508 6.3076 7.9584 2.7215 0.90376 3.94 2.1796 4.9839 5.2185 1.6267 4.7354 1.9897 4.328-9.3668 10.51l-8.1829 4.454-13.848-0.2646c-7.6166-0.14548-14.148-0.56396-14.514-0.9299-0.36595-0.36599-0.70856-2.1878-0.76145-4.0487-0.053-1.8608-0.45526-3.3834-0.8941-3.3834-0.69631 0-2.6091-4.407-6.7547-15.562-1.3424-3.6122-2.2518-4.2921-4.5573-3.4074-1.2559 0.48195-1.7341 2.1264-1.7341 5.9631 0 4.3706-0.5922 5.9721-3.3843 9.1522-1.8614 2.12-3.9984 3.8545-4.7488 3.8545-2.1048 0-11.73 10.727-15.899 17.72-2.0562 3.4486-4.1343 6.2701-4.618 6.2701s-2.6999 1.9282-4.9249 4.285c-3.4863 3.6929-4.7907 4.3334-9.4384 4.6344l-5.393 0.34951-9.9268-14.721-16.362 0.0736-4.907 7.254c-2.6989 3.9897-5.3978 7.3427-5.9975 7.451-0.59978 0.10839-3.1824-0.14013-5.7392-0.55227zm34.224-35.604c14.612-7.7517 18.949-13.211 18.949-23.85 0-3.426-0.30334-3.9629-1.8948-3.3522-1.0421 0.39978-4.8629 1.0043-8.4905 1.343-6.5713 0.61364-6.6068 0.60131-9.6104-3.3366-2.7317-3.5814-3.5092-3.9525-8.2821-3.9525-4.7744 0-5.5499 0.37053-8.287 3.959-3.0149 3.9527-3.03 3.958-9.6843 3.3366-3.6656-0.34249-7.5174-0.94957-8.5595-1.3495-1.5478-0.59392-1.8949-0.10921-1.8949 2.6453 0 1.8548 0.61339 5.6777 1.3631 8.4952 1.1586 4.3546 2.3443 5.851 7.9058 9.9779 6.9446 5.1532 16.248 9.9825 19.265 10 0.99976 4e-3 5.1488-1.7565 9.2202-3.9164z"/>
 </g>
</svg>
