<?xml version="1.0" encoding="UTF-8" standalone="no"?>
<svg
   xmlns:dc="http://purl.org/dc/elements/1.1/"
   xmlns:cc="http://creativecommons.org/ns#"
   xmlns:rdf="http://www.w3.org/1999/02/22-rdf-syntax-ns#"
   xmlns:svg="http://www.w3.org/2000/svg"
   xmlns="http://www.w3.org/2000/svg"
   version="1.1"
   id="Layer_1"
   width="256"
   height="256"
   viewBox="0 0 256 256">
   <style type="text/css">
	.st0{fill:#FFFFFF;}
</style>
  <defs
     id="defs8" />
  <g
     transform="matrix(2.916,0,0,2.916,-350.22569,-350.22398)"
     id="g1959">
    <path class="st0"
       d="m 149.90441,187.59999 c -5.40141,-5.588 -10.09104,-10.592 -10.42138,-11.12 -0.57059,-0.91197 -0.6007,-1.94604 -0.60184,-20.6704 -0.001,-18.68957 0.0291,-19.73783 0.584,-20.24 0.5194,-0.47005 1.76076,-0.52959 11.04,-0.52959 H 160.96 v -2.4 -2.4 h 13.5504 c 12.72101,0 13.58282,0.0358 14.08,0.58519 0.47716,0.52726 0.52959,2.09161 0.52959,15.80113 v 15.21593 l -1.73103,1.47887 c -0.95207,0.81338 -1.96007,1.47887 -2.24,1.47887 -0.44412,0 -0.50897,0.65362 -0.50897,5.13028 0,3.63145 -0.12816,5.43112 -0.43868,6.16 -0.24128,0.56635 -4.93006,5.67372 -10.4195,11.34972 l -9.98081,10.32 h -2.03792 -2.03791 z m 16.89084,-13.2 4.63576,-4.96 -4.75551,-0.0883 c -2.61553,-0.0486 -6.92096,-0.0486 -9.56762,0 l -4.81212,0.0883 4.69646,5.05189 c 2.58305,2.77854 4.80239,5.01054 4.93186,4.96 0.12948,-0.0505 2.32151,-2.32389 4.87117,-5.05189 z"
    />
  </g>
</svg>
