<?xml version="1.0" encoding="utf-8"?>
<!-- Generator: Adobe Illustrator 24.2.3, SVG Export Plug-In . SVG Version: 6.00 Build 0)  -->
<svg version="1.1" id="Layer_1" xmlns="http://www.w3.org/2000/svg" xmlns:xlink="http://www.w3.org/1999/xlink" x="0px" y="0px"
	 viewBox="0 0 445.4 215.7" style="enable-background:new 0 0 445.4 215.7;" xml:space="preserve">
<style type="text/css">
	.st0{fill:#FFFFFF;}
</style>
<path class="st0" d="M443.9,150.5c-3.2-11.2-2.4-9.2-12.4-11.4c-1.4-0.4-2.6-1.4-3.3-2.7C417.1,109.3,406.4,82,394.9,55
	c-3.7-8.5-5.5-16.4-1.1-25c0.5-1.4,0.4-2.9-0.2-4.1c-2-4.5-4.3-9-6.5-13.5c-1.2-2.6-2.8-3.5-5.8-2.3c-18,7.1-36.1,13.9-54.2,21
	c-4.5,1.8-5.6,4.5-3.8,9.1c4.1,10.2,8.2,20.4,12.3,30.6c0.4,1,0.8,2.1,1.1,3.2l-0.7,0.3c-0.7-1.1-1.4-2.2-2-3.4
	c-4.1-7.6-8.6-14.9-13.7-21.9c-3.3-4.7-6.9-9.2-10.7-13.6c-4.1-4.9-8.7-9.5-13.6-13.8c-4.9-4.2-10.3-7.7-16.2-10.4
	c-3.8-1.7-7.3-4-11.1-5.3c-6-2-12.2-3.5-18.3-5.2c-4.6-1.3-5-1.2-7.1,3.2c-1.1,2.4-2.6,3.1-5.2,3c-10-0.1-19.9-0.2-29.9,0
	c-3.4,0.1-5.6-0.6-6.8-4c-0.9-2.6-2.8-3.5-5.8-2.6c-6.1,2-12.4,3.4-18.6,5.3c-2.3,0.8-4.5,1.7-6.7,2.8c-15.8,7-28.4,17.8-38.5,31.7
	c-1.1,1.5-2.4,2.7-3.5,4.1c-3.2,4.4-6.4,8.7-9.3,13.2c-3.4,5.4-6.4,11.1-9.6,16.7l-0.8-0.3c0.4-1.1,0.8-2.1,1.2-3.2
	c4.2-10.3,8.3-20.6,12.4-30.9c1.6-4.1,0.5-7-3.7-8.6c-16.4-6.3-32.7-12.8-49.1-19c-9.2-3.5-8.8-3-13.7,5.5
	c-4.1,7.1-5.1,13.8-1.3,21.1c1.3,2.6,0.8,5-0.3,7.6C42.6,74.4,30.9,102.6,19.8,131c-2.3,5.8-4.9,9.3-11.3,9.4
	c-2.9,0-4.3,1.9-5.1,4.4c-0.9,2.8-1.7,5.7-2.5,8.5c-1.5,5-1.4,5.8,2.8,8.9c13.8,10.1,28.8,17.7,45.5,22c1.4,0.3,2.8,0,4-0.8
	c4.3-2.8,8.3-5.9,12.5-8.8c2.5-1.7,4.4-4.1,5.4-6.9c6.7-17,13.5-34,20.5-51c0.4-1,1.8-2.7,2.2-2.6c3.8,1.2,7,0,10.4-2.3
	c0,1.5,0,2.4,0,3.3c-0.1,5.7-0.3,11.4-0.3,17.2c0,1.5,0.5,2.9,1.4,4c5.1,6.3,10.2,12.8,15.8,18.7c15.5,16.5,30,33.8,40.6,53.9
	c1.1,2.2,3.2,3.7,5.7,4c4.6,0.5,9.3,1.3,13.8,2.4c3.3,0.9,5.2-0.2,6.9-2.8c2.9-4.3,6-8.5,8.8-12.9c1.5-2.4,3-2.7,5.5-1.8
	c6,2.1,12,4.1,18.1,5.9c1.7,0.5,3.5,0.5,5.2,0c6.3-1.9,12.5-3.9,18.8-6c2.1-0.7,3.3-0.3,4.5,1.5c3.1,4.7,6.4,9.2,9.6,13.9
	c1.5,2.2,3.1,3,5.9,2.3c4.3-1,8.7-1.7,13.1-2.2c3.2-0.2,6-2.2,7.4-5.1c7.4-13.8,16.4-26.7,26.9-38.4c7.6-8.7,15-17.6,23.1-25.9
	c6.1-6.3,8.6-13.2,7.4-21.7c-0.4-3.2-0.1-6.4-0.1-9.2c2.6,0.5,5.3,1.7,7.9,1.4c2.6-0.3,3.6,0.3,4.5,2.5c5,12.6,10.8,24.9,14.9,37.8
	s11.1,22.2,22.8,28.5c1.6,1.1,3.5,1.4,5.3,0.9c15.2-4.1,29.1-11.1,42-19.9C446.6,159.2,446.4,159,443.9,150.5z M68.1,167.9
	c-0.9,1.9-2.2,3.5-3.8,4.8c-3.2,2.6-6.8,4.7-10,7.3c-2.3,1.8-4.4,2.3-7.6,0.5c4.1-2.6,8-4.7,11.5-7.3c2.3-1.6,4.2-3.8,5.4-6.3
	c17.4-42,34.7-84,51.9-126c0.8-1.8,1.2-4.2,4.4-2.2c-0.3,1-0.6,2.1-1.1,3.1C102,83.8,85.1,125.9,68.1,167.9z M106.3,90
	c-0.9,5.4-1.5,10.9-2.4,16.3c-0.9,5.1-4.6,6.8-10,4.5l13.4-33.4l1,0.2C107.7,81.8,106.9,85.9,106.3,90z M276.8,71.1
	c0.8-0.1,1.8-0.6,2.4-0.4c6.2,2.3,12.4,4.7,19.3,7.3c-2.6,1.7-4.3,3.4-7.3,1.7c-4.7-2.8-9.7-5-14.5-7.5L276.8,71.1z M269.6,89.8
	c4-5.7,5-5.9,10.8-1.9h0c1.1,0.9,1.6,2.2,1.5,3.6c0.2,2.9,0.4,5.8,0.6,8.6L268.9,91C269.1,90.6,269.3,90.2,269.6,89.8z M265.1,96.5
	c2.2-0.5,4.8-1.5,6.6-0.8h0c9.2,3.7,11,12,11.9,20.6c0.1,1.8,0.1,3.6,0,5.4c-0.1,3.7,1.1,7.6-2.5,10.6c-1.7,1.4-6.3,0.8-7-1.3
	c-3.4-10.6-6.8-21.1-10.1-31.7C263.8,98.6,264.5,96.7,265.1,96.5z M203.8,12.4c0-2.1,0.8-2.8,2.8-2.7c5.5,0.1,11,0,16.5,0
	c5.3,0,10.6,0.1,15.9,0c2,0,2.9,0.6,2.8,2.7c-0.1,3.9,0,7.8,0.1,11.7c0.1,2.1-0.8,2.5-2.7,2.3c-10.9-1.2-22-1.2-32.9,0
	c-1.9,0.2-2.8-0.2-2.7-2.3C203.8,20.2,203.9,16.3,203.8,12.4z M190.6,95.2c21.4-1.1,42.9-1.1,64.4,0l0,0.9h-64.4
	C190.6,95.8,190.6,95.5,190.6,95.2z M187.6,104.3c2.7,1.2,5.5,1.8,8.4,2c17.6,0.2,35.2,0.1,52.8,0.1c3.3,0,6.5-0.2,9.4-2.1
	c2-1.4,3.5-0.8,4.3,1.7c3,9.7,6.3,19.3,9,29.1c1.1,3.9,0.6,7.9-2.7,11c-7,6.6-14,13.3-21.1,19.8c-1.4,1.2-3.2,1.9-5,2
	c-6.7,0.2-13.3,0.1-20,0.1c-6.6,0-13.1,0.1-19.7-0.1c-1.8-0.1-3.6-0.7-5-1.9c-7.2-6.6-14.2-13.3-21.3-20c-3.2-3-3.7-7-2.6-10.8v0
	c2.7-9.8,6-19.4,9-29.1C183.9,103.5,185.2,103.3,187.6,104.3z M180.6,96.6c0.7,0.4,1.1,2.3,0.8,3.2c-3.2,10.3-6.5,20.6-9.7,30.8
	c-0.8,2.6-5.3,3.3-7.3,1.6c-3.7-3.1-2.1-7.2-3-11.1c0.8-4.3,1.5-8.7,2.3-13c1-5.6,4.4-9.2,9.2-12.1C176,94.4,178.2,95.4,180.6,96.6z
	 M176,89.8c0.3,0.4,0.6,0.9,0.8,1.4l-13.7,9c0.2-3.4,0.3-6.8,0.8-10.2c0.4-1.1,1.3-2.1,2.4-2.6C173.6,83.9,171.3,83.5,176,89.8z
	 M147.8,77.8c6.2-2.4,12.4-4.8,18.6-7c0.7-0.3,1.6,0.2,2.5,0.3l0,0c0,0.3,0,0.6,0,1c-5.4,2.8-10.8,5.7-16.3,8.2
	c-1.2,0.5-3.3-0.9-5-1.5C147.6,78.5,147.7,78.1,147.8,77.8z M145.1,80.6c4.9,1.2,5.3,1.7,5,6.4c-1,13.8-2,27.6-2.8,41.4
	c-0.2,2.6-1.2,4.1-4.1,5.4C144,115.7,142.1,98.1,145.1,80.6z M142.7,137.5l5.6-4.5c0.8,0.8,1.6,1.4,2.3,2.1
	c14.4,14.8,28.9,29.5,43.3,44.3c1.2,1.2,2.1,2.6,3.2,3.9c1.7,1.9,1.4,3.4-1.1,4.8L142.7,137.5z M185.4,212.2l-1.1-0.1
	c-0.1-1-0.6-2.3-0.1-2.9c5.5-7.5,11.1-15,16.7-22.4c0.4-0.4,1-0.7,1.5-0.9l0.8,0.7C197.2,195.1,191.3,203.7,185.4,212.2z
	 M219.5,179.3c-3.5,0.2-7,0.1-10.5,0.1c-0.4-1.9-0.8-3.3-1.2-4.9h0c3.9,0,7.9-0.1,11.9,0.1c0.6,0,1.6,1.7,1.6,2.6
	C221.1,178.1,220.4,178.9,219.5,179.3z M236.6,179.3c-3.5,0-7.2,0.1-10.9-0.1c-0.5,0-1.4-1.7-1.3-2.5c0.1-0.8,1.1-2.1,1.8-2.1
	c3.9-0.2,7.8-0.1,11.7-0.1C237.5,176,237.1,177.3,236.6,179.3z M240.9,171.4h-36.1c0-0.2,0-0.4,0-0.6h36.1
	C240.9,171.1,240.9,171.3,240.9,171.4z M260.3,212.2L260.3,212.2l-17.8-25.7c0.3-0.3,0.6-0.5,0.9-0.8c0.8,0.6,1.6,1.4,2.3,2.1
	c5.2,6.9,10.3,13.8,15.4,20.6C262.1,209.9,262.8,211.1,260.3,212.2z M249.3,187.9c-2.2-1.1-2.5-2.6-0.8-4.6c1-1.1,1.8-2.4,2.8-3.4
	c14.6-15,29.3-30,44-45c0.6-0.6,1.2-1.1,2-1.8l5,3.9C285.8,155.4,267.3,171.3,249.3,187.9z M298.4,128.6
	c-0.9-13.8-1.9-27.6-2.9-41.4c-0.3-4.8-0.2-5,5-6.7c2.9,17.8,1.2,35.4,1.9,53.3C299.8,132.5,298.6,131.2,298.4,128.6z M341.7,106.4
	L341.7,106.4c-1.6-9.3-2.9-18.6-4.4-27.9c0-0.3,0.1-0.6,0.9-1.2l13.4,33.5C346.5,113.2,342.6,111.4,341.7,106.4z M391.6,180.3
	L391.6,180.3c-9.6-5.4-15-13.4-19-23.7c-14.8-38.4-30.5-76.5-45.8-114.8c-0.4-1-0.7-2-1.1-3c2.7-2.1,3.5-0.4,4.3,1.7
	c15.7,38.4,31.5,76.8,47.3,115.2c1.6,3.9,3,7.9,4.9,11.7c1.1,2.1,2.7,4,4.6,5.4c3.8,2.7,7.8,5,12.1,7.7
	C395.9,182.2,394,181.6,391.6,180.3z"/>
</svg>
