<?xml version="1.0" encoding="utf-8"?>
<!-- Generator: Adobe Illustrator 24.2.3, SVG Export Plug-In . SVG Version: 6.00 Build 0)  -->
<svg version="1.1" id="Layer_1" xmlns="http://www.w3.org/2000/svg" xmlns:xlink="http://www.w3.org/1999/xlink" x="0px" y="0px"
	 viewBox="0 0 321.9 433" style="enable-background:new 0 0 321.9 433;" xml:space="preserve">
<style type="text/css">
	.st0{fill:#FFFFFF;}
</style>
<path class="st0" d="M321.9,273.8c-0.2-26.3-0.1-53.1-0.1-79V53.6c0-19.3-3.3-22.7-22.3-22.7H198.8c-8.2,0-13,0-14.8-1.6
	c-1.7-1.6-2-6.6-2.4-14.8C181,3,178,0,167,0C107,0,61.1,0,18.3,0.1C6.9,0.1,0.1,6.7,0.1,17.7C0,65.4-0.1,128.2,0.2,191.7
	c0.3,4.5,2.2,8.8,5.4,12c7,7,12.8,11.7,18.7,15.3c4,2.4,4.7,5,4.7,9.6c-0.1,6.6,0,13.3,0,19.7c0,8.7,0.1,17.7-0.1,26.5
	c-0.2,10.4,3.4,19.3,11,27.2c39.1,40.5,79,81.7,118.5,122.4c5.5,5.7,11.2,8.6,17,8.6s11.6-2.9,17.2-8.7c22.6-23.3,45.2-46.6,67.7-70
	c16.7-17.3,33.4-34.5,50.1-51.8C318,295,322.2,284.6,321.9,273.8z M41.5,155.3v-98c0-8.5,6.9-15.3,15.4-15.3h80.8l0,86.1
	c0,15-12.2,27.2-27.2,27.2H41.5z M234.6,255.4c-8.5,9.2-17.1,18.4-25.5,27.4c-9.9,10.5-20.1,21.4-30,32.2c-1.7,1.8-3,2.7-3.8,2.7
	c-0.9,0-2.2-0.9-3.7-2.6c-10.2-11.1-20.7-22.3-30.8-33.1c-8.1-8.7-16.5-17.6-24.7-26.5c-1-1.2-1.8-2.5-2.4-3.9
	c1.4-0.5,3-0.8,4.5-0.8c14.3-0.1,28.8-0.1,42.8-0.1h29.4c13.7,0,27.9,0,41.8,0.1c1.6,0.1,3.1,0.4,4.6,0.8
	C236.3,253,235.5,254.3,234.6,255.4z"/>
</svg>
