<svg xmlns="http://www.w3.org/2000/svg" viewBox="0 0 493.71 394.73"><defs><style>.st0{fill:#fff;}</style></defs><title>hp3</title><path class="st0" d="M363.58,25.06C308.09.81,248.26-2.31,187.54,1.21c-50.47,8-57.27,28.26-76.28,38.14C47.37,53.49.43,118.08,0,196-.34,279.5,51.89,336.77,116.16,356.39c27.16,26.23,32.5,26.48,76.07,36.9,32.66,6,162.49-7.45,178.25-29.92,69.13-62.59,116.45-66.15,123.23-167.5C486.38,90.16,421,81.6,363.58,25.06ZM379.8,292.47a20.71,20.71,0,0,1-10.5,8.62c-40.18,14.91-58.18,10.28-98.23,8.41,16.31-30.48,26.33-61.09,29.83-91.18,6.74-43.57-8.18-101.4-31.12-134,31-.69,88.27.38,95.33,10.39C421.82,156.6,420.16,226.26,379.8,292.47ZM88.83,130.7q0,8.81,0,17.59,0,9,0,17.9c0,8.47,1.78,10.19,10.45,10.19q5.31,0,10.6,0c4,0,7.92,0,11.88,0,1,0,2,.05,3.07.11.83,8.11.86,32.66,0,41-1.19.06-2.41.12-3.6.12-3.15,0-6.3,0-9.45,0-4.27,0-8.68,0-13,0-7.28.06-9.88,2.66-9.93,9.92-.06,8.38,0,16.9,0,25.13,0,3.46,0,6.92,0,10.38v3.68a143.63,143.63,0,0,1-25.83,0c-.06-1-.12-2.12-.13-3.17,0-.15,0-.29,0-.44q0-10.31,0-20.62V228.86c0-10-1.36-11.33-11.1-11.36l-6.77,0c-4.24,0-8.49,0-12.73,0-1.15,0-2.34-.07-3.71-.15-.16-9.46-.13-18.7-.1-28.43q0-5.53,0-11.16c1-.12,1.78-.21,2.56-.24q5.52-.24,11-.45c4.19-.16,8.37-.32,12.55-.51,6.09-.27,8.17-2.48,8.21-8.74.06-8.48,0-17.09,0-25.42q0-5,0-10.09v-5.1H88.68c0,.82.1,1.63.13,2.41C88.82,129.94,88.83,130.32,88.83,130.7Zm86.76,215.13C83.13,353.39,32,302.07,17,239.76c10.17,31.06,32.24,55.6,66.53,58.45,21.25-.62,38.19-11.81,50.39-27.47S153.54,235,155.8,216.5c13.68-66.95-46.84-164-115-101.59-8.59,8.2-15.38,18.64-20.34,30.36,11.64-37.05,35.45-69.49,70.3-86.86,0,0,24.83-10.32,46.29-12.36,78.41-7.45,64.34,28.34,104.6,26.41C298.13,141.73,303.41,239.19,244,321c-35.21-1-37.55,23.68-68.27,25.38Zm216-47.38C419,249.51,437,213.51,423,159.51c-7.1-27.4-14.9-41-31.51-63.83C434,46.07,494.72,157.2,485.34,204,487.89,238.79,436.84,348.28,391.55,298.45Z"/></svg>