<svg xmlns="http://www.w3.org/2000/svg" viewBox="0 0 321.87 432.98"><defs><style>.st0{fill:#fff;}</style></defs><title>Armor1</title><path class="st0" d="M321.86,273.79c-.24-26.32-.15-53.1-.15-79V53.6c0-19.34-3.34-22.74-22.34-22.74H198.77c-8.15,0-13.05,0-14.76-1.62s-2-6.57-2.43-14.76C181,3,178,0,167,0,107,0,61.14,0,18.27.06,6.91.08.1,6.69.08,17.72,0,65.36-.08,128.19.2,191.73a18.72,18.72,0,0,0,5.37,12c7,7,12.79,11.71,18.66,15.32,4,2.44,4.65,5,4.65,9.56-.06,6.59,0,13.27,0,19.73,0,8.68.07,17.66-.12,26.46-.22,10.42,3.37,19.32,11,27.19,39.12,40.49,79,81.67,118.5,122.42,5.51,5.69,11.23,8.57,17,8.57s11.59-2.88,17.24-8.66q33.87-34.95,67.73-69.95,25-25.9,50.14-51.8A38.9,38.9,0,0,0,321.86,273.79Zm-87.22-18.37c-8.47,9.16-17.14,18.38-25.53,27.38-9.89,10.52-20.08,21.39-30,32.18-1.67,1.81-3,2.73-3.85,2.73s-2.15-.89-3.7-2.58c-10.2-11.12-20.67-22.3-30.8-33.12-8.1-8.66-16.48-17.6-24.66-26.46a15.81,15.81,0,0,1-2.38-3.91h0a17.83,17.83,0,0,1,4.47-.84c14.25-.1,28.76-.1,42.76-.1h29.4c13.7,0,27.86,0,41.79.08a19.34,19.34,0,0,1,4.64.84A14,14,0,0,1,234.64,255.42ZM137.73,128.14a27.22,27.22,0,0,1-27.19,27.19h-69l0-98A15.4,15.4,0,0,1,56.9,42h80.83Z"/></svg>