<svg xmlns="http://www.w3.org/2000/svg" viewBox="0 0 441.81 210.62"><defs><style>.a{fill:#fff;} .st0{fill:#fff;}</style></defs><title>Rarmor</title><path class="st0" d="M441.42,139.73c-1.24-3.07-2.28-6.21-3.22-9.15-.72-2.19-2-3.26-4-3.46-1.18-.11-2.38-.32-3.54-.52-1-.17-2-.35-3-.47a3.41,3.41,0,0,1-3-2.27c-1.74-3.93-3.6-7.89-5.4-11.72l-2.58-5.52c-.59-1.29-1.16-2.6-1.76-4l-.26-.61.48-.23c.8-.41,1.53-.77,2.31-1.13,5.08-2.35,5.28-2.87,3-7.9-6.47-14-12.89-27.8-20-43.06-.82-1.75-1.76-3.46-2.67-5.12l-.46-.83c-1.58-2.87-2.43-3.15-5.38-1.8-1.44.66-2.88,1.3-4.44,2l-.1,0-.6-1.26c-.59-1.24-1.14-2.4-1.74-3.53a5.22,5.22,0,0,1-.38-4.33c.51-1.62.95-3.27,1.37-4.88s.79-3,1.25-4.51a5.81,5.81,0,0,0-.65-5c-1.48-2.55-2.94-5.18-4.35-7.72-.64-1.15-1.28-2.31-1.93-3.46-2.44-4.34-3.44-4.77-8.25-3.56-17.35,4.33-33.32,11.66-45.29,17.55-3.16,1.55-4,4.19-2.58,7.61.54,1.28,1.19,2.78,1.92,4.25a1.06,1.06,0,0,1,.15.75,1.06,1.06,0,0,1-.61.41l-.38.14a3.5,3.5,0,0,1-1.27.34,7.59,7.59,0,0,0-5.46,2l-.7.56a48.18,48.18,0,0,0-4.41,3.83,5.2,5.2,0,0,0-1.2,3.21,7.93,7.93,0,0,0,2.48,6.34,3.94,3.94,0,0,1-3.54-1.67c-1.57-1.87-3.22-3.73-4.81-5.52s-3.12-3.52-4.64-5.31l-.49-.58c-9.64-11.4-9.82-11.62-22.71-19.61-1.47-.91-2.93-1.9-4.35-2.86-4.13-2.8-8.4-5.68-13.48-7.07-3.9-1.07-6.52-2.93-8.26-5.87a5,5,0,0,0-4.52-2.38c-1.59-.07-3.21-.24-4.78-.4-1.27-.12-2.58-.26-3.88-.34-2-.12-4-.28-5.95-.43-5-.38-10.24-.77-15.37-.69-4.28.07-8.61.5-12.8.91-3.19.31-6.48.64-9.71.8a8.07,8.07,0,0,0-7.13,4,8.49,8.49,0,0,1-5,3.63,55.19,55.19,0,0,0-15.7,8c-3.57,2.52-7.41,4.81-11.12,7l-.33.2a35.46,35.46,0,0,0-8.7,7.47c-2.95,3.42-6,6.86-8.93,10.19-2.73,3.1-5.46,6.19-8.16,9.31a3.18,3.18,0,0,1-3.12,1.21c.38-.4.71-.76,1-1.13a6.85,6.85,0,0,0-.58-9.27l-1-.93c-.66-.61-1.35-1.24-2.1-1.81l-.19-.15c-1.83-1.38-3.73-2.81-6.5-2.68a4.55,4.55,0,0,1-1.8-.61l-.47-.23.67-1.5c.46-1,.88-2,1.28-2.9,1.91-4.37,1-6.71-3.17-8.62L111,21.43C103.82,18.17,96.44,14.8,89,12,83.16,9.74,77,8.05,71.12,6.41l-3.28-.9c-3.06-.86-4.27.15-5.66,2.59Q60.82,10.55,59.46,13C58,15.57,56.54,18.25,55,20.85a5.36,5.36,0,0,0-.48,4.5c1,3.3,1.88,6.7,2.73,10.12a4.06,4.06,0,0,1,.07,2.28c-.45,1.23-1,2.45-1.61,3.63-.31.64-.61,1.28-.91,1.92a1,1,0,0,1-.42.54,1.32,1.32,0,0,1-.85-.21c-.58-.29-1.19-.55-1.79-.82a20.54,20.54,0,0,1-2.36-1.12c-1.27-.7-3.06-1-4.41,1.3l-.14.25c-.31.53-.61,1.06-.87,1.6-1.26,2.58-2.53,5.15-3.79,7.73-3.36,6.83-6.83,13.89-10.13,20.89S23.7,87.6,20.7,94.55l-.12.27c-1.3,3-.69,3.84,2.06,5.1L27.16,102a3,3,0,0,1-.17.53l-3.17,6.84c-2.3,4.93-4.67,10-7,15.06a2.71,2.71,0,0,1-2.41,1.62l-2,.29a51.54,51.54,0,0,0-5.41,1,5,5,0,0,0-3.15,2.45c-1.26,3.1-2.47,6.58-3.81,10.95a4,4,0,0,0,.81,3.12,7.46,7.46,0,0,0,2.46,1.91q4.13,2.28,8.25,4.6C19.19,154.56,27,159,34.88,163c3.87,2,9.58,4.07,14.52-1.1a6.45,6.45,0,0,1,1.28-.91c.24-.13.48-.28.71-.43,5.09-3.4,5.09-3.4,10.06-.23a21.48,21.48,0,0,0,9.12,3.32c3,.39,7.75-2.46,8.18-5.61,0-.33.11-.67.17-1,.28-1.48.63-3.32-.69-5a2.91,2.91,0,0,1-.86-2.07,2,2,0,0,1,1-1.26,10.62,10.62,0,0,0,3.72-4.95c.54-1.19,1.1-2.38,1.65-3.56,1-2.23,2.07-4.46,3.08-6.7.16-.35.34-.7.52-1.06.81-1.56,1.73-3.34.9-5.45a2.26,2.26,0,0,1,.21-.55l.08-.17q1-2.27,2.09-4.53,1.81-3.9,3.6-7.82a1.22,1.22,0,0,1,1.61-.84l2,.43c1.49.33,3,.68,4.56,1,.63.12.79.26.74,1.25-.11,2.17-.16,4.37-.21,6.5,0,1,0,2-.07,3a20.8,20.8,0,0,0,4.22,13.93c1.37,1.75,2.75,3.74,4.35,6.25a6.38,6.38,0,0,0,5,3.38,5.13,5.13,0,0,1,3.56,2.09c2.13,2.44,4.4,4.82,6.59,7.12l.77.81a68.37,68.37,0,0,1,9.6,12.1c1.49,2.5,3,5,4.52,7.46,2.4,3.94,4.89,8,7.22,12.1,1.22,2.15,2.94,4.38,6.46,4.64a3.85,3.85,0,0,1,3,1.88l.35.5a54,54,0,0,0,4.38,5.7,10.79,10.79,0,0,0,4.58,3.29c5.51,1.54,10.95,2.74,17,4a4.64,4.64,0,0,0,3.39-.93,14.2,14.2,0,0,0,2.92-3.17c3-4.3,6-8.52,8.92-12.9.76-1.17,1.35-1.36,2.74-.89,2.2.76,4.45,1.47,6.62,2.17,2.63.84,5.35,1.7,8,2.64a10.35,10.35,0,0,0,7.45,0c2.73-1,5.55-1.88,8.27-2.75,2.17-.68,4.41-1.4,6.59-2.15,1.28-.43,1.84-.25,2.54.82,1.43,2.24,3,4.44,4.47,6.58l1.49,2.13.82,1.18c1,1.48,2.1,3,3.2,4.49a6.07,6.07,0,0,0,5,2.81,7.76,7.76,0,0,0,2.05-.3c2.35-.65,4.81-1.12,7.19-1.57,1.35-.25,2.71-.51,4.06-.8,3.25-.71,7.31-2,9.76-6.13a18.33,18.33,0,0,1,1.49-2,21.85,21.85,0,0,0,1.38-1.86,5.59,5.59,0,0,1,4.57-3c2.7-.16,4.1-1.93,5.11-3.64,4.5-7.52,9.19-15.1,13.72-22.43l1.41-2.28a18.58,18.58,0,0,1,2.1-2.74c4.62-5,8.73-9.45,12.58-13.53.85-.91,1.3-1.12,1.53-1.13,4.06-.25,6.17-2.95,7.69-5.55a34.78,34.78,0,0,1,2.87-4.12,20.82,20.82,0,0,0,4.45-14.38c0-1.15-.06-2.29-.08-3.43,0-1.91-.06-3.89-.21-5.83-.07-1.08.17-1.29,1.12-1.46,1.77-.32,3.67-.73,5.81-1.26,1.11-.27,1.65,0,2.14,1.13.91,2.06,1.86,4.09,2.81,6.13q1.29,2.76,2.54,5.53a5,5,0,0,1,.31,1.42q0,.32.09.6c.05.36.08.73.11,1.1a7.65,7.65,0,0,0,.46,2.48c1.39,3.22,2.91,6.45,4.37,9.57l1.2,2.56c.88,1.89,1.8,3.85,3.89,5.18a2.62,2.62,0,0,1,1.21,1.57.75.75,0,0,1-.32.66c-2,1.81-1.76,3.85-1.53,5.65a11.43,11.43,0,0,1,.13,1.16c.14,2.08,4.18,6,6.18,6h.08a21.16,21.16,0,0,0,9.67-2.53c1-.56,2-1.1,3-1.61s1.92-1,2.85-1.51a2.09,2.09,0,0,1,2.51.29c2.88,2,5.61,3.88,8.33,5.62,1.43.91,2.48,1.24,3.33,1l1.18-.26a34.06,34.06,0,0,0,8-2.48c6.4-3.19,12.76-6.72,18.92-10.12l2.58-1.43c2.74-1.51,5.44-3.17,8.05-4.78l2.11-1.29A3.71,3.71,0,0,0,441.42,139.73ZM366.56,158.9a5,5,0,0,1,.25-6.13,3.3,3.3,0,0,0,.69-2.35,6.37,6.37,0,0,0-.54-1.75.36.36,0,0,1,0-.09l2.24-1.85,2.18-.77c1.93-.67,3.86-1.34,5.79-2a24.89,24.89,0,0,1,3.56,12.21l0,.75-.33.19c-3.09,1.75-6,3.4-9.62,3.67A4.32,4.32,0,0,1,366.56,158.9Zm-9.78-28-.08-.18a3.24,3.24,0,0,1-.46-1.47c.62-2.12-.21-3.82-.95-5.32-.13-.25-.25-.51-.37-.77l-21.37-46.1c-.32-.69-.69-1.38-1.37-1.57-1.4-.37-1.91-1.51-2.49-2.82l-.23-.5q-2.58-5.6-5.17-11.18c-1.29-2.78-1.21-3.18,1.07-5.37a1.57,1.57,0,0,0,.39-.77l.06-.19.44-1.26-1.31.28a5.59,5.59,0,0,1-2.37.27c-.33-.15-.69-.84-1.28-2l-.34-.67-.67.34c-1.5.77-2.66.48-3.9-1-1.39-1.63-1.25-3.52-1.11-5.53a2,2,0,0,1,.71-.9c1.48-1.26,3-2.45,4.18-3.34,1.4-1.06,3-1,4.76-1a21.25,21.25,0,0,0,2.26-.05,1.32,1.32,0,0,1,.64.45c2.28,2.92,4.26,5.64,5.31,9.08l-1.87.92-4.57,2.24-.66.32.79,1.71.66-.25,2.17-.84q1.83-.72,3.69-1.41c1.6-.6,2.41-.32,3.09,1.07,1.77,3.66,3.51,7.4,5.19,11l1.9,4.08.06.11,0,.06c-.44,3.49,1.1,6.26,2.59,9,.51.93,1,1.8,1.41,2.71,4.56,10.12,9.36,20.34,14,30.22q2.37,5,4.72,10.06c0,.09.07.2.11.31a1.83,1.83,0,0,0,.76,1.16c2.13,1.19,2.93,3.24,3.78,5.41.34.85.68,1.73,1.11,2.56,1.21,2.33,2.32,4.77,3.39,7.14l.63,1.41c1,2.13.78,2.66-1.32,3.77-1.8,1-3.62,1.87-5.45,2.78l-.75.38-.61.11a12.16,12.16,0,0,0-1.4.31c-1.91.6-2.79.23-3.63-1.56C360.72,139.46,358.7,135.12,356.78,130.93Zm-33.89,9.27c0-3.87-.31-7.94-3.08-11.35a3,3,0,0,1-.45-1.74c-.37-6.4-.71-12.85-1-19.18-.18-3.74-.35-7.49-.52-11.23-.36-8.07-.74-16.41-1.22-24.6-.19-3.2-.64-6.43-1.07-9.55-.21-1.5-.42-3-.6-4.5-.07-.58-.12-1.17-.18-1.87h1.08a34.08,34.08,0,0,1,3.81.06.89.89,0,0,1,.64.27,1.54,1.54,0,0,1,.14,1.1,6.47,6.47,0,0,0,.51,3.36c2.21,4.92,4.53,9.84,6.7,14.42a4.91,4.91,0,0,0,1.64,2.13c2.1,1.33,3.29,3.48,3.65,6.59.84,7.29,1.55,15.08,2.11,23.17.47,7.07.86,13.45.72,19.89a22.54,22.54,0,0,1-2.38,8.7,25,25,0,0,1-2.83,4.37c-.77,1-1.56,2.1-2.24,3.23-1.19,2-2.85,2.52-5.42,2.63v-1.62C322.9,143,322.91,141.59,322.89,140.2ZM187.62,206.12c-1.13,1.39-1.58,1.72-3.28,1.23,2.64-1.91,4.33-4.57,6-7.15l.57-.89c.83-1.3,1.68-2.6,2.53-3.89,2-3.1,4.11-6.3,6-9.55,1.26-2.13,2.46-2.83,4.39-2.5a15.3,15.3,0,0,0-1.71,2c-3.51,5-7,10.08-10.44,15L188.45,205A13.27,13.27,0,0,1,187.62,206.12Zm-68.83-61.86c0,.6,0,1.19,0,1.79-2.45,0-4.16-.53-5.39-2.56-.92-1.51-2-3-3-4.38-.71-1-1.44-2-2.12-3a15.31,15.31,0,0,1-2.41-8.81c.24-8.94.66-18.32,1.22-27.88.32-5.13.87-10.33,1.65-15.46.46-3.1,1.6-5.13,3.58-6.38a5.55,5.55,0,0,0,1.77-2.34c2.65-5.56,4.74-10.07,6.59-14.2a6.15,6.15,0,0,0,.53-3.37c-.18-1,0-1.29,1.33-1.55l.22,0,.19,0a25.41,25.41,0,0,1,2.55-.2,1.63,1.63,0,0,1,1,.18c.33.32.19,1.81,0,3.54-1.08,12.21-2,22.38-2.62,32.93-.37,5.84-.55,11.79-.73,17.54-.1,3.12-.19,6.24-.32,9.36-.09,2.35-.27,4.85-.58,7.88a3.77,3.77,0,0,1-.68,1.94c-2.27,2.76-2.62,6-2.79,9.36C118.74,140.46,118.76,142.39,118.79,144.26Zm-32.9-19.2c0,.11-.11.23-.17.34a3,3,0,0,0-.45,2.1c.53,1.69-.14,3.06-.92,4.64l-.31.65c-1.64,3.48-3.27,7-4.89,10.47-1.37,3-1.68,3.12-4.77,2.22a4.34,4.34,0,0,0-1-.15l-.19,0-.29-.1-1.29-.65c-1.65-.83-3.29-1.66-4.91-2.52-1.84-1-2-1.56-1.21-3.41,1.76-3.88,3.6-7.82,5.38-11.62l1.31-2.8.15-.35a5.85,5.85,0,0,1,.26-.57c2.2-1,3-2.87,3.62-4.57.18-.45.36-.9.56-1.33,6.67-14.21,13.6-29.08,20.59-44.21A7.36,7.36,0,0,0,97.85,71c0-.36.08-.71.15-1.06s.09-.46.13-.7a8.07,8.07,0,0,1,.47-1.82c2.06-4.5,4.22-9.06,6.31-13.46,1-2.21,1.6-2.44,3.9-1.62l1,.32c.48.16,1,.32,1.43.5s1,.43,1.48.66l.77.35.67.3.32-.67c.06-.14.14-.29.21-.43l.37-.69-6.47-3.13c1.08-3.7,3.3-6.63,5.5-9.32a1.13,1.13,0,0,1,.7-.36c.71.08,1.43.1,2.12.12,2.11.06,4.09.12,5.67,1.67a16,16,0,0,0,1.27,1.09c.24.19.49.39.73.6a5.33,5.33,0,0,1,2,4.44,5.15,5.15,0,0,1-2.47,4,4,4,0,0,1-1.82.23c-.46,0-1,0-1.46.05l-.52,0-.14.51a2.33,2.33,0,0,1-1.07,1.61,2.77,2.77,0,0,1-2.25-.26L116,55.14c.1.1.19.21.29.32a5.59,5.59,0,0,0,.73.73,2.84,2.84,0,0,1,.91,3.69c-1.87,4.12-3.82,8.3-5.7,12.33L111.39,74c-.1.21-.3.64-.34.7-2.26.64-3,2.43-3.61,4-.14.35-.28.69-.44,1Q96.47,102.3,86,124.91Zm-62-30.75c.28-.58.62-1.25,1-2.06C30.53,79.77,36.52,67.16,42.31,55l4.2-8.85c.38-.8.85-1.78,1.12-1.87h.08a8.24,8.24,0,0,1,2.06.81l.79.35a12.57,12.57,0,0,1,2.07,1.07,3.32,3.32,0,0,1,.8,1l.14.21c-.19,1.31-.37,2.58-.55,3.83-.46,3.19-.9,6.2-1.27,9.24-1,8.43-4.49,16.63-10.62,25.06a89.12,89.12,0,0,1-7.68,8.8c-1.28,1.34-2.59,2.72-3.85,4.12a1.3,1.3,0,0,1-1.83.36l-1.9-.85c-1.62-.7-2.78-1.21-2.91-1.58A5.67,5.67,0,0,1,23.84,94.31Zm14,65.12,2.91-1.74c3.11-1.88,6.05-3.65,9-5.3a11.39,11.39,0,0,0,5.06-5.46c4.72-10.12,9.56-20.39,14.24-30.33q4.77-10.14,9.53-20.28,10.08-21.51,20.11-43,5.41-11.6,10.82-23.18c.36-.76.76-1.52,1.2-2.36l.16-.29,4,2.17a1.18,1.18,0,0,1-.07.2,8,8,0,0,1-.52,1.3c-.89,1.74-1.73,3.54-2.55,5.29a68.82,68.82,0,0,1-6.47,11.77A65.78,65.78,0,0,0,98.88,60c-1,2.1-2,4.28-3.08,6.35a7.87,7.87,0,0,0-.72,2.63c-.06.4-.12.8-.21,1.19-.05.19-.09.39-.13.58a6.85,6.85,0,0,1-.41,1.47l-3.71,8C85,92.33,79.14,104.92,73.29,117.26a34.35,34.35,0,0,1-2.59,4.28c-.79,1.18-1.61,2.39-2.3,3.67-1.44,2.67-2.69,5.48-3.9,8.2l-.61,1.35c-.14.32-.29.64-.44,1a13.07,13.07,0,0,0-1.69,6.18,3.25,3.25,0,0,1-.47,1.36,10.39,10.39,0,0,0-.44,1c-.21.57-.43,1.14-.65,1.72a30.6,30.6,0,0,0-1.48,4.39,5.78,5.78,0,0,1-2.81,3.91c-3.76,2.34-7.49,4.92-10.69,7.15a2.48,2.48,0,0,1-3,.23c-1.14-.63-2.31-1.19-3.66-1.85Zm37.27-.53c-1.14,1.42-2.17,2.18-4.07,1.83-2.88-.5-5.67-1.09-8.09-2.76a16.45,16.45,0,0,0-2.1-1.23l0-.55a28.84,28.84,0,0,1,3.53-12.3l8.14,2.86,2.22,1.8h0a6.4,6.4,0,0,0-.57,1.84,3.19,3.19,0,0,0,.66,2.37A5,5,0,0,1,75.12,158.9ZM345.51,110l-6.39,1.39-.56.13c-.44-6.48-.87-12.71-1.32-19.16C340,98.29,342.69,104,345.51,110ZM164.29,88.88l23.57,2.71a3.27,3.27,0,0,1,2.5,1c-2.64-.36-5.3-.69-7.88-1C176.48,90.85,170.33,90.09,164.29,88.88Zm6.8,11.19a6.12,6.12,0,0,0,1-.65l.35-.25c2.62-1.75,3.86-2.59,5.31-2.59,1.2,0,2.53.57,4.91,1.66l-8.3,25.24c0-.09-.07-.19-.1-.28-2.72-7.93-4.08-14.16-4.43-20.22C169.77,101.28,170.07,100.57,171.09,100.07Zm24.79-6.36,1.92-2.64c2.2-3,4.47-6.13,6.61-9.27a4.43,4.43,0,0,1,4.2-2.21c8.91.16,17.59.09,24.91,0a3.49,3.49,0,0,1,3.4,1.74c1.56,2.24,3.18,4.48,4.75,6.65,1.31,1.81,2.62,3.62,3.91,5.45a6.12,6.12,0,0,0,1.92,1.86c-.82,0-1.66.12-2.49.21a2.85,2.85,0,0,1-3-1.43c-1.42-2-2.9-4-4.34-5.93-1.29-1.74-2.58-3.48-3.85-5.25a5.25,5.25,0,0,0-4.54-2.5h-.12c-6.51.08-11.79.08-16.62,0a5.76,5.76,0,0,0-5,2.85q-1.77,2.44-3.55,4.86-2.25,3.06-4.46,6.13a2.7,2.7,0,0,1-2.6,1.3c-.75,0-1.65,0-2.67-.12A6.46,6.46,0,0,0,195.88,93.71Zm.32,47.85c-5.56-4-11.06-8.29-16.39-12.44l-1.35-1a1.87,1.87,0,0,1-.34-1.35c2.3-7.78,4.44-14.76,6.54-21.32a2.86,2.86,0,0,1,1.4-1.39,20.84,20.84,0,0,1,2.49-.87,26.64,26.64,0,0,0,2.59-.91c.66-.29,2.23-1.09,2.64-2.3.31-.92.7-1.26,1.59-1.26a6,6,0,0,1,.79.06,5.22,5.22,0,0,0,5.29-2.47q2-2.79,4.07-5.55c1.41-1.9,2.87-3.87,4.27-5.83a3.22,3.22,0,0,1,3-1.61c4.92.07,10.22.08,16.18,0a3.09,3.09,0,0,1,2.82,1.43c1.28,1.8,2.62,3.6,3.91,5.34,1.42,1.9,2.88,3.87,4.27,5.84a5.74,5.74,0,0,0,5.9,2.83c1.12-.19,1.59.06,2,1a4.54,4.54,0,0,0,1.69,1.84c.22.16.43.32.64.5a2.14,2.14,0,0,0,1.11.41c4.08.5,6.25,2.74,7.26,7.52a107.38,107.38,0,0,0,3.23,11c.52,1.58,1.05,3.15,1.54,4.73.15.49.3,1,.5,1.59l0,.06a3.62,3.62,0,0,1-.59.73c-14.4,12.51-27.57,20.21-41.47,24.23a3.4,3.4,0,0,1-2-.08l-2.34-.85C210.12,148.87,202.6,146.17,196.2,141.56Zm63.7-43.7c1.48-.46,3-.93,4.53-1.28a2.66,2.66,0,0,1,1.61.5c5.68,3.17,5.68,3.17,5.38,9.55V107c-.18,3.7-2.6,12.22-4.19,16.22l-.59-1.79c-2.57-7.82-5.08-15.44-7.66-23.31Zm-66.31-9.14L196,85.36c1.9-2.67,3.86-5.43,5.74-8.19a3.34,3.34,0,0,1,3.13-1.69h0c8.23.06,17.28.07,28.46,0H237a3,3,0,0,1,2.8,1.4c1.92,2.8,3.92,5.61,5.85,8.33q1.29,1.8,2.58,3.63c.55.79,1,1.41.94,1.69a4,4,0,0,1-1.06,1.33,1.34,1.34,0,0,1-.11-.14c-.37-.44-.74-.88-1.08-1.33l-1.94-2.68c-2-2.72-4-5.53-6-8.35a6.23,6.23,0,0,0-5.63-2.94h-.14c-7.86.11-16,.12-24.88,0a6.09,6.09,0,0,0-5.55,2.84c-2,2.86-4,5.71-6.05,8.46L195,90.1c-.38.55-.8,1.07-1.25,1.64l-.13.17a4.1,4.1,0,0,1-1-1.43C192.57,90.17,193,89.63,193.59,88.72Zm64.67,3-7,1c.3-.71,1-.93,2-1.07q3.32-.42,6.64-.79l18.19-2.13C271.51,89.79,264.78,90.78,258.26,91.73Zm19.89,35.52c-4.8,3.95-10.17,8-16.39,12.49-2,1.44-4.15,2.93-6.51,4.56-3.51,2.42-7.12,4.85-10.5,7.12a32.22,32.22,0,0,1-6.48,3c-.92.35-1.84.7-2.74,1.07-1.87.79-3.75,1.55-5.63,2.31-2.48,1-5,2-7.42,3.07a3.59,3.59,0,0,1-3.08.09c-4.62-1.94-9.33-3.87-13.89-5.73l-7-2.87a9.14,9.14,0,0,1-1.64-.91l-4.38-3c-3.8-2.62-7.74-5.33-11.57-8.06-6.83-4.82-12.29-9-17.18-13a8.56,8.56,0,0,1-2.26-3.15c-4.56-10.59-6.05-22.08-7.49-33.19a18.25,18.25,0,0,1-.1-2.37v-.3a.08.08,0,0,1,0,0l1,.46A8.33,8.33,0,0,1,158,90.64a6.27,6.27,0,0,1,.82,3.1c.07.59.14,1.2.26,1.78l.12.57,2,.08.09-.67c.16-1.24.34-2.47.51-3.68,4,.12,4.6,1.33,4.76,5.29.19,4.59.8,9.22,1.4,13.71.17,1.29.34,2.58.5,3.86a8.94,8.94,0,0,0,.6,2.1,9.07,9.07,0,0,1,.5,1.62c.79,5,3.3,9,7.89,12.63l0,0,.8.61c2,1.48,4,3.06,5.92,4.59,5,3.93,10.1,8,15.93,10.88,4.79,2.38,9.86,4.41,14.75,6.37,1.54.61,3.09,1.23,4.62,1.86a4.74,4.74,0,0,0,3-.13c8.31-2.94,17.73-6.28,25.65-12.05,3.41-2.48,6.78-5.15,10-7.72,2.69-2.12,5.46-4.32,8.25-6.4,2.42-1.82,3.59-4.13,4.61-7a81.22,81.22,0,0,0,4.16-22.57,9.33,9.33,0,0,0-.24-3.3c-.26-.86,0-1.33.62-2.42.92-1.57,2.19-2,4.25-2,.07.58.13,1.14.19,1.7l.3,2.62.61,0,.73.07.68.08.15-.66c.06-.27.14-.54.22-.81a5.94,5.94,0,0,0,.38-2.11c-.11-1.59.52-2.49,2.15-3.11.77-.29,1.49-.64,2.4-1.08l.18-.1c-.05.65-.1,1.28-.15,1.9-.19,2.23-.36,4.33-.67,6.37l-.23,1.52a119.39,119.39,0,0,1-2.26,12.28c-1.08,4.25-2.56,8.49-4,12.59l-.85,2.47A5.09,5.09,0,0,1,278.15,127.25ZM104.34,92.64l-1.18,18.92-7-1.49Zm125.41,100c-2.41.79-4.9,1.62-7.37,2.36a4.56,4.56,0,0,1-2.51.17c-4.56-1.39-9.18-2.9-13.64-4.36l-3.43-1.12a1.2,1.2,0,0,1-.21-.14l.52-.74a34.4,34.4,0,0,1,2.41-3.18s.28-.23,1.57-.2,2.45.1,3.67.16c1.74.1,3.53.2,5.31.18,5.45,0,11.31-.11,17.18-.41,2.44-.11,3.66.49,4.5,2.23a11.35,11.35,0,0,0,1.19,1.83l.13.18-1.73.56-4.48,1.45Zm153.68-40.89c-1.3-3.36-2.37-6.34-3.28-9.09-.31-.93-.54-1.92-.77-2.88a27,27,0,0,0-1.27-4.23,123.51,123.51,0,0,0-5.93-12.6c-.72-1.29-1.55-2.51-2.35-3.7a37,37,0,0,1-3.05-5.12c-4.52-9.93-9.2-20-13.73-29.7l-5.67-12.21-.2-.38a2.53,2.53,0,0,1-.22-.44c.13-3.38-1.33-6.13-2.74-8.8a33.46,33.46,0,0,1-1.82-3.83,42.53,42.53,0,0,0-2.53-5.45A22.49,22.49,0,0,0,338,50.66l-.67-.9a3,3,0,0,0-.49-.51,1.91,1.91,0,0,1-.32-.34L329.67,36l-3.26-6.15,4.21-2.34.21-.12,1.11,2.39c.88,1.88,1.69,3.63,2.52,5.39L373.75,119c4.33,9.22,8.81,18.75,13.17,28.15a10.65,10.65,0,0,0,4.69,5.12c2.95,1.63,5.9,3.41,8.76,5.13l2.72,1.64a5.18,5.18,0,0,1,.71.53l-.9.44c-1.54.75-3,1.47-4.48,2a2.53,2.53,0,0,1-1.65-.48c-4-2.59-8.08-5.32-12.14-8.11A3.75,3.75,0,0,1,383.43,151.78Zm19.23-90.6c3.88,8.34,7.75,16.85,11.49,25.09L417.67,94c.14.31.26.62.38.94s.24.65.38,1a1.23,1.23,0,0,1,.14.82,1,1,0,0,1-.58.46c-.51.22-1,.46-1.51.69a20.39,20.39,0,0,1-2.87,1.2,1.87,1.87,0,0,1-1.42-.39c-.65-.7-1.31-1.4-2-2.09-5.89-6.26-12-12.72-15.66-20.7-2.05-4.43-4-9.27-4.55-14.59-.4-4-1-8-1.63-11.82l-.14-.88c-.2-1.37.11-2,1.23-2.44s2.11-.93,3.21-1.47c.35-.16.7-.34,1.07-.52l.18.19a5.65,5.65,0,0,1,1,1.21l1.4,2.75C398.43,52.53,400.65,56.85,402.66,61.18ZM189.85,142.56l.52.48-1.44,1.77-.57-.4c-.92-.64-1.84-1.27-2.77-1.89-1.37-.93-2.79-1.89-4.16-2.88-.77-.55-1.52-1.11-2.27-1.68-2.92-2.28-5.81-4.7-8.61-7.05l-3.29-2.75A9.13,9.13,0,0,1,164,119l.51-2.27.91,2.14c.17.41.36.81.54,1.21a24.35,24.35,0,0,1,1.17,2.92,6.27,6.27,0,0,0,2.27,3.34q3.66,2.81,7.31,5.66c2.4,1.86,4.78,3.73,7.17,5.59l3.52,2.76c.6.48,1.15,1,1.69,1.52Zm87.91-23.87.83.24-.15.68c-.1.47-.18,1-.26,1.45-.36,2.15-.78,4.6-2.87,6.27-4.74,3.79-9.53,7.51-14.43,11.31l-6.18,4.78a5.12,5.12,0,0,1-1.16.64l-.46.22-.51.26-.39-.42a5,5,0,0,1-.39-.46l-.42-.53.48-.47c.24-.23.46-.46.69-.7a17.43,17.43,0,0,1,1.77-1.65l1.46-1.15c3.85-3,7.68-6,11.54-9l4.94-3.8a6.26,6.26,0,0,0,2.3-3.39,22,22,0,0,1,1.11-2.84c.17-.4.35-.8.51-1.2l.27-.65.66.22C277.32,118.56,277.55,118.62,277.76,118.69Z"/></svg>