<svg xmlns="http://www.w3.org/2000/svg" viewBox="0 0 407.47 426.8"><defs><style>.st0{fill:#fff;}</style></defs><title>Coin</title><path class="st0" d="M407,203.4c-.33-3.1-.49-6.29-.65-9.41a111.55,111.55,0,0,0-1.58-15.81c-.51-2.64-1-5.37-1.46-8a206.89,206.89,0,0,0-4.54-21A246.61,246.61,0,0,0,378.16,98.6a196,196,0,0,0-25.61-36.39C342.26,50.74,333,42,323.26,34.76a178.37,178.37,0,0,0-35.68-21.07c-12.94-5.65-23.79-9-34.11-10.61q-2.67-.41-5.32-.86C239.76.82,231.09-.63,221.6.28c-1,0-2,0-3.21-.1a48.24,48.24,0,0,0-9.46.25c-12.15,1.88-23.09,3.65-34,6.27l-1.82.44c-14.23,3.41-28.94,6.94-43.21,11.52A162.3,162.3,0,0,0,91,37.22,177.56,177.56,0,0,0,56.43,66.51C42.56,81.82,32.79,95.63,25.69,110c-.84,1.71-1.79,3.44-2.71,5.11l-.11.2a77.59,77.59,0,0,0-5.12,10.52c-.55,1.48-1.09,3-1.64,4.43l0,.06C11.59,142.4,6.94,154.91,5,168.16c-.41,2.78-.91,5.66-1.36,8.23-.56,3.22-1.14,6.55-1.6,9.87-.39,2.83-.56,5.68-.73,8.43v.22l-.18,2.92c-.06.92-.13,1.84-.19,2.77l-.1,1.29c-.29,4-.62,8.59-.77,13.08a45.47,45.47,0,0,0,.36,6.25v.1c.08.88.17,1.76.24,2.64.14,2,.24,4.1.34,6.24a127.45,127.45,0,0,0,1.2,14.05,243.34,243.34,0,0,0,5.91,28.07,221.54,221.54,0,0,0,18.32,45.8,194.74,194.74,0,0,0,28.52,40.05c.73.79,1.47,1.58,2.2,2.38l.13.13A148.48,148.48,0,0,0,70.8,374.13C84.73,385.75,97.28,394,110.3,400l1.94.91.15.08c1.93.91,3.92,1.85,6,2.65,14,5.42,28.6,9.18,42.71,12.82l5.27,1.36a301.6,301.6,0,0,0,40,7.94,136.44,136.44,0,0,0,16.4,1,110.84,110.84,0,0,0,17.88-1.4l5.28-.82.27,0a163.93,163.93,0,0,0,17.37-3.33c15.93-4.25,29.46-9.92,41.36-17.35,9-5.61,18.48-11.79,26.85-19a214.6,214.6,0,0,0,28.18-29.48,208.48,208.48,0,0,0,22.27-34.91,222.66,222.66,0,0,0,20.38-59.34c.33-1.76.7-3.57,1.05-5.26A97.94,97.94,0,0,0,406,240c.14-3.42.39-6.92.64-10.29l0-.38C407.29,220.89,407.93,212.18,407,203.4ZM42.85,329c-1.87-2.85-3.71-5.64-5.61-8.41h0a10.09,10.09,0,0,1-.67-1.26c-.22-.47-.48-1-.79-1.52C27.9,304.6,22.6,290.31,17.06,272.91a93.53,93.53,0,0,1-2.53-11.1l0-.14c-.47-2.54-1-5.17-1.59-7.75-2.4-9.86-3-20.14-3.28-28.89,0-1.66-.14-3.33-.24-4.95l0-.69a96.79,96.79,0,0,1-.27-9.87c.69-16.36,2.18-29.69,4.71-42a210.54,210.54,0,0,1,12.52-39.77,193.44,193.44,0,0,1,20.63-37A200.14,200.14,0,0,1,73.3,60.79a142.76,142.76,0,0,1,18.2-14,209.13,209.13,0,0,1,19.73-11.32,141.24,141.24,0,0,1,22.38-9,164.12,164.12,0,0,0-19.18,14.43,258.84,258.84,0,0,0-21.5,21.17c-10,11.06-19.05,24-27.53,39.47C56.35,118,50.47,135.45,46.35,148.78a143.13,143.13,0,0,0-3.77,16.81l-.06.31c-.48,2.6-1,5.3-1.53,7.91-1.73,8.13-2.13,16.4-2.52,24.41-.07,1.55-.15,3.1-.23,4.64-.06,1-.16,2.15-.26,3.21l0,.38a50,50,0,0,0-.31,7.08l.21,4.76c.35,7.83.72,15.93,1.79,23.88,1.66,12.2,3.81,23.87,6.39,34.7,1.88,7.86,4.88,15.46,7.78,22.82l.37.93c1.58,4,3.44,7.93,5.23,11.72l.07.15c1.09,2.29,2.32,4.89,3.43,7.4,5.46,12.38,13.38,23.26,21,33.77l.36.5c2.06,2.83,4.34,5.46,6.54,8l1.71,2c10.64,12.43,23.61,23.91,39.66,35.09.47.33.94.64,1.42,1q-7.57-2.52-15.32-5.85a168.11,168.11,0,0,1-61.92-46.26A215,215,0,0,1,42.85,329Zm210.94,51.9-.53.1c-9.6,2-19.53,4-29.36,2.79l-3-.36-.09.69c-2.06-.29-4.14-.55-6.26-.82a167.5,167.5,0,0,1-20.66-3.5c-9-2.32-18-6.35-25.9-9.91l-.09,0c-11.09-5-20.83-12.21-32-21.53a43.56,43.56,0,0,1-4.18-4.2l-.06-.06c-1.08-1.17-2.19-2.38-3.4-3.52-8.48-8-15.07-17.61-20-25.67A152.77,152.77,0,0,0,138,346.12a137.87,137.87,0,0,0,33.88,19.7,124.26,124.26,0,0,0,33.78,8.24,110.53,110.53,0,0,0,11.2.57A115.42,115.42,0,0,0,241.26,372a129.47,129.47,0,0,0,43.93-18.42,154.53,154.53,0,0,0,40.08-38.79A162,162,0,0,0,341.5,286.4h0A179.7,179.7,0,0,0,352,255.6c2.17-8.67,3.19-17.65,4.18-26.33l.05-.41a115.43,115.43,0,0,0,.7-19.25A231.15,231.15,0,0,0,353.87,180a174.37,174.37,0,0,0-8.53-30.69,162.13,162.13,0,0,0-25.84-45.08,169.47,169.47,0,0,0-26.34-25.69,122,122,0,0,0-30.92-17.71c-15.84-6.16-31-9.16-46.31-9.16l-1,.07-4.79.52-.16,0c-3.78.41-7.68.82-11.51,1.28A109.34,109.34,0,0,0,165,63.47a138.51,138.51,0,0,0-39,27.45,168,168,0,0,0-17.71,20.53c.75-1.18,1.52-2.34,2.29-3.48,7.87-11.5,15.25-20.29,23.22-27.68a142.45,142.45,0,0,1,57.85-33.06A91.11,91.11,0,0,1,209,43.86a232.53,232.53,0,0,1,23.6-1.29h1.82a52.13,52.13,0,0,1,9,1.19c2.09.41,4.26.82,6.48,1.08,9.2,1,18.12,4.42,25.75,7.5a138.64,138.64,0,0,1,29,16.26,149.67,149.67,0,0,1,32.06,31.86,172.07,172.07,0,0,1,21.59,38.28,197.43,197.43,0,0,1,14.52,79.72,194.22,194.22,0,0,1-3.29,31.74,190.19,190.19,0,0,1-9.15,32.52,173.25,173.25,0,0,1-19.11,37,149.93,149.93,0,0,1-24.94,28.75,151.64,151.64,0,0,1-32.58,21.9A124,124,0,0,1,253.79,380.92Z"/></svg>