<?xml version="1.0" encoding="UTF-8" standalone="no"?>
<svg
   xmlns:dc="http://purl.org/dc/elements/1.1/"
   xmlns:cc="http://creativecommons.org/ns#"
   xmlns:rdf="http://www.w3.org/1999/02/22-rdf-syntax-ns#"
   xmlns:svg="http://www.w3.org/2000/svg"
   xmlns="http://www.w3.org/2000/svg"
   version="1.1"
   id="Layer_1"
   width="256"
   height="256"
   viewBox="0 0 256 256">
   
<style type="text/css">
	.st0{fill:#FFFFFF;}
</style>

  <g
     transform="matrix(1.9,0,0,1.9,-183.32378,-183.3118)"
     id="g2508">
    <path class="st0"
       d="m 155.84,205.80051 c -4.59213,-0.78657 -5.29228,-1.00327 -9.44,-2.92168 -7.21941,-3.33915 -7.63075,-3.63133 -14.35118,-10.19408 -2.77918,-2.71397 -2.89026,-2.88231 -6.04746,-9.16476 -1.81306,-3.60776 -3.47228,-7.37728 -3.80305,-8.64 -0.44951,-1.71598 -0.63642,-4.03663 -0.79898,-9.92 -0.25074,-9.07498 -0.11859,-9.91187 2.63501,-16.68697 3.22602,-7.93749 3.66768,-8.63765 9.0465,-14.34164 3.62934,-3.84874 4.55037,-4.56781 9.44911,-7.3772 3.19499,-1.8323 4.58872,-2.40863 8.63475,-3.57059 9.57189,-2.74892 17.55144,-2.56991 26.91529,0.6038 4.44963,1.50811 5.13994,1.85559 9.45701,4.76038 2.56136,1.72344 5.01796,3.49447 5.45912,3.93563 1.98599,1.98599 8.31749,10.49142 9.09005,12.21114 0.93472,2.08069 2.64258,7.72272 3.66501,12.10764 0.94444,4.05046 0.86044,8.10682 -0.30561,14.75781 -1.53533,8.75732 -1.70106,9.16814 -6.89594,17.09302 -2.96243,4.51922 -4.165,5.76574 -9.42909,9.77364 -4.39851,3.34887 -4.75432,3.53851 -10.79532,5.75381 -4.43867,1.62771 -5.03819,1.76331 -9.88601,2.23616 -6.40902,0.62512 -6.54688,0.62057 -12.59921,-0.41611 z"
    />
  </g>
</svg>
