<?xml version="1.0" encoding="utf-8"?>
<!-- Generator: Adobe Illustrator 24.2.3, SVG Export Plug-In . SVG Version: 6.00 Build 0)  -->
<svg version="1.1" id="Layer_1" xmlns="http://www.w3.org/2000/svg" xmlns:xlink="http://www.w3.org/1999/xlink" x="0px" y="0px"
	 viewBox="0 0 407.5 426.8" style="enable-background:new 0 0 407.5 426.8;" xml:space="preserve">
<style type="text/css">
	.st0{fill:#FFFFFF;}
</style>
<path class="st0" d="M407,203.4c-0.3-3.1-0.5-6.3-0.6-9.4c-0.2-5.3-0.7-10.6-1.6-15.8c-0.5-2.6-1-5.4-1.5-8
	c-1.1-7.1-2.7-14.1-4.5-21c-5-17.6-11.9-34.5-20.6-50.6c-7.1-13.1-15.7-25.3-25.6-36.4C342.3,50.7,333,42,323.3,34.8
	c-11-8.4-23-15.5-35.7-21.1c-12.9-5.7-23.8-9-34.1-10.6c-1.8-0.3-3.6-0.6-5.3-0.9c-8.4-1.4-17.1-2.8-26.5-1.9c-1,0-2,0-3.2-0.1
	c-3.2-0.2-6.3-0.1-9.5,0.3c-12.1,1.9-23.1,3.7-34,6.3l-1.8,0.4c-14.2,3.4-28.9,6.9-43.2,11.5c-13.7,4.4-26.8,10.7-38.9,18.6
	c-12.7,8.2-24.3,18.1-34.6,29.3C42.6,81.8,32.8,95.6,25.7,110c-0.8,1.7-1.8,3.4-2.7,5.1l-0.1,0.2c-2,3.4-3.7,6.9-5.1,10.5
	c-0.5,1.5-1.1,3-1.6,4.4v0.1c-4.5,12.1-9.2,24.6-11.1,37.8c-0.4,2.8-0.9,5.7-1.4,8.2c-0.6,3.2-1.1,6.5-1.6,9.9
	c-0.4,2.8-0.6,5.7-0.7,8.4v0.2l-0.2,2.9c-0.1,0.9-0.1,1.8-0.2,2.8l-0.1,1.3c-0.3,4-0.6,8.6-0.8,13.1c0,2.1,0.1,4.2,0.4,6.3v0.1
	c0.1,0.9,0.2,1.8,0.2,2.6c0.1,2,0.2,4.1,0.3,6.2c0.1,4.7,0.5,9.4,1.2,14c1.4,9.5,3.4,18.8,5.9,28.1c4.4,15.9,10.5,31.3,18.3,45.8
	c7.8,14.5,17.4,28,28.5,40c0.7,0.8,1.5,1.6,2.2,2.4l0.1,0.1c4.2,4.8,8.7,9.3,13.5,13.5c13.9,11.6,26.5,19.9,39.5,25.9l1.9,0.9
	l0.2,0.1c1.9,0.9,3.9,1.8,6,2.6c14,5.4,28.6,9.2,42.7,12.8l5.3,1.4c13.1,3.5,26.5,6.2,40,7.9c5.4,0.7,10.9,1,16.4,1
	c6,0,12-0.5,17.9-1.4l5.3-0.8h0.3c5.8-0.8,11.6-1.9,17.4-3.3c15.9-4.3,29.5-9.9,41.4-17.3c9-5.6,18.5-11.8,26.9-19
	c10.3-8.9,19.7-18.8,28.2-29.5c8.6-10.9,16-22.6,22.3-34.9c9.6-18.7,16.4-38.7,20.4-59.3c0.3-1.8,0.7-3.6,1-5.3
	c1.2-5.2,2-10.5,2.3-15.9c0.1-3.4,0.4-6.9,0.6-10.3v-0.4C407.3,220.9,407.9,212.2,407,203.4z M118.3,394.4
	c-24-10.4-45.2-26.2-61.9-46.3C51.5,342,47,335.6,42.8,329c-1.9-2.9-3.7-5.6-5.6-8.4c-0.3-0.4-0.5-0.8-0.7-1.3
	c-0.2-0.5-0.5-1-0.8-1.5c-7.9-13.2-13.2-27.5-18.7-44.9c-1.1-3.6-1.9-7.4-2.5-11.1v-0.1c-0.5-2.5-1-5.2-1.6-7.8
	c-2.4-9.9-3-20.1-3.3-28.9c0-1.7-0.1-3.3-0.2-5v-0.7c-0.3-3.3-0.3-6.6-0.3-9.9c0.7-16.4,2.2-29.7,4.7-42c2.8-13.6,7-27,12.5-39.8
	c5.5-13.1,12.4-25.5,20.6-37c7.7-10.8,16.6-20.9,26.3-30c5.7-5.1,11.8-9.8,18.2-14c6.4-4.1,13-7.9,19.7-11.3
	c7.2-3.6,14.7-6.6,22.4-9c-6.7,4.3-13.1,9.2-19.2,14.4c-7.6,6.6-14.8,13.7-21.5,21.2c-10,11.1-19,24-27.5,39.5
	c-9.1,16.5-14.9,33.9-19.1,47.2c-1.6,5.5-2.9,11.1-3.8,16.8l-0.1,0.3c-0.5,2.6-1,5.3-1.5,7.9c-1.7,8.1-2.1,16.4-2.5,24.4
	c-0.1,1.6-0.1,3.1-0.2,4.6c-0.1,1-0.2,2.2-0.3,3.2v0.4c-0.3,2.3-0.4,4.7-0.3,7.1l0.2,4.8c0.3,7.8,0.7,15.9,1.8,23.9
	c1.7,12.2,3.8,23.9,6.4,34.7c1.9,7.9,4.9,15.5,7.8,22.8l0.4,0.9c1.6,4,3.4,7.9,5.2,11.7l0.1,0.1c1.1,2.3,2.3,4.9,3.4,7.4
	c5.5,12.4,13.4,23.3,21,33.8l0.4,0.5c2.1,2.8,4.3,5.5,6.5,8l1.7,2c10.6,12.4,23.6,23.9,39.7,35.1c0.5,0.3,0.9,0.6,1.4,1
	C128.6,398.6,123.5,396.6,118.3,394.4z M372.8,218.5c-0.2,10.7-1.3,21.3-3.3,31.7c-2.1,11.1-5.1,22-9.2,32.5
	c-4.9,13.1-11.3,25.5-19.1,37c-7.1,10.6-15.4,20.3-24.9,28.8c-9.9,8.7-20.8,16-32.6,21.9c-9.5,4.8-19.6,8.3-30,10.5l0,0l-0.5,0.1
	c-9.6,2-19.5,4-29.4,2.8l-3-0.4l-0.1,0.7c-2.1-0.3-4.1-0.5-6.3-0.8c-7-0.7-13.9-1.9-20.7-3.5c-9-2.3-18-6.3-25.9-9.9h-0.1
	c-11.1-5-20.8-12.2-32-21.5c-1.5-1.3-2.9-2.7-4.2-4.2l-0.1-0.1c-1.1-1.2-2.2-2.4-3.4-3.5c-8.5-8-15.1-17.6-20-25.7
	c8.4,11.8,18.4,22.3,29.7,31.2c10.3,8.1,21.7,14.8,33.9,19.7c10.8,4.3,22.2,7.1,33.8,8.2c3.7,0.4,7.5,0.6,11.2,0.6
	c8.2,0,16.4-0.9,24.4-2.6c15.7-3.4,30.6-9.6,43.9-18.4c15.6-10.4,29.2-23.5,40.1-38.8c6.4-8.9,11.8-18.4,16.2-28.4
	c4.4-9.9,7.9-20.2,10.5-30.8c2.2-8.7,3.2-17.6,4.2-26.3l0-0.4c0.8-6.4,1-12.8,0.7-19.3c-0.4-9.9-1.4-19.8-3.1-29.6
	c-1.9-10.5-4.8-20.7-8.5-30.7c-6.1-16.3-14.9-31.5-25.8-45.1c-7.8-9.5-16.7-18.1-26.3-25.7c-9.4-7.4-19.8-13.4-30.9-17.7
	c-15.8-6.2-31-9.2-46.3-9.2l-1,0.1l-4.8,0.5H210c-3.8,0.4-7.7,0.8-11.5,1.3c-11.6,1.5-22.9,4.8-33.5,9.9
	c-14.5,6.8-27.7,16.1-39,27.5c-6.4,6.4-12.4,13.2-17.7,20.5c0.8-1.2,1.5-2.3,2.3-3.5c7.9-11.5,15.3-20.3,23.2-27.7
	c16.4-15.4,36.2-26.8,57.9-33.1c5.7-1.7,11.5-2.8,17.3-3.4c7.8-0.8,15.7-1.3,23.6-1.3h1.8c3,0.1,6,0.5,9,1.2
	c2.1,0.4,4.3,0.8,6.5,1.1c9.2,1,18.1,4.4,25.8,7.5c10.3,4.2,20,9.7,29,16.3c12.2,8.9,23,19.7,32.1,31.9
	c8.8,11.8,16.1,24.6,21.6,38.3C368.6,164,373.5,191.2,372.8,218.5z"/>
</svg>
