<?xml version="1.0" encoding="utf-8"?>
<!-- Generator: Adobe Illustrator 24.0.1, SVG Export Plug-In . SVG Version: 6.00 Build 0)  -->
<svg version="1.1" id="Layer_1" xmlns="http://www.w3.org/2000/svg" xmlns:xlink="http://www.w3.org/1999/xlink" x="0px" y="0px"
	 viewBox="0 0 512 512" style="enable-background:new 0 0 512 512;" xml:space="preserve">
<style type="text/css">
	.st0{fill:#FFFFFF;}
</style>
<g>
	<path class="st0" d="M10.42,202.02c-0.5,3.47,50.69,113.48,68.96,114.71c18.26,1.23,15.01-10.59,30.7-11.15
		c15.69-0.56,40.4,5.15,51.04-4.65s10.95-13.34,10.95-13.34s-20.42-14.28-17.17-46.44c3.25-32.16,25.1-80.06,18.26-86.73
		c-6.84-6.67-47.29-30.98-47.29-30.98L91.3,131.9c0,0-3.08,45.66-31.32,64.26S10.42,202.02,10.42,202.02z"/>
</g>
<g>
	<path class="st0" d="M99.89,369.99c0,0,45.12,23.86,64.36,12.56c19.24-11.3,23.55-29.83,23.55-29.83l12.56-7.85
		c0,0-9.42,31.39,15.7,40.81c14.34,1.95-96.5,44.24-96.5,44.24s-24.1-7.23-30.76-16.38S99.89,369.99,99.89,369.99z"/>
</g>
<g>
	<path class="st0" d="M206.64,330.74c0,0,6.28-6.28,15.7-7.85c9.42-1.57,19.25,0.42,19.25,0.42l12.35-28.91
		c0,0,4.35-11.78-0.61-11.94c-2.45-0.08-20.48-0.09-36.29,2.96c-16.2,3.12-30.16,9.31-30.16,9.31L206.64,330.74z"/>
</g>
<g>
	<path class="st0" d="M261.58,360.57c0,0,0-6.28-1.57-12.56c-1.57-6.28-5.14-11.83-5.14-11.83s17.29,3.04,21.09-7.27
		s9.63-21.54,9.63-21.54l24.65,9.25L261.58,360.57z"/>
</g>
<g>
	<path class="st0" d="M287.38,297.99l32.39,11.97l22.59-38.51c0,0-7.97-14.66-10.53-12.26c-2.56,2.4-38.7,14.15-39.78,17.1
		C290.96,279.23,287.38,297.99,287.38,297.99z"/>
</g>
<g>
	<circle class="st0" cx="229.74" cy="355.29" r="17.71"/>
</g>
<g>
	<path class="st0" d="M262.8,294.44l14.21-3.79l2.45-11.81c0,0-12.18,0.52-12.73,1.99C266.19,282.31,262.8,294.44,262.8,294.44z"/>
</g>
<g>
	<polygon class="st0" points="502,367.63 341.93,357.62 343.3,335.69 434.38,341.38 371.59,290.8 426.92,219.28 333.04,228.64 
		299.83,149.29 279.11,224.59 257.92,218.76 295.53,82.09 347.04,205.16 475.55,192.34 402.16,287.21 	"/>
</g>
</svg>
