<?xml version="1.0" encoding="utf-8"?>
<!-- Generator: Adobe Illustrator 24.0.1, SVG Export Plug-In . SVG Version: 6.00 Build 0)  -->
<svg version="1.1" id="Layer_1" xmlns="http://www.w3.org/2000/svg" xmlns:xlink="http://www.w3.org/1999/xlink" x="0px" y="0px"
	 viewBox="0 0 2048 2048" style="enable-background:new 0 0 2048 2048;" xml:space="preserve">
	<path d="M1748.67,1733.95H299.99c-72.58,0-131.41-58.83-131.41-131.41V446.41c0-72.58,58.83-131.41,131.41-131.41h1448.68
		c72.58,0,131.41,58.83,131.41,131.41v1156.13C1880.08,1675.12,1821.25,1733.95,1748.67,1733.95z" style="fill:#000000;"/>
	<path class="st0" d="M1661.06,1623.38H399.13c-58.63,0-106.15-47.53-106.15-106.15V527.55c0-49.96,40.5-90.46,90.46-90.46h1295.85
		c48.56,0,87.92,39.36,87.92,87.92v992.23C1767.21,1575.86,1719.68,1623.38,1661.06,1623.38z" style="fill:#EF0023;"/>
	<polygon class="st1" points="1140.04,1530.55 935.1,812.13 815.63,1272.92 662.93,1050.94 533.77,1179.18 368.3,994.71 
		424.88,943.95 536.96,1068.89 673.96,932.86 783.85,1092.6 931.59,522.74 1145.89,1273.95 1261.78,928.25 1455.8,1072.31 
		1610.2,928.64 1661.98,984.29 1461.28,1171.05 1300.56,1051.73" style="fill:#FFFFFF;"/>
</svg>