<?xml version="1.0" encoding="utf-8"?>
<!-- Generator: Adobe Illustrator 21.0.1, SVG Export Plug-In . SVG Version: 6.00 Build 0)  -->
<svg version="1.1" id="Layer_1" xmlns="http://www.w3.org/2000/svg" xmlns:xlink="http://www.w3.org/1999/xlink" x="0px" y="0px"
	 viewBox="0 0 256 256" style="enable-background:new 0 0 256 256;" xml:space="preserve">
<style type="text/css">
	.st0{fill:#FFFFFF;}
</style>
<path class="st0" d="M179.1,97.5V64.9c0-22-17.9-39.9-39.9-39.9h-25.6c-22,0-39.9,17.9-39.9,39.9v32.7H28.8V223h200.3V97.5H179.1z
	 M140.1,161.4l3.8,34h-31.1l3.9-34.8c-6.4-4.1-10.6-11.2-10.6-19.4c0-12.7,10.3-23,23-23s23,10.3,23,23
	C152,149.9,147.2,157.5,140.1,161.4z M156.1,97.5H96.8V64.9c0-9.3,7.6-16.8,16.8-16.8h25.6c9.3,0,16.8,7.6,16.8,16.8V97.5z"/>
<g>
</g>
<g>
</g>
<g>
</g>
<g>
</g>
<g>
</g>
<g>
</g>
<g>
</g>
<g>
</g>
<g>
</g>
<g>
</g>
<g>
</g>
<g>
</g>
<g>
</g>
<g>
</g>
<g>
</g>
</svg>
