<svg xmlns="http://www.w3.org/2000/svg" width="25" height="25" viewBox="0 0 25 25" id="Layer_1">
    <defs><style>.a{fill:#a1a3a7;}</style></defs>
    <g transform="translate(0 0)">
        <path fill="rgba(255,255,255,0.800)" class="a" d="M23.72,9.877l-1.755-.3a9.908,9.908,0,0,0-.705-1.7L22.295,6.43a1.54,1.54,0,0,0-.167-1.99L20.571,2.884a1.533,1.533,0,0,0-1.091-.454,1.517,1.517,0,0,0-.893.287L17.135,3.751a9.805,9.805,0,0,0-1.765-.726l-.292-1.734A1.543,1.543,0,0,0,13.552,0h-2.2a1.543,1.543,0,0,0-1.525,1.29l-.3,1.776a9.664,9.664,0,0,0-1.7.715L6.392,2.748a1.543,1.543,0,0,0-1.99.167L2.841,4.471a1.546,1.546,0,0,0-.167,1.99L3.718,7.929a9.678,9.678,0,0,0-.695,1.708L1.29,9.929A1.543,1.543,0,0,0,0,11.454v2.2a1.543,1.543,0,0,0,1.29,1.525l1.776.3a9.664,9.664,0,0,0,.715,1.7L2.752,18.609a1.54,1.54,0,0,0,.167,1.99l1.556,1.556a1.533,1.533,0,0,0,1.091.454,1.517,1.517,0,0,0,.893-.287l1.468-1.044a9.88,9.88,0,0,0,1.65.679l.292,1.755A1.543,1.543,0,0,0,11.4,25h2.2a1.543,1.543,0,0,0,1.525-1.29l.3-1.755a9.908,9.908,0,0,0,1.7-.705l1.447,1.034a1.533,1.533,0,0,0,.9.287h0a1.533,1.533,0,0,0,1.091-.454l1.556-1.556a1.546,1.546,0,0,0,.167-1.99L21.25,17.12a9.837,9.837,0,0,0,.705-1.7l1.755-.292A1.543,1.543,0,0,0,25,13.6V11.4A1.524,1.524,0,0,0,23.72,9.877ZM23.6,13.6a.135.135,0,0,1-.115.136l-2.193.366a.7.7,0,0,0-.564.517,8.36,8.36,0,0,1-.909,2.188.706.706,0,0,0,.031.768l1.29,1.817a.142.142,0,0,1-.016.178l-1.556,1.556a.133.133,0,0,1-.1.042.128.128,0,0,1-.078-.026l-1.812-1.29a.706.706,0,0,0-.768-.031,8.36,8.36,0,0,1-2.188.909.693.693,0,0,0-.517.564l-.371,2.193a.135.135,0,0,1-.136.115H11.4a.135.135,0,0,1-.136-.115L10.9,21.293a.7.7,0,0,0-.517-.564,8.681,8.681,0,0,1-2.141-.877.723.723,0,0,0-.355-.094.688.688,0,0,0-.407.131l-1.828,1.3a.155.155,0,0,1-.078.026.14.14,0,0,1-.1-.042L3.917,19.616a.142.142,0,0,1-.016-.178l1.285-1.8a.715.715,0,0,0,.031-.773A8.282,8.282,0,0,1,4.3,14.681a.715.715,0,0,0-.564-.517l-2.209-.376a.135.135,0,0,1-.115-.136v-2.2a.135.135,0,0,1,.115-.136L3.7,10.952a.706.706,0,0,0,.569-.522,8.352,8.352,0,0,1,.893-2.193.7.7,0,0,0-.037-.762l-1.3-1.828a.142.142,0,0,1,.016-.178L5.4,3.913a.133.133,0,0,1,.1-.042.128.128,0,0,1,.078.026l1.8,1.285a.715.715,0,0,0,.773.031,8.282,8.282,0,0,1,2.183-.919.715.715,0,0,0,.517-.564l.376-2.209a.135.135,0,0,1,.136-.115h2.2a.135.135,0,0,1,.136.115L14.064,3.7a.706.706,0,0,0,.522.569,8.477,8.477,0,0,1,2.24.919.706.706,0,0,0,.768-.031l1.8-1.3a.155.155,0,0,1,.078-.026.14.14,0,0,1,.1.042L21.13,5.432a.142.142,0,0,1,.016.178l-1.29,1.812a.706.706,0,0,0-.031.768,8.36,8.36,0,0,1,.909,2.188.693.693,0,0,0,.564.517l2.193.371a.135.135,0,0,1,.115.136v2.2Z" transform="translate(0 -0.001)"/><path class="a" d="M141.912,136a5.812,5.812,0,1,0,5.812,5.812A5.816,5.816,0,0,0,141.912,136Zm0,10.105a4.293,4.293,0,1,1,4.293-4.293A4.3,4.3,0,0,1,141.912,146.107Z" transform="translate(-129.41 -129.316)"/></g></svg>
