<svg viewBox="0 0 256 256" xmlns="http://www.w3.org/2000/svg"><style>.st0{fill:#fff}</style><path class="st0" d="M220.1 100c-1.9-1.5-3.8-3-5.8-4.3-.7-.5-1.9-.7-2.7-.4-3.9 1.2-7.6 2.6-11.5 3.8-2.5.8-4.6 2-6.3 4.1-3.9 4.5-8 8.7-11.9 13.3-1.4 1.6-2.6 3.6-3.3 5.7-2.9 8.5-5.5 17.2-8.3 25.8-.4 1.2-1 2.4-1.8 3.4-12.7 16-25.5 32-38.3 48-.6.8-1.2 1.9-1.3 3-.8 13.1-10.4 20.6-23.2 18.1-.6-.1-1.6 0-2 .4-3 3.5-6 7.1-8.9 10.7-.3.4-.6.9-.6 1.4-.3 3.3-.6 6.7-.9 10-.1 1.4.5 1.8 1.8 1.8 4.6 0 5.5.2 10.2.2 0 .2 11 .3 11 .4 0 0-1.6-1.6-.4-6.3 4.7-3.7 11.6-9.3 16.9-14.8 9-9.3 17.6-23.4 21-30.1 3.5-6.7 15.1-24.6 27.2-37.4 2.1-2.2 4.1-4.5 5.6-7.1 3.1-5.2 7.6-7.6 13.5-7.6 1 0 2.3-.8 3-1.6 7.3-9.6 14.5-19.2 21.6-28.9.4-.5.9-1.4.7-1.8-1.6-3.6-2.2-7.4-5.3-9.8zm-47.9 83.4l-23.2 57c.1.1 0 1.5.6 1.8 11-21.9 21.4-45.1 32.6-67.4-4.5 2.1-7.9 4.2-10 8.6z"/><circle class="st0" cx="109.8" cy="202.1" r="7.1"/><path class="st0" d="M122.5 161.4l3.6 3.6 7.9-7.9-3.9-3.6zm10.5-11l3.7 3.6 7.8-7.9-3.8-3.6zm10.7-10.6l3.6 3.5 7.9-7.9-3.9-3.5z"/><path class="st0" d="M249.5 56.2c-4.1-3.1-7.9-6.6-11.9-9.9-1.3-1.1-2.6-2.1-4-3.3-6.1 6.1-12 12-17.8 18-1.7 1.8-3.4 2.1-5.4 1.1l-2.7 2.8c-18.8 18.7-21 20.7-39.7 39.3-1.6 1.6-2.3 3.2-2.5 5.4-.7 6.8-1.5 13.7-2.4 20.5-.2 1.3-.8 2.8-1.8 3.8-10.7 11.5-21.5 23-32.3 34.4-.9.9-2.3 1.6-3.5 1.7-5.2.7-10.4 1.2-15.6 1.9-1.4.2-2.9.9-4 1.9-6.4 6.2-12.5 12.5-18.9 18.7-1.8 1.8-2.5 3.6-2.6 6.1-.5 15.9-1.2 31.8-1.9 47.7-.1 3 2.3 5.8 5.3 5.9 10.1.5 20.3 1 30.4 1.5 4.1.2 8.7 1.5 12.2.1s6-5.4 8.9-8.4c1.9-1.8 3.7-3.7 5.5-5.6-3.4-3.8-3.4-3.8-1.2-8.1 8.9-17.5 17.8-34.9 26.6-52.4 1.1-2.1 2.3-3.7 4.6-4.6 3.3-1.2 5.3-3.6 6.8-6.9 2.8-6.2 6-12.2 9-18.2.5-1 1-1.9 1.5-2.9-.1-.1-.3-.1-.4-.2-2.9 3.6-5.7 7.2-8.7 10.7-7.4 8.7-13.8 17.9-18.7 28.2-7.3 15.2-15.1 30.1-22.8 45.1-.6 1.2-1.3 2.4-2.3 3.4-4.1 4.2-8.3 8.5-12.7 12.5-.9.9-2.5 1.5-3.8 1.4-10.1-.1-20.1-.4-30.2-.7-.7 0-1.5-.1-2.4-.2.3-4.7.4-9.7.8-13.8.5-4.1 6.9-17.5 6.9-17.5-4.6-4.2-7.4-9.1-5.4-17.9 1.6-7.1 7.6-12.7 14.9-13.6 9.9-1.3 16.4 3.8 19.1 9.7l41-50c1.9-9.3 2.5-12.2 4-17.2s2.2-11.6 2.9-12.4c5.4-6 14.1-13.1 19.6-19 .8-.9 1.9-1.9 3-2.3 5.1-1.7 10.3-3.2 15.5-4.7.7-.2 1.8-.1 2.3.3 3.9 3.6 9.5 5.4 11.2 11.1.4-.1.6-.2.7-.3 8.9-10.4 17.8-20.8 26.6-31.2.4-.4.8-1.1.7-1.5-.7-3.5-.7-7.7-4.4-10.4zm-150 20.1C86.7 88.3 68.7 100 62 103.4c-6.7 3.5-20.9 12.1-30.1 21-5.5 5.3-11.1 12.2-14.8 16.9-4.7 1.1-6.3-.4-6.3-.4.2 0 .3 11 .4 11 0 4.6.2 5.5.2 10.2 0 1.3.4 1.9 1.8 1.8 3.3-.3 6.7-.6 10-.9.5 0 1-.3 1.4-.6 3.6-2.9 7.2-5.9 10.7-8.9.4-.4.6-1.3.4-2-2.5-12.8 5-22.4 18.1-23.2 1-.1 2.1-.6 3-1.3 16-12.7 32-25.5 48-38.3 1-.8 2.2-1.4 3.4-1.8 8.6-2.8 17.2-5.4 25.8-8.3 2-.7 4-1.9 5.7-3.3 4.5-3.8 8.8-8 13.3-11.9 2-1.8 3.3-3.8 4.1-6.3 1.2-3.9 2.6-7.6 3.8-11.5.2-.8 0-2-.4-2.7-1.3-2-2.8-3.9-4.3-5.8-2.4-3.2-6.2-3.8-9.5-5.3-.4-.2-1.3.4-1.8.7-9.7 7.2-19.3 14.4-28.9 21.6-.8.6-1.6 1.9-1.6 3 0 6-2.4 10.4-7.6 13.5-2.8 1.6-5.2 3.6-7.3 5.7zm-83.9 31.9l57-23.2c4.4-2.1 6.4-5.5 8.7-10-22.4 11.2-45.5 21.6-67.4 32.6.2.6 1.5.5 1.7.6z"/><circle class="st0" cx="53.8" cy="147.4" r="7.1"/><path class="st0" d="M102.4 127l-3.6-3.8-7.9 7.8 3.6 3.7zm-.5-6.5l3.6 3.7 7.9-7.7-3.6-3.8zm10.7-10.7l3.6 3.7 7.9-7.7-3.6-3.8z"/><path class="st0" d="M85.9 131.6c.2-1.2.9-2.6 1.7-3.5 11.4-10.8 22.9-21.6 34.4-32.3 1-.9 2.5-1.6 3.8-1.8 6.8-.9 13.6-1.7 20.5-2.4 2.2-.2 3.8-.9 5.4-2.5 18.7-18.8 20.7-21 39.3-39.7l2.8-2.7c-1-2-.7-3.7 1.1-5.4 6-5.8 11.8-11.7 18-17.8-1.2-1.4-2.2-2.7-3.3-4-3.3-3.9-6.9-7.7-9.9-11.9-2.8-3.7-7-3.7-10.7-5-.4-.1-1.1.3-1.5.7-10.4 8.9-20.8 17.7-31.2 26.6-.1.1-.1.3-.3.7 5.7 1.7 7.5 7.3 11.1 11.2.4.5.5 1.6.3 2.3-1.5 5.2-3 10.4-4.7 15.5-.4 1.1-1.3 2.2-2.3 3-5.9 5.5-13 14.2-19 19.6-.8.7-7.3 1.5-12.4 2.9-5 1.5-8 2.1-17.2 4l-50 41c5.9 2.8 11 9.2 9.7 19.1-.9 7.3-6.5 13.3-13.6 14.9-8.9 2-13.7-.9-17.9-5.4 0 0-13.3 6.4-17.5 6.9s-9.1.6-13.8.8c-.1-.9-.2-1.6-.2-2.4-.3-10.1-.6-20.1-.7-30.2 0-1.3.6-2.9 1.4-3.8 4.1-4.3 8.3-8.5 12.5-12.7 1-.9 2.2-1.7 3.4-2.3 15-7.6 29.9-15.5 45.1-22.8 10.4-4.9 19.6-11.4 28.2-18.7 3.5-3 7.2-5.8 10.7-8.7-.1-.1-.1-.3-.2-.4-1 .5-1.9 1-2.9 1.5-6.1 3-12.1 6.2-18.2 9-3.2 1.5-5.7 3.5-6.9 6.8-.8 2.2-2.5 3.5-4.6 4.6-17.5 8.8-34.9 17.7-52.4 26.6-4.4 2.2-4.4 2.2-8.1-1.2-1.8 1.8-3.7 3.7-5.6 5.5-2.9 2.9-7 5.4-8.4 8.9s-.1 8.1.1 12.2c.5 10.1 1 20.3 1.5 30.4.1 3 2.9 5.4 5.9 5.3 15.9-.7 31.8-1.3 47.7-1.9 2.5-.1 4.3-.8 6.1-2.6 6.2-6.4 12.5-12.5 18.7-18.9 1-1 1.7-2.6 1.9-4 1.1-4.6 1.5-9.8 2.2-15z"/></svg>