<?xml version="1.0" encoding="utf-8"?>
<svg version="1.1" id="Layer_1" xmlns="http://www.w3.org/2000/svg" xmlns:xlink="http://www.w3.org/1999/xlink" x="0px" y="0px"
	 viewBox="0 0 30 30" style="enable-background:new 0 0 30 30;" xml:space="preserve">
<style type="text/css">
	.st0{fill:#863939;}
</style>
<g transform="translate(5.226 -2.463)">
	<g transform="translate(-5.226 2.463)">
		<path fill="rgba(255,100,100,0.800)" class="st0" d="M29.5,15C29.5,7,23,0.5,15,0.5C7,0.5,0.5,7,0.5,15C0.5,23,7,29.5,15,29.5c0,0,0,0,0,0
			C23,29.5,29.5,23,29.5,15z M16.4,15c0,0.8-0.6,1.4-1.4,1.4s-1.4-0.6-1.4-1.4V7.8c0-0.8,0.6-1.4,1.4-1.4s1.4,0.6,1.4,1.4V15z
			 M24.4,15c0,5.2-4.2,9.4-9.4,9.4c-5.2,0-9.4-4.2-9.4-9.4c0-2.5,1-4.9,2.7-6.6c0.5-0.6,1.4-0.6,1.9-0.1s0.6,1.4,0.1,1.9
			c0,0-0.1,0.1-0.1,0.1c-2.6,2.6-2.6,6.8,0,9.3s6.8,2.6,9.3,0s2.6-6.8,0-9.3c0,0,0,0,0,0c-0.5-0.5-0.5-1.4,0-1.9
			c0.5-0.5,1.4-0.5,1.9,0C23.4,10.1,24.4,12.5,24.4,15z"/>
	</g>
</g>
</svg>
