<?xml version="1.0" encoding="UTF-8" standalone="no"?>
<svg
   xmlns:dc="http://purl.org/dc/elements/1.1/"
   xmlns:cc="http://creativecommons.org/ns#"
   xmlns:rdf="http://www.w3.org/1999/02/22-rdf-syntax-ns#"
   xmlns:svg="http://www.w3.org/2000/svg"
   xmlns="http://www.w3.org/2000/svg"
   viewBox="0 0 256 256"
   height="256"
   width="256"
   id="Layer_1"
   version="1.1">
   
  <style type="text/css">
	.st0{fill:#FFFFFF;}
  </style>
  <path class="st0"
     d="m 125.77391,249.52641 c -0.40957,-0.11031 -5.77095,-0.54435 -11.9142,-0.96427 l -11.16956,-0.76348 -8.235208,-3.768 -8.23524,-3.76797 -3.758623,-6.03235 c -4.839477,-7.76704 -7.079083,-13.73537 -7.557357,-20.13962 -0.279408,-3.74128 -0.825059,-6.02207 -2.731579,-11.41779 -1.310345,-3.70841 -2.50974,-7.60798 -2.665336,-8.66566 -0.155584,-1.05772 -0.348289,-1.97092 -0.42823,-2.02932 -0.07988,-0.0585 -3.232565,-2.47894 -7.005874,-5.37893 -6.815963,-5.23844 -6.912937,-5.34133 -14.929205,-15.84198 -5.249201,-6.87599 -8.437663,-11.52336 -9.124637,-13.29963 -0.58077,-1.50168 -1.724501,-6.26102 -2.541618,-10.5763 -1.418425,-7.49088 -1.620534,-8.08798 -4.465729,-13.19344 -3.641594,-6.53451 -5.019034,-9.93523 -5.019034,-12.39147 0,-3.01402 4.15381,-16.572 5.264483,-17.18316 0.517461,-0.28476 1.028872,-0.56853 1.136475,-0.63062 0.10767,-0.0621 0.367879,-5.088411 0.578426,-11.169591 0.349978,-10.10894 0.553049,-11.88703 2.369171,-20.74448 1.092524,-5.32829 2.507661,-10.85465 3.14476,-12.28077 0.6371,-1.42616 4.721125,-7.23095 9.075612,-12.89951 l 7.917235,-10.30656 10.467044,-8.009527 10.467031,-8.009545 12.145867,-5.035918 12.145856,-5.0359378 13.5727,-1.797381 13.57269,-1.797384 13.67354,1.79809 13.67354,1.798074 12.21954,5.0640808 12.21957,5.064125 10.24093,7.840202 c 5.63248,4.312121 11.12008,8.908681 12.19464,10.214601 6.77192,8.22984 14.98652,19.57241 15.92076,21.98315 0.58196,1.50167 1.86627,6.75139 2.85402,11.66598 1.59314,7.92698 1.84227,10.21388 2.20695,20.25943 0.22609,6.22808 0.4906,11.366091 0.58781,11.417781 1.90353,1.01236 2.20249,1.60286 4.20591,8.30731 1.17936,3.94672 2.15145,7.97858 2.16021,8.95972 0.0238,2.66814 -1.51804,6.63892 -4.88607,12.58333 -2.92784,5.16746 -3.07294,5.59629 -4.71972,13.9474 -0.94984,4.8169 -2.2379,9.77693 -2.92114,11.24877 -0.67214,1.448 -4.73987,7.21084 -9.03935,12.80629 -7.74849,10.08405 -7.87765,10.21942 -14.68434,15.38917 -6.05925,4.60206 -6.90248,5.42001 -7.16787,6.95311 -0.16545,0.95564 -1.38818,4.86498 -2.71723,8.68746 -1.93207,5.55685 -2.48699,7.89524 -2.76845,11.66599 -0.48234,6.46226 -2.70955,12.3913 -7.59062,20.20699 l -3.78391,6.0589 -8.10322,3.73589 -8.10326,3.73591 -10.77142,0.75056 c -5.92429,0.4128 -12.00009,0.84924 -13.50177,0.96984 -1.50167,0.12058 -3.06542,0.12904 -3.47497,0.0185 z"
   />
</svg>
