<?xml version="1.0" encoding="UTF-8" standalone="no"?>
<svg
   xmlns:dc="http://purl.org/dc/elements/1.1/"
   xmlns:cc="http://creativecommons.org/ns#"
   xmlns:rdf="http://www.w3.org/1999/02/22-rdf-syntax-ns#"
   xmlns:svg="http://www.w3.org/2000/svg"
   xmlns="http://www.w3.org/2000/svg"
   viewBox="0 0 256 256"
   height="256"
   width="256"
   id="Layer_1"
   version="1.1">

  <style type="text/css">
	.st0{fill:#FFFFFF;}
</style>
  <path class="st0"
     d="m 97.387429,208.05267 -29.600586,-17.09706 -4.806935,5.47675 -4.806933,5.47673 -4.806933,-0.32508 c -2.643815,-0.1788 -5.376174,-0.59906 -6.071916,-0.93391 C 46.11061,200.08045 5.5828657,170.32145 3.6522285,168.6044 2.8230845,167.867 2.7667409,165.28397 2.7667409,128.01008 V 88.203249 L 3.905225,87.176533 c 2.0130001,-1.815375 42.073936,-31.207146 43.386971,-31.831984 0.696799,-0.3316 3.433336,-0.751384 6.081213,-0.932846 l 4.814302,-0.329955 3.932877,4.514327 c 2.163089,2.482876 4.356014,4.897253 4.873172,5.365264 0.894057,0.809116 2.389898,0.01596 30.423389,-16.130374 16.215691,-9.33973 29.878151,-16.981314 30.361041,-16.981314 0.48287,0 13.93672,7.545414 29.89747,16.767595 15.96076,9.222163 29.36107,16.857488 29.77851,16.967351 0.46839,0.123336 2.56048,-1.847016 5.46417,-5.146059 l 4.70519,-5.345847 4.65567,0.336659 c 2.56064,0.185162 5.26088,0.590968 6.00053,0.901806 0.73966,0.310821 11.1568,7.732316 23.14918,16.492192 l 21.80435,15.927062 -5.1e-4,21.76943 c -4.1e-4,11.97316 -0.15069,30.11333 -0.33412,40.31147 l -0.33338,18.54206 -21.55008,15.91691 c -11.85277,8.75429 -22.0057,16.14865 -22.56229,16.43194 -0.55659,0.28324 -3.21626,0.67116 -5.91037,0.86199 l -4.89842,0.34696 -4.71545,-5.33985 c -2.59351,-2.93693 -4.88406,-5.34032 -5.09013,-5.34089 -0.20608,-5e-4 -13.58207,7.62683 -29.72444,16.94974 -16.14233,9.32292 -29.74938,16.95048 -30.23787,16.95018 -0.48851,-3.3e-4 -14.20844,-7.69428 -30.488771,-17.09768 z"
    />
</svg>
