<?xml version="1.0" encoding="utf-8"?>
<!-- Generator: Adobe Illustrator 24.2.3, SVG Export Plug-In . SVG Version: 6.00 Build 0)  -->
<svg version="1.1" id="Layer_1" xmlns="http://www.w3.org/2000/svg" xmlns:xlink="http://www.w3.org/1999/xlink" x="0px" y="0px"
	 viewBox="0 0 381.5 336.1" style="enable-background:new 0 0 381.5 336.1;" xml:space="preserve">
<style type="text/css">
	.st0{fill:#FFFFFF;}
</style>
<path class="st0" d="M376.3,122.3C345.5,66.6,251.4,56.8,259,71.8c30.1,15.2,109.2,53.1,45.2,79.7c-18.1-33.3-49.1-57.7-85.7-67.4
	c-16.3-57.9-23-81.9-27.8-84.1c-4.8,2.2-11.5,26.2-27.7,84.1c-36.6,9.7-67.6,34.1-85.7,67.4c-64-26.6,15.1-64.4,45.2-79.7
	c7.6-15.1-86.5-5.3-117.3,50.5c-19,42.9,18,76,53.1,97.6c8.9,3.6,6.3,8.2,7.8,15.6c16,66.6,70.3,100.3,124.6,100.6
	c54.3-0.3,108.6-34,124.6-100.6c1.6-7.4-1-12,7.9-15.6C358.3,198.4,395.3,165.2,376.3,122.3z M190.7,272.6
	c-28.4,0.1-56.7-18.9-56.1-57.9l15.6,4.4c2.2,25.8,21.3,39.3,40.5,39.4c19.2-0.2,38.3-13.7,40.5-39.4l15.6-4.4
	C247.4,253.6,219.1,272.7,190.7,272.6z"/>
</svg>
