<?xml version="1.0" encoding="UTF-8" standalone="no"?>
<svg
   xmlns:dc="http://purl.org/dc/elements/1.1/"
   xmlns:cc="http://creativecommons.org/ns#"
   xmlns:rdf="http://www.w3.org/1999/02/22-rdf-syntax-ns#"
   xmlns:svg="http://www.w3.org/2000/svg"
   xmlns="http://www.w3.org/2000/svg"
   viewBox="0 0 256 256"
   height="256"
   width="256"
   id="Layer_1"
   version="1.1">

  <style type="text/css">
	.st0{fill:#FFFFFF;}
  </style>
  <path
     class="st0"
     d="M 118.07917,220.33865 C 93.151173,217.61611 70.315898,201.9499 59.329369,180.03313 c -2.881902,-5.74901 -4.158866,-9.34288 -6.560576,-18.46401 -0.576397,-2.189 -0.713012,-2.30983 -2.62463,-2.3217 -1.809708,-0.0118 -2.796903,-0.71352 -9.623305,-6.84602 -6.756567,-6.06977 -7.739773,-7.17663 -8.796957,-9.90343 -1.309105,-3.37656 -1.671105,-9.78263 -0.697494,-12.34339 0.419271,-1.10279 0.294457,-2.69279 -0.503945,-6.41961 -1.410354,-6.58333 -1.956631,-18.64579 -1.021935,-22.56528 l 0.70145,-2.941403 -2.677793,-2.554434 -2.677777,-2.554434 -2.874524,1.316015 C 18.164517,96.1785 16.03091,96.470894 12.491151,95.734693 10.042694,95.225461 8.9140442,94.545852 5.7471955,91.673842 L 1.9438257,88.224577 1.7617309,78.049821 C 1.6126014,69.717109 1.750185,67.22049 2.521992,64.259529 4.5367139,56.529625 10.087998,48.793183 17.149426,43.874255 c 3.145392,-2.191031 8.714094,-4.692119 10.447105,-4.692119 0.458749,0 2.771147,-0.874605 5.138642,-1.943556 8.083774,-3.649927 13.017338,-2.846703 18.80121,3.061033 l 2.865431,2.926829 -0.114441,7.203667 c -0.06282,3.962023 -0.0067,7.283263 0.122932,7.380522 0.130571,0.09731 1.625277,1.339075 3.321664,2.759586 l 3.084364,2.582737 2.17461,-1.372779 c 3.274409,-2.067042 6.749227,-2.798023 9.299629,-1.956305 1.364852,0.450429 3.26747,0.560934 5.530614,0.321185 4.912246,-0.520352 13.241954,0.515196 16.112702,2.003169 2.023267,1.048695 2.403774,1.102382 2.81704,0.397464 0.262766,-0.448254 1.565365,-2.299946 2.894663,-4.114866 2.090629,-2.854415 2.854769,-3.459524 5.660499,-4.482546 3.10568,-1.132384 4.07213,-1.182677 22.72658,-1.182677 18.88708,0 19.58156,0.03735 22.70694,1.222511 2.73997,1.038962 3.58465,1.711938 5.62616,4.482539 1.32117,1.793018 2.62003,3.626785 2.88636,4.075039 0.4189,0.705067 0.76793,0.655169 2.58778,-0.369959 2.5434,-1.432737 11.78264,-2.596669 16.21566,-2.042803 1.84404,0.230399 3.871,0.113931 5.38304,-0.309459 2.88718,-0.808375 6.35331,-0.06367 9.60458,2.06354 l 2.0176,1.320057 3.14412,-2.622657 c 1.72925,-1.442459 3.25089,-2.696456 3.38141,-2.786627 0.13057,-0.0902 0.18574,-3.411166 0.12276,-7.379931 l -0.11462,-7.215959 3.01861,-3.04278 c 3.43714,-3.46465 5.99012,-4.860842 9.50441,-5.197849 2.41381,-0.231478 4.77929,0.409373 11.13844,3.017567 1.49418,0.612835 4.17676,1.562166 5.9613,2.109613 6.91131,2.120226 15.17321,9.123672 18.99475,16.10146 3.35827,6.131883 4.11893,9.875421 4.07793,20.069821 -0.0196,4.858974 -0.20832,9.666703 -0.41953,10.683849 -0.28031,1.350026 -1.35849,2.718018 -3.9932,5.06662 -3.26375,2.909323 -3.95181,3.27596 -7.1885,3.830378 -3.43859,0.589003 -3.73798,0.547796 -7.61586,-1.048453 l -4.03658,-1.661543 -2.5642,2.603334 -2.56418,2.603345 0.69566,3.278118 c 1.27521,6.00902 -0.67491,24.91085 -2.94821,28.57595 -0.4288,0.69132 -0.58376,2.30331 -0.42598,4.4307 0.18565,2.50311 -0.0518,4.24485 -0.94411,6.92638 -1.14408,3.43799 -1.47642,3.8397 -8.24615,9.96778 -5.83734,5.28405 -8.26043,7.21777 -10.14283,8.09433 -0.0932,0.0435 -1.03665,3.21757 -2.09654,7.05368 -8.11476,29.37034 -33.52747,50.41723 -64.86907,53.72478 -8.85305,0.93429 -9.86075,0.93159 -18.85147,-0.0503 z"
    />
</svg>
