<svg xmlns="http://www.w3.org/2000/svg" viewBox="0 0 381.45 336.15"><defs><style>.st0{fill:#fff;}</style></defs><title>Diabotical</title><path class="st0" d="M376.3,122.32C345.48,66.58,251.35,56.76,259,71.84c30.07,15.22,109.23,53.08,45.2,79.66a137.87,137.87,0,0,0-85.68-67.39C202.21,26.18,195.54,2.19,190.72,0,185.9,2.19,179.23,26.18,163,84.11A137.87,137.87,0,0,0,77.28,151.5c-64-26.58,15.13-64.44,45.2-79.66C130.09,56.76,36,66.58,5.14,122.32c-19,42.9,18,76,53.14,97.62,8.88,3.63,6.26,8.2,7.85,15.62,16,66.57,70.33,100.31,124.59,100.59,54.26-.28,108.62-34,124.59-100.59,1.59-7.42-1-12,7.85-15.62C358.26,198.36,395.26,165.22,376.3,122.32ZM190.72,272.57c-28.39.11-56.69-18.95-56.09-57.87l15.58,4.37c2.21,25.76,21.32,39.25,40.51,39.44,19.19-.19,38.3-13.68,40.51-39.44l15.58-4.37C247.41,253.62,219.11,272.68,190.72,272.57Z"/></svg>