<?xml version="1.0" encoding="UTF-8" standalone="no"?>
<svg
   xmlns:dc="http://purl.org/dc/elements/1.1/"
   xmlns:cc="http://creativecommons.org/ns#"
   xmlns:rdf="http://www.w3.org/1999/02/22-rdf-syntax-ns#"
   xmlns:svg="http://www.w3.org/2000/svg"
   xmlns="http://www.w3.org/2000/svg"
   viewBox="0 0 256 256"
   height="256"
   width="256"
   id="Layer_1"
   version="1.1">
   
  <style type="text/css">
	.st0{fill:#FFFFFF;}
  </style>
  
  <path class="st0"
     d="m 234.88384,211.77292 c -0.97473,-0.75303 -4.39262,-3.55039 -7.5953,-6.21637 -3.20269,-2.66597 -7.24719,-5.95455 -8.98778,-7.30795 -1.74059,-1.35339 -3.16556,-2.59799 -3.16664,-2.76578 -0.001,-0.1678 -0.33886,-2.35581 -0.75068,-4.86226 -0.41181,-2.50645 -0.75274,-4.82587 -0.7576,-5.15427 -0.005,-0.32842 1.80763,-2.03368 4.02776,-3.78947 2.66796,-2.10996 4.11682,-3.62435 4.27319,-4.46644 0.45297,-2.43929 0.88335,-8.10985 0.61552,-8.10985 -1.16137,0 -3.18602,1.68883 -6.096,5.08493 -1.87886,2.1927 -3.79675,4.09964 -4.262,4.23764 -2.27528,0.67494 -7.87109,1.8158 -8.85239,1.80482 -0.60933,-0.006 -3.37122,-1.48162 -6.13752,-3.27734 l -5.02965,-3.26494 -3.95862,2.10923 c -2.17724,1.16009 -5.50729,3.5227 -7.40013,5.25026 -3.43827,3.13804 -3.44655,3.142 -8.73411,4.18162 -14.2737,2.80643 -18.58857,3.28022 -29.85075,3.27766 -10.23528,-0.003 -11.21981,-0.0869 -16.45647,-1.41309 -9.03977,-2.28938 -18.98826,-7.33526 -18.98826,-9.63086 0,-1.04896 0.54631,-1.36738 4.68377,-2.73002 7.3584,-2.42341 41.46602,-10.76709 46.15014,-11.28961 0.99763,-0.11124 1.60596,-0.54887 1.90845,-1.37281 0.50314,-1.37047 1.73661,-1.40348 -9.70232,0.25961 -8.58175,1.24768 -23.24595,1.46988 -32.29143,0.48929 -16.60471,-1.80005 -38.019021,-7.49264 -48.471947,-12.88534 -7.398347,-3.81683 -14.205431,-11.48924 -11.013189,-12.41319 4.439819,-1.28505 10.474113,-1.43619 43.293226,-1.08445 32.27812,0.34595 34.30544,0.31609 34.30544,-0.5052 0,-0.77406 -0.41558,-0.83831 -3.67107,-0.56767 -12.52807,1.04157 -28.79243,0.74635 -39.740662,-0.72131 -14.305611,-1.91774 -34.662131,-6.8973 -44.825374,-10.96507 -9.803954,-3.92398 -16.211383,-8.13832 -21.220109,-13.9571 -3.454936,-4.01371 -3.818194,-5.63708 -1.370906,-6.12653 4.448684,-0.88974 14.388182,-0.2506 39.761621,2.5568 22.002834,2.43447 26.604954,2.81626 27.596268,2.2894 0.954334,-0.5072 5.69787,-0.47979 23.975632,0.13861 12.53224,0.42398 24.49484,0.75124 26.58355,0.72722 l 3.79765,-0.0437 -3.54448,-0.9576 c -1.94946,-0.52667 -5.5558,-1.22173 -8.0141,-1.5446 -4.06241,-0.53353 -4.91994,-0.48492 -9.41208,0.53361 -4.49212,1.01849 -5.45274,1.07296 -10.5427,0.59771 C 104.83885,106.9387 89.378927,103.05529 74.430564,97.69484 52.174016,89.71368 22.078382,71.273423 9.7039436,58.035412 6.2829637,54.375694 3.0612941,48.43911 2.5902081,44.926931 l -0.2774153,-2.068296 5.5206967,0.296787 c 9.7610075,0.524756 16.2166035,2.282119 43.9033215,11.951494 9.669992,3.377172 17.674856,6.140328 17.788564,6.140328 0.113771,0 0.365112,-0.740542 0.558634,-1.645649 0.493822,-2.309479 1.123045,-2.911533 3.042916,-2.911533 1.65258,0 29.971955,6.416164 56.941735,12.90097 16.66408,4.006823 32.41109,8.260604 33.31037,8.998235 0.4582,0.375825 1.47691,0.348688 3.44504,-0.09178 l 2.79446,-0.625378 7.1884,3.152304 c 3.9536,1.733754 10.43537,4.848066 14.40392,6.920666 l 7.21554,3.768378 v 1.94541 1.945395 l 6.70918,3.406003 c 3.69005,1.873305 7.1649,3.813805 7.72189,4.312255 0.55699,0.49842 3.3104,2.71385 6.11867,4.92313 5.32456,4.18886 9.67597,9.05846 14.04988,15.72297 2.04969,3.12311 2.58133,4.38879 2.77243,6.60034 0.21519,2.49031 0.71184,3.42141 5.52541,10.35893 2.90895,4.19248 5.58158,8.20192 5.93918,8.90988 0.73007,1.44537 1.79871,8.10724 1.79871,11.21308 0,3.27529 -2.4514,10.91479 -5.38312,16.77583 -1.49519,2.98918 -2.71854,5.6952 -2.71854,6.01336 0,0.31818 2.70175,3.34109 6.00388,6.71762 l 6.00389,6.13912 0.35968,3.70643 0.35969,3.70641 -2.18615,2.85335 c -1.20239,1.56935 -2.31595,3.03844 -2.4746,3.26467 -0.41629,0.59361 -9.05393,2.91293 -10.85133,2.91373 -0.87718,4e-4 -2.26791,-0.57784 -3.2913,-1.36846 z m -60.50925,-55.10164 c 7.4716,-2.11105 7.55812,-2.15166 5.31173,-2.49294 -2.99166,-0.4545 -8.00282,0.7275 -11.75813,2.77344 -3.13645,1.70877 -4.38325,2.90224 -2.3516,2.25103 0.66149,-0.21204 4.62059,-1.35122 8.798,-2.53153 z m -9.87389,-24.81213 c -6.17186,-1.68005 -6.463,-1.7113 -11.69618,-1.25555 -2.95174,0.25706 -6.36963,0.87808 -7.59531,1.38003 l -2.22854,0.91262 11.13978,0.26812 c 6.12688,0.14747 12.393,0.30178 13.92472,0.34293 2.58453,0.0695 2.32945,-0.0492 -3.54447,-1.64815 z"
     />
</svg>
