<svg xmlns="http://www.w3.org/2000/svg" viewBox="0 0 347.24 482.05"><defs><style>.st0{fill:#fff;}</style></defs><title>Surge</title><path class="st0" d="M330.8,365.82c2.29,8.67,1.87,14.91-1.41,20.83a10,10,0,0,0-.59,7.2c-4.2,5.49-8.56,11.13-13.54,15.79a46.56,46.56,0,0,1-12.52,8.56c-3,1.35-6.21,3.22-7.55,6.84-1.24,3.35-.32,6.78.85,10,.73,2,1.44,4,2.13,6A142.55,142.55,0,0,0,304.34,457c.76,1.58.67,3.14.44,5.76-.07.81-.15,1.67-.18,2.57-3.66,1.48-6.84,2.74-10.45,2.74-.54,0-1.08,0-1.63-.08-7-.71-10.32-3.39-12.85-10.23a171.21,171.21,0,0,0-8-17.53c-1.48-3-3-6-4.4-9a3.1,3.1,0,0,1-.1-1.55c.56-2.69,1.3-5.37,2.08-8.21l.24-.87h0a28.83,28.83,0,0,1,5.59-1.22c9.23-.66,13.93-6.88,17-12.22s6.23-10.73,9.55-16.36l4.22-7.16L308,380l-3.09-2.72c-1-.88-2-1.74-3-2.58l-.95-.79a77,77,0,0,1-6-5.46c-2.08-2.18-3.34-4-3.75-5.51-.61-2.25-1.26-4.55-1.89-6.77-2.58-9.12-5.25-18.55-6.22-27.79-.37-3.57,2.32-8.62,4.7-13.08.17-.31.33-.62.49-.93a9.94,9.94,0,0,1,1.36-.09,5.79,5.79,0,0,1,1.56.16,12.77,12.77,0,0,0,3.89.65,9.93,9.93,0,0,0,6.81-2.73h1.87a4.18,4.18,0,0,1,1.74.93,1.83,1.83,0,0,1,.27.25l.06.06.07.07a22.77,22.77,0,0,1,3.63,6.16c2.09,4.65,5.34,8.45,8.48,12.13a78,78,0,0,1,5,6.22,29.3,29.3,0,0,1,4.08,9c.73,2.81,1.22,5.71,1.73,8.77C329.37,359.2,329.92,362.52,330.8,365.82Zm11.86-14.32c-.75-2.89-1.53-5.87-2.2-8.77-.55-2.43-.26-2.9.11-3.38l.29-.35c1.81-2,3.87-5.66,3.65-9.4A122.93,122.93,0,0,0,342.2,310c-4.12-18.63-12.82-36.31-26.6-54-.83-1.05-1.66-2.06-2.46-3l-.11-.13a50.59,50.59,0,0,1-3.5-4.66,2,2,0,0,1-.09-.4c2.95-6.32-.76-10.74-2-12.22-5.68-6.79-11.43-13.73-17-20.44l-5.16-6.22q-4.35-5.26-8.73-10.51l-.06-.07-.31-.38c-2.72-3.26-6.43-7.71-13.12-7.71h-.28c-.14-.11-.31-.27-.54-.47-1-.91-1.93-1.89-2.93-2.93a56.71,56.71,0,0,0-5.18-4.91c-40.13-32.13-80.13-64-121-96.64-4.16-3.32-6.67-5.32-10.05-5.32-3.18,0-5.29,1.65-7.8,4.53l-.36-.34c-5.82-5.57-11.72-11.27-17.43-16.79-7.87-7.6-16-15.46-24.08-23.12-7-6.66-13.33-12.56-19.34-18-6.61-6-13.84-11.1-21.46-16.54-14-10-19-17-21.33,4.15-1.64,14.87,3.41,28,8.16,37.84C41.1,96.28,67,132.54,98.59,162.48c1.81,1.72,3.68,3.45,5.7,5.29,6.25,5.64,12.73,11.07,19.3,16.35-2-.81-4-1.43-5.92-2a34.41,34.41,0,0,1-7.29-2.82c-12.37-7.35-24.89-15-37-22.34S48.54,141.8,36,134.37a168.42,168.42,0,0,0-18.37-9c-1.82-.81-3.64-1.61-5.45-2.43a9.53,9.53,0,0,0-3.84-.77,7.86,7.86,0,0,0-6,2.44,10.26,10.26,0,0,0-1.79,9.48c.74,2,1.42,4,2.14,6.08,2.13,6.22,4.32,12.65,8.17,18.24a185.07,185.07,0,0,0,24.84,29.22A407,407,0,0,0,68.9,216l-5.58-2.65A133.38,133.38,0,0,0,46.09,207l-4-1.27a10.88,10.88,0,0,0-3.36-.55,8.09,8.09,0,0,0-6.77,3.37,9,9,0,0,0-.75,8.32c.47,1.27.9,2.57,1.37,3.95,1.7,5.11,3.47,10.39,7.07,14.67A327.25,327.25,0,0,0,69.9,267.4c25.51,23.22,50.33,39.48,75.86,49.69,2.63,1.05,5.29,2.06,8,3-19.25-3.78-38.87-7.61-58.24-11.3a9.11,9.11,0,0,0-1.75-.16,16.64,16.64,0,0,0-5,1c-.67.21-1.31.41-1.89.53l-6.76,1.45,3.5,6c13.91,23.75,33.86,40.17,61,50.19,12.6,4.66,25.68,8.37,38.33,11.95,4.11,1.16,8.35,2.37,12.51,3.58a10.84,10.84,0,0,0,3,.41,23,23,0,0,0,4.55-.59c.33-.07.65-.14,1-.19,3.52-.64,7.09-1.32,10.55-2,4.84-.93,9.85-1.89,14.77-2.72a6.55,6.55,0,0,1,1.12-.1c1.05,0,2.07.19,3.17,2.48a69.15,69.15,0,0,0,7.1,11.41c2.57,3.44,5.17,5.55,7.93,6.46a43.67,43.67,0,0,0,13.52,2.6,24,24,0,0,0,14.22-4.54,12.86,12.86,0,0,1,4.23-1.8c1-.24,2-.45,3-.66-1.06,1.77-2.1,3.58-3.07,5.44-2,3.8-3.89,4.7-6.16,4.89-11.93,1-19.25,8.28-20.62,20.51,0,.09-.09.27-.13.41a10.27,10.27,0,0,0-.61,2.88c0,.29,0,.54,0,.8a12.59,12.59,0,0,0,.83,6.21c6.73,14.32,12.39,26.06,17.84,37,.52,1,3.38,6.34,8.2,7.33,1.07.22,2.14.46,3.21.7a58.37,58.37,0,0,0,12.77,1.86,25.78,25.78,0,0,0,13.62-3.7,23.08,23.08,0,0,0,6.93-6.48c3.8-5.4,4.92-11.59,3.1-17q-.86-2.52-1.69-5.05c-2.15-6.44-4.37-13.1-6.77-19.61a2.61,2.61,0,0,1-.13-.42,6.59,6.59,0,0,1,.6-.64c2.11-2,4.31-4.09,6.45-6.07,1.75-1.64,3.57-3.34,5.36-5a156.14,156.14,0,0,0,16.29-17.4,39.91,39.91,0,0,0,7.74-24.85C346.84,367.45,344.72,359.34,342.66,351.5ZM328.8,393.85c-4.2,5.49-8.56,11.13-13.54,15.79a46.56,46.56,0,0,1-12.52,8.56c-3,1.35-6.21,3.22-7.55,6.84-1.24,3.35-.32,6.78.85,10,.73,2,1.44,4,2.13,6A142.55,142.55,0,0,0,304.34,457c.76,1.58.67,3.14.44,5.76-.07.81-.15,1.67-.18,2.57-3.66,1.48-6.84,2.74-10.45,2.74-.54,0-1.08,0-1.63-.08-7-.71-10.32-3.39-12.85-10.23a171.21,171.21,0,0,0-8-17.53c-1.48-3-3-6-4.4-9a3.1,3.1,0,0,1-.1-1.55c.56-2.69,1.3-5.37,2.08-8.21l.24-.87h0a28.83,28.83,0,0,1,5.59-1.22c9.23-.66,13.93-6.88,17-12.22s6.23-10.73,9.55-16.36l4.22-7.16L308,380l-3.09-2.72c-1-.88-2-1.74-3-2.58l-.95-.79a77,77,0,0,1-6-5.46c-2.08-2.18-3.34-4-3.75-5.51-.61-2.25-1.26-4.55-1.89-6.77-2.58-9.12-5.25-18.55-6.22-27.79-.37-3.57,2.32-8.62,4.7-13.08.17-.31.33-.62.49-.93a9.94,9.94,0,0,1,1.36-.09,5.79,5.79,0,0,1,1.56.16,12.77,12.77,0,0,0,3.89.65,9.93,9.93,0,0,0,6.81-2.73h1.87a4.18,4.18,0,0,1,1.74.93,1.83,1.83,0,0,1,.27.25l.06.06.07.07a22.77,22.77,0,0,1,3.63,6.16c2.09,4.65,5.34,8.45,8.48,12.13a78,78,0,0,1,5,6.22,29.3,29.3,0,0,1,4.08,9c.73,2.81,1.22,5.71,1.73,8.77.54,3.22,1.09,6.54,2,9.84,2.29,8.67,1.87,14.91-1.41,20.83A10,10,0,0,0,328.8,393.85Zm-60.18-93.22a22,22,0,1,1,22-22A22,22,0,0,1,268.62,300.63Zm-16,44a15,15,0,1,1,15-15A15,15,0,0,1,252.62,344.63Zm-61.45-139c-4.38-2.88-8.06-4.45-11.58-4.94-14-1.93-24.78-10.05-36.23-18.65l-2.56-1.92c-4.94-3.69-9.76-7.86-14.42-11.91-2.85-2.46-5.79-5-8.77-7.47-1.62-1.33-3.32-2.46-5-3.56a35.66,35.66,0,0,1-5.22-3.92,10.14,10.14,0,0,1-.84-.92l-4.76-5.86c-13.84-17-28.15-34.66-41.22-52.64A277.22,277.22,0,0,1,28.39,36.18,38.25,38.25,0,0,1,25,21.94c2.76,2,5.44,3.87,8.3,5.59C43.6,33.69,53.79,41.68,65.4,52.68c6.2,5.88,12.33,12.14,18.25,18.2,7.89,8.07,16,16.4,24.62,24.11,0,.16,0,.34,0,.53l-5.64,3.67,5.16,4.34c1.38,1.16,2.79,2.28,4.15,3.37a87.33,87.33,0,0,1,8.06,6.95l1.52,1.54C148.3,142.57,176,170.68,200.1,201c3.9,4.88,5.7,9,6,13.69,0,.47.08.94.13,1.41C201.14,212.43,196.22,209,191.17,205.66Zm7.25,162.85c-5.25-1.54-10.57-3-15.72-4.43-12.12-3.35-24.65-6.81-36.43-11.3-18.82-7.18-32-15.93-41.38-27.5,2.43.39,4.7.8,6.92,1.31,5.68,1.28,11.44,2.7,17,4.07,4.9,1.21,10,2.46,15,3.62a7.26,7.26,0,0,0,1.7.19,11.91,11.91,0,0,0,3.83-.76c.32-.1.66-.21.86-.26a15.77,15.77,0,0,0,1.91-.59l.5-.18c5.58,1.16,11.2,2.4,16.64,3.61,4.09.91,8.33,1.84,12.51,2.74-1.55,7,1.64,12.1,9.5,15.09C199.86,357.39,209,361,218,365.05c-6,1.39-11.78,2.71-17.56,3.95A11.9,11.9,0,0,1,198.42,368.51Zm-14-53.43C140,302.66,99.65,278.35,60.93,240.75c-4.61-4.48-8.55-10.19-12.19-15.64a14.24,14.24,0,0,1-1.28-2.53c.67.23,1.32.48,1.93.76,3.54,1.61,7.12,3.4,10.58,5.12,4.15,2.07,8.45,4.22,12.82,6.14a34,34,0,0,0,6.74,2,23.89,23.89,0,0,1,5,1.42c20.59,9.75,41.46,19.82,61.64,29.55l14.43,6.95a10.81,10.81,0,0,0-.5,4.91c.67,5,4.63,8,8.13,10.62l.31.23c11.42,8.69,22.28,17.15,32.9,25.64-2.61.18-5.07.34-7.56.34A34.54,34.54,0,0,1,184.41,315.08Zm-6.54-58.59a44,44,0,0,1-9.82-3.18c-1.21-.5-2.46-1-3.72-1.49-45.74-17.34-88.28-44.66-126.41-81.19-10-9.56-16.87-19.42-21-30.13,2.45,1.38,4.89,2.81,7.27,4.21q2.54,1.5,5.08,3l39,22.42,39,22.41,1.08.65a30.86,30.86,0,0,1-1.59,4c-1.3,2.59-2.63,7.6,3,12.07,1,.83,2.1,1.52,3.11,2.2l.89.59,38.8,26,28,18.78C179.64,256.72,178.75,256.62,177.87,256.49Zm90.75,12.14a10,10,0,1,0,10,10A10,10,0,0,0,268.62,268.63Zm-16,53a8,8,0,1,0,8,8A8,8,0,0,0,252.62,321.63Z"/></svg>