<?xml version="1.0" encoding="utf-8"?>
<!-- Generator: Adobe Illustrator 24.2.3, SVG Export Plug-In . SVG Version: 6.00 Build 0)  -->
<svg version="1.1" id="Layer_1" xmlns="http://www.w3.org/2000/svg" xmlns:xlink="http://www.w3.org/1999/xlink" x="0px" y="0px"
	 viewBox="0 0 347.2 482" style="enable-background:new 0 0 347.2 482;" xml:space="preserve">
<style type="text/css">
	.st0{fill:#FFFFFF;}
</style>
<path class="st0" d="M347.4,375.9c-0.5-8.4-2.7-16.6-4.7-24.4h0c-0.8-2.9-1.5-5.9-2.2-8.8c-0.5-2.4-0.3-2.9,0.1-3.4l0.3-0.3
	c1.8-2,3.9-5.7,3.6-9.4c-0.2-6.6-1-13.1-2.3-19.6c-4.1-18.6-12.8-36.3-26.6-54c-0.8-1-1.7-2.1-2.5-3l-0.1-0.1
	c-1.3-1.5-2.4-3-3.5-4.7c0-0.1-0.1-0.3-0.1-0.4c3-6.3-0.8-10.7-2-12.2c-5.7-6.8-11.4-13.7-17-20.4l-5.2-6.2c-2.9-3.5-5.8-7-8.7-10.5
	l-0.1-0.1l-0.3-0.4c-2.7-3.3-6.4-7.7-13.1-7.7h-0.3c-0.1-0.1-0.3-0.3-0.5-0.5c-1-0.9-1.9-1.9-2.9-2.9c-1.6-1.7-3.4-3.4-5.2-4.9
	c-40.1-32.1-80.1-64-121-96.6C129,82,126.5,80,123.1,80c-3.2,0-5.3,1.6-7.8,4.5l-0.4-0.3c-5.8-5.6-11.7-11.3-17.4-16.8
	c-7.9-7.6-16-15.5-24.1-23.1c-7-6.7-13.3-12.6-19.3-18c-6.6-6-13.8-11.1-21.5-16.5c-14-10-19-17-21.3,4.2c-1.6,14.9,3.4,28,8.2,37.8
	C41.1,96.3,67,132.5,98.6,162.5c1.8,1.7,3.7,3.5,5.7,5.3c6.3,5.6,12.7,11.1,19.3,16.4c-2-0.8-4-1.4-5.9-2c-2.5-0.7-5-1.6-7.3-2.8
	c-12.4-7.4-24.9-15-37-22.3c-12.1-7.3-24.8-15.2-37.4-22.6c-5.9-3.4-12.1-6.4-18.4-9c-1.8-0.8-3.6-1.6-5.5-2.4
	c-1.2-0.5-2.5-0.8-3.8-0.8c-2.3-0.1-4.4,0.8-6,2.4c-2.1,2.7-2.8,6.2-1.8,9.5c0.7,2,1.4,4,2.1,6.1c2.1,6.2,4.3,12.7,8.2,18.2
	c7.2,10.6,15.6,20.4,24.8,29.2c10.6,10,21.6,19.5,33.2,28.4l-5.6-2.7c-5.6-2.5-11.3-4.6-17.2-6.3l-4-1.3c-1.1-0.4-2.2-0.5-3.4-0.5
	c-2.7-0.1-5.2,1.2-6.8,3.4c-1.6,2.5-1.9,5.6-0.8,8.3c0.5,1.3,0.9,2.6,1.4,4c1.7,5.1,3.5,10.4,7.1,14.7c9.4,11.3,19.5,22,30.3,31.9
	c25.5,23.2,50.3,39.5,75.9,49.7c2.6,1,5.3,2.1,8,3c-19.3-3.8-38.9-7.6-58.2-11.3c-0.6-0.1-1.2-0.2-1.8-0.2c-1.7,0.1-3.4,0.4-5,1
	c-0.7,0.2-1.3,0.4-1.9,0.5l-6.8,1.5l3.5,6c13.9,23.8,33.9,40.2,61,50.2c12.6,4.7,25.7,8.4,38.3,12c4.1,1.2,8.3,2.4,12.5,3.6
	c1,0.3,2,0.4,3,0.4c1.5,0,3.1-0.2,4.5-0.6c0.3-0.1,0.6-0.1,1-0.2c3.5-0.6,7.1-1.3,10.5-2c4.8-0.9,9.9-1.9,14.8-2.7
	c0.4-0.1,0.7-0.1,1.1-0.1c1,0,2.1,0.2,3.2,2.5c2,4,4.4,7.8,7.1,11.4c2.6,3.4,5.2,5.5,7.9,6.5c4.3,1.6,8.9,2.5,13.5,2.6
	c5.1,0,10.1-1.6,14.2-4.5c1.3-0.8,2.7-1.5,4.2-1.8c1-0.2,2-0.5,3-0.7c-1.1,1.8-2.1,3.6-3.1,5.4c-2,3.8-3.9,4.7-6.2,4.9
	c-11.9,1-19.3,8.3-20.6,20.5c0,0.1-0.1,0.3-0.1,0.4c-0.3,0.9-0.5,1.9-0.6,2.9c0,0.3,0,0.5,0,0.8c-0.3,2.1,0,4.2,0.8,6.2
	c6.7,14.3,12.4,26.1,17.8,37c0.5,1,3.4,6.3,8.2,7.3c1.1,0.2,2.1,0.5,3.2,0.7c4.2,1.1,8.5,1.7,12.8,1.9c4.8,0.1,9.5-1.2,13.6-3.7
	c2.7-1.7,5.1-3.9,6.9-6.5c3.8-5.4,4.9-11.6,3.1-17c-0.6-1.7-1.1-3.4-1.7-5c-2.1-6.4-4.4-13.1-6.8-19.6c-0.1-0.1-0.1-0.3-0.1-0.4
	c0.2-0.2,0.4-0.4,0.6-0.6c2.1-2,4.3-4.1,6.5-6.1c1.8-1.6,3.6-3.3,5.4-5c5.9-5.4,11.3-11.2,16.3-17.4
	C344.9,393.6,347.6,384.8,347.4,375.9z M117.6,160.7c-1.6-1.3-3.3-2.5-5-3.6c-1.9-1.1-3.6-2.5-5.2-3.9c-0.3-0.3-0.6-0.6-0.8-0.9
	l-4.8-5.9c-13.8-17-28.1-34.7-41.2-52.6C47.6,76,36.8,56.6,28.4,36.2c-2-4.5-3.2-9.3-3.4-14.2c2.8,2,5.4,3.9,8.3,5.6
	c10.3,6.2,20.5,14.1,32.1,25.1c6.2,5.9,12.3,12.1,18.3,18.2c7.9,8.1,16,16.4,24.6,24.1c0,0.2,0,0.3,0,0.5l-5.6,3.7l5.2,4.3
	c1.4,1.2,2.8,2.3,4.1,3.4c2.8,2.2,5.5,4.5,8.1,6.9l1.5,1.5c26.8,27.2,54.5,55.3,78.6,85.6c3.9,4.9,5.7,9,6,13.7
	c0,0.5,0.1,0.9,0.1,1.4c-5.1-3.7-10-7.1-15.1-10.4v0c-4.4-2.9-8.1-4.5-11.6-4.9c-14-1.9-24.8-10-36.2-18.7l-2.6-1.9
	c-4.9-3.7-9.8-7.9-14.4-11.9C123.5,165.8,120.6,163.2,117.6,160.7z M37.9,170.6c-10-9.6-16.9-19.4-21-30.1c2.5,1.4,4.9,2.8,7.3,4.2
	c1.7,1,3.4,2,5.1,3l39,22.4l39,22.4l1.1,0.7c-0.4,1.4-1,2.7-1.6,4c-1.3,2.6-2.6,7.6,3,12.1c1,0.8,2.1,1.5,3.1,2.2l0.9,0.6l38.8,26
	l28,18.8c-0.9-0.1-1.8-0.2-2.7-0.3l0,0c-3.4-0.7-6.7-1.7-9.8-3.2c-1.2-0.5-2.5-1-3.7-1.5C118.6,234.5,76.1,207.1,37.9,170.6z
	 M60.9,240.8c-4.6-4.5-8.5-10.2-12.2-15.6c-0.5-0.8-0.9-1.6-1.3-2.5c0.7,0.2,1.3,0.5,1.9,0.8c3.5,1.6,7.1,3.4,10.6,5.1
	c4.1,2.1,8.4,4.2,12.8,6.1c2.2,0.9,4.4,1.6,6.7,2c1.7,0.3,3.4,0.8,5,1.4c20.6,9.8,41.5,19.8,61.6,29.5l14.4,7
	c-0.5,1.6-0.7,3.3-0.5,4.9c0.7,5,4.6,8,8.1,10.6l0.3,0.2c11.4,8.7,22.3,17.2,32.9,25.6c-2.6,0.2-5.1,0.3-7.6,0.3
	c-3.2,0-6.4-0.4-9.5-1.2l0,0C140,302.7,99.7,278.3,60.9,240.8z M200.4,369c-0.7-0.1-1.4-0.3-2-0.5v0c-5.3-1.5-10.6-3-15.7-4.4
	c-12.1-3.3-24.7-6.8-36.4-11.3c-18.8-7.2-32-15.9-41.4-27.5c2.4,0.4,4.7,0.8,6.9,1.3c5.7,1.3,11.4,2.7,17,4.1c4.9,1.2,10,2.5,15,3.6
	c0.6,0.1,1.1,0.2,1.7,0.2c1.3,0,2.6-0.3,3.8-0.8c0.3-0.1,0.7-0.2,0.9-0.3c0.6-0.2,1.3-0.4,1.9-0.6l0.5-0.2
	c5.6,1.2,11.2,2.4,16.6,3.6c4.1,0.9,8.3,1.8,12.5,2.7c-1.6,7,1.6,12.1,9.5,15.1c8.6,3.3,17.7,6.9,26.7,11
	C212,366.4,206.2,367.8,200.4,369z M252.6,344.6c-8.3,0-15-6.7-15-15c0-8.3,6.7-15,15-15c8.3,0,15,6.7,15,15
	C267.6,337.9,260.9,344.6,252.6,344.6z M268.6,300.6c-12.2,0-22-9.8-22-22s9.8-22,22-22s22,9.8,22,22S280.8,300.6,268.6,300.6z
	 M329.4,386.6c-1.1,2.2-1.3,4.8-0.6,7.2C328.1,391.5,328.3,388.9,329.4,386.6c3.2-5.9,3.7-12.1,1.4-20.8c-0.9-3.3-1.4-6.6-2-9.9
	c0.5,3.2,1.1,6.5,2,9.8C333.1,374.5,332.7,380.7,329.4,386.6z M278.6,278.6c0,5.5-4.5,10-10,10c-5.5,0-10-4.5-10-10
	c0-5.5,4.5-10,10-10l0,0C274.1,268.6,278.6,273.1,278.6,278.6z M260.6,329.6c0,4.4-3.6,8-8,8s-8-3.6-8-8s3.6-8,8-8l0,0
	C257,321.6,260.6,325.2,260.6,329.6z"/>
</svg>
