<svg xmlns="http://www.w3.org/2000/svg" viewBox="0 0 442.02 410.34"><defs><style>.st0{fill:#fff;}</style></defs><title>Vanguard</title><path class="st0" d="M442,178.5c-.19-2-.39-4-.59-6-.34-3.44-.69-6.87-1-10.32h0a13.09,13.09,0,0,0-2.58-6.87l.66-.41-1.5-.57a14.93,14.93,0,0,0-5.88-3.66c-.91-.32-1.84-.63-2.76-.94a51.53,51.53,0,0,1-7.43-2.91c-6.14-3.2-11.34-1.27-14.66.43l-10.82,5.24c-10.14,4.92-20.63,10-31,15a11.85,11.85,0,0,0-5.89,5.91q-15.3,32.61-30.64,65.2-14.19,30.15-28.36,60.31a18.07,18.07,0,0,0-1.6,5.94c-.27,2.91-.43,5.84-.58,8.68-.09,1.65-.18,3.31-.29,5q-.58,8.63-1.2,17.27-.52,7.44-1,14.87c-.24,3.49-.49,7-.74,10.48-.68,9.49-1.39,19.31-1.82,29-.27,6.16,2.54,10.7,7.93,12.77,3.39,1.29,6.79,2.93,10.08,4.52l2.9,1.39a13.54,13.54,0,0,0,5.87,1.4,13.85,13.85,0,0,0,8.08-2.81c11.17-7.95,21.6-17,31.69-25.77,4.82-4.18,9.8-8.5,14.77-12.63a86,86,0,0,0,17-18.55q1.61-2.39,3.26-4.77A129.82,129.82,0,0,0,404,329.25c5.74-11.72,11.14-23.81,16.36-35.51,2-4.38,3.91-8.76,5.89-13.13a19.73,19.73,0,0,0,1.64-5l.48-3.06c3.76-23.84,7.65-48.49,11.33-72.77.72-4.76,1.18-9.6,1.63-14.28.2-2.1.4-4.2.62-6.3l0-.34ZM313.9,400.37l-1.23-.54c-1.14-.51-2.28-1-3.42-1.57-2-.94-4.07-1.91-6.18-2.77a2.82,2.82,0,0,1-.44-.22,3.16,3.16,0,0,1,0-.55c.51-6.86,1-13.83,1.42-20.57q.4-6.11.82-12.23,1.2-17.34,2.45-34.68l.51-7.22c.18-2.52.38-5,.58-7.72l.06-.78c4.73,2,9.29,4,14,6Zm31.15-135.26-20.26,44.65-14.63-6.22,60-127.66,13.1,5.08Zm70.4-104.89c-8.42,4.38-17.12,8.91-25.64,13.43a2.7,2.7,0,0,1-2.8.18c-2.88-1.2-5.81-2.33-8.85-3.49l7.37-3.58c8.73-4.23,17.76-8.6,26.6-13a4.29,4.29,0,0,1,4.12-.17c2.24.94,4.48,1.8,6.81,2.67Zm-265,227V387q-.3-5.15-.62-10.21c-.45-7.41-.9-14.7-1.32-22l-1-18.53C147,326,146.38,315.41,145.76,305a18,18,0,0,0-1.71-6.33q-13.47-28.62-27-57.22-16-33.84-31.9-67.71a12.52,12.52,0,0,0-6.32-6.34c-8.37-3.94-16.86-8-25.07-11.9q-8.15-3.89-16.31-7.77a44.26,44.26,0,0,0-6.37-2.52,9.51,9.51,0,0,0-5.7.09l-2.62,1a136.89,136.89,0,0,0-14.41,5.86,14,14,0,0,0-3.48,2.48l-2,.78.82.52a10,10,0,0,0-2.22,4.51l0,.12L1,161l.3.14a78.46,78.46,0,0,0-1.18,18.6c.6,8.13,1.83,16.28,3,24.16q.42,2.76.82,5.5c1,7,2.11,14.13,3.17,21,1.37,9,2.79,18.25,4.07,27.38,1.55,11.06,3.57,22.75,9.58,33.44a55.93,55.93,0,0,1,2.53,5.38c.5,1.18,1,2.4,1.6,3.6,1.84,3.88,3.62,7.9,5.35,11.79,4.93,11.1,10,22.58,17.3,32.89,1,1.39,2,2.87,2.91,4.29,3.06,4.6,6.22,9.36,10.49,13,12.7,11,25.92,21.69,38.71,32.07q7.77,6.3,15.5,12.62a13.54,13.54,0,0,0,8.07,3.28v.14l.28-.13a14.07,14.07,0,0,0,6.63-1.61l.54-.27a105.94,105.94,0,0,1,11.47-5.19c5.85-2.12,7.46-6.85,8.17-10.23a17.36,17.36,0,0,0,.17-4.48C150.52,388,150.49,387.61,150.49,387.24ZM55.24,174.3l-.18-.07c-12.25-5.88-24.68-11.89-36.74-17.72,3.4-1.31,6.68-2.57,10-3.78l.41.18c12.24,5.81,24.66,11.75,36.74,17.52C62,171.77,58.61,173.06,55.24,174.3Zm5.3,6.64,13-5,60.15,127.62-13.14,5.68Zm68.65,219.37-6.35-83.38,12.48-5.38c1,17.24,2.05,34.31,3.06,51.35l1.93,32.31ZM290.67,204.84c1.44-4.94.58-9.7-.43-14.15-.7-3.1-1.62-6.17-2.51-9.15-.14-.45-.28-.91-.41-1.37l.39-.16,6.6-2.68c9.35-3.79,19-7.71,28.54-11.5a11.38,11.38,0,0,0,3.88-2.41l.53,0,.05-.68a9.05,9.05,0,0,0,1.94-5.27c.93-13.22,2-26.66,3-39.66l.28-3.46c1-12.09,2-24.24,2.93-35.57.29-3.43.56-7.56.52-12l.4-.53-.41-.19c0-2.43-.18-4.93-.46-7.46-.59-5.16-3.08-8.48-8.09-10.77-31-14.11-64.31-29.42-101.94-46.78a12.37,12.37,0,0,0-2-.75V.09l-.38.17a9.47,9.47,0,0,0-4.61,0l-.17-.07V.35a13.59,13.59,0,0,0-2.13.79C197.31,10,178,18.89,159.4,27.51L143.13,35l-8.71,4.05c-7,3.25-14.24,6.62-21.37,9.87-4.42,2-6.6,5.14-7.07,10.15-.69,7.19-.15,14.27.37,21.11.1,1.24.19,2.47.28,3.71l1,14.38c1.35,19.15,2.76,38.94,3.94,58.41a10.46,10.46,0,0,0,1.86,5.75l0,.69.5,0a11.51,11.51,0,0,0,4.42,2.88c8.81,3.49,17.74,7.14,26.38,10.66l9.31,3.79.46.2c-2.58,7.5-5.42,16-3.27,25.15v.06a8.88,8.88,0,0,0-.18,1.11c-.1,1.3-.25,2.59-.4,4a53.72,53.72,0,0,0-.51,9.63c.75,11.62,5.54,21.82,10,30.47a6.85,6.85,0,0,0,1.76,2.07c.11.09.23.19.34.3l.21.21c5.39,5.67,10.4,10.65,17.15,14.31a83.81,83.81,0,0,0,27.33,9,95.28,95.28,0,0,0,14.66,1.29,60.43,60.43,0,0,0,6.29-.32c13.75-1.46,23.83-4.28,32.68-9.16a71.28,71.28,0,0,0,11.93-8,48.78,48.78,0,0,0,10.55-12.26c4.34-7.19,6.26-15,7.72-21.7,1.43-6.57,2.4-13.64-.18-20.83A2.15,2.15,0,0,1,290.67,204.84ZM118.37,59,114,61c.09-1.11.2-2.17.36-3.19.32-.17.71-.35,1-.47l.28-.13q21.6-10,43.25-20l29.78-13.8q14.13-6.54,28.26-13.08c0,1.15,0,2.22-.12,3.25a2.6,2.6,0,0,1-.66.48c-9.57,4.49-19.34,9-28.8,13.32l-6.76,3.1Zm113,196.92a16.23,16.23,0,0,1-10.43,2.9l-2.32-.07-.39-.1a35.84,35.84,0,0,1-6.4-2.21,5.5,5.5,0,0,1-3.36-4.71,5.4,5.4,0,0,1,3.08-4.77c6.54-3.65,13.11-3.61,19.52.13a5.17,5.17,0,0,1,2.82,4.14A5.58,5.58,0,0,1,231.34,255.88Zm45.36-70.94c-5.79-5.63-13-9.93-22.72-13.54a93,93,0,0,0-40-5.48,92,92,0,0,0-34.55,9.43,69.15,69.15,0,0,0-19.72,15.52,35.83,35.83,0,0,1,10.77-17.32,52.39,52.39,0,0,1,5.41-4.35c11-7.75,24.09-12,40.07-13.06,2-.14,4-.2,5.94-.2A81.58,81.58,0,0,1,259,164.62a56.53,56.53,0,0,1,8.54,5.25,41.31,41.31,0,0,1,13.33,16.59,26.48,26.48,0,0,1,1.46,4.2C280.46,188.6,278.53,186.72,276.7,184.94ZM226.24,14.28c-1.4-.63-1.39-.72-1.3-1.55h0c.09-.82.12-1.62.13-2.43l21.54,9.86c25.85,11.85,52.57,24.1,78.9,36.09,1.71.78,1.8,1.23,1.84,2.18,0,.78.09,1.55.16,2.33l-28.1-12.91C275.44,36.83,250.65,25.44,226.24,14.28Z"/></svg>