<?xml version="1.0" encoding="utf-8"?>
<!-- Generator: Adobe Illustrator 24.2.3, SVG Export Plug-In . SVG Version: 6.00 Build 0)  -->
<svg version="1.1" id="Layer_1" xmlns="http://www.w3.org/2000/svg" xmlns:xlink="http://www.w3.org/1999/xlink" x="0px" y="0px"
	 viewBox="0 0 442 410.3" style="enable-background:new 0 0 442 410.3;" xml:space="preserve">
<style type="text/css">
	.st0{fill:#FFFFFF;}
</style>
<path class="st0" d="M150.5,387.2L150.5,387.2l0-0.2c-0.2-3.4-0.4-6.8-0.6-10.2c-0.5-7.4-0.9-14.7-1.3-22l-1-18.5
	c-0.5-10.3-1.1-20.8-1.8-31.3c-0.2-2.2-0.8-4.3-1.7-6.3c-9-19.1-18-38.2-27-57.2c-10.7-22.6-21.3-45.1-31.9-67.7
	c-1.3-2.8-3.5-5.1-6.3-6.3c-8.4-3.9-16.9-8-25.1-11.9c-5.4-2.6-10.9-5.2-16.3-7.8c-2.1-1-4.2-1.8-6.4-2.5c-1.9-0.6-3.9-0.5-5.7,0.1
	l-2.6,1c-4.9,1.7-9.7,3.6-14.4,5.9c-1.3,0.6-2.5,1.5-3.5,2.5l-2,0.8l0.8,0.5c-1.1,1.3-1.9,2.8-2.2,4.5v0.1L1,161l0.3,0.1
	c-1.1,6.1-1.5,12.4-1.2,18.6c0.6,8.1,1.8,16.3,3,24.2c0.3,1.8,0.6,3.7,0.8,5.5c1,7,2.1,14.1,3.2,21c1.4,9,2.8,18.3,4.1,27.4
	c1.5,11.1,3.6,22.8,9.6,33.4c0.9,1.7,1.8,3.5,2.5,5.4c0.5,1.2,1,2.4,1.6,3.6c1.8,3.9,3.6,7.9,5.3,11.8c4.9,11.1,10,22.6,17.3,32.9
	c1,1.4,2,2.9,2.9,4.3c3.1,4.6,6.2,9.4,10.5,13c12.7,11,25.9,21.7,38.7,32.1c5.2,4.2,10.3,8.4,15.5,12.6c2.3,2,5.1,3.1,8.1,3.3v0.1
	l0.3-0.1c2.3,0,4.6-0.5,6.6-1.6l0.5-0.3c3.7-2,7.5-3.7,11.5-5.2c5.8-2.1,7.5-6.9,8.2-10.2c0.3-1.5,0.3-3,0.2-4.5
	C150.5,388,150.5,387.6,150.5,387.2z M55.2,174.3l-0.2-0.1c-12.3-5.9-24.7-11.9-36.7-17.7c3.4-1.3,6.7-2.6,10-3.8l0.4,0.2
	c12.2,5.8,24.7,11.8,36.7,17.5C62,171.8,58.6,173.1,55.2,174.3z M60.5,180.9l13-5l60.2,127.6l-13.1,5.7L60.5,180.9z M129.2,400.3
	l-6.3-83.4l12.5-5.4c1,17.2,2,34.3,3.1,51.4l1.9,32.3L129.2,400.3z M441.4,172.5c-0.3-3.4-0.7-6.9-1-10.3c-0.2-2.5-1.1-4.9-2.6-6.9
	l0.7-0.4l-1.5-0.6c-1.6-1.7-3.7-2.9-5.9-3.7c-0.9-0.3-1.8-0.6-2.8-0.9c-2.5-0.8-5-1.7-7.4-2.9c-6.1-3.2-11.3-1.3-14.7,0.4l-10.8,5.2
	c-10.1,4.9-20.6,10-31,15c-2.6,1.2-4.7,3.3-5.9,5.9c-10.2,21.7-20.4,43.5-30.6,65.2c-9.5,20.1-18.9,40.2-28.4,60.3
	c-0.9,1.9-1.4,3.9-1.6,5.9c-0.3,2.9-0.4,5.8-0.6,8.7c-0.1,1.7-0.2,3.3-0.3,5c-0.4,5.8-0.8,11.5-1.2,17.3c-0.3,5-0.7,9.9-1,14.9
	c-0.2,3.5-0.5,7-0.7,10.5c-0.7,9.5-1.4,19.3-1.8,29c-0.3,6.2,2.5,10.7,7.9,12.8c3.4,1.3,6.8,2.9,10.1,4.5l2.9,1.4
	c1.8,0.9,3.8,1.4,5.9,1.4c2.9-0.1,5.8-1,8.1-2.8c11.2-8,21.6-17,31.7-25.8c4.8-4.2,9.8-8.5,14.8-12.6c6.5-5.3,12.3-11.6,17-18.5
	c1.1-1.6,2.2-3.2,3.3-4.8c3.8-5.2,7.1-10.7,10.1-16.5c5.7-11.7,11.1-23.8,16.4-35.5c2-4.4,3.9-8.8,5.9-13.1c0.8-1.6,1.3-3.3,1.6-5
	l0.5-3.1c3.8-23.8,7.6-48.5,11.3-72.8c0.7-4.8,1.2-9.6,1.6-14.3c0.2-2.1,0.4-4.2,0.6-6.3v-0.3l0-0.4
	C441.8,176.5,441.6,174.5,441.4,172.5z M313.9,400.4l-1.2-0.5c-1.1-0.5-2.3-1-3.4-1.6c-2-0.9-4.1-1.9-6.2-2.8
	c-0.2-0.1-0.3-0.1-0.4-0.2c0-0.2,0-0.4,0-0.5c0.5-6.9,1-13.8,1.4-20.6c0.3-4.1,0.5-8.2,0.8-12.2c0.8-11.6,1.6-23.1,2.5-34.7l0.5-7.2
	c0.2-2.5,0.4-5,0.6-7.7l0.1-0.8c4.7,2,9.3,4,14,6L313.9,400.4z M345,265.1l-20.3,44.7l-14.6-6.2l60-127.7l13.1,5.1L345,265.1z
	 M415.5,160.2c-8.4,4.4-17.1,8.9-25.6,13.4c-0.8,0.6-1.9,0.6-2.8,0.2c-2.9-1.2-5.8-2.3-8.8-3.5l7.4-3.6c8.7-4.2,17.8-8.6,26.6-13
	c1.3-0.8,2.8-0.8,4.1-0.2c2.2,0.9,4.5,1.8,6.8,2.7L415.5,160.2z M290.7,204.8c1.4-4.9,0.6-9.7-0.4-14.2c-0.7-3.1-1.6-6.2-2.5-9.1
	c-0.1-0.5-0.3-0.9-0.4-1.4l0.4-0.2l6.6-2.7c9.3-3.8,19-7.7,28.5-11.5c1.4-0.5,2.8-1.4,3.9-2.4h0.5l0-0.7c1.2-1.5,1.9-3.4,1.9-5.3
	c0.9-13.2,2-26.7,3-39.7l0.3-3.5c1-12.1,2-24.2,2.9-35.6c0.3-3.4,0.6-7.6,0.5-12l0.4-0.5l-0.4-0.2c0-2.4-0.2-4.9-0.5-7.5
	c-0.6-5.2-3.1-8.5-8.1-10.8c-31-14.1-64.3-29.4-101.9-46.8c-0.6-0.3-1.3-0.6-2-0.8V0.1l-0.4,0.2c-1.5-0.4-3.1-0.4-4.6,0l-0.2-0.1
	v0.2c-0.7,0.2-1.4,0.5-2.1,0.8C197.3,10,178,18.9,159.4,27.5L143.1,35l-8.7,4.1c-7,3.3-14.2,6.6-21.4,9.9c-4.4,2-6.6,5.1-7.1,10.1
	c-0.7,7.2-0.1,14.3,0.4,21.1c0.1,1.2,0.2,2.5,0.3,3.7l1,14.4c1.3,19.2,2.8,38.9,3.9,58.4c0,2.1,0.7,4.1,1.9,5.8v0.7h0.5
	c1.2,1.3,2.7,2.3,4.4,2.9c8.8,3.5,17.7,7.1,26.4,10.7l9.3,3.8l0.5,0.2c-2.6,7.5-5.4,16-3.3,25.1v0.1c-0.1,0.4-0.1,0.7-0.2,1.1
	c-0.1,1.3-0.3,2.6-0.4,4c-0.5,3.2-0.6,6.4-0.5,9.6c0.8,11.6,5.5,21.8,10,30.5c0.4,0.8,1,1.5,1.8,2.1c0.1,0.1,0.2,0.2,0.3,0.3
	l0.2,0.2c5.4,5.7,10.4,10.7,17.2,14.3c8.5,4.6,17.8,7.6,27.3,9c4.8,0.8,9.7,1.2,14.7,1.3c2.1,0,4.2-0.1,6.3-0.3
	c13.8-1.5,23.8-4.3,32.7-9.2c4.2-2.3,8.2-4.9,11.9-8c4.2-3.5,7.7-7.6,10.5-12.3c4.3-7.2,6.3-15,7.7-21.7c1.4-6.6,2.4-13.6-0.2-20.8
	C290.5,205.6,290.5,205.2,290.7,204.8z M118.4,59l-4.4,2c0.1-1.1,0.2-2.2,0.4-3.2c0.3-0.2,0.7-0.4,1-0.5l0.3-0.1
	c14.4-6.7,28.8-13.3,43.3-20l29.8-13.8c9.4-4.4,18.8-8.7,28.3-13.1c0,1.2,0,2.2-0.1,3.3c-0.2,0.2-0.4,0.4-0.7,0.5
	c-9.6,4.5-19.3,9-28.8,13.3l-6.8,3.1L118.4,59z M231.3,255.9L231.3,255.9c-3,2.2-6.7,3.2-10.4,2.9l-2.3-0.1l-0.4-0.1
	c-2.2-0.5-4.3-1.3-6.4-2.2c-1.9-0.8-3.2-2.6-3.4-4.7c0-2,1.2-3.9,3.1-4.8c6.5-3.7,13.1-3.6,19.5,0.1c1.6,0.8,2.7,2.4,2.8,4.1
	C233.9,253.1,232.9,254.9,231.3,255.9z M276.7,184.9L276.7,184.9c-5.8-5.6-13-9.9-22.7-13.5c-12.8-4.7-26.4-6.6-40-5.5
	c-12,0.8-23.8,4.1-34.6,9.4c-7.5,3.9-14.1,9.2-19.7,15.5c1.8-6.7,5.6-12.7,10.8-17.3c1.7-1.6,3.5-3,5.4-4.3
	c11-7.8,24.1-12,40.1-13.1c2-0.1,4-0.2,5.9-0.2c12.9-0.1,25.6,2.9,37.1,8.6c3,1.5,5.9,3.3,8.5,5.3c5.8,4.3,10.4,10,13.3,16.6
	c0.6,1.4,1.1,2.8,1.5,4.2C280.5,188.6,278.5,186.7,276.7,184.9z M226.2,14.3c-1.4-0.6-1.4-0.7-1.3-1.5c0.1-0.8,0.1-1.6,0.1-2.4
	l21.5,9.9c25.8,11.8,52.6,24.1,78.9,36.1c1.7,0.8,1.8,1.2,1.8,2.2c0,0.8,0.1,1.5,0.2,2.3l-28.1-12.9
	C275.4,36.8,250.7,25.4,226.2,14.3z"/>
</svg>
