<svg xmlns="http://www.w3.org/2000/svg" viewBox="0 0 472 368.81"><defs><style>.st0{fill:#fff;}</style></defs><title>Siphonator</title><path class="st0" d="M470,62.48A15.44,15.44,0,0,1,467.46,55a18.9,18.9,0,0,0-2.79-9.65,40.58,40.58,0,0,1-2-3.57c-.53-1-1.06-2-1.67-3a21.83,21.83,0,0,0-3.2-4.34c-5-4.92-10.06-9.67-15.2-14.52-6.78-6.39-15.16-9.79-22.47-12.48a8.61,8.61,0,0,0-3.8-.21c-3.26.33-6,.26-8.69-1.15a13.58,13.58,0,0,0-4.32-1.19c-.67-.11-1.31-.21-1.91-.36l-1-.24a32.52,32.52,0,0,1-4-1.1c-1.5-.55-3-1.19-4.5-1.88L389.8.41l-1-.41-.69.78-2.49,2.76c-2.1,2.33-4.09,4.53-6,6.85A7.48,7.48,0,0,0,378.44,15a11.33,11.33,0,0,0,.82,3.88l.05.14c.48,1.43.41,2.14-.3,2.94a4.64,4.64,0,0,0-.75,3.5c.31,2.22.72,4.55,1.33,7.55a3.84,3.84,0,0,1-1.07,3.95c-2.32,2.31-4.53,4.77-6.68,7.16l-2,2.19c-2.29,2.51-4.74,5.25-7.51,8.36-5.61,6.32-10.28,11.58-15.1,17.07a2.82,2.82,0,0,1-2.91,1,25.5,25.5,0,0,0-4.78-.06l-.45,0c-.63,0-1.24.08-1.87.13-2.89.24-5.39.44-7.66-1.23-1.88-1.37-4-1.31-5.3.17-1.47,1.67-3.51,2.39-5.65,3.14-.57.2-1.14.39-1.7.61a7.9,7.9,0,0,0-3.18,2.37c-.65.85-1.2.85-1.66.73-4.09-1-7.05,1-9.17,2.83a8.27,8.27,0,0,1-.86.58h0a7.18,7.18,0,0,0-6.44-.53c-.7.24-.94,0-1.13-.5l-2.3-5.86c-2.25-5.69-4.56-11.58-6.73-17.4a9.18,9.18,0,0,0-4-5.27c-1.34-.77-2.7-1.6-4-2.41-1.85-1.13-3.74-2.3-5.69-3.34a11.25,11.25,0,0,0-5.15-1.34c-19.09-.06-39-.07-61,0a10.54,10.54,0,0,0-4.84,1.13c-3.83,2.08-7.42,4.24-10.66,6.42a8.94,8.94,0,0,0-3.1,4c-2.9,7.27-5.74,14.71-8.48,21.89L178,80.49c-.47,1.21-.86,1.06-1.17,1a8.3,8.3,0,0,0-6.67.45h0a5.81,5.81,0,0,1-1-.64,9.69,9.69,0,0,0-8.82-2.75,2.53,2.53,0,0,1-1.19-.14c-1.5-2.3-3.73-3-5.7-3.64-.47-.14-.92-.29-1.38-.46a7.88,7.88,0,0,1-2.83-1.59c-2.12-2.28-4.58-2.55-7.31-.84a8.38,8.38,0,0,1-5.33,1.06c-.83-.06-1.67-.19-2.57-.32-2.22-.35-4.73-.75-7.32.18-.47.17-.84-.08-1.88-1.24l-.2-.23c-.89-1-1.76-2-2.63-3s-1.76-2-2.65-3c-1.23-1.36-2.45-2.7-3.69-4-1.62-1.77-3.23-3.54-4.83-5.33-1.74-1.94-3.47-3.9-5.19-5.86-3.56-4.06-7.23-8.24-11-12.22-2.09-2.21-2.53-3.75-1.69-5.89a10,10,0,0,0,.77-3.27,13.93,13.93,0,0,1,.2-1.58c.3-1.84.67-4.12-1.25-6.22a6.44,6.44,0,0,1,.13-1.3,12.57,12.57,0,0,1,.38-1.49,11.64,11.64,0,0,0,.55-2.51c.11-1.71.16-3.49-.79-4.76A50.49,50.49,0,0,0,83.38.73L82.7.21l-.78.35-1.73.73c-1.32.56-2.68,1.14-4,1.82a12,12,0,0,1-5.55,1.5,14.59,14.59,0,0,0-6.18,1.55,11.92,11.92,0,0,1-8.2,1A6.07,6.07,0,0,0,53,7.21l-2.19.85c-3.49,1.35-7.09,2.75-10.51,4.44-4.79,2.37-8.82,5.85-12.54,9.21l-2.7,2.41C18.72,29.73,12.18,35.52,8.6,43.9a5.13,5.13,0,0,1-.6,1A11.42,11.42,0,0,0,7.34,46a16.23,16.23,0,0,0-2.21,6.69A21.15,21.15,0,0,1,1.7,63.47a10.51,10.51,0,0,0-.91,9.75,15.26,15.26,0,0,1,.69,7.14,6.47,6.47,0,0,0,1.17,4.32c1.59,2,3.31,3.85,5,5.67.76.83,1.52,1.67,2.27,2.51a4,4,0,0,0,5.3,1c3.63-1.9,7.62-2,11.84-2l1.64,0a2.37,2.37,0,0,1,1.42.57C34.57,97.14,39,102,42.77,106.26,48.35,112.48,54,118.83,59.46,125l.4.45c.49.56,1,1.12,1.43,1.7s.89,1.09,1.36,1.62c.34.38.44.7.21,1.7-1,4.33-1.82,8.94.18,13.53a5.26,5.26,0,0,1-.15.6l-.16.59a19.51,19.51,0,0,1-.85,2.58,4.24,4.24,0,0,0,1.34,5.63c2.71,1.95,3.32,4.42,2,8.28a9.17,9.17,0,0,0-.33,1.49c0,.16,0,.32-.08.47-.48,2.53-.66,5.22,1.2,7.7.95,1.27.94,2.42,0,4.1a10.11,10.11,0,0,0-1.46,4.72c-.05,1.78,0,3.58.12,5.32.06,1.36.13,2.76.13,4.12a11.26,11.26,0,0,0,1.59,6.66,5.12,5.12,0,0,1,.54,2.91,23.25,23.25,0,0,0,1.72,9.79c.4,1.06.79,2.16,1.16,3.22.61,1.76,1.24,3.58,2,5.34A14,14,0,0,0,75,222.44c2.35,2.14,4.8,4.24,7.17,6.26,2.68,2.29,5.44,4.65,8.06,7.07,2.14,2,4.52,2.47,6.82,2.95l1.4.3c4.16,1,6.88-.88,8.79-2.63,0,.16,0,.3,0,.45l-.09,1a24.53,24.53,0,0,0-.17,3.46l0,.63c.15,3.84.31,7.81.7,11.72a91.38,91.38,0,0,0,1.72,12c1,4.41,2.36,8.8,3.66,13,.27.91.55,1.82.82,2.73.15.49.29,1,.44,1.49A51.92,51.92,0,0,0,117,290.5c2.48,5.21,5.15,10.22,8.4,16.15a57.33,57.33,0,0,0,4.69,7.13c2.95,3.85,6,7.59,8.68,10.74l1,1.24a63.33,63.33,0,0,0,5.87,6.42c2.84,2.58,5.87,5,8.81,7.37l3.22,2.6c.53.43,1,.88,1.58,1.33a31.57,31.57,0,0,0,4.57,3.47c2.74,1.61,5.56,3.13,8.3,4.59,2.5,1.34,5.08,2.73,7.57,4.16,5,2.9,10.49,4.56,15.77,6.15,1.82.56,3.71,1.13,5.53,1.74A72.83,72.83,0,0,0,222,367.5a45.77,45.77,0,0,1,5.45.59c1.47.22,3,.44,4.52.56s2.84.16,4.24.16,2.64,0,3.94-.14c4.57-.33,9.08-.79,13.39-1.36,1-.13,2.08-.24,3.12-.35,3.67-.39,7.47-.79,11.08-2.43a11.68,11.68,0,0,1,1.66-.51c.44-.1.88-.21,1.31-.35,1.78-.57,3.61-1.1,5.39-1.63,5.25-1.52,10.67-3.11,15.64-6,1.73-1,3.53-2,5.28-2.89,1.4-.73,2.85-1.49,4.26-2.28.77-.43,1.55-.85,2.34-1.27a35.11,35.11,0,0,0,8.9-6,27.93,27.93,0,0,1,3.06-2.55c.71-.54,1.46-1.1,2.17-1.71,1.27-1.09,2.63-2.17,3.94-3.21,3.87-3.07,7.88-6.23,10.85-10.56.51-.74,1.09-1.44,1.72-2.19.39-.47.78-.93,1.16-1.42,1-1.28,2.05-2.56,3.08-3.81a83.37,83.37,0,0,0,6.89-9.24c2.82-4.62,5.31-9.52,7.7-14.27,1-1.88,1.91-3.77,2.89-5.64a10.8,10.8,0,0,0,.79-2.17l1-3.5c1.31-4.61,2.68-9.38,4-14.08.16-.59.33-1.19.5-1.77a39.59,39.59,0,0,0,1.56-6.89c.31-3,.45-6.06.58-9,.08-1.91.17-3.89.31-5.83.12-1.75.36-3.53.6-5.25.06-.4.11-.79.16-1.18l.46-.06a24.78,24.78,0,0,1,2.8-.25c4.34-.06,8-1.73,11.54-5.25,1.55-1.54,3.27-3,4.94-4.38,1.33-1.11,2.7-2.25,4-3.46l1.37-1.22a20.39,20.39,0,0,0,5.06-5.75,59.6,59.6,0,0,0,5-14,12.42,12.42,0,0,1,3.67-7,9.78,9.78,0,0,0,3.22-8.33,31.32,31.32,0,0,1,.07-7.26,10.21,10.21,0,0,0-1.49-7.53c-1-1.53-.63-2.38-.14-3,2.37-3,1.83-6.37,1.4-9.06,0-.21-.07-.42-.11-.64a11.51,11.51,0,0,0-.66-2.85c-.8-2-.3-3.51,1.61-5,2.76-2.11,3.33-4.77,1.75-8.12-.79-1.66-.66-2.21-.66-2.21,1.88-4.22,1.25-8.38.3-12.27-.47-1.88-.09-3.21,1.4-4.85l5.65-6.3q3.57-4,7.16-8c5.48-6.07,11.87-13.13,18.24-20.1a2.61,2.61,0,0,1,1-.73c4.47-.12,9.19-.08,13.58,1.81,3.1,1.33,4,1.14,6.29-1.35,1.27-1.37,2.51-2.77,3.71-4.13l2.6-2.89a6.25,6.25,0,0,0,1.6-5.44,12.59,12.59,0,0,1,.34-5.38C472.58,70,472.22,66.09,470,62.48ZM432.83,89.14l-1.55,1.74c-1.31,1.46-2.61,2.92-3.93,4.37L422.07,101c-3,3.23-6,6.57-9,9.88-1.56,1.73-3.11,3.52-4.6,5.26-.95,1.11-1.9,2.22-2.87,3.32a235.69,235.69,0,0,0-49.23-44.13,23.17,23.17,0,0,1,1.46-2c1.81-2.1,3.72-4.19,5.57-6.21l.1-.11,7.4-8.08,7.36-8,2.17-2.43c1.15-1.29,2.32-2.62,3.54-3.87,1.49-1.56,1.82-1.62,3.49-.69A99.9,99.9,0,0,1,398,50.57c4.88,3.62,9.37,7.28,13.37,10.9s7.76,7.48,11.44,11.26l2,2c3.38,3.45,6.35,6.62,8.45,10.54C434.32,87.2,434.28,87.53,432.83,89.14ZM248.71,313a1.9,1.9,0,0,1-1.91,1.9H225.19a1.9,1.9,0,0,1-1.9-1.9V273.23a1.9,1.9,0,0,0-1.9-1.9H181.63a1.9,1.9,0,0,1-1.9-1.9V247.82a1.9,1.9,0,0,1,1.9-1.9h39.76a1.9,1.9,0,0,0,1.9-1.9V204.26a1.9,1.9,0,0,1,1.9-1.91H246.8a1.9,1.9,0,0,1,1.91,1.91V244a1.9,1.9,0,0,0,1.9,1.9h39.76a1.9,1.9,0,0,1,1.9,1.9v21.61a1.9,1.9,0,0,1-1.9,1.9H250.61a1.9,1.9,0,0,0-1.9,1.9ZM37.92,87.29c-.06-.38.41-1.18,1.11-2.27A62.5,62.5,0,0,1,45.2,76.9c4.56-4.84,9.45-10,14.72-14.69,6-5.39,12.51-11,19.72-15.52,1.32-.82,2.76-1.57,4.14-2.3l1-.56a3.25,3.25,0,0,1,1.51-.45,2.38,2.38,0,0,1,1.79,1c2.27,2.54,4.59,5.1,6.83,7.57l3.79,4.2c.87,1,1.73,1.93,2.59,2.89,1.32,1.48,2.63,3,4,4.43s2.61,2.83,3.92,4.23c1.61,1.73,3.28,3.53,4.89,5.31a26.65,26.65,0,0,1,1.8,2.26l.07.09a236.62,236.62,0,0,0-49.27,44.14l-1.08-1.13c-1.57-1.65-3.17-3.35-4.71-5.06-1.12-1.24-2.22-2.55-3.28-3.81s-2.33-2.77-3.55-4.12c-4.73-5.24-9.58-10.51-14.56-15.9A7.23,7.23,0,0,1,37.92,87.29Zm148.43-3.07,1.3-3.2c1.38-3.37,2.78-6.81,4.17-10.24l.32-.76c.85-2.08,1.7-4.16,2.52-6.25A4.51,4.51,0,0,1,197.21,61a2.23,2.23,0,0,0,.6-.32c5.53-4.18,12-4.65,18.08-4.52,12.67.26,25.56.19,38,.11l9.37,0a10.44,10.44,0,0,1,5.59,1.36c1,.57,2,1.1,2.93,1.63,1.21.65,2.46,1.33,3.63,2.05A4.35,4.35,0,0,1,277.12,63c2.4,5.61,4.75,11.35,7,16.91.62,1.49,1.23,3,1.85,4.48-3.35,4.4-6.94,8.72-11.53,13.91l-.16-.39c-.47-1.11-1-2.23-1.45-3.34-1.36-3.13-2.76-6.36-3.83-9.6-1.66-5.06-5.66-6.28-9.61-7.09a3.38,3.38,0,0,0-.75-.07H245.91c-10.4,0-21.17,0-31.75,0-5.74.06-9.38,2.49-11.1,7.44-1.44,4.15-3.23,8.3-5,12.31l-.24.55A110.8,110.8,0,0,1,186.35,84.22Zm24.72,24.34c-.75-1.08-.51-2,0-3.58.12-.35.22-.71.33-1l.47-1.74c1.38-5,2.8-10.22,4.3-15.29.71-2.35.71-2.35,3.26-2.36l16.68,0,16.65,0c2.59,0,2.59,0,3.28,2.33,1.43,4.84,2.81,9.79,4.14,14.58q.68,2.44,1.36,4.89l0,.15a3.26,3.26,0,0,1,.14.62,10.45,10.45,0,0,1-.31,1.26,8.75,8.75,0,0,0-.47,2.78,9.06,9.06,0,0,0,.53,2.56,144.09,144.09,0,0,0-50.73,0c.1-.43.19-.85.26-1.28l.17-.68C211.44,110.76,211.76,109.54,211.07,108.56ZM294,88.74c1.57-1.94,2.81-3.29,4.56-3a13.33,13.33,0,0,1,5.33,2.21c5.81,4,12,8.23,17.87,12.81,6.44,5,12.84,10.31,19,15.44l3.93,3.25c2.32,1.91,4.79,4.11,7.78,6.91,5.79,5.42,11.56,10.88,17.34,16.32l.75.7-.19.06a3.19,3.19,0,0,0-2,2.35,23.5,23.5,0,0,0-.87,6.08,2.79,2.79,0,0,1-1.76,3,86.32,86.32,0,0,0-9.56,5.52c-.72.48-1.46.93-2.24,1.41-2.59,1.58-5.25,3.22-7.16,6-13.56-12.14-26.95-22.81-38.32-31.69L303,131.78c-10.75-8.47-21.85-17.21-33.93-24.32l1,.32c.58.19,1.08.37,1.53.53,4.2,1.47,4.78,1.07,8-2.55l.58-.65C285.1,99.67,289.82,93.86,294,88.74Zm-121.12-2.9c.59-.19,2.39-.78,4.43,1.73l1.65,2c1.85,2.29,3.76,4.65,5.71,6.94,1.35,1.59,2.76,3.18,4.12,4.72,1.54,1.74,3.13,3.55,4.64,5.36,2,2.4,4.43,3,7.14,1.73a17.3,17.3,0,0,1,2.21-.77l.28-.08C190.41,115,178.81,124.14,167.57,133l-5.09,4c-13.12,10.31-26.67,20.95-39.39,33.09a12.58,12.58,0,0,1-1.54-2,17.54,17.54,0,0,0-6.67-6.47c-1.19-.7-2.38-1.45-3.54-2.18-1.66-1.05-3.39-2.13-5.15-3.1a4.73,4.73,0,0,1-2.8-4.53v-.36a18.27,18.27,0,0,0-.13-2.74,7.2,7.2,0,0,0-2.41-5c.18-.19.36-.37.54-.53l6.12-5.59c5.42-5,11-10.08,16.64-15,6-5.26,12.34-10.67,19.53-16.55a239.58,239.58,0,0,1,24-17.7A23.19,23.19,0,0,1,172.86,85.84Z"/></svg>