<?xml version="1.0" encoding="utf-8"?>
<!-- Generator: Adobe Illustrator 21.0.1, SVG Export Plug-In . SVG Version: 6.00 Build 0)  -->
<svg version="1.1" id="Layer_1" xmlns="http://www.w3.org/2000/svg" xmlns:xlink="http://www.w3.org/1999/xlink" x="0px" y="0px"
	 viewBox="0 0 256 256" style="enable-background:new 0 0 256 256;" xml:space="preserve">
<style type="text/css">
	.st0{fill:#FFFFFF;}
</style>
<path class="st0" d="M127.5,37C78.1,37,38,77.1,38,126.5c0,49.4,40.1,89.5,89.5,89.5s89.5-40.1,89.5-89.5
	C217,77.1,176.9,37,127.5,37z M127.5,173c-25.7,0-46.5-20.8-46.5-46.5S101.8,80,127.5,80s46.5,20.8,46.5,46.5S153.2,173,127.5,173z"
	/>
<polygon class="st0" points="109.3,6 96,62 163,62 150.3,6 "/>
<polygon class="st0" points="13.2,82.9 55.6,121.9 88.3,63.5 33.3,47.1 "/>
<polygon class="st0" points="243.3,85.9 201,124.9 168.2,66.5 223.3,50.1 "/>
<polygon class="st0" points="243.3,165.1 201,126.1 168.2,184.6 223.3,200.9 "/>
<polygon class="st0" points="13.2,171.1 55.6,132.1 88.3,190.6 33.3,206.9 "/>
<polygon class="st0" points="146.7,250 160,194 93,194 105.7,250 "/>
<g>
</g>
<g>
</g>
<g>
</g>
<g>
</g>
<g>
</g>
<g>
</g>
<g>
</g>
<g>
</g>
<g>
</g>
<g>
</g>
<g>
</g>
<g>
</g>
<g>
</g>
<g>
</g>
<g>
</g>
</svg>
