<svg id="Layer_1" data-name="Layer 1" xmlns="http://www.w3.org/2000/svg" viewBox="0 0 115.57 71.11"><title>Spark</title><path d="M102.82,38.1A19.89,19.89,0,1,0,82.94,58,19.88,19.88,0,0,0,102.82,38.1Zm-26.39,0a6.51,6.51,0,1,1,6.51,6.5A6.5,6.5,0,0,1,76.43,38.1Z" transform="translate(-2.97 -2.5)" style="fill:#fff"/><polygon points="28.26 38.23 0 33.52 24.48 56.68 0 71.11 75.88 71.11 23.4 8.38 28.26 38.23" style="fill:#fff"/><path d="M82.94,2.5A35.61,35.61,0,0,0,48.06,30.92l9.42,11A25.72,25.72,0,1,1,75.22,62.69l9.34,10.92A35.57,35.57,0,0,0,82.94,2.5Z" transform="translate(-2.97 -2.5)" style="fill:#fff"/></svg>