<?xml version="1.0" encoding="utf-8"?>
<!-- Generator: Adobe Illustrator 23.0.1, SVG Export Plug-In . SVG Version: 6.00 Build 0)  -->
<svg version="1.1" id="Layer_1" xmlns="http://www.w3.org/2000/svg" xmlns:xlink="http://www.w3.org/1999/xlink" x="0px" y="0px"
	 viewBox="0 0 256 256" style="enable-background:new 0 0 256 256;" xml:space="preserve">
<style type="text/css">
	.st0{fill:#FFFFFF;}
</style>
<path class="st0" d="M106.8,17.1c0,6.8,0,12.8,0,18.8c0,2.5,0.2,4.4,3.5,4.3c12.3-0.3,24.6-0.4,36.8-0.6c0.8,0,1.5-0.3,3-0.7
	c0-7.4,0-14.7,0-22.7c42.5,9.8,72.7,33.1,88.4,73.3c12.8,32.8,8.8,70.7-2.7,88.4c-8.8-4.6-17.8-9-26.3-14.1
	c-1.3-0.8-1.5-5.1-0.8-7.3c4.2-13.2,3.9-26.4,1.7-39.8c-2.1-13-7.5-24.5-15.4-34.5c-9.3-11.8-20.9-20.6-35.2-26.5
	c-14.2-5.8-28.7-6.3-43.4-4.9c-9.4,0.9-18.5,4.4-27,9.1c-11.3,6.5-21,14.5-28.3,25.1c-5.7,8.1-9.4,17.2-12.2,26.8
	c-3.6,12.7-4.1,25.2-1.6,38c0.7,3.4,1.6,6.8,2.9,10c1.5,3.7,0.7,5.8-2.8,7.7c-7.3,3.8-14.5,7.9-21.6,12.2c-2.9,1.8-4.3,0.9-5.5-1.8
	C11.9,159,9.1,139,11.6,118.8c2.8-22.7,12.1-42.9,27-60.7c14.8-18,33.2-30.1,54.8-37.8C97.5,18.9,101.9,18.3,106.8,17.1z"/>
<path class="st0" d="M55.7,173.3c16.8,28.6,42.5,43.3,74.4,43c32-0.3,56.8-16.6,73-44.8c9.1,4.7,17.6,9.1,26,13.6
	c2.2,1.2,3.2,2.5,1.5,5.3c-6.9,11.4-15.1,21.6-25.3,30.2c-1.7,1.4-4.7,1.8-7,1.8c-39.7,0.3-79.4,0.4-119.1,0.6
	c-6.4,0-12.7,0.8-19.1,0.6c-2.6-0.1-5.9-1-7.8-2.7c-9-8-17.7-16.4-24-26.9c-1.8-3.1-1.2-4.4,1.6-6C38.3,183.2,46.5,178.5,55.7,173.3
	z"/>
<path class="st0" d="M71.8,232.7c37.2,0,74.8,0,113.4,0C163.2,253.2,84.3,252.1,71.8,232.7z"/>
<path class="st0" d="M126.2,36.1c-1.7,0-3.5,0-5.2,0c-10.4,0-10.4,0-10.4-10.6c0-4.6,0.1-9.2,0-13.8c-0.1-3,0.9-4.3,4.1-4.3
	c8.7,0.1,17.5,0.1,26.2-0.1c3.1-0.1,4.2,1,4.2,4.1c-0.2,6.5-0.2,13,0,19.6c0.1,3.4-1.6,4.7-4.5,4.8c-4.8,0.2-9.5,0-14.3,0
	C126.2,35.9,126.2,36,126.2,36.1z"/>
<path class="st0" d="M76,134.5L76,134.5c0,2.1-1.7,3.9-3.9,3.9H55.3c-2.1,0-3.9-1.7-3.9-3.9l0,0c0-2.1,1.7-3.9,3.9-3.9h16.9
	C74.2,130.6,76,132.4,76,134.5z"/>
<path class="st0" d="M206.9,134.5L206.9,134.5c0,2.1-1.7,3.9-3.9,3.9h-16.9c-2.1,0-3.9-1.7-3.9-3.9l0,0c0-2.1,1.7-3.9,3.9-3.9H203
	C205.2,130.6,206.9,132.4,206.9,134.5z"/>
<circle class="st0" cx="127.1" cy="137.1" r="8.4"/>
<g>
	<path class="st0" d="M112.8,137.3c0-5.2,2.8-9.8,7-12.2l-28.3-16.3c-3.7-2.1-8.5-0.9-10.6,2.8c-2.1,3.7-0.9,8.5,2.8,10.6l29.1,16.8
		C112.8,138.5,112.8,137.9,112.8,137.3z"/>
</g>
<path class="st0" d="M186.2,104.4c-1.8-3.2-5.8-4.3-9-2.5l-41.9,23.6c3.7,2.8,5.8,7.3,5.5,12.1l42.8-24.2
	C186.9,111.6,188,107.6,186.2,104.4z"/>
<path class="st0" d="M129.1,187.7L129.1,187.7c2.1,0,3.9,1.7,3.9,3.9v16.9c0,2.1-1.7,3.9-3.9,3.9h0c-2.1,0-3.9-1.7-3.9-3.9v-16.9
	C125.3,189.4,127,187.7,129.1,187.7z"/>
<path class="st0" d="M129.1,56.7L129.1,56.7c2.1,0,3.9,1.7,3.9,3.9v16.9c0,2.1-1.7,3.9-3.9,3.9h0c-2.1,0-3.9-1.7-3.9-3.9V60.6
	C125.3,58.5,127,56.7,129.1,56.7z"/>
<path class="st0" d="M91.6,172.1L91.6,172.1c1.5,1.5,1.5,4,0,5.5l-11.9,11.9c-1.5,1.5-4,1.5-5.5,0l0,0c-1.5-1.5-1.5-4,0-5.5
	l11.9-11.9C87.6,170.6,90,170.6,91.6,172.1z"/>
<path class="st0" d="M184.1,79.5L184.1,79.5c1.5,1.5,1.5,4,0,5.5l-11.9,11.9c-1.5,1.5-4,1.5-5.5,0l0,0c-1.5-1.5-1.5-4,0-5.5
	l11.9-11.9C180.2,78,182.6,78,184.1,79.5z"/>
<path class="st0" d="M91.6,96.9L91.6,96.9c-1.5,1.5-4,1.5-5.5,0L74.2,85c-1.5-1.5-1.5-4,0-5.5l0,0c1.5-1.5,4-1.5,5.5,0l11.9,11.9
	C93.1,92.9,93.1,95.4,91.6,96.9z"/>
<path class="st0" d="M184.1,189.5L184.1,189.5c-1.5,1.5-4,1.5-5.5,0l-11.9-11.9c-1.5-1.5-1.5-4,0-5.5h0c1.5-1.5,4-1.5,5.5,0
	l11.9,11.9C185.6,185.5,185.6,188,184.1,189.5z"/>
</svg>
