<?xml version="1.0" encoding="utf-8"?>
<!-- Generator: Adobe Illustrator 24.2.3, SVG Export Plug-In . SVG Version: 6.00 Build 0)  -->
<svg version="1.1" id="Layer_1" xmlns="http://www.w3.org/2000/svg" xmlns:xlink="http://www.w3.org/1999/xlink" x="0px" y="0px"
	 viewBox="0 0 256 256" style="enable-background:new 0 0 256 256;" xml:space="preserve">
<style type="text/css">
	.st0{fill:#FFFFFF;}
</style>
<path class="st0" d="M226.5,70.3h-35.9l-9-9h-23.2l-9,9H29.5c-11.1,0-16.3,5.1-16.3,16.3v91.9c0,11.1,5.1,16.3,16.3,16.3h197
	c11.1,0,16.3-5.1,16.3-16.3v-92C242.7,75.4,237.6,70.3,226.5,70.3z M159.9,66.5h20l6.6,6.4l-5.5,4.8h-23.1l-4.6-4.6L159.9,66.5z
	 M47,180.4H35.9c-4.4,0-8-3.5-8-8v-78c0-4.4,3.6-7.9,7.9-7.9H47V180.4z M196.8,180.4H59.4V86.5h137.4V180.4z M229.3,172.4
	c0,4.4-3.6,7.9-7.9,7.9h-12.3V86.5h12.3c4.4,0,7.9,3.6,7.9,7.9V172.4z M87.4,175.3h-22V91.5h119.2l-29.1,29.3l-1-6.5l-26.1,27
	l-0.3-8.4L87.4,175.3z M158.4,141.6l33-32.1v65.8h-86.6l25.3-23.9l1.8,8.4l24.5-26.4L158.4,141.6z"/>
</svg>
