<?xml version="1.0" encoding="utf-8"?>
<!-- Generator: Adobe Illustrator 24.2.3, SVG Export Plug-In . SVG Version: 6.00 Build 0)  -->
<svg version="1.1" id="Layer_1" xmlns="http://www.w3.org/2000/svg" xmlns:xlink="http://www.w3.org/1999/xlink" x="0px" y="0px"
	 viewBox="0 0 256 256" style="enable-background:new 0 0 256 256;" xml:space="preserve">
<style type="text/css">
	.st0{fill:#FFFFFF;}
</style>
<path class="st0" d="M229.9,192.4c-6.9,11.7-15.7,21.8-26.3,30.2c-1.2,1-3.2,1.3-4.8,1.3c-23.2,0.1-46.4,0.1-69.7,0.1
	c-0.2,0.1-0.2,0.1-0.2,0.2c-23.1,0-46.3,0-69.4,0c-2.4,0-4.3-0.5-6.1-2.1c-9.3-8.2-17.7-17.2-24.2-27.9c-1.4-2.3-1.1-3.5,1-4.7
	c7.9-4.4,15.7-8.8,23.6-13.2c2.2-1.2,3.3-0.4,4.4,1.4c6.7,11.1,15.5,20.3,26.8,26.7c6.1,3.5,12.5,6.8,19.2,8.7
	c10.5,3,21.3,4.3,32.3,3c7.7-0.9,15.3-1.9,22.5-4.7c11.4-4.4,21.9-10.6,30-19.9c4.6-5.3,8.5-11.3,12.8-16.9c0.5-0.7,2.1-1.2,2.8-0.9
	c7.9,4,15.8,8.2,23.7,12.5C232.1,188.3,232.1,188.5,229.9,192.4z M51.1,163.5c-1.2-4.2-2.8-8.3-3.4-12.6c-2-14.2-1.5-28.4,3.6-42
	c4.2-11.2,10.6-21.1,19.2-29.5c2.6-2.6,2.6-3.1,0.1-5.7C64,66.9,57.4,60,50.8,53.1c-0.7-0.7-1.5-1.2-2.2-1.7
	c-0.4,0.1-0.6,0.2-0.8,0.3c-0.4,0.3-0.8,0.7-1.1,1c-17,16.6-27.9,36.7-32.6,60c-2.6,12.8-3.2,25.8-0.6,38.7
	c1.2,6.2,2.5,12.4,4.1,18.5c0.9,3.4,2.4,6.6,3.8,9.8c0.8,1.8,2,3.1,4.3,1.7c7.8-4.5,15.6-9.1,23.5-13.4
	C51.3,166.8,51.7,165.6,51.1,163.5z M207.4,49.2c-0.7,0.7-1.6,1.3-2.3,2.1c-6.5,7-12.9,14-19.4,21c-2.4,2.5-2.4,2.8,0.3,5.3
	c12.3,11.6,20.3,25.7,24,42.1c2.5,11,2.3,22.1,0,33.1c-0.5,2.8-1.2,5.6-2.4,8.1c-1.2,2.5-0.2,3.7,1.7,4.7c1.8,1,3.6,1.9,5.4,2.8
	c7.1,3.6,14.1,7.3,21.1,11C254.3,144.2,248.8,84.4,207.4,49.2z M185.9,233.5c-38.5,0-76.4,0-114.4,0
	C109.5,256.9,163,250.1,185.9,233.5z M147.1,203.3v-50.9H198v-36h-50.9v-51h-36v51h-51v36h51v50.9H147.1z M74.3,61.5
	c2.2,3.4,2.6,3.5,6.2,1.1c17.2-9.9,30.6-13.9,50.6-13.6c13.4,0.2,26.2,3.5,38.3,9.2c3.1,1.4,3.5,2,6,3c3,1.2,3.7,1.3,5.4-0.6
	c1.7-1.8,3.9-4.2,5.4-6c6.1-7.2,12.5-15.8,18.7-22.9C159-2.8,101.4-2.9,50.6,31.2c0.6,1,1.1,2.2,1.8,3.2C60,44,66.3,52.1,74.3,61.5z
	"/>
</svg>
