<?xml version="1.0" encoding="utf-8"?>
<!-- Generator: Adobe Illustrator 24.2.3, SVG Export Plug-In . SVG Version: 6.00 Build 0)  -->
<svg version="1.1" id="Layer_1" xmlns="http://www.w3.org/2000/svg" xmlns:xlink="http://www.w3.org/1999/xlink" x="0px" y="0px"
	 viewBox="0 0 256 256" style="enable-background:new 0 0 256 256;" xml:space="preserve">
<style type="text/css">
	.st0{fill:#FFFFFF;}
</style>
<path class="st0" d="M197.9,138.6c3,3,3.3,4.7-0.3,7.5c-21.4,16.8-45.2,28.5-71.6,34.8c-8.2,2.1-16.4,3.8-25.1,5.7
	c-1.6-1-3.5-1.7-4.9-3c-7.9-7.8-15.8-15.5-23.3-23.6c-1.7-1.8-3.1-5.1-2.7-7.4c5.5-34.7,17.4-66.7,39.6-94.5
	c2.9-3.6,4.6-3.3,7.6-0.2C144,84.9,170.9,111.8,197.9,138.6z M239.8,73.2c2.3,2.3,3.1,4.8,2.2,8c-5.4,19.7-15.9,36.4-29.6,51.3
	c-2.5,2.7-4.2,2.7-6.8,0.1C178.1,105,150.6,77.4,123,50c-2.6-2.6-2.8-4.2,0-6.8c14.9-13.7,31.6-24.3,51.3-29.6
	c1-0.3,1.9-0.4,3.6-0.8c1.2,0.8,3.1,1.5,4.4,2.9C201.5,34.8,220.6,54,239.8,73.2z M237.3,81.2c-1.6-2.5-2.3-4.4-3.6-5.7
	c-18.5-18.5-37-37-55.7-55.3c-1.3-1.3-4.4-2.1-6.1-1.5c-14.6,5.2-28.1,12.3-39.7,22.8c-2.7,2.4-3.4,4.1-0.4,7.1
	c25.2,24.8,50.4,49.7,75.4,74.8c3,3,4.9,3.1,7.3-0.4c3.9-5.8,8.4-11.2,11.7-17.4C230.3,97.7,233.6,89.4,237.3,81.2z M160.6,176.4
	c0.3,0.3,0.7,0.6,1,0.9c-1.3,3-2.6,6-3.8,9c-7.5,18.2-15.1,36.4-22.5,54.7c-1.3,3.1-2.4,3.7-5.5,2.3c-6-2.9-12.4-5.1-18.4-8
	c-1.9-0.9-4.1-2.9-4.4-4.8c-2.2-10.8-3.9-21.7-5.7-32.6c-0.2-1.4,0-2.8,0-4.9C122.4,191,141.8,185,160.6,176.4z M149.3,189.5
	c-13.9,3.5-27.1,6.9-40.3,10.2c1,6.8,1.8,13.9,3.2,20.8c0.7,3.3,0.1,7.5,4.2,9.2c3.6,1.5,7.2,2.8,10.9,4c2.9,1,4.7,0.6,6-2.9
	c3.5-9.7,7.6-19.3,11.4-28.9C146.3,197.7,147.8,193.4,149.3,189.5z M11.8,126.1c-1.2-2.7-0.5-4.2,1.9-5.2
	c20.4-8.4,40.7-16.7,61.1-25c0.9-0.2,1.8-0.3,3.9-0.7c-2.3,5.9-4.2,10.9-6.2,15.9c-5.3,13-8.3,26.6-10,40.5
	c-0.4,3.3-1.6,3.7-4.6,3.1c-11.2-2-22.4-3.7-33.5-5.9c-1.6-0.3-3.5-2-4.2-3.5C17.2,139,14.7,132.5,11.8,126.1z M20.5,124.7
	c2.7,10.4,4.4,20.3,17.9,20.3c6,0,12.1,1.6,17,2.4c3.7-14.1,7-27.2,10.5-40.7C50.8,112.7,35.6,118.7,20.5,124.7z M240.1,43.7
	c-10.4-9.3-19.9-19.7-29.9-29.6c-4.8-4.8-14-5.7-19.7-2.2c17.8,17.8,35.6,35.6,54,54C245.9,57.5,247.5,50.3,240.1,43.7z M218.6,11.7
	c8.1,8.5,16.8,17.5,25.4,26.4C243.9,24.4,230.6,11.2,218.6,11.7z M59.6,164.2c0.5,1.7,0.8,3.4,1.4,5c1.4,4,1,4.7-3.3,5
	c-2.7,0.2-5.4,0.3-8.1,0.5c0,0.3,0,0.6,0,0.9c3.6,1.4,7.3,2.6,10.9,4c3,1.1,3.3,2.1,1.2,4.7c-2.2,2.7-4.5,5.3-6.7,8
	c-14.1,16.9-28.2,33.8-42.3,50.8c-0.7,0.8-1.1,1.9-1.7,2.9c3-1.1,5.4-2.5,7.6-4.2c18.6-14.7,37.1-29.3,55.7-44
	c3.2-2.6,4.4-2.2,5.5,1.8c0.8,2.7,1.8,5.4,2.7,8.1c0.3,0.1,0.7,0.1,1.1,0.1c0.6-2.1,1.4-4.2,1.7-6.3c0.6-4.5,1-4.7,5.3-3.2
	c1.7,0.6,3.5,1,5.2,1.5c0.2-0.4,0.4-0.8,0.9-1.2c-11.9-11.7-23.9-23.5-35.8-35.2C60.4,163.7,60,163.9,59.6,164.2z"/>
</svg>
