<?xml version="1.0" encoding="utf-8"?>
<!-- Generator: Adobe Illustrator 24.0.1, SVG Export Plug-In . SVG Version: 6.00 Build 0)  -->
<svg version="1.1" id="Layer_1" xmlns="http://www.w3.org/2000/svg" xmlns:xlink="http://www.w3.org/1999/xlink" x="0px" y="0px"
	 viewBox="0 0 256 256" style="enable-background:new 0 0 256 256;" xml:space="preserve">
<style type="text/css">
	.st0{fill:#FFFFFF;}
</style>
<path class="st0" d="M230.3,193.9c-6.9,11.7-15.7,21.8-26.3,30.2c-1.2,1-3.2,1.3-4.8,1.3c-23.2,0.1-46.4,0.1-69.7,0.1
	c-0.2,0.1-0.2,0.1-0.2,0.2c-23.1,0-46.3,0-69.4,0c-2.4,0-4.3-0.5-6.1-2.1c-9.3-8.2-17.7-17.2-24.2-27.9c-1.4-2.3-1.1-3.5,1-4.7
	c7.9-4.4,15.7-8.8,23.6-13.2c2.2-1.2,3.3-0.4,4.4,1.4c6.7,11.1,15.5,20.3,26.8,26.7c6.1,3.5,12.5,6.8,19.2,8.7
	c10.5,3,21.3,4.3,32.3,3c7.7-0.9,15.3-1.9,22.5-4.7c11.4-4.4,21.9-10.6,30-19.9c4.6-5.3,8.5-11.3,12.8-16.9c0.5-0.7,2.1-1.2,2.8-0.9
	c7.9,4,15.8,8.2,23.7,12.5C232.5,189.8,232.5,190,230.3,193.9z M51.5,165c-1.2-4.2-2.8-8.3-3.4-12.6c-2-14.2-1.5-28.4,3.6-42
	c4.2-11.2,10.6-21.1,19.2-29.5c2.6-2.6,2.6-3.1,0.1-5.7c-6.6-6.8-13.2-13.7-19.8-20.6c-0.7-0.7-1.5-1.2-2.2-1.7
	c-0.4,0.1-0.6,0.2-0.8,0.3c-0.4,0.3-0.8,0.7-1.1,1c-17,16.6-27.9,36.7-32.6,60c-2.6,12.8-3.2,25.8-0.6,38.7
	c1.2,6.2,2.5,12.4,4.1,18.5c0.9,3.4,2.4,6.6,3.8,9.8c0.8,1.8,2,3.1,4.3,1.7c7.8-4.5,15.6-9.1,23.5-13.4
	C51.7,168.3,52.1,167.1,51.5,165z M207.8,50.7c-0.7,0.7-1.6,1.3-2.3,2.1c-6.5,7-12.9,14-19.4,21c-2.4,2.5-2.4,2.8,0.3,5.3
	c12.3,11.6,20.3,25.7,24,42.1c2.5,11,2.3,22.1,0,33.1c-0.5,2.8-1.2,5.6-2.4,8.1s-0.2,3.7,1.7,4.7c1.8,1,3.6,1.9,5.4,2.8
	c7.1,3.6,14.1,7.3,21.1,11C254.7,145.7,249.2,85.9,207.8,50.7z M186.3,235c-38.5,0-76.4,0-114.4,0
	C109.9,258.4,163.4,251.6,186.3,235z M74.7,63c2.2,3.4,2.6,3.5,6.2,1.1c17.2-9.9,30.6-13.9,50.6-13.6c13.4,0.2,26.2,3.5,38.3,9.2
	c3.1,1.4,3.5,2,6,3c3,1.2,3.7,1.3,5.4-0.6c1.7-1.8,3.9-4.2,5.4-6c6.1-7.2,12.5-15.8,18.7-22.9C159.4-1.3,101.8-1.4,51,32.7
	c0.6,1,1.1,2.2,1.8,3.2C60.4,45.5,66.7,53.6,74.7,63z"/>
<g>
	<path class="st0" d="M105.3,190.1l16.7-34.8l-18.6,4.2l23.3-42.4l-20.7,4.7L120.7,86c-4.4-1.4-8.6-3.3-13.2-5.3
		C96,94.2,87.1,103.7,59.1,108.7C68.5,150.4,81.1,175.1,105.3,190.1z"/>
</g>
<path class="st0" d="M156.5,88.2l-21.6,28.1l20.9,1.6l-33.5,34.3l19.4,1.5L114.9,185c6.3,6.6,14,12.7,23.4,18.4
	c41-20.1,54.4-48.2,57-105.9C176.4,97.6,165.6,94,156.5,88.2z"/>
</svg>
