<?xml version="1.0" encoding="utf-8"?>
<!-- Generator: Adobe Illustrator 24.0.1, SVG Export Plug-In . SVG Version: 6.00 Build 0)  -->
<svg version="1.1" id="Layer_1" xmlns="http://www.w3.org/2000/svg" xmlns:xlink="http://www.w3.org/1999/xlink" x="0px" y="0px"
	 viewBox="0 0 256 256" style="enable-background:new 0 0 256 256;" xml:space="preserve">
<style type="text/css">
	.st0{fill:#FFFFFF;}
</style>
<path class="st0" d="M229.9,193.2c-6.9,11.7-15.7,21.8-26.3,30.2c-1.2,1-3.2,1.3-4.8,1.3c-23.2,0.1-46.4,0.1-69.7,0.1
	c-0.2,0.1-0.2,0.1-0.2,0.2c-23.1,0-46.3,0-69.4,0c-2.4,0-4.3-0.5-6.1-2.1c-9.3-8.2-17.7-17.2-24.2-27.9c-1.4-2.3-1.1-3.5,1-4.7
	c7.9-4.4,15.7-8.8,23.6-13.2c2.2-1.2,3.3-0.4,4.4,1.4c6.7,11.1,15.5,20.3,26.8,26.7c6.1,3.5,12.5,6.8,19.2,8.7
	c10.5,3,21.3,4.3,32.3,3c7.7-0.9,15.3-1.9,22.5-4.7c11.4-4.4,21.9-10.6,30-19.9c4.6-5.3,8.5-11.3,12.8-16.9c0.5-0.7,2.1-1.2,2.8-0.9
	c7.9,4,15.8,8.2,23.7,12.5C232.1,189.1,232.1,189.3,229.9,193.2z M185.9,234.3c-38.5,0-76.4,0-114.4,0
	C109.5,257.7,163,250.9,185.9,234.3z M74.3,62.3c2.2,3.4,2.6,3.5,6.2,1.1c17.2-9.9,30.6-13.9,50.6-13.6c13.4,0.2,26.2,3.5,38.3,9.2
	c3.1,1.4,3.5,2,6,3c3,1.2,3.7,1.3,5.4-0.6c1.7-1.8,3.9-4.2,5.4-6c6.1-7.2,12.5-15.8,18.7-22.9C159-2,101.4-2.1,50.6,32
	c0.6,1,1.1,2.2,1.8,3.2C60,44.8,66.3,52.9,74.3,62.3z"/>
<polyline class="st0" points="134.7,67.7 166.1,68.6 133.2,120.1 158.9,120.5 90.3,197 124.9,134.3 104.9,134.2 134.7,67.7 "/>
<path class="st0" d="M65.5,77.3c2.6-2.6,2.6-3.1,0.1-5.7C59,64.8,52.4,57.9,45.8,51c-0.7-0.7-1.5-1.2-2.2-1.7
	c-0.4,0.1-0.6,0.2-0.8,0.3c-0.4,0.3-0.8,0.7-1.1,1c-3.5,3.4-6.8,7-9.8,10.8l6.3,5.6c-33,39.3-17,91.3-17,91.3l-9.9,4.7
	c0.4,1.6,0.8,3.3,1.2,4.9c0.9,3.4,2.4,6.6,3.8,9.8c0.8,1.8,2,3.1,4.3,1.7c7.8-4.5,15.6-9.1,23.5-13.4c2.1-1.2,2.5-2.4,1.9-4.5
	c-1.2-4.2-2.8-8.3-3.4-12.6c-2-14.2-1.5-28.4,3.6-42C50.5,95.6,56.9,85.7,65.5,77.3z"/>
<path class="st0" d="M191.1,75.7c-2.6-2.6-2.6-3.1-0.1-5.7c6.6-6.8,13.2-13.7,19.8-20.6c0.7-0.7,1.5-1.2,2.2-1.7
	c0.4,0.1,0.6,0.2,0.8,0.3c0.4,0.3,0.8,0.7,1.1,1c3.5,3.4,6.8,7,9.8,10.8l-6.3,5.6c33,39.3,17,91.3,17,91.3l9.9,4.7
	c-0.4,1.6-0.8,3.3-1.2,4.9c-0.9,3.4-2.4,6.6-3.8,9.8c-0.8,1.8-2,3.1-4.3,1.7c-7.8-4.5-15.6-9.1-23.5-13.4c-2.1-1.2-2.5-2.4-1.9-4.5
	c1.2-4.2,2.8-8.3,3.4-12.6c2-14.2,1.5-28.4-3.6-42C206.1,94,199.7,84.1,191.1,75.7z"/>
<g>
	<path class="st0" d="M114.6,87.8l6-13.9c-30.2,4-53.4,29.8-53.4,61.1c0,18.6,8.3,35.3,21.4,46.7l6.3-11.2
		c-9.2-9-14.9-21.5-14.9-35.4C79.8,112.9,94.4,94.1,114.6,87.8z"/>
	<path class="st0" d="M184.3,108l-1.8-3.5c-0.1-0.1-0.1-0.2-0.2-0.3c-4-6.9-9.2-12.9-15.4-17.8l-6.4,10.1c2.9,2.3,5.5,4.9,7.7,7.8
		c0,0,2.7,3.7,4.2,6.4s3.3,6.9,3.3,6.9c2,5.4,3.2,11.3,3.2,17.4c0,27.4-22.2,49.5-49.5,49.5c-4,0-7.9-0.5-11.6-1.4l-9,10.1
		c6.3,2.1,13,3.3,20,3.3c34.1,0,61.7-27.6,61.7-61.7C190.5,125.3,188.2,116.2,184.3,108z"/>
</g>
</svg>
