<?xml version="1.0" encoding="utf-8"?>
<!-- Generator: Adobe Illustrator 24.0.1, SVG Export Plug-In . SVG Version: 6.00 Build 0)  -->
<svg version="1.1" id="Layer_1" xmlns="http://www.w3.org/2000/svg" xmlns:xlink="http://www.w3.org/1999/xlink" x="0px" y="0px"
	 viewBox="0 0 256 256" style="enable-background:new 0 0 256 256;" xml:space="preserve">
<style type="text/css">
	.st0{fill:#FFFFFF;}
</style>
<polygon class="st0" points="203.8,137.9 174.9,127.5 193.1,95.5 150.4,105.9 138.3,57.1 114.9,96.8 80.3,77.7 89.3,129.9 
	53.7,133.7 89.6,176.4 77.6,190.6 113.3,190.4 88.7,185.3 96.4,175.7 68.2,140.2 99.8,137.7 91.8,95.5 117.6,110.6 134.3,85.9 
	148.2,117.5 179.6,107.5 168.2,131.3 193.8,141.3 158.7,174.8 168.7,184.6 144.7,190.2 181.6,189.1 168,174.6 "/>
<path class="st0" d="M229.3,191.3c-6.9,11.7-15.7,21.8-26.3,30.2c-1.2,1-3.2,1.3-4.8,1.3c-23.2,0.1-46.4,0.1-69.7,0.1
	c-0.2,0.1-0.2,0.1-0.2,0.2c-23.1,0-46.3,0-69.4,0c-2.4,0-4.3-0.5-6.1-2.1c-9.3-8.2-17.7-17.2-24.2-27.9c-1.4-2.3-1.1-3.5,1-4.7
	c7.9-4.4,15.7-8.8,23.6-13.2c2.2-1.2,3.3-0.4,4.4,1.4c6.7,11.1,15.5,20.3,26.8,26.7c6.1,3.5,12.5,6.8,19.2,8.7
	c10.5,3,21.3,4.3,32.3,3c7.7-0.9,15.3-1.9,22.5-4.7c11.4-4.4,21.9-10.6,30-19.9c4.6-5.3,8.5-11.3,12.8-16.9c0.5-0.7,2.1-1.2,2.8-0.9
	c7.9,4,15.8,8.2,23.7,12.5C231.5,187.2,231.5,187.4,229.3,191.3z M50.5,162.4c-1.2-4.2-2.8-8.3-3.4-12.6c-2-14.2-1.5-28.4,3.6-42
	c4.2-11.2,10.6-21.1,19.2-29.5c2.6-2.6,2.6-3.1,0.1-5.7C63.4,65.8,56.8,58.9,50.2,52c-0.7-0.7-1.5-1.2-2.2-1.7
	c-0.4,0.1-0.6,0.2-0.8,0.3c-0.4,0.3-0.8,0.7-1.1,1c-17,16.6-27.9,36.7-32.6,60c-2.6,12.8-3.2,25.8-0.6,38.7
	c1.2,6.2,2.5,12.4,4.1,18.5c0.9,3.4,2.4,6.6,3.8,9.8c0.8,1.8,2,3.1,4.3,1.7c7.8-4.5,15.6-9.1,23.5-13.4
	C50.7,165.7,51.1,164.5,50.5,162.4z M206.8,48.1c-0.7,0.7-1.6,1.3-2.3,2.1c-6.5,7-12.9,14-19.4,21c-2.4,2.5-2.4,2.8,0.3,5.3
	c12.3,11.6,20.3,25.7,24,42.1c2.5,11,2.3,22.1,0,33.1c-0.5,2.8-1.2,5.6-2.4,8.1s-0.2,3.7,1.7,4.7c1.8,1,3.6,1.9,5.4,2.8
	c7.1,3.6,14.1,7.3,21.1,11C253.7,143.1,248.2,83.3,206.8,48.1z M185.3,232.4c-38.5,0-76.4,0-114.4,0
	C108.9,255.8,162.4,249,185.3,232.4z"/>
<g>
	<polygon class="st0" points="151.2,179.6 143.8,159.1 164.3,151.7 156.7,130.7 136.3,138.1 128.9,117.5 107.9,125.1 115.2,145.6 
		94.7,153 102.2,174 122.8,166.6 130.1,187.1 151.2,179.6 	"/>
</g>
<g>
	<polygon class="st0" points="120.7,65.9 113.8,46.6 133.1,39.7 126,20 106.7,26.9 99.8,7.5 80,14.6 86.9,34 67.6,40.9 74.7,60.7 
		94,53.7 100.9,73 120.7,65.9 	"/>
</g>
<g>
	<polygon class="st0" points="163.7,53.7 170.8,41.8 182.7,48.9 190.1,36.6 178.1,29.5 185.3,17.5 173,10.2 165.9,22.2 153.9,15 
		146.6,27.3 158.5,34.5 151.4,46.4 163.7,53.7 	"/>
</g>
</svg>
