<?xml version="1.0" encoding="utf-8"?>
<!-- Generator: Adobe Illustrator 24.2.3, SVG Export Plug-In . SVG Version: 6.00 Build 0)  -->
<svg version="1.1" id="Layer_1" xmlns="http://www.w3.org/2000/svg" xmlns:xlink="http://www.w3.org/1999/xlink" x="0px" y="0px"
	 viewBox="0 0 256 256" style="enable-background:new 0 0 256 256;" xml:space="preserve">
<style type="text/css">
	.st0{fill:#FFFFFF;}
</style>
<path class="st0" d="M246.2,47.4l-1.1,53.1l-110,102.4c0,0-3.8,4.3-10.3,3.8c-6.5-0.6-8.7-7.6-8.7-7.6L41.9,10h22.8l60.7,183.7
	L246.2,47.4z M167.2,182.3L140,206.6c0,0-7.6,6.5-15.7,6.5c-8.1,0-11.9-6.5-14.6-11.9c-2.7-5.4-7.6-17.9-7.6-17.9l-55.7-18.8
	l35,28.5L10,201.8l71.4,8.4L45,233.9l58.6-13.2l-1.5,24.9l32.3-20.3l48.4,8.4l-27.1-20l62.7-7.6l-43.2-9.6l44-16.2L167.2,182.3z
	 M140.5,165.5l-3.8-36.3l-13.5,35.2l4.9,17.4L140.5,165.5z"/>
</svg>
