<?xml version="1.0" encoding="utf-8"?>
<!-- Generator: Adobe Illustrator 21.0.1, SVG Export Plug-In . SVG Version: 6.00 Build 0)  -->
<svg version="1.1" id="Layer_1" xmlns="http://www.w3.org/2000/svg" xmlns:xlink="http://www.w3.org/1999/xlink" x="0px" y="0px"
	 viewBox="0 0 256 256" style="enable-background:new 0 0 256 256;" xml:space="preserve">
<style type="text/css">
	.st0{fill:#FFFFFF;}
</style>
<path class="st0" d="M113.3,52.7c-3.1-0.8-3.3-1.1-2.5-4.1c0.9-3.4,1.7-6.8,2.7-10.1c0.2-0.6,0.8-1.4,1.3-1.5c2.6-0.7,2.6-0.6,3-3.9
	c-3.1,0.1-2.7-1.7-2-3.7c1-2.6,1-5.5,3.3-7.8c2.2-2.2,4.4-3.5,7.5-3c1.1,0.2,2.3,0,3.4,0c6.7,0,9.5,2.2,11.2,8.6
	c0.2,0.9,0.4,1.9,0.7,2.8c0.7,2,0.2,3-2.2,2.9c0.3,2-0.2,4.4,3.1,4.1c0.4,0,1,0.4,1.1,0.8c1.2,4.5,2.2,9,3.3,13.5
	c0.1,0.2-0.1,0.5-0.2,0.9c-0.8,0.2-1.7,0.4-2.7,0.5c0.2,2.3,0.2,4.5,3.6,4.1c0.4-0.1,1.2,0.9,1.4,1.5c3.4,12.6,6.6,25.2,9.9,37.8
	c0.5,1.9,0.2,3.3-1.6,4.5c-2.2,1.5-4.1,3.2-6.4,5c-0.6-1.1-2.4-1.9-2.7-2.9c-2.5-8.6-3.7-22.6-6.3-31.2c-2.3-7.6-0.5-6.8-9-6.8
	c-4.1,0-8.2,0-12.3,0c-2.3,0-3.5,0.9-4.1,3.1c-2.8,9.6-4.7,24.5-7.6,34.1c-0.3,1.1-2.1,2.2-2.9,3.6c-2.5-2-5.2-3.8-7.4-6
	c-0.7-0.7-0.6-2.5-0.3-3.7c3.2-12.4,6.5-24.9,9.8-37.3c0.2-0.7,1-1.8,1.4-1.7C112.9,57.1,113.1,55,113.3,52.7z"/>
<path class="st0" d="M128.7,131.5c-1.1,0-2.3-0.2-3.4,0c-3.9,0.9-6.4-1.5-8.4-4.1c-0.9-1.2-1.1-3.3-1.1-4.9c0.1-2.6-0.7-4.6-2.8-6.1
	c-4.6-3.2-5-7-2.6-12c3.5-7.6,6.5-15.4,9.7-23.2c0.8-2,2.3-2.7,4.3-2.7c3,0,5.9,0.1,8.9,0c2.6-0.1,4.2,1.2,5,3.4
	c3.6,9.3,7.2,18.5,10.6,27.9c0.3,0.7-0.2,1.9-0.6,2.7c-0.3,0.7-1,1.2-1.6,1.7c-3.4,2.8-5.3,6.1-5.2,10.8c0.1,3.3-4.1,6.6-7.4,6.6
	C132.4,131.5,130.5,131.5,128.7,131.5z"/>
<path class="st0" d="M189.5,125.8c-0.5,0.5-1,1-1.6,1.5c-13.2,9.7-19.6,15.2-32.8,24.9c-0.5,0.4-1.2,0.9-1.8,0.9
	c-4.2,0.1-8.5,0-12.9,0c2.2-3.4,4.4-7,6.6-10.5c0.3-0.5,1.1-0.9,1.7-1.2c15.2-6.7,23.1-10,38.2-16.7c0.5-0.2,1.1-0.3,1.6-0.4
	C188.8,124.6,189.4,125.6,189.5,125.8z"/>
<path class="st0" d="M126.7,230.6c-0.2-0.7-0.4-1.4-0.4-2.1c-1.7-16.2-3.3-24.6-4.9-40.8c-0.1-0.7-0.2-1.5,0.1-2
	c2.1-3.7,4.2-7.3,6.5-11.1c1.9,3.6,3.8,7.3,5.7,11c0.3,0.6,0.2,1.4,0.2,2c-1.9,16.5-3,25-4.9,41.4c-0.1,0.5-0.3,1.1-0.5,1.6
	C128.1,230.5,126.9,230.6,126.7,230.6z"/>
<path class="st0" d="M159.9,67.6l-13.3-30.4c2.1-0.7,4.3-0.7,5.7,1.2c2.8,4.1,5.9,8,8.7,12.1c0.7,1,1.1,2.1,1.4,3.3
	c1.1,3.3,1,5.9-0.1,9.1C162,64.3,161.8,64.9,159.9,67.6z"/>
<path class="st0" d="M98,67.6l13.3-30.4c-2.1-0.7-4.3-0.7-5.7,1.2c-2.8,4.1-5.9,8-8.7,12.1c-0.7,1-1.1,2.1-1.4,3.3
	c-1.1,3.3-1,5.9,0.1,9.1C96,64.3,96.1,64.9,98,67.6z"/>
<path class="st0" d="M128.8,151.3c-1.8-4.1-3.5-7.7-4.9-11.4c-0.2-0.6,1.1-2.4,1.9-2.6c1.8-0.4,3.9-0.4,5.7,0c0.9,0.2,2.2,2.1,2,2.8
	C132.3,143.8,130.6,147.3,128.8,151.3z"/>
<path class="st0" d="M121.7,164.2c-2.7,3.6-5,6.8-7.3,9.9c-1.1,1.5-2.3,1.1-3.2-0.1c-1.1-1.6-2.1-3.4-3-5.2c-0.7-1.4,0.3-3.1,2-3.3
	C113.9,165.1,117.5,164.7,121.7,164.2z"/>
<path class="st0" d="M135.4,164.5c4.4,0.5,8.3,0.9,12.2,1.3c1.8,0.2,2.2,1.4,1.5,2.8c-0.8,1.7-1.8,3.4-2.9,5
	c-1.1,1.4-2.7,1.8-3.9,0.2C140.1,170.9,138,167.9,135.4,164.5z"/>
<path class="st0" d="M67.4,126.2c0.5,0.5,1,1,1.6,1.5c13.2,9.7,19.6,15.2,32.8,24.9c0.5,0.4,1.2,0.9,1.8,0.9c4.2,0.1,8.5,0,12.9,0
	c-2.2-3.4-4.4-7-6.6-10.5c-0.3-0.5-1.1-0.9-1.7-1.2c-15.2-6.7-23.1-10-38.2-16.7c-0.5-0.2-1.1-0.3-1.6-0.4
	C68.2,125,67.6,126,67.4,126.2z"/>
<path class="st0" d="M230.4,201.2c2.2-2.3,2.6-2.3,4.8-0.1c2.5,2.5,5,4.9,7.4,7.4c0.4,0.5,0.8,1.4,0.7,1.9c-0.7,2.6-0.8,2.6,1.9,4.6
	c1.5-2.8,2.9-1.5,4.2,0.1c1.8,2.1,4.2,3.6,5.1,6.8c0.8,3.1,0.8,5.5-1.1,8c-0.7,0.9-1.2,2-1.7,2.9c-3.4,5.8-6.6,7.2-13.1,5.4
	c-0.9-0.3-1.8-0.6-2.8-0.8c-2.1-0.4-2.7-1.3-1.4-3.4c-1.9-0.7-3.7-2.3-5,0.6c-0.2,0.3-0.9,0.7-1.2,0.6c-4.5-1.2-8.9-2.6-13.3-3.9
	c-0.2-0.1-0.4-0.4-0.7-0.7c0.3-0.8,0.6-1.7,0.9-2.6c-2.1-1-4-2.1-5.3,1c-0.1,0.4-1.4,0.6-2,0.4c-12.6-3.4-25.1-6.8-37.7-10.3
	c-1.9-0.5-3-1.5-3.1-3.6c-0.2-2.6-0.7-5.2-1.1-8c1.3,0,2.9-1.1,3.8-0.9c8.7,2.2,21.4,8.1,30.2,10.1c7.7,1.8,6.2,2.9,10.4-4.4
	c2.1-3.6,4.1-7.2,6.2-10.7c1.2-1.9,1-3.5-0.6-5.1c-7-7.3-18.9-16.3-25.8-23.6c-0.8-0.9-0.8-2.9-1.7-4.3c3-1.2,5.9-2.6,8.9-3.4
	c0.9-0.3,2.5,0.7,3.3,1.5c9.2,9,18.3,18,27.4,27.1c0.5,0.5,1,1.8,0.8,2.1C226.8,198.6,228.5,199.8,230.4,201.2z"/>
<path class="st0" d="M154.5,175.1c0.6-1,1.3-1.9,1.7-3c1.2-3.8,4.4-4.8,7.7-5.2c1.5-0.2,3.4,0.7,4.8,1.5c2.2,1.4,4.4,1.7,6.7,0.6
	c5.1-2.4,8.6-0.8,11.7,3.7c4.8,6.8,10.1,13.3,15.3,20c1.3,1.7,1.2,3.4,0.2,5.1c-1.5,2.6-3.1,5.1-4.4,7.7c-1.2,2.3-3.2,3-5.5,2.7
	c-9.8-1.5-19.6-3.1-29.4-4.7c-0.8-0.1-1.5-1.1-2.1-1.9c-0.4-0.6-0.6-1.5-0.7-2.2c-0.7-4.3-2.6-7.7-6.7-9.9c-2.9-1.6-3.7-6.8-2-9.7
	C152.6,178.3,153.6,176.7,154.5,175.1z"/>
<path class="st0" d="M194.2,234.1l32.9,3.7c-0.5,2.1-1.5,4.1-3.9,4.3c-5,0.4-9.9,1.1-14.9,1.5c-1.2,0.1-2.4-0.1-3.6-0.4
	c-3.4-0.7-5.6-2.1-7.9-4.7C196.1,237.5,195.6,237.1,194.2,234.1z"/>
<path class="st0" d="M225.2,180.5l19.7,26.7c1.6-1.5,2.8-3.4,1.8-5.5c-2.2-4.5-4-9.1-6.1-13.6c-0.5-1.1-1.3-2-2.1-2.9
	c-2.3-2.6-4.6-3.8-8-4.5C229,180.4,228.4,180.2,225.2,180.5z"/>
<path class="st0" d="M25.5,200.1c-2.2-2.3-2.6-2.3-4.8-0.1c-2.5,2.5-5,4.9-7.4,7.4c-0.4,0.5-0.8,1.4-0.7,1.9
	c0.7,2.6,0.8,2.6-1.9,4.6c-1.5-2.8-2.9-1.5-4.2,0.1c-1.8,2.1-4.2,3.6-5.1,6.8c-0.8,3.1-0.8,5.5,1.1,8c0.7,0.9,1.2,2,1.7,2.9
	c3.4,5.8,6.6,7.2,13.1,5.4c0.9-0.3,1.8-0.6,2.8-0.8c2.1-0.4,2.7-1.3,1.4-3.4c1.9-0.7,3.7-2.3,5,0.6c0.2,0.3,0.9,0.7,1.2,0.6
	c4.5-1.2,8.9-2.6,13.3-3.9c0.2-0.1,0.4-0.4,0.7-0.7c-0.3-0.8-0.6-1.7-0.9-2.6c2.1-1,4-2.1,5.3,1c0.1,0.4,1.4,0.6,2,0.4
	c12.6-3.4,25.1-6.8,37.7-10.3c1.9-0.5,3-1.5,3.1-3.6c0.2-2.6,0.7-5.2,1.1-8c-1.3,0-2.9-1.1-3.8-0.9c-8.7,2.2-21.4,8.1-30.2,10.1
	c-7.7,1.8-6.2,2.9-10.4-4.4c-2.1-3.6-4.1-7.2-6.2-10.7c-1.2-1.9-1-3.5,0.6-5.1c7-7.3,18.9-16.3,25.8-23.6c0.8-0.9,0.8-2.9,1.7-4.3
	c-3-1.2-5.9-2.6-8.9-3.4c-0.9-0.3-2.5,0.7-3.3,1.5c-9.2,9-18.3,18-27.4,27.1c-0.5,0.5-1,1.8-0.8,2.1
	C29.1,197.4,27.4,198.7,25.5,200.1z"/>
<path class="st0" d="M101.4,174c-0.6-1-1.3-1.9-1.7-3c-1.2-3.8-4.4-4.8-7.7-5.2c-1.5-0.2-3.4,0.7-4.8,1.5c-2.2,1.4-4.4,1.7-6.7,0.6
	c-5.1-2.4-8.6-0.8-11.7,3.7c-4.8,6.8-10.1,13.3-15.3,20c-1.3,1.7-1.2,3.4-0.2,5.1c1.5,2.6,3.1,5.1,4.4,7.7c1.2,2.3,3.2,3,5.5,2.7
	c9.8-1.5,19.6-3.1,29.4-4.7c0.8-0.1,1.5-1.1,2.1-1.9c0.4-0.6,0.6-1.5,0.7-2.2c0.7-4.3,2.6-7.7,6.7-9.9c2.9-1.6,3.7-6.8,2-9.7
	C103.2,177.1,102.3,175.6,101.4,174z"/>
<path class="st0" d="M61.7,233l-32.9,3.7c0.5,2.1,1.5,4.1,3.9,4.3c5,0.4,9.9,1.1,14.9,1.5c1.2,0.1,2.4-0.1,3.6-0.4
	c3.4-0.7,5.6-2.1,7.9-4.7C59.8,236.4,60.3,236,61.7,233z"/>
<path class="st0" d="M30.7,179.4L11,206.1c-1.6-1.5-2.8-3.4-1.8-5.5c2.2-4.5,4-9.1,6.1-13.6c0.5-1.1,1.3-2,2.1-2.9
	c2.3-2.6,4.6-3.8,8-4.5C26.8,179.3,27.5,179.1,30.7,179.4z"/>
</svg>
