<?xml version="1.0" encoding="utf-8"?>
<!-- Generator: Adobe Illustrator 24.2.3, SVG Export Plug-In . SVG Version: 6.00 Build 0)  -->
<svg version="1.1" id="Layer_1" xmlns="http://www.w3.org/2000/svg" xmlns:xlink="http://www.w3.org/1999/xlink" x="0px" y="0px"
	 viewBox="0 0 256 256" style="enable-background:new 0 0 256 256;" xml:space="preserve">
<style type="text/css">
	.st0{fill:#FFFFFF;}
</style>
<path class="st0" d="M128.5,94.6c13.1,0.5,23.3,6.3,30,17.7c1.6,2.7,2.4,5.8,3.5,8.7c0.2,0.5,0.4,1,0.9,2.2c2.6-3,4.9-5.6,7.3-8.3
	c1.9,1.8,1.6,3,0.4,4.2c-1.6,1.6-3.3,3.2-5,4.7c-1.8,1.5-2.7,3.3-2.8,5.7c-0.3,7.4-2.2,14.3-6.7,20.3c-5.3,7.1-12.3,11.4-21,12.8
	c-0.5,0.1-1,0.2-1.5,0.3c0.1,0.3-0.1,0.5-0.6,0.7c1.6,4,5.8,5.8,8.3,9.2c-1.7,0.9-3,1.1-4.2-0.4c-1.1-1.3-2.5-2.3-3.5-3.7
	c-2.5-3.7-6-5.1-10.3-5.7c-13.5-2-22.2-10-27.3-22.3c-0.5-1.3-0.6-2.7-1-4c-0.5-1.4-1.4-2-2.7-0.7c-1.6,1.7-3.1,3.4-4.8,5
	c-0.6,0.5-1.6,0.6-2.3,0.9c0.1-0.9-0.1-2.1,0.4-2.6c2-2.2,4.2-4.2,6.4-6.2c1.4-1.3,2.1-2.7,2.1-4.7c0.3-14.6,9.6-27.2,23.3-32
	c0.8-0.3,1.7-0.3,2.5-0.5c0.7-0.3,1.9-0.6,2-1.2c0.1-0.6-0.5-1.6-1-2.1c-2.1-2.3-4.4-4.5-6.6-6.7c0.1-0.3,0.2-0.6,0.3-0.8
	c1.3,0.4,2.9,0.5,3.8,1.3c2,1.8,3.7,4,5.5,6.1C125.1,94,126.6,94.5,128.5,94.6z M113.7,179.9c-0.6,0.1-1.2,0.1-1.6,0.4
	c-4,2.6-8,5.3-11.9,7.9c-11.4,7.6-22.6,15.5-35.4,20.5c-3.8,1.5-7.8,2.6-12,2.1c-2.8-0.4-5-2.4-5.4-5.2c-0.8-6,1.2-11.4,4.1-16.3
	c4.6-7.9,9.7-15.6,14.8-23.2c1.4-2.1-0.2-3.2-0.6-4.8c-1.1,0.5-2.2,0.9-3.2,1.4c-0.5,0.2-0.8,0.7-1.1,1.1
	c-9.1,11-18.6,21.8-27.3,33.1c-8.5,10.9-16.3,22.4-20,36.1c-1,3.4-1.1,6.8,1.3,9.4c2.4,2.6,5.8,2.8,9.1,2c6.8-1.7,13.3-4.2,19.2-8
	c9.6-6.1,19.3-12.2,28.3-19.1c10.3-7.8,19.9-16.3,29.6-24.8c4.3-3.7,8.1-8,12.2-12.1C113.7,180.3,113.6,180.2,113.7,179.9z
	 M219.4,191.2c-9.7-13.7-20.7-26.4-32.4-38.5c-2.3-2.4-4.7-4.7-7.1-7c-0.2,0.2-0.4,0.3-0.8,0.3c0.2,0.6,0.3,1.3,0.6,1.8
	c2.1,3.3,4.2,6.6,6.3,9.8c4.8,7.4,10,14.7,14.5,22.3c4.2,7,8,14.3,8.8,22.7c0.7,6.8-2.7,10-8.6,9c-4.4-0.7-9-2.2-12.9-4.4
	c-7-3.8-13.6-8.4-20.3-12.7c-1.2-0.8-2.3-2.1-3.6-2.4c-1.3-0.2-2.8,0.5-4.2,0.8c0.4,1,0.6,2.2,1.3,2.9c1.7,1.8,3.6,3.4,5.5,5
	c8.3,7,16.4,14.4,25.1,20.9c8.7,6.4,18,12.3,27.3,17.8c5,3,10.5,5.4,16.6,5.4c5.7,0,7.7-2.1,7.7-7.8c0-6.5-2.5-12.3-5.6-17.6
	C231.9,209.9,225.9,200.3,219.4,191.2z M234.4,12.6c-2.1,0.3-4.3,0.5-6.2,1.4c-7.5,3.6-15.2,6.9-22.2,11.3
	c-8.7,5.5-16.9,11.8-25.1,18c-12.5,9.6-24.3,20.1-35.4,31.3c-0.7,0.7-1.2,1.5-1.8,2.2c0.1,0.2,0.3,0.3,0.4,0.5
	c0.8-0.4,1.6-0.7,2.3-1.2c5.6-3.8,11.1-7.6,16.7-11.2c9.6-6.1,18.9-12.6,29.8-16.3c3.5-1.2,7.2-2,10.9-2.2c4-0.2,6.4,2.9,6.6,6.9
	c0.2,4.8-1.6,9-3.6,13.1c-4.3,8.9-9.5,17.3-15.7,25c-0.5,0.6-0.3,2-0.1,2.9c0.2,0.9,0.9,1.6,1.6,2.7c0.8-0.8,1.6-1.4,2.2-2.3
	c6.2-7.2,12.6-14.2,18.6-21.5c9.1-11.1,17.6-22.5,24.4-35.2c2.7-5.1,5-10.4,5.7-16.3C244.2,15.7,240.4,11.7,234.4,12.6z M31.8,61.1
	c8.9,13.4,19.1,25.7,29.9,37.5C66.8,104,72.5,109,78,114.2c-3.1-5.1-6.3-10-9.7-15c-3.4-5.1-7-10.1-10.2-15.4
	c-3.8-6.3-7.3-12.7-9.6-19.8c-1.3-4-1.7-7.8-1.2-11.8c0.3-2.5,2.1-3.8,4.2-4.2s4.5-0.4,6.6,0.2c7.4,2.1,14,5.7,20.4,9.8
	c4.5,2.9,8.9,6,13.2,9.1c1.8,1.3,2.6-0.5,3.7-1.1c0.2-0.1-0.3-1.8-0.7-2.7c-0.2-0.5-0.8-0.9-1.2-1.3C78.1,48,62.2,34.7,44.4,23.8
	c-6.7-4.1-13.7-7.9-21.7-9.1c-4.9-0.7-9.7,0.9-9.5,7.7c0.2,6.4,2.6,12,5.4,17.3C22.5,47.1,27.2,54.1,31.8,61.1z M73.8,92.7
	c-0.9,1.2-1.6,3.7-1,4.9c2.1,4.1,4.8,7.9,7.5,11.7c0.9,1.4,2.1,1.1,2.8-0.6c0.7-1.6,1.4-3.2,2.3-4.7c4.2-6.7,9.6-12.2,16.1-16.7
	c4.6-3.2,9.7-5.3,14.9-6.6s10.7-1.1,16.1-1.8c1.3-0.1,2.8-0.7,3.7-1.6c3.1-2.9,6-6.1,8.9-9.2c0.6-0.6,1.1-1.4,1.7-2.3
	c-3.3-0.8-6-2.1-8.6-2.2c-7.7,0.1-15.4-1.1-23.1,1c-4.9,1.3-9.7,2.7-14.3,4.7c-5.5,2.4-10.7,5.5-15,9.6
	C81.4,83.1,77.6,87.9,73.8,92.7z M179.5,138.9c2.9,3,6.1,5.9,9.2,8.8c1.2,1.1,2.2,0.6,2.6-0.6c0.8-2.7,1.6-5.4,1.8-8.1
	c0.3-3.5,0.1-7,0.1-10.5c0-3.4,0-6.8-0.1-10.1c0-0.8-0.1-1.6-0.3-2.3c-0.9-2.9-1.8-5.8-2.8-8.6c-1.1-3.1-1.9-6.5-3.6-9.3
	c-2.7-4.4-5.6-8.7-9.1-12.4c-4.2-4.6-9.2-8.5-14-12.5c-0.6-0.5-2.2-0.5-2.9-0.1c-4.3,2.5-8.5,5.2-12.7,7.9c-0.9,0.6-1,1.6,0.4,2.3
	c3.7,1.9,7.5,3.6,10.8,6c4.6,3.5,8.6,7.6,11.7,12.6c3.6,5.6,6.5,11.4,7.2,18.1c0.1,0.7,0.2,1.5,0.5,2.2c1.7,4.4,1,8.9,0.6,13.4
	C178.8,136.8,178.9,138.2,179.5,138.9z M78.2,124.7c0-1-0.3-2.3-1-3c-3.2-3.3-6.5-6.5-9.8-9.7c-1.1-1.2-2.5-0.8-2.8,0.8
	c-0.6,3.6-1.4,7.3-1.6,11c-0.5,8-0.1,15.9,2.9,23.5c1.8,4.5,3.2,9.2,5.5,13.4c4.9,8.7,11.5,15.9,19.7,21.7c3.8,2.7,5,3,8.9,0.6
	c2-1.3,4-2.5,6-3.9c1.2-0.8,2.2-1.8,3.4-2.8c-3.3-1.9-6.4-3.4-9.4-5.2c-6.8-4.9-12.4-10.8-16.1-18.4c-3.3-6.7-5.7-13.7-5.7-21.3
	C78.2,129.1,78.3,126.9,78.2,124.7z M182.9,164.8c0.9-1.5,0.8-2.2,0-3.5c-2.5-3.8-4.9-7.7-7.4-11.8c-2.2,3.5-4.1,7.1-6.5,10.2
	c-5.5,6.9-11.9,12.7-20.3,16c-5.4,2.2-10.8,3.9-16.6,4.2c-2.9,0.2-5.8,0-8.7,0c-0.8,0-1.9-0.1-2.4,0.4c-3.3,3-6.6,6.1-9.8,9.3
	c-0.8,0.8-1,2.1,0.5,2.4c3.2,0.7,6.4,1.5,9.7,1.7c10.6,0.5,21.1,0,31.2-4.3c5.7-2.5,11.2-5.3,16-9.2
	C174,175.8,179.1,170.9,182.9,164.8z"/>
</svg>
