<?xml version="1.0" encoding="utf-8"?>
<!-- Generator: Adobe Illustrator 24.2.3, SVG Export Plug-In . SVG Version: 6.00 Build 0)  -->
<svg version="1.1" id="Layer_1" xmlns="http://www.w3.org/2000/svg" xmlns:xlink="http://www.w3.org/1999/xlink" x="0px" y="0px"
	 viewBox="0 0 256 256" style="enable-background:new 0 0 256 256;" xml:space="preserve">
<style type="text/css">
	.st0{fill:#FFFFFF;}
</style>
<path class="st0" d="M54.2,66c-0.7-0.7-1.2-1.4-1.6-2c0.1-0.3,0.1-0.4,0.2-0.5c6.5-6.7,4.4-6.3,10.4-0.4
	c11.6,11.5,23.2,23,34.8,34.6c2.6,2.6,5.2,5.2,8.2,7.3c5.5,3.7,11.6,3.8,17.8,1.7c6.1-2.1,10.4-6.6,11.9-12.5
	c1.9-7.2,1.2-14.5-4.8-20.4C117,59.9,103,45.8,88.9,31.7c-0.6-0.8-1.3-1.5-2.3-2.6c1.5-1.4,3.1-2.6,4.5-4c1.2-1.3,2.1-1.2,3.4,0.1
	c12.2,12.4,24.6,24.7,37,37.1c1.5,1.5,3.1,2.4,5.4,2.3c6.6-0.1,13.2-0.1,19.8,0c1.3,0,3,0.5,3.8,1.4c10.9,10.7,21.8,21.5,32.6,32.4
	c1.3,1.3,1.3,2.4,0,3.7c-2.8,2.7-5.5,5.7-8.4,8.3c-2.1,1.9-2.1,4-1.1,6.3c2.1,4.8,1.7,6.5-2,10.2c-9,9-18,18-27,27.1
	c-2.6,2.6-4.4,3-7.8,1.4c-3.7-1.6-5.8-1.3-8.7,1.6c-2.5,2.5-5,4.9-7.4,7.4c-1.4,1.6-2.4,1.3-3.7,0c-8.6-8.7-17.1-17.8-26.2-26
	c-6-5.5-8.7-11.3-7.8-19.2c0.4-3.9,0.2-8.1-0.1-12c-0.1-1.4-0.8-3.2-1.9-4.3C78.7,90.4,66.5,78.3,54.2,66z M245.7,113
	c-7.9-8-16.1-15.9-24.1-23.9c-1.6-1.5-2.7-1.7-4.3-0.1c-8.2,8.4-16.5,16.7-24.8,25c-1.6,1.5-1.7,2.8-0.7,4.8
	c1.6,3.2,1.1,6.6-1.2,8.9c-11.1,11-22.4,22-33.3,33.3c-3,3.2-5.8,3.6-9.5,1.9c-1.7-0.8-3.5-0.7-5.1,0.9c-8.3,8.4-16.7,16.7-25.1,25
	c-1.3,1.3-1.4,2.2,0,3.6c6.2,6.1,12.2,12.3,18.3,18.3c2.9,2.9,6.1,5.8,9.5,8.3l11.3-0.6c5-5,8.5-8.7,13.6-13.6l-1.3-11.4l11,1.5
	c5.4-5.5,10.9-11,16.6-16.4l-1.1-11.3l11,1.3c5.3-5.6,10.8-11.1,16.5-16.5l-1.5-12.3l11.6,2.1c4.6-4.6,9.2-9.3,13.9-13.8L245.7,113z
	 M122.7,172.9c1.8-1.8,1.8-2.9,0.1-4.6c-11.1-11-22.3-22.1-33.3-33.3c-1.2-1.2-2-3.2-2.2-4.9c-0.3-3.4-0.1-6.9-0.1-10.3
	c-0.2,0-0.3,0-0.5,0c0-3.4,0.1-6.9-0.1-10.3c-0.1-1.1-0.6-2.5-1.4-3.3c-10.9-11.4-22.1-22.6-33-33.8c-4.3-4.3-3.3-5.2-8.3-0.1
	c-7.1,7.1-14.2,14.3-21.3,21.4c-1.4,1.3-1.6,2.4-0.1,3.8c2,2,4.1,3.9,6.2,6c11,11,22.1,22,33.1,33c15.6,15.5,31,30.9,46.4,46.4
	c1.7,1.6,2.8,1.7,4.4,0C115.8,179.4,119.2,176.1,122.7,172.9z M134.5,56.6c1,0.9,2.9,1.6,4.3,1.6c6.6,0.2,13,0.2,19.6,0.1
	c2.5-0.1,4.3,0.9,6,2.6C175.2,72,186.1,83,196.9,94.2c1.8,1.9,3,1.7,4.6,0c3.2-3.5,6.6-6.8,10-10.1c1.6-1.7,1.6-2.8,0-4.4
	c-22.1-22.1-44.2-44.2-66.3-66.3c-0.9-0.9-2.6-1.6-4-1.6c-5.8-0.2-11.5-0.1-17.3-0.1c-4.2,0-8.3,0.4-12.2,0.2
	c-5.5-0.6-9.4,1.3-12.8,5.5c-1.4,1.7-1.6,2.6,0,4.2C110.8,33.2,122.6,45,134.5,56.6z M43.2,181.1c-12,11.8-22.4,22.7-34.3,34.6
	c-0.7,0.8-1.6,2-1.6,3c-0.2,8.6-0.1,17-0.1,25.5c0,0.7,0.5,1.7,0.9,1.9c0.5,0.2,1.3-0.4,2-0.7c0.5-0.4,1.1-1,1.5-1.4
	c12-11.8,23.9-23.7,35.8-35.5c5.2-5.2,8.9-9.3,14.6-14.8c-4.7-4.6-8.8-8.5-13-12.6C46.2,178.3,46,178.3,43.2,181.1z M73.7,156.4
	c-6.2-6.4-12.3-12.8-19-19.8c-3.3,3.6-5.9,6.2-8.2,8.9c-0.5,0.6-0.3,2.4,0.2,3.1c1.4,1.8,3.3,3.5,5,5.1
	c12.9,12.8,25.9,25.6,38.8,38.5c1.6,1.5,2.8,1.8,4.3,0.1c1.5-1.6,3.4-3.2,5-4.7c2.6-2.5,2.6-2.7,0.1-5.2
	C91.2,173.8,82.3,165.1,73.7,156.4z M72.1,180.6c-6.2-6.1-12.5-12.4-18.6-18.5c-1.2-1.1-2.5-2-3.8-0.8c-2.2,1.9-4.1,4.1-6.2,6.2
	c9.6,9.6,19,18.9,29.3,29.2c1.7-2,3.3-4.3,5.2-6.1c1.4-1.6,1.4-2.8-0.1-4.2C75.9,184.5,74.1,182.6,72.1,180.6z M131.1,80.4
	c-5.4-8.6-13.9-11.4-23.2-6.7c-3.7,1.9-6.4,4.9-7.5,9.2c-0.6,2.2,0.1,3.1,2.5,3.1c9-0.1,17.9-0.1,26.9-0.1c0.9,0,1.9-0.1,3-0.2
	C132.2,83.6,132,81.8,131.1,80.4z M103.4,90.8c-3.1,0.1-3.9,1.7-2.4,4.3c0.3,0.7,0.8,1.3,1.2,2c4.8,7.9,16,10.2,23.5,4.8
	c3.6-2.6,5.8-6.1,7.1-10.8c-1.2-0.1-2.2-0.3-3.2-0.4C120.9,90.7,112.1,90.8,103.4,90.8z"/>
</svg>
