<?xml version="1.0" encoding="utf-8"?>
<!-- Generator: Adobe Illustrator 23.0.1, SVG Export Plug-In . SVG Version: 6.00 Build 0)  -->
<svg version="1.1" id="Layer_1" xmlns="http://www.w3.org/2000/svg" xmlns:xlink="http://www.w3.org/1999/xlink" x="0px" y="0px"
	 viewBox="0 0 256 256" style="enable-background:new 0 0 256 256;" xml:space="preserve">
<style type="text/css">
	.st0{fill:#FFFFFF;}
</style>
<path class="st0" d="M75.6,147.9c0-27.7,21.6-52.7,52.8-52.8c31.6-0.1,53.3,25.1,53.2,52.9c-0.1,30.5-25,52.6-52.4,52.8
	C98.3,200.8,75.7,176.2,75.6,147.9z M86.8,148.2c0,22,17.1,42.1,42.3,41.9c23.9-0.2,41.5-19.8,41.2-42.5
	c-0.2-21.8-18-41.6-42.7-41.2C105.4,106.7,86.9,125,86.8,148.2z"/>
<path class="st0" d="M58.5,91.4c13-12.4,23.4-22.3,36.2-34.5c0.4-0.3,1-0.6,1.5-0.6c10.5-0.1,21-0.1,31.4-0.1c11,0,22,0.1,33,0.1
	c0.9,0,1.6,0.3,2.3,0.9c12,11.6,22.1,21.2,34.2,32.7c0.6,0.5,1.2,1,1.7,1.8c-0.4,0-0.9,0-1.2-0.1c-11.3-3.8-22-7.2-33.3-11
	c-0.3-0.1-0.5-0.2-0.7-0.4c-3.4-3.5-5.4-5.7-8.9-9.2c-0.4-0.4-1.2-0.7-1.7-0.7c-16.3,0-32.5,0-48.8,0c-0.6,0-1.3,0.3-1.7,0.8
	c-3.5,3.5-4.8,5.1-8.2,8.6c-0.2,0.2-0.5,0.3-0.7,0.4c-11.3,3.9-22.3,7.3-33.6,11.2C59.5,91.3,59.1,91.3,58.5,91.4z"/>
<path class="st0" d="M75.5,212.1c-2.6-0.4-4.9-0.7-7.3-1.1c-10.4-1.6-20.8-3.1-31.2-4.7c-6.3-0.9-12.5-1.8-18.8-2.8
	c-1-0.2-2.1-0.6-2.9-1.2c-5.7-3.9-7.6-11.5-3.7-17c4.1-5.9,8.4-11.7,12.6-17.6c5.7-7.9,11.4-15.9,17-23.9c0.9-1.3,1.8-2,3.3-2.3
	c2.3-0.4,4.6-1.1,6.8-1.7c0.6-0.2,0.9-0.1,1.1,0.5c0.2,0.4,0.3,0.8,0.4,1.2c7.3,22.7,14.5,45.3,21.8,68
	C74.9,210.3,75.2,211.1,75.5,212.1z M32.7,198.9c1.5-0.3,2.9-0.6,4.4-1.1c2-0.7,3.4-2.1,4.6-3.8c3.6-5.1,7.1-10.3,10.7-15.4
	c2.8-4,2.8-8.1,0.5-12.1c-4.1-7.4-14.2-7.6-18.5-2.1c-1.1,1.4-2,2.8-3,4.3c-2.9,4.2-5.8,8.5-8.6,12.8c-0.7,1-1.2,2.3-1.4,3.5
	C19.9,192.2,25.2,198.5,32.7,198.9z"/>
<path class="st0" d="M182.1,212.3c7.1-22.1,14.2-43.9,21.2-65.8c0.6-1.9,1.2-3.7,1.7-5.6c0.2-0.8,0.6-1.1,1.5-0.8
	c2.3,0.7,4.7,1.3,7.1,1.8c1.2,0.2,1.9,0.8,2.6,1.8c2.5,3.7,5.1,7.2,7.6,10.8c7.1,9.9,14.1,19.8,21.3,29.6c4.9,6.7,2.8,13.5-1.5,17.3
	c-1.5,1.4-3.3,2.2-5.3,2.5c-8.4,1.2-16.8,2.5-25.1,3.8c-9.7,1.5-19.4,2.9-29.2,4.4C183.5,212.1,182.9,212.2,182.1,212.3z
	 M225.1,198.9c0.7-0.1,1.4-0.1,2.1-0.2c7.9-1.4,12.1-10.4,7.8-17.2c-3.4-5.4-7-10.6-10.7-15.8c-1.1-1.5-2.5-2.9-4.1-3.7
	c-5.1-2.8-11.6-1-14.9,3.9c-2.4,3.5-2.7,8.9-0.6,11.9c3.8,5.5,7.6,11,11.4,16.5C218.3,197.4,221.3,199,225.1,198.9z"/>
<path class="st0" d="M212.1,104c-3.3,10.2-6.6,20.2-9.9,30.2c-1.3,3.9-2.5,7.8-3.9,11.7c-0.1,0.4-0.4,0.9-0.8,1.1
	c-3.6,2.1-7.3,4.2-11.2,6.5c0.9-11.3-1.1-21.8-6.1-31.6c-5-9.9-12.5-17.5-22.1-23.6c3.3-3.2,6.5-6.3,9.7-9.3c0.2-0.2,0.7-0.3,1-0.2
	c13.7,4.7,27.3,9.5,41,14.2C210.6,103.3,211.3,103.7,212.1,104z"/>
<path class="st0" d="M99.3,98c-19.9,13.2-29.4,31.3-28.2,55c-0.7-0.4-1.4-0.7-2.2-1.1c-2.9-1.7-5.9-3.4-8.8-5.1
	c-0.4-0.2-0.7-0.7-0.9-1.2c-4.4-13.4-8.8-26.8-13.2-40.2c-0.2-0.5-0.4-1-0.6-1.7c0.8-0.3,1.6-0.7,2.4-1c13.6-4.7,27.2-9.5,40.8-14.2
	c0.3-0.1,0.9,0,1.1,0.2C93,91.9,96.2,94.9,99.3,98z"/>
<path class="st0" d="M62.6,155.5c2.4,1.4,4.5,2.8,6.8,3.9c2.4,1.1,3.5,2.8,4.2,5.3c3,10.5,8.9,19.3,17,26.5
	c8.7,7.7,16.9,11.3,28.4,12.9c1.1,0.1,1.5,0.5,1.4,1.6c-0.1,2-0.1,5-0.1,7c0,0.8,0,1.6,0,2.4c-0.8,0-1.4,0-2,0
	c-12.3,0-22.7,0-35,0.1c-1,0-1.4-0.3-1.7-1.3c-6.2-19.1-12.4-38.2-18.7-57.3C62.8,156.3,62.7,156,62.6,155.5z"/>
<path class="st0" d="M195.1,155.8c-0.1,0.5-0.2,0.8-0.3,1.1c-6.2,19.1-12.4,38.2-18.6,57.2c-0.3,1-0.8,1.2-1.8,1.2
	c-12.3,0-22.5,0-34.8-0.1c-0.7,0-1.3,0-2.2,0c0-3.2,0-7.4,0-10.8c1.7-0.3,3.6-0.5,5.3-0.9c21.4-5,33.8-16.9,41-37.6
	c1.1-3.2,2.4-5.5,5.5-6.9C191.3,158.2,193,157,195.1,155.8z"/>
<path class="st0" d="M128.5,51.6c-4.9,0-9.8,0-14.7,0c-0.9,0-1.1-0.4-1.1-1.1c0-1.8-0.2-3.6,0-5.4c0.2-3,2.1-5.6,5.5-5.5
	c7,0.1,14,0,21,0c2.2,0,4.1,1.3,4.8,3.5c0.3,1.2,0.4,2.4,0.5,3.6c0.1,1.2-0.1,2.4,0,3.6c0,1-0.3,1.4-1.4,1.4c-3.8,0-7.6,0-11.3,0
	C130.7,51.7,129.6,51.7,128.5,51.6C128.5,51.7,128.5,51.7,128.5,51.6z"/>
<path class="st0" d="M128.5,177.6c-15.8-0.2-28.3-13-28-28.8c0.3-15,12.3-27.7,28.1-27.7c16.5,0.1,28.3,13.2,28.1,28.7
	C156.5,165.2,143.6,177.8,128.5,177.6z M128.4,169.4c11.2,0,20.3-8.7,20.2-19.5c-0.1-11.6-9.1-20.4-20.9-19.9
	c-11.1,0.4-19.2,9.2-19.2,19.5C108.6,162.7,119.1,169.4,128.4,169.4z"/>
</svg>
