<?xml version="1.0" encoding="utf-8"?>
<!-- Generator: Adobe Illustrator 24.2.3, SVG Export Plug-In . SVG Version: 6.00 Build 0)  -->
<svg version="1.1" id="Layer_1" xmlns="http://www.w3.org/2000/svg" xmlns:xlink="http://www.w3.org/1999/xlink" x="0px" y="0px"
	 viewBox="0 0 256 256" style="enable-background:new 0 0 256 256;" xml:space="preserve">
<style type="text/css">
	.st0{fill:#FFFFFF;}
</style>
<path class="st0" d="M177.6,88.4c2-10.6,3.8-18.6,3-29.3c-0.2-2-0.5-3.9-0.8-5.8c-0.1-0.5-0.1-1.1-0.1-1.7c3.5,0.7,1.7,0.4,4.2,2.7
	c4.2,4.1,6.7,9.2,8.8,14.7c2.4,6.3,2.2,9.6,2.4,16.4c0.4,16.2-4,31.3-10,46.2c-2.7,6.8-7.2,15.4-10.2,22.1c-0.1,0.3-0.3,0.7-0.5,1.1
	c2.6,1,5,2,7.5,2.8c8.2,2.7,19.1,6.9,27.3,9.5c1.1,0.6,2.8,1.1,4.4,1.6c-0.6,1-2.3,4.7-3.5,6.9c-1.2,2.3-1.5,2.4-3.7,6.7
	c-2,4.3-1.9,3.2-6,2.1c-2.1-0.5-5.4-1.8-8.9-2.6c-7.6-1.7-16.4-4.9-23.6-7.7c-1.2-0.5-1.6,0.2-2.1,1c-2.7,4.3-5.5,9.4-8.6,13.5
	c-8.9,11.7-15.1,18.6-29.2,23.2c-8.3,2.7-10.9,3.9-19.6,2.7c-0.6-0.1-1.1-0.7-1.6-1c2.8-1.9,5.4-3.6,8-5.5
	c9.3-6.9,14.4-14.1,21.3-23.2c4.8-6.2,8.4-13.2,12.9-19.7c0.3-0.4,0.5-0.9,0.9-1.4c-3.8-1.8-9.1-4.2-12.8-5.9
	c-22.3-10.7-44-22.5-64.6-36.2c-8-5.3-15.9-10.8-22.9-17.4c-2-1.8-3.7-4-5.4-6.1c-0.4-0.5-0.6-1.5-0.4-2.2c1.8-6.1,1.4-7.5,5.2-12.7
	c0-0.1,0.1-0.1,0.3-0.2c1.5,1.2,3,2.4,4.6,3.6c19.8,14.9,40.4,28.4,62,40.4c12.7,7.1,25.7,13.5,39,19.5c1,0.4,1.6,0.4,2.1-0.7
	C165.6,128,173.9,107.9,177.6,88.4z M124.5,180.3c2.1-3.3,3.8-6.9,5.7-10.3c0.6-1,0.1-1.8-1.1-2.1c-0.3-0.1-0.7-0.2-1-0.4
	c-12.3-5.9-24.4-12.2-36.2-19c-13.6-7.9-26.8-16.2-38.9-26.2c-5.6-4.6-10.6-9.6-14.9-15.4c-1.6-2.1-3-4.4-4.3-6.7
	c-1-1.8-1.9-3.6-2.9-5.5c-0.1,0.2-0.2,0.2-0.2,0.3c-0.1,0.3-0.2,0.5-0.3,0.8c-5.2,16.6-6.5,33.6-3,50.7c6.5,31.9,24,55.9,52.3,72
	c1.6,0.8,2.7,0.8,4.1-0.2c5.6-4,11.3-7.7,16.7-11.9C109.9,199,117.9,190.3,124.5,180.3z M51.2,59c-2.6,3-4.9,6.1-7.5,9.3
	c3.3,2.4,6.2,4.6,9.3,6.6c8.4,5.8,16.8,11.6,25.3,17.2c16.4,10.6,33.2,20.7,50.5,29.8c6.4,3.3,12.9,6.4,19.4,9.7
	c1,0.5,1.6,0.2,2-0.7c0.2-0.3,0.3-0.6,0.4-0.9c6.2-13.3,11-27,15.1-41c3.8-12.7,5.9-25.6,5.5-38.9c-0.1-2.8-0.3-5.6-0.6-8.4
	c-0.2-1.8-0.7-3.6-1-5.5c-0.5-3.4-2.1-5.7-5.5-6.9c-18.9-6.6-38.2-7.8-57.8-3.3C84.3,31,66,42.2,51.2,59z M201.4,73.2
	c3.4,11.1,3.6,22.4,1.5,33.8c-2,10.9-5.2,21.3-8.8,31.7c-1.2,3.3-2.5,6.5-3.8,10c1.2,0.6,2.3,1.4,3.5,1.8c3.8,1.5,7.7,2.9,11.6,4.3
	c4,1.4,8,2.9,12.1,4.3c2.8,1,5.6,1.7,8.4,2.6c1.1,0.3,1.7-0.2,2-1.2c1.2-4.2,2.5-8.4,3.4-12.6c2.4-11.8,2.8-23.7,1-35.6
	c-2.7-17.9-9.5-34-20.4-48.4c-4.1-5.5-9.3-9.6-15.6-12.3c-2.3-1-4.8-1.4-7.2-2c-0.3-0.1-0.8,0.3-1.2,0.4c0.2,0.4,0.3,0.8,0.6,1.1
	C194.3,57.6,198.8,64.9,201.4,73.2z M198.9,204.2c2.9-3,8.4-9.6,8.4-9.6c-4.8-1.1-13.4-2.3-16.7-3.2c-6.8-1.8-11.6-3.1-18.3-5.1
	c-0.9-0.3-1.2,0.2-1.6,0.8c-1.7,2.7-3.2,5.6-5.1,8.2c-8.7,11.8-20.3,19.2-34.4,23.5c-10.3,3.2-20.9,2.7-31.4,1.7c-0.3,0-0.5,0-1.1,0
	c0.7,0.5,1,0.9,1.5,1.1c4.3,2.3,8.5,4.9,13,6.9c2.7,1.2,5.8,2,8.8,2.3c10.7,1,21.3,0,31.7-2.5C174.1,223.3,191.2,212.4,198.9,204.2z
	 M46.8,45c5.8-5.6,12.1-10.4,19-14.6C64.4,29,13.4,10.6,11.2,10.8c6.6,17.7,13.2,35.3,20.4,52.8C36.2,56.8,41.1,50.6,46.8,45z
	 M190.2,225.5c1.5,0.7,2.6,1.3,3.8,1.7c8.9,3.4,17.8,6.8,26.8,10.2c7.3,2.8,14.7,5.5,22,8.2c0.6,0.2,1.3,0.3,2.1,0.5
	c-6.4-18-12.7-35.8-19.5-53.4C216.2,206.3,204.7,217.1,190.2,225.5z M90,19.1c-4.7-5.1-9.4-10-14.6-14.4c-0.3,6.8-0.9,13.4-0.8,20.2
	C79.9,22.9,84.8,21,90,19.1z M166.1,236.3c4.7,5.1,9.4,10,14.4,14.6c0.5-6.8,1.2-13.5,1.1-20.2C176.3,232.6,171.3,234.4,166.1,236.3
	z M250.4,184.8c-4.7-5-9.2-10-13.8-15c-2.3,5.1-4.5,9.9-6.8,15C236.6,184.8,243.3,184.8,250.4,184.8z M7.2,71.6
	C7.1,71.8,7,71.9,7,72c4.5,5,9,9.9,13.9,14.5c2.2-5,4.2-9.8,6.4-14.9C20.5,71.6,13.9,71.6,7.2,71.6z"/>
</svg>
