<?xml version="1.0" encoding="utf-8"?>
<!-- Generator: Adobe Illustrator 23.0.1, SVG Export Plug-In . SVG Version: 6.00 Build 0)  -->
<svg version="1.1" id="Layer_1" xmlns="http://www.w3.org/2000/svg" xmlns:xlink="http://www.w3.org/1999/xlink" x="0px" y="0px"
	 viewBox="0 0 256 256" style="enable-background:new 0 0 256 256;" xml:space="preserve">
<style type="text/css">
	.st0{fill:#FFFFFF;}
</style>
<path class="st0" d="M246.2,47.4L125.4,193.7L64.7,10H41.9l74.2,189.1c0,0,2.2,7,8.7,7.6c6.5,0.5,10.3-3.8,10.3-3.8l110-102.4
	L246.2,47.4z"/>
<path class="st0" d="M155.7,213.7l27.1,20l-48.4-8.4l-32.3,20.3l1.5-24.9L45,233.9l36.4-23.7L10,201.8l71.4-8.8l-35-28.5l55.7,18.8
	c0,0,4.9,12.5,7.6,17.9c2.7,5.4,6.5,11.9,14.6,11.9s15.7-6.5,15.7-6.5l27.2-24.3l52-2l-44,16.2l43.2,9.6L155.7,213.7z"/>
<polygon class="st0" points="123.2,164.4 136.7,129.2 140.5,165.5 128.1,181.8 "/>
</svg>
