<?xml version="1.0" encoding="utf-8"?>
<!-- Generator: Adobe Illustrator 23.0.1, SVG Export Plug-In . SVG Version: 6.00 Build 0)  -->
<svg version="1.1" id="Layer_1" xmlns="http://www.w3.org/2000/svg" xmlns:xlink="http://www.w3.org/1999/xlink" x="0px" y="0px"
	 viewBox="0 0 256 256" style="enable-background:new 0 0 256 256;" xml:space="preserve">
<style type="text/css">
	.st0{fill:#FFFFFF;}
</style>
<path class="st0" d="M24.1,182.1c-2.6-7.3-5.7-13.6-7-20.2c-2-10.2-3.9-20.7-3.7-31C14,105.5,23,82.8,38.9,62.7
	c14.2-17.9,31.9-30.6,53.4-38c17.7-6,35.7-7.8,54.3-4.9c16,2.5,30.9,7.7,44.5,16.3C212.9,49.9,228.5,69,237,93.5
	c7,20.2,9.2,40.8,5.2,61.8c-1.2,6.5-3.7,12.8-5.7,19.2c-1,3.3-3,4-6.1,2.2c-7.1-3.9-14.3-7.8-21.5-11.5c-2.6-1.3-3-3-2.4-5.7
	c1.7-8.2,4.4-16.4,4.5-24.6c0.2-9.7-1.6-19.5-5.2-28.7c-4.7-12.1-11.3-22.9-21-31.6c-11.2-10-23.8-17.6-38.9-19.8
	c-9-1.3-18.4-2.5-27.3-1.4c-12.3,1.4-24,5.7-34.5,13C63.8,80.5,52,99.8,48.4,123.9c-1.8,12.4-0.9,25,3.6,37c1.4,3.6,0.3,5.4-2.8,7.1
	C41.1,172.4,33.2,177,24.1,182.1z"/>
<path class="st0" d="M173.4,178c-6.3,1.9-11,3.3-15.8,4.6c-2.4,0.6-4.9,1.2-7.4,1c-4.5-0.4-6.1,1.7-6.4,5.9
	c-0.5,5.6-1.1,11.2-2.2,16.7c-0.3,1.5-2.2,2.7-3.4,4c-0.6-1.6-1.7-3.2-1.6-4.7c0.6-6.2,1.7-12.4,2.2-18.6c0.1-1.5-1.1-4.3-2.2-4.5
	c-7.9-1.9-14.8-5.7-21-10.9c-1-0.8-2.4-1.2-3.6-1.8c-0.5,1.3-1.4,2.7-1.6,4.1c-2.1,15.6,3.4,27.5,17.4,35.2c0.3,0.1,0.5,0.4,0.7,0.6
	c0.1,0.2,0.2,0.6,0.4,1.4c-5.9,1.1-11.7-0.3-16.7-2.6c-20.1-9.6-33.6-25.1-38.8-47c-6.4-27,0.4-50.5,20.4-69.7
	c10.4-10,23.2-15.7,37.7-18.1c24.1-3.9,44.1,4.1,61.6,20.1c7.2,6.6,10.9,15,12.9,24.3c0.1,0.6,0.1,1.2,0.1,1.9
	c0,0.6-0.2,1.2-0.5,3.3c-9.6-22.4-24.4-37.4-47.3-43.2c-2.2,6-1.8,6.8,3.1,8.2c21.5,6,36.9,26.5,35.8,48.7
	c-0.6,12.4-5.2,23.5-14.3,32.2c-3.2,3.1-4.6,5.9-4.3,10.5c0.5,7.3-0.2,14.6-7.6,18.9c-0.8,0.5-1.9,0.7-3.1,1.2
	C169.8,192.5,171.5,185.8,173.4,178z M106,197.3c0.3-1.1,0.4-1.2,0.4-1.3c-0.1-0.6-0.3-1.2-0.5-1.8c-2.6-7.8-4-15.8-0.8-23.8
	c2.2-5.4,1.5-10-1.4-15.3c-5.4-10-6.1-21-3.3-31.9c5.4-21.2,24.1-36,46-36.8c2.9-0.1,5.2-0.4,5.4-4.1c0.1-4-2.7-4.5-5.3-4.3
	c-7.5,0.8-15.2,1.2-22.5,3.2c-24.8,6.7-43.4,28.8-46.5,54.9c-2,17.2,2.4,33.1,13,47C94.7,188.6,99.4,193.8,106,197.3z M190.4,134.9
	c0-18.9-12.6-35.8-30.7-40.8c-1.2-0.3-2.7,0.5-4.1,0.8c0.4,1.7,0.5,3.6,1.3,5c0.7,1,2.4,1.4,3.6,2.1c7,4.3,10.5,12.5,8.6,21.6
	c-1.6,7.6-6.6,12.5-14.1,14.9c-1.7,0.5-3.1,2.1-4.7,3.2c1.4,1.1,2.7,2.5,4.3,3.2c8.6,3.5,15.4,9,19.6,17.2c1.9,3.8,3.3,3.3,5.7,0.6
	C186.9,154.7,190.3,145.5,190.4,134.9z M111,157.6c8.2-9.9,17.6-14.5,28.9-15.2c1.5-0.1,2.9-1.2,4.3-1.8c-1.2-1-2.2-2.3-3.6-3.1
	c-6.7-4-11.1-9.2-11.3-17.6c-0.2-8.3,3-14.6,10.2-18.6c2.1-1.2,4.8-1.5,6.9-2.8c1.4-0.8,2.3-2.6,3.5-3.9c-1.5-0.8-3-2.1-4.7-2.4
	c-1.8-0.2-3.7,0.6-5.5,0.9c-22.1,3.6-39,24.1-34.2,50.7C106.5,148.2,108.9,152.2,111,157.6z M135.4,148.8
	c-5.9,0.5-12.5,4.3-17.9,10.3c-2.2,2.4-2,4.7,0.6,6.3c5.8,3.5,11.8,6.8,17.7,10c3.2,1.8,4.6-0.1,5-3.1c0.8-5.9,1.6-11.8,2.3-17.6
	C143.7,149.4,143,148.6,135.4,148.8z M152.5,177.9c5.3-2,10.7-4,15.9-6.2c0.9-0.4,1.9-2.6,1.5-3.5c-2.9-8.4-8.9-14.1-17-17.5
	c-2.5-1.1-4.1-0.5-4.4,2.7c-0.5,5.7-1.2,11.5-2,17.2C145.5,177.1,145.6,177.2,152.5,177.9z"/>
<path class="st0" d="M129.5,222.9c-22,0-44.1-0.1-66.1,0.1c-4.6,0-8.3-1-11.3-4.4c-7.1-8.2-14.2-16.5-21.4-24.7
	c-2.4-2.8-1.4-4.4,1.6-6c7-3.7,14-7.6,20.8-11.8c3.2-1.9,5-1.3,6.9,1.7c9.5,15.4,23,26.2,40,32.5c11.8,4.4,23.8,6.1,36.5,4.9
	c15.5-1.4,29.5-6.2,41.4-15.7c7.9-6.3,14.3-14.7,20.7-22.7c2.7-3.4,4.3-4.8,8.4-2.3c6.4,3.9,13.1,7.2,19.9,10.6
	c3,1.5,3.6,3.4,1.6,5.9c-6.9,8.8-13.8,17.7-21,26.3c-2.9,3.4-7,4.7-11.8,4.6c-22.1-0.2-44.1-0.1-66.2-0.1
	C129.5,222.2,129.5,222.6,129.5,222.9z"/>
<path class="st0" d="M23.9,65.9c-2.3-4.3-4.4-7.7-6-11.3c-4.9-10.9-8.5-22-8.1-34.2c0.1-3.9,1.6-5.7,5.5-6
	c15.5-0.8,29.5,4.1,42.7,11.6c2.8,1.6,2.6,3.7,0.2,5.6c-3,2.5-6.3,4.6-9,7.4c-7.4,7.6-14.5,15.4-21.8,23.1
	C26.5,63.1,25.7,64,23.9,65.9z"/>
<path class="st0" d="M247.9,25.4c-0.5,13.3-5.2,25.3-11.5,36.8c-1.4,2.6-3.2,3.5-5.2,0.5c-8-12-18.8-21.2-30.1-30
	c-4.6-3.6-4.5-4.7,0.6-7.5c10.9-6.1,22.5-10.1,35.1-10.8C247.2,13.8,248.2,14.9,247.9,25.4z"/>
<path class="st0" d="M73.5,232.1c36.7,0,72.8,0,109.2,0C171,251.1,91.9,251.1,73.5,232.1z"/>
<path class="st0" d="M60.4,99.7c6.5-0.5,13-1,19.5-1.5c0.3,0.4,0.6,0.9,0.9,1.3c-3.3,6.6-6.5,13.3-9.8,19.9c-0.6,0-1.2,0-1.7,0
	c-3.2-6-6.3-11.9-9.5-17.9C60,101,60.2,100.4,60.4,99.7z"/>
</svg>
