<?xml version="1.0" encoding="utf-8"?>
<!-- Generator: Adobe Illustrator 24.2.3, SVG Export Plug-In . SVG Version: 6.00 Build 0)  -->
<svg version="1.1" id="Layer_1" xmlns="http://www.w3.org/2000/svg" xmlns:xlink="http://www.w3.org/1999/xlink" x="0px" y="0px"
	 viewBox="0 0 256 256" style="enable-background:new 0 0 256 256;" xml:space="preserve">
<style type="text/css">
	.st0{fill:#FFFFFF;}
</style>
<path class="st0" d="M91.3,145.9c0,0.1,0,0.2,0,0.2c-26.1,0-52.1,0.1-78.2,0c-2.3,0-3.1,0.5-3.1,3c0,26.5-0.1,53.1-0.1,79.6
	c0,4,0.1,4.1,3.8,4.1c51.5,0,96.1,0,147.6,0l0.7-0.4c0.1-15.5,0.1-34.5,0.1-49.9c0-11.2,0.1-25,0.1-36.2l-0.4-0.5
	C135.6,145.9,117.5,145.9,91.3,145.9z M148.7,216.8c0,2.7-1.3,3-3.5,3c-21.6,0-33.3,0-54.9,0c-21.6,0-43.1,0-64.6-0.1
	c-3.9-0.1-4-0.1-4-4c0-17.7,0-35.5,0-53.3c0-3.3,0.5-3.8,3.7-3.8c43.2,0,76.5,0.1,119.8,0c2.6,0,3.5,0.9,3.5,3.4
	C148.6,180.3,148.6,198.5,148.7,216.8z M156.6,24.7c-25,0-40.1,0-65.1,0c0,0,0,0.1,0.1,0.3c-26.1,0-52.1,0-78.2-0.1
	c-2.7,0-3.4,0.7-3.4,3.3c0,26.3-0.1,52.7-0.1,79c0,4.2,0.2,4.3,4.3,4.3c51.1,0,92.3,0,143.5,0c4.4,0,4.4,0,4.4-4.4
	c0-25.6,0.1-51.2,0.1-76.8C162.2,24.7,162.2,24.7,156.6,24.7z M145,98.7c-21.6-0.1-33.3-0.1-54.9-0.1c-21.4,0-42.9,0-64.5,0.1
	c-4.1,0-4.1-0.1-4.1-4.1c0-17.5,0-35,0-52.5c0-4.6,0.1-4.7,4.8-4.7c42.6,0,75.3,0,117.9,0c4.3,0,4.3,0,4.3,4.2
	c0,17.8,0,35.7,0.1,53.6C148.6,98,147.7,98.7,145,98.7z M243.9,189.6c0.1-0.1,0.2-0.1,0.2-0.1c0,15.1,0,30.1,0,45.2
	c0,2.8-0.8,3.9-3.7,3.7c-3.5-0.2-7-0.1-10.4,0c-1.9,0-3.1-0.5-2.9-2.7c0.2-2.3-1.1-2.8-3.2-2.8c-8.7,0.1-17.3,0-26,0
	c-3.5,0-3.9-0.3-3.9-3.9c-0.1-15.1-0.1-30.3-0.1-45.4c0-11.2-0.1-22.4-0.1-33.6c0-3.8,0.1-3.9,4-3.9c8.6,0,17.1-0.1,25.7,0
	c2.3,0,3.8-0.4,4-3.1c0.1-0.7,1.4-1.8,2.3-1.8c4-0.2,8.1,0,12.1,0c1.9,0,2,1.3,2,2.7c0,6.2,0,12.4,0,18.6
	C243.9,171.5,243.9,180.6,243.9,189.6z M244.1,68.5c0,14.9,0,29.7,0,44.6c0,4-0.1,4-4.2,4c-3.3,0-6.6,0-9.9,0
	c-1.9,0-3.1-0.6-2.9-2.8s-1-3-3.1-2.9c-8.4,0.1-16.8,0-25.1,0c-4.7,0-4.9-0.1-4.9-5c-0.1-16.6-0.1-33.1-0.1-49.7
	c0-9.5-0.1-19-0.1-28.5c0-3.4,0.4-3.7,3.7-3.7c8.8,0,17.7-0.1,26.5-0.1c1.9,0,2.9-0.6,3.4-2.6c0.2-0.9,1.5-2.1,2.3-2.1
	c4-0.2,8.1,0,12.1,0c1.9,0,2,1.2,2,2.7c0,5,0,10,0,15c0,10.4,0,20.7,0,31.1C244,68.5,244.1,68.5,244.1,68.5z M187.2,149.4
	c0.1,13.4,0.1,26.7,0.1,40.1c0,13.1,0,26.2,0,39.2c0,1.3-0.5,3.5-1.1,3.7c-2,0.4-13.3,0.3-15.4,0c-0.5-0.1-0.9-1.9-0.9-3
	c-0.1-5.6-0.1-11.3-0.1-16.9c0-21,0.1-42,0.2-63c0-1.2,0.6-3.3,1.1-3.3c2.2-0.2,13.4,0,15.6,0.4C187,146.7,187.2,148.4,187.2,149.4z
	 M187.3,27.4c-0.1,8.3,0,16.6,0,24.8c0,5.3,0,10.5,0,15.7c0,13.2,0,26.3-0.1,39.5c0,1.3-0.5,3.5-1.1,3.6c-2,0.4-13.3,0.3-15.3-0.2
	c-0.5-0.1-0.9-2.1-0.9-3.3c-0.1-11.6,0-23.1,0-34.7c0-14.9,0.1-29.7,0.1-44.6c0-3.7,9-3.7,12.7-3.7c0.6,0,1.1,0.1,1.7,0
	C186.7,24.2,187.3,25.3,187.3,27.4z"/>
</svg>
