<?xml version="1.0" encoding="utf-8"?>
<!-- Generator: Adobe Illustrator 24.2.3, SVG Export Plug-In . SVG Version: 6.00 Build 0)  -->
<svg version="1.1" id="Layer_1" xmlns="http://www.w3.org/2000/svg" xmlns:xlink="http://www.w3.org/1999/xlink" x="0px" y="0px"
	 viewBox="0 0 256 256" style="enable-background:new 0 0 256 256;" xml:space="preserve">
<style type="text/css">
	.st0{fill:#FFFFFF;}
</style>
<path class="st0" d="M237,93.5c7,20.2,9.2,40.8,5.2,61.8c-1.2,6.5-3.7,12.8-5.7,19.2c-1,3.3-3,4-6.1,2.2
	c-7.1-3.9-14.3-7.8-21.5-11.5c-2.6-1.3-3-3-2.4-5.7c1.7-8.2,4.4-16.4,4.5-24.6c0.2-9.7-1.6-19.5-5.2-28.7
	c-4.7-12.1-11.3-22.9-21-31.6c-11.2-10-23.8-17.6-38.9-19.8c-9-1.3-18.4-2.5-27.3-1.4c-12.3,1.4-24,5.7-34.5,13
	C63.8,80.5,52,99.8,48.4,123.9c-1.8,12.4-0.9,25,3.6,37c1.4,3.6,0.3,5.4-2.8,7.1c-8.1,4.4-16,9-25.1,14.1c-2.6-7.3-5.7-13.6-7-20.2
	c-2-10.2-3.9-20.7-3.7-31C14,105.5,23,82.8,38.9,62.7c14.2-17.9,31.9-30.6,53.4-38c17.7-6,35.7-7.8,54.3-4.9
	c16,2.5,30.9,7.7,44.5,16.3C212.9,49.9,228.5,69,237,93.5z M158.3,80c-2.2,6-1.8,6.8,3.1,8.2c21.5,6,36.9,26.5,35.8,48.7
	c-0.6,12.4-5.2,23.5-14.3,32.2c-3.2,3.1-4.6,5.9-4.3,10.5c0.5,7.3-0.2,14.6-7.6,18.9c-0.8,0.5-1.9,0.7-3.1,1.2
	c1.9-7.2,3.6-13.9,5.5-21.7c-6.3,1.9-11,3.3-15.8,4.6c-2.4,0.6-4.9,1.2-7.4,1c-4.5-0.4-6.1,1.7-6.4,5.9c-0.5,5.6-1.1,11.2-2.2,16.7
	c-0.3,1.5-2.2,2.7-3.4,4c-0.6-1.6-1.7-3.2-1.6-4.7c0.6-6.2,1.7-12.4,2.2-18.6c0.1-1.5-1.1-4.3-2.2-4.5c-7.9-1.9-14.8-5.7-21-10.9
	c-1-0.8-2.4-1.2-3.6-1.8c-0.5,1.3-1.4,2.7-1.6,4.1c-2.1,15.6,3.4,27.5,17.4,35.2c0.3,0.1,0.5,0.4,0.7,0.6c0.1,0.2,0.2,0.6,0.4,1.4
	c-5.9,1.1-11.7-0.3-16.7-2.6c-20.1-9.6-33.6-25.1-38.8-47c-6.4-27,0.4-50.5,20.4-69.7c10.4-10,23.2-15.7,37.7-18.1
	c24.1-3.9,44.1,4.1,61.6,20.1c7.2,6.6,10.9,15,12.9,24.3c0.1,0.6,0.1,1.2,0.1,1.9c0,0.6-0.2,1.2-0.5,3.3
	C196,100.8,181.2,85.8,158.3,80z M106.4,196c-0.1-0.6-0.3-1.2-0.5-1.8c-2.6-7.8-4-15.8-0.8-23.8c2.2-5.4,1.5-10-1.4-15.3
	c-5.4-10-6.1-21-3.3-31.9c5.4-21.2,24.1-36,46-36.8c2.9-0.1,5.2-0.4,5.4-4.1c0.1-4-2.7-4.5-5.3-4.3c-7.5,0.8-15.2,1.2-22.5,3.2
	c-24.8,6.7-43.4,28.8-46.5,54.9c-2,17.2,2.4,33.1,13,47c4.2,5.5,8.9,10.7,15.5,14.2C106.3,196.2,106.4,196.1,106.4,196z
	 M135.4,148.8c-5.9,0.5-12.5,4.3-17.9,10.3c-2.2,2.4-2,4.7,0.6,6.3c5.8,3.5,11.8,6.8,17.7,10c3.2,1.8,4.6-0.1,5-3.1
	c0.8-5.9,1.6-11.8,2.3-17.6C143.7,149.4,143,148.6,135.4,148.8z M129.3,119.9c-0.2-8.3,3-14.6,10.2-18.6c2.1-1.2,4.8-1.5,6.9-2.8
	c1.4-0.8,2.3-2.6,3.5-3.9c-1.5-0.8-3-2.1-4.7-2.4c-1.8-0.2-3.7,0.6-5.5,0.9c-22.1,3.6-39,24.1-34.2,50.7c1,4.4,3.4,8.4,5.5,13.8
	c8.2-9.9,17.6-14.5,28.9-15.2c1.5-0.1,2.9-1.2,4.3-1.8c-1.2-1-2.2-2.3-3.6-3.1C133.9,133.5,129.5,128.3,129.3,119.9z M169.9,168.2
	c-2.9-8.4-8.9-14.1-17-17.5c-2.5-1.1-4.1-0.5-4.4,2.7c-0.5,5.7-1.2,11.5-2,17.2c-1,6.5-0.9,6.6,6,7.3c5.3-2,10.7-4,15.9-6.2
	C169.3,171.3,170.3,169.1,169.9,168.2z M155.6,94.9c0.4,1.7,0.5,3.6,1.3,5c0.7,1,2.4,1.4,3.6,2.1c7,4.3,10.5,12.5,8.6,21.6
	c-1.6,7.6-6.6,12.5-14.1,14.9c-1.7,0.5-3.1,2.1-4.7,3.2c1.4,1.1,2.7,2.5,4.3,3.2c8.6,3.5,15.4,9,19.6,17.2c1.9,3.8,3.3,3.3,5.7,0.6
	c7-8,10.4-17.2,10.5-27.8c0-18.9-12.6-35.8-30.7-40.8C158.5,93.8,157,94.6,155.6,94.9z M226.9,185.1c-6.8-3.4-13.5-6.7-19.9-10.6
	c-4.1-2.5-5.7-1.1-8.4,2.3c-6.4,8-12.8,16.4-20.7,22.7c-11.9,9.5-25.9,14.3-41.4,15.7c-12.7,1.2-24.7-0.5-36.5-4.9
	c-17-6.3-30.5-17.1-40-32.5c-1.9-3-3.7-3.6-6.9-1.7c-6.8,4.2-13.8,8.1-20.8,11.8c-3,1.6-4,3.2-1.6,6c7.2,8.2,14.3,16.5,21.4,24.7
	c3,3.4,6.7,4.4,11.3,4.4c22-0.2,44.1-0.1,66.1-0.1c0-0.3,0-0.7,0-1.1c22.1,0,44.1-0.1,66.2,0.1c4.8,0.1,8.9-1.2,11.8-4.6
	c7.2-8.6,14.1-17.5,21-26.3C230.5,188.5,229.9,186.6,226.9,185.1z M23.9,65.9c1.8-1.9,2.6-2.8,3.5-3.8c7.3-7.7,14.4-15.5,21.8-23.1
	c2.7-2.8,6-4.9,9-7.4c2.4-1.9,2.6-4-0.2-5.6c-13.2-7.5-27.2-12.4-42.7-11.6c-3.9,0.3-5.4,2.1-5.5,6C9.4,32.6,13,43.7,17.9,54.6
	C19.5,58.2,21.6,61.6,23.9,65.9z M236.8,14.4c-12.6,0.7-24.2,4.7-35.1,10.8c-5.1,2.8-5.2,3.9-0.6,7.5c11.3,8.8,22.1,18,30.1,30
	c2,3,3.8,2.1,5.2-0.5c6.3-11.5,11-23.5,11.5-36.8C248.2,14.9,247.2,13.8,236.8,14.4z M182.7,232.1c-36.4,0-72.5,0-109.2,0
	C91.9,251.1,171,251.1,182.7,232.1z M60.4,99.7c-0.2,0.7-0.4,1.3-0.6,1.8c3.2,6,6.3,11.9,9.5,17.9c0.5,0,1.1,0,1.7,0
	c3.3-6.6,6.5-13.3,9.8-19.9c-0.3-0.4-0.6-0.9-0.9-1.3C73.4,98.7,66.9,99.2,60.4,99.7z"/>
</svg>
