<?xml version="1.0" encoding="utf-8"?>
<!-- Generator: Adobe Illustrator 24.2.3, SVG Export Plug-In . SVG Version: 6.00 Build 0)  -->
<svg version="1.1" id="Layer_1" xmlns="http://www.w3.org/2000/svg" xmlns:xlink="http://www.w3.org/1999/xlink" x="0px" y="0px"
	 viewBox="0 0 256 256" style="enable-background:new 0 0 256 256;" xml:space="preserve">
<style type="text/css">
	.st0{fill:#FFFFFF;}
</style>
<path class="st0" d="M235.4,178.5c-8.8-4.6-17.8-9-26.3-14.1c-1.3-0.8-1.5-5.1-0.8-7.3c4.2-13.2,3.9-26.4,1.7-39.8
	c-2.1-13-7.5-24.5-15.4-34.5c-9.3-11.8-20.9-20.6-35.2-26.5c-14.2-5.8-28.7-6.3-43.4-4.9c-9.4,0.9-18.5,4.4-27,9.1
	C77.7,67,68,75,60.7,85.6c-5.7,8.1-9.4,17.2-12.2,26.8c-3.6,12.7-4.1,25.2-1.6,38c0.7,3.4,1.6,6.8,2.9,10c1.5,3.7,0.7,5.8-2.8,7.7
	c-7.3,3.8-14.5,7.9-21.6,12.2c-2.9,1.8-4.3,0.9-5.5-1.8c-8.4-18.9-11.2-38.9-8.7-59.1c2.8-22.7,12.1-42.9,27-60.7
	C53,40.7,71.4,28.6,93,20.9c4.1-1.4,8.5-2,13.4-3.2c0,6.8,0,12.8,0,18.8c0,2.5,0.2,4.4,3.5,4.3c12.3-0.3,24.6-0.4,36.8-0.6
	c0.8,0,1.5-0.3,3-0.7c0-7.4,0-14.7,0-22.7c42.5,9.8,72.7,33.1,88.4,73.3C250.9,122.9,246.9,160.8,235.4,178.5z M203.3,131.3
	c1.9-15.3-8.3-44.9-33.5-60.8c-26.6-16.8-58.2-17.3-86.1,3c-20.9,15.3-31.5,42-28.6,57.2c18.5-19.2,41.3-28.5,67.8-30.9
	c0-4.1-0.5-7.9,0.2-11.6c0.4-2.2,2.2-5.2,4.1-6c3.5-1.5,5.1,1.9,5.7,4.7c0.7,2.9,0.6,6,0.6,9c0,2.5,0.4,4.2,3.5,4.4
	c3.6,0.3,7.2,1,10.7,1.8c15.1,3.7,29.5,9.2,42.1,18.6C194.4,124.1,198.7,127.7,203.3,131.3z M87.4,197.3
	c27.5,17.5,58.6,16.6,84.5-1.2c20.6-14.1,30.5-34.4,32.4-59.2c-1.1,0-1.2-0.1-1.4,0c-0.5,0.3-1,0.7-1.5,1.1
	c-18.3,16.6-39.3,27.1-64.2,29c-2.6,0.2-3.7,1.3-3.7,3.9c0,4.1-0.1,8.3,0,12.4c0.1,3.8-2,6.9-5.2,6.6c-2-0.2-4.5-4-5.2-6.6
	c-0.9-3.3-0.5-7-0.2-10.5c0.4-4.3-1.6-5.5-5.5-5.8c-4.3-0.3-8.5-1-12.7-1.8c-15-3-28.4-9.6-40.2-19.4c-3.2-2.7-6.4-5.5-9.8-8.4
	C52.5,154.1,65,183,87.4,197.3z M228.7,185.7c-8.4-4.5-16.9-8.9-26-13.6c-16.2,28.2-41,44.5-73,44.8c-31.9,0.3-57.6-14.4-74.4-43
	c-9.2,5.2-17.4,9.9-25.8,14.7c-2.8,1.6-3.4,2.9-1.6,6c6.3,10.5,15,18.9,24,26.9c1.9,1.7,5.2,2.6,7.8,2.7c6.4,0.2,12.7-0.6,19.1-0.6
	c39.7-0.2,79.4-0.3,119.1-0.6c2.3,0,5.3-0.4,7-1.8c10.2-8.6,18.4-18.8,25.3-30.2C231.9,188.2,230.9,186.9,228.7,185.7z M184.8,233.3
	c-38.6,0-76.2,0-113.4,0C83.9,252.7,162.8,253.8,184.8,233.3z M120.6,36.7c1.7,0,3.5,0,5.2,0c0-0.1,0-0.2,0.1-0.3
	c4.8,0,9.5,0.2,14.3,0c2.9-0.1,4.6-1.4,4.5-4.8c-0.2-6.6-0.2-13.1,0-19.6c0-3.1-1.1-4.2-4.2-4.1C131.8,8.1,123,8.1,114.3,8
	c-3.2,0-4.2,1.3-4.1,4.3c0.1,4.6,0,9.2,0,13.8C110.2,36.7,110.2,36.7,120.6,36.7z M127.5,129.7c-5,0.1-10.1-0.1-15.2,0.3
	c-3.8,0.3-6.1,2.6-5.7,6.7c0.4,3.6,2.8,5,6.3,4.9c4.9-0.1,9.9,0,14.8,0c4.8,0,9.5,0.1,14.3-0.1c4.5,0,7.7-2.4,7.9-5.8
	c0.2-3.5-2.6-5.8-7.6-6C137.4,129.6,132.4,129.7,127.5,129.7z M86.2,117.2c-4.2,11.2-4.4,22,0,33.1c2.7,6.7,3.8,7.5,11.4,7.7
	c-10.9-16-10.1-32.1,0.1-49C92.2,110.7,88.2,111.8,86.2,117.2z M171.7,150.7c4.1-9.7,4.4-19.5,1.7-29.6c-2-7.2-5.5-10.3-11.9-9.6
	c4.1,7.1,6.5,14.5,6.6,22.8c0.1,8.6-3.4,15.7-7.1,23.1C167,157,169.9,155,171.7,150.7z"/>
</svg>
