<?xml version="1.0" encoding="utf-8"?>
<!-- Generator: Adobe Illustrator 23.0.1, SVG Export Plug-In . SVG Version: 6.00 Build 0)  -->
<svg version="1.1" id="Layer_1" xmlns="http://www.w3.org/2000/svg" xmlns:xlink="http://www.w3.org/1999/xlink" x="0px" y="0px"
	 viewBox="0 0 256 256" style="enable-background:new 0 0 256 256;" xml:space="preserve">
<style type="text/css">
	.st0{fill:#FFFFFF;}
</style>
<g>
	<path class="st0" d="M213.6,168.7c-0.6,1-2.3,4.7-3.5,6.9c-1.2,2.3-1.5,2.4-3.7,6.7c-2,4.3-1.9,3.2-6,2.1c-2.1-0.5-5.4-1.8-8.9-2.6
		c-7.6-1.7-16.4-4.9-23.6-7.7c-1.2-0.5-1.6,0.2-2.1,1c-2.7,4.3-5.5,9.4-8.6,13.5c-8.9,11.7-15.1,18.6-29.2,23.2
		c-8.3,2.7-10.9,3.9-19.6,2.7c-0.6-0.1-1.1-0.7-1.6-1c2.8-1.9,5.4-3.6,8-5.5c9.3-6.9,14.4-14.1,21.3-23.2
		c4.8-6.2,8.4-13.2,12.9-19.7c0.3-0.4,0.5-0.9,0.9-1.4c-3.8-1.8-9.1-4.2-12.8-5.9c-22.3-10.7-44-22.5-64.6-36.2
		c-8-5.3-15.9-10.8-22.9-17.4c-2-1.8-3.7-4-5.4-6.1c-0.4-0.5-0.6-1.5-0.4-2.2c1.8-6.1,1.4-7.5,5.2-12.7c0-0.1,0.1-0.1,0.3-0.2
		c1.5,1.2,3,2.4,4.6,3.6c19.8,14.9,40.4,28.4,62,40.4c12.7,7.1,25.7,13.5,39,19.5c1,0.4,1.6,0.4,2.1-0.7
		c8.6-17.8,16.9-37.9,20.6-57.4c2-10.6,3.8-18.6,3-29.3c-0.2-2-0.5-3.9-0.8-5.8c-0.1-0.5-0.1-1.1-0.1-1.7c3.5,0.7,1.7,0.4,4.2,2.7
		c4.2,4.1,6.7,9.2,8.8,14.7c2.4,6.3,2.2,9.6,2.4,16.4c0.4,16.2-4,31.3-10,46.2c-2.7,6.8-7.2,15.4-10.2,22.1
		c-0.1,0.3-0.3,0.7-0.5,1.1c2.6,1,5,2,7.5,2.8c8.2,2.7,19.1,6.9,27.3,9.5C210.3,167.7,212,168.2,213.6,168.7z"/>
	<path class="st0" d="M30.9,94.7c1,1.9,1.9,3.7,2.9,5.5c1.3,2.3,2.7,4.6,4.3,6.7c4.3,5.8,9.3,10.8,14.9,15.4
		c12.1,10,25.3,18.3,38.9,26.2c11.8,6.8,23.9,13.1,36.2,19c0.3,0.2,0.7,0.3,1,0.4c1.2,0.3,1.7,1.1,1.1,2.1c-1.9,3.4-3.6,7-5.7,10.3
		c-6.6,10-14.6,18.7-24,26.1c-5.4,4.2-11.1,7.9-16.7,11.9c-1.4,1-2.5,1-4.1,0.2c-28.3-16.1-45.8-40.1-52.3-72
		c-3.5-17.1-2.2-34.1,3-50.7c0.1-0.3,0.2-0.5,0.3-0.8C30.7,94.9,30.8,94.9,30.9,94.7z"/>
	<path class="st0" d="M43.7,68.3c2.6-3.2,4.9-6.3,7.5-9.3C66,42.2,84.3,31,106.3,26c19.6-4.5,38.9-3.3,57.8,3.3
		c3.4,1.2,5,3.5,5.5,6.9c0.3,1.9,0.8,3.7,1,5.5c0.3,2.8,0.5,5.6,0.6,8.4c0.4,13.3-1.7,26.2-5.5,38.9c-4.1,14-8.9,27.7-15.1,41
		c-0.1,0.3-0.2,0.6-0.4,0.9c-0.4,0.9-1,1.2-2,0.7c-6.5-3.3-13-6.4-19.4-9.7c-17.3-9.1-34.1-19.2-50.5-29.8
		C69.8,86.5,61.4,80.7,53,74.9C49.9,72.9,47,70.7,43.7,68.3z"/>
	<path class="st0" d="M190.3,148.7c1.3-3.5,2.6-6.7,3.8-10c3.6-10.4,6.8-20.8,8.8-31.7c2.1-11.4,1.9-22.7-1.5-33.8
		c-2.6-8.3-7.1-15.6-12.9-22.1c-0.3-0.3-0.4-0.7-0.6-1.1c0.4-0.1,0.9-0.5,1.2-0.4c2.4,0.6,4.9,1,7.2,2c6.3,2.7,11.5,6.8,15.6,12.3
		c10.9,14.4,17.7,30.5,20.4,48.4c1.8,11.9,1.4,23.8-1,35.6c-0.9,4.2-2.2,8.4-3.4,12.6c-0.3,1-0.9,1.5-2,1.2
		c-2.8-0.9-5.6-1.6-8.4-2.6c-4.1-1.4-8.1-2.9-12.1-4.3c-3.9-1.4-7.8-2.8-11.6-4.3C192.6,150.1,191.5,149.3,190.3,148.7z"/>
	<path class="st0" d="M198.9,204.2c-7.7,8.2-24.8,19.1-45.2,24.1c-10.4,2.5-21,3.5-31.7,2.5c-3-0.3-6.1-1.1-8.8-2.3
		c-4.5-2-8.7-4.6-13-6.9c-0.5-0.2-0.8-0.6-1.5-1.1c0.6,0,0.8,0,1.1,0c10.5,1,21.1,1.5,31.4-1.7c14.1-4.3,25.7-11.7,34.4-23.5
		c1.9-2.6,3.4-5.5,5.1-8.2c0.4-0.6,0.7-1.1,1.6-0.8c6.7,2,11.5,3.3,18.3,5.1c3.3,0.9,11.9,2.1,16.7,3.2
		C207.3,194.6,201.8,201.2,198.9,204.2z"/>
</g>
<g>
	<path class="st0" d="M31.6,63.6c4.6-6.8,9.5-13,15.2-18.6c5.8-5.6,12.1-10.4,19-14.6c-1.4-1.4-52.4-19.8-54.6-19.6
		C17.8,28.5,24.4,46.1,31.6,63.6z"/>
	<path class="st0" d="M190.2,225.5c1.5,0.7,2.6,1.3,3.8,1.7c8.9,3.4,17.8,6.8,26.8,10.2c7.3,2.8,14.7,5.5,22,8.2
		c0.6,0.2,1.3,0.3,2.1,0.5c-6.4-18-12.7-35.8-19.5-53.4C216.2,206.3,204.7,217.1,190.2,225.5z"/>
	<path class="st0" d="M75.4,4.7c-0.3,6.8-0.9,13.4-0.8,20.2c5.3-2,10.2-3.9,15.4-5.8C85.3,14,80.6,9.1,75.4,4.7z"/>
	<path class="st0" d="M180.5,250.9c0.5-6.8,1.2-13.5,1.1-20.2c-5.3,1.9-10.3,3.7-15.5,5.6C170.8,241.4,175.5,246.3,180.5,250.9z"/>
	<path class="st0" d="M236.6,169.8c-2.3,5.1-4.5,9.9-6.8,15c6.8,0,13.5,0,20.6,0C245.7,179.8,241.2,174.8,236.6,169.8z"/>
	<path class="st0" d="M7,72c4.5,5,9,9.9,13.9,14.5c2.2-5,4.2-9.8,6.4-14.9c-6.8,0-13.4,0-20.1,0C7.1,71.8,7,71.9,7,72z"/>
</g>
</svg>
