<?xml version="1.0" encoding="utf-8"?>
<!-- Generator: Adobe Illustrator 24.2.3, SVG Export Plug-In . SVG Version: 6.00 Build 0)  -->
<svg version="1.1" id="Layer_1" xmlns="http://www.w3.org/2000/svg" xmlns:xlink="http://www.w3.org/1999/xlink" x="0px" y="0px"
	 viewBox="0 0 256 256" style="enable-background:new 0 0 256 256;" xml:space="preserve">
<style type="text/css">
	.st0{fill:#FFFFFF;}
</style>
<path class="st0" d="M232,38.1c-17.6,0.1-35.1,0.2-52.7,0.2c-2.4,0-3.2,0.7-3.2,3.1c0.1,7.8,0,15.6,0,23.4c0,1-0.3,2.1-0.6,3.5
	c-5.1-5-9.3-9.8-14.2-13.9c-3.9-3.3-5.5-7-5-12.1c0.4-4.3,0.1-4.3-4.1-4.3c-17.5,0.1-34.9,0.2-52.4,0.2c-2.6,0-3.4,0.8-3.4,3.3
	c0.1,7.7,0,15.4,0,23.1c0,1.1-0.3,2.1-0.4,3.2c-0.3,0.1-0.6,0.2-0.9,0.3c-3.7-3.9-7.2-8.1-11.3-11.5c-4.6-3.8-6.2-8.2-5.7-14
	c0.5-4.5,0-4.6-4.4-4.6c-17.2,0.1-34.3,0.3-51.5,0.2c-2.8,0-3.7,0.6-3.7,3.5c0.1,40,0.1,80,0,120c0,2.5,0.6,3.3,3.3,3.3
	c17.9-0.2,35.9-0.2,53.8-0.2c2.3,0,2.8-0.7,2.8-2.8c-0.1-7.3,0-14.5,0-21.7c0.1-1.1,0.3-2.1,0.5-3.7c0.9,0.7,1.4,1,1.8,1.4
	c3.5,3.5,6.8,7.3,10.6,10.4c4.2,3.5,6.2,7.5,5.3,12.9c-0.5,3,0.9,3.7,3.8,3.7c17.6-0.1,35.1-0.2,52.7-0.1c2.9,0,3.4-1,3.4-3.5
	c-0.1-7.5,0-15,0-22.5c0-1.2,0.2-2.3,0.3-3.4c0.3,0,0.5-0.1,0.7-0.1c4.5,4.5,8.8,9.3,13.6,13.4c4.1,3.4,6,7.3,5.1,12.6
	c-0.5,3,1,3.7,3.8,3.7c17.4-0.2,34.7-0.3,52.1-0.2c3,0,3.9-0.9,3.9-3.8c-0.1-39.7-0.1-79.4-0.1-119.1
	C235.9,38.2,235.8,38.1,232,38.1z M64.9,96.8c0,19.4-0.1,36.1,0,50.8c0,2.7-0.7,3.8-3.6,3.7c-7.2-0.2-18.4-0.1-25.6,0
	c-2.4,0-3.2-0.8-3.2-3.2c0-29.8,0-63.7,0-93.5c0-2.1,0.7-2.9,2.9-2.9c7.9,0.1,19.8,0.1,27.7,0c2.3,0,3.2,0.8,3.1,3.3
	C65.6,69.9,65.2,86.7,64.9,96.8z M96.6,131.8c0,0.9-0.2,1.9-0.3,2.8c-0.4,0.3-0.9,0.5-1.3,0.8c-3.5-3.8-6.8-8-10.7-11.5
	c-4.6-4-6.2-8.5-5.9-14.5c0.5-11.1,0.1-22.2,0.1-33.3c0-1.2,0.2-2.4,0.4-4.2c1.1,0.8,1.7,1.2,2.2,1.7c4.5,4.6,9.1,9.1,13.5,13.8
	c1,1.1,1.9,2.8,1.9,4.3C96.7,105.1,96.6,118.4,96.6,131.8z M143.7,101.4c-0.3,0-0.6,0-0.9,0c0,13.3,0,28.5,0,41.7
	c0,1.8-0.2,3.5-0.1,5.3c0.1,2.1-0.7,2.9-2.9,2.9c-7.2-0.1-18.4-0.1-25.6,0c-2.5,0-3.6-0.7-3.6-3.5c0-29.5-0.1-63.1-0.2-92.6
	c0-2.8,1-3.5,3.6-3.5c7.8,0.1,19.6,0.1,27.4,0c2.2,0,3.2,0.6,3.1,3C144.1,69.6,143.9,86.5,143.7,101.4z M176.4,100.4
	c-0.7,10.1-0.2,20.3-0.2,30.4c0,1.3-0.2,2.6-0.5,4.6c-4.2-4.2-7.6-8.2-11.6-11.2c-6.2-4.9-8.3-10.8-7.8-18.7
	c0.7-10.3,0.2-20.7,0.2-31c0-1.3,0.3-2.6,0.4-3.9c0.3-0.1,0.7-0.3,1-0.5c3.5,3.7,6.7,7.8,10.6,11C174.8,86.2,177,92.3,176.4,100.4z
	 M222.8,118.5c-0.2,9-0.1,19.9-0.3,28.9c0,4-0.1,4-4.1,4c-6.8,0-17.5-0.1-24.2,0c-2.8,0-3.8-1-3.8-3.8c0-14.7,0-31.4,0-46.1
	c-0.1,0-0.2,0-0.3,0c0-14.6,0.1-31.3,0.1-45.8c-0.1-3,0.9-4,3.8-3.9c7.6,0.2,18.2,0.2,25.8,0c2.8-0.1,3.5,1,3.4,3.6
	C222.7,75.8,223.2,98.1,222.8,118.5z M77,177.4c-1,5.3-1.7,10.6-3.3,15.7c-2.1,6.8-4.7,13.4-7.6,19.9c-2.3,5-5.2,9.7-8.2,14.3
	c-2.2,3.5-4.9,6.7-7.5,9.9c-0.6,0.8-1.5,1.3-2.8,2.4c-3.9-5.7-7.8-10.8-11.2-16.3c-2.9-4.8-5.6-9.7-7.8-14.9
	c-2.5-5.9-4.5-12-6.4-18.1c-1.2-3.9-1.9-8-3-12c-0.9-3.3-0.4-4.1,3-4.1c17.3,0,34.5,0,51.8-0.1C76.5,174.1,77.5,175,77,177.4z
	 M235.2,176.8c-1,5-1.5,10.1-2.7,15.1c-0.9,3.9-2.4,7.7-4,11.4c-2.5,5.5-5,11.1-8,16.3c-4.1,6.8-8.6,13.2-13.3,20.4
	c-2.5-2.6-4.7-4.3-6.1-6.6c-4.4-7-8.7-14.1-12.6-21.3c-2.5-4.6-4.6-9.5-6.5-14.4c-1.1-2.8-1.7-5.9-2.3-8.9
	c-0.8-3.7-1.4-7.4-1.9-11.1c-0.5-3.5-0.3-3.6,3.3-3.6c14,0,28.1-0.1,42.1-0.1c3.2,0,6.4-0.1,9.7-0.1
	C234.9,173.9,235.6,174.7,235.2,176.8z M155,178.4c-0.1,6.7-2,13.1-4.2,19.1c-3.9,10.6-8.4,21-15.1,30.3c-2.7,3.8-5.4,7.6-8.6,12.1
	c-2.7-3.1-5.4-5.6-7.4-8.6c-3.7-5.5-7.2-11.1-10.4-17c-2.3-4.4-4.1-9.1-5.8-13.8c-1.8-4.9-3.5-10-4.8-15.1c-0.8-3.2-0.8-6.6-1.1-9.8
	c0-0.4,0.7-1.1,1.3-1.3c0.8-0.2,1.7-0.2,2.6-0.2c16.6,0,33.2,0,49.7,0C155.3,174.1,155.1,174.1,155,178.4z M98,28.1
	c0.1-3.4,0.2-6.8,0-10.2c-0.1-2.3,0.7-2.9,2.8-2.9c8.8,0,17.5,0,26.3,0c8.7,0,17.3,0.1,26,0c2.5,0,3.5,0.7,3.4,3.3
	c-0.2,3.3-0.1,6.6,0,9.9c0.1,1.9-0.7,2.6-2.6,2.6c-17.7,0-35.4,0-53.2,0.1C98.7,30.9,97.9,30.2,98,28.1z M177.8,27.9
	c0.1-3.3,0.2-6.6,0-9.9c-0.1-2.4,0.8-3,3.1-3c8.6,0,17.4,0,26.2,0c8.7,0,17.3,0.1,26,0c2.3,0,3.1,0.7,3,3c-0.2,3.3-0.1,6.6,0,9.9
	c0.1,1.9-0.5,2.8-2.6,2.8c-17.6,0-35.3,0-52.9,0.1C178.4,30.8,177.7,30,177.8,27.9z M19.3,27.8c0.1-3.6,0-7.2,0-10.8
	c0-2.5,1.9-1.8,3.2-1.8c8.3-0.1,16.6,0,24.8,0c0.4-0.2,0.9-0.2,1.4-0.2c8.7,0,17.3,0.1,26,0c2.8,0,3.8,0.9,3.6,3.7
	c-0.3,3-0.1,6-0.2,9.1c0,2-1,3-3.1,3c-17.5,0-35.1,0-52.6,0.1C20.2,30.9,19.2,30.1,19.3,27.8z"/>
</svg>
