<?xml version="1.0" encoding="utf-8"?>
<!-- Generator: Adobe Illustrator 24.2.3, SVG Export Plug-In . SVG Version: 6.00 Build 0)  -->
<svg version="1.1" id="Layer_1" xmlns="http://www.w3.org/2000/svg" xmlns:xlink="http://www.w3.org/1999/xlink" x="0px" y="0px"
	 viewBox="0 0 256 256" style="enable-background:new 0 0 256 256;" xml:space="preserve">
<style type="text/css">
	.st0{fill:#FFFFFF;}
</style>
<path class="st0" d="M110.8,48.6c0.9-3.4,1.7-6.8,2.7-10.1c0.2-0.6,0.8-1.4,1.3-1.5c2.6-0.7,2.6-0.6,3-3.9c-3.1,0.1-2.7-1.7-2-3.7
	c1-2.6,1-5.5,3.3-7.8c2.2-2.2,4.4-3.5,7.5-3c1.1,0.2,2.3,0,3.4,0c6.7,0,9.5,2.2,11.2,8.6c0.2,0.9,0.4,1.9,0.7,2.8
	c0.7,2,0.2,3-2.2,2.9c0.3,2-0.2,4.4,3.1,4.1c0.4,0,1,0.4,1.1,0.8c1.2,4.5,2.2,9,3.3,13.5c0.1,0.2-0.1,0.5-0.2,0.9
	c-0.8,0.2-1.7,0.4-2.7,0.5c0.2,2.3,0.2,4.5,3.6,4.1c0.4-0.1,1.2,0.9,1.4,1.5c3.4,12.6,6.6,25.2,9.9,37.8c0.5,1.9,0.2,3.3-1.6,4.5
	c-2.2,1.5-4.1,3.2-6.4,5c-0.6-1.1-2.4-1.9-2.7-2.9c-2.5-8.6-3.7-22.6-6.3-31.2c-2.3-7.6-0.5-6.8-9-6.8c-4.1,0-8.2,0-12.3,0
	c-2.3,0-3.5,0.9-4.1,3.1c-2.8,9.6-4.7,24.5-7.6,34.1c-0.3,1.1-2.1,2.2-2.9,3.6c-2.5-2-5.2-3.8-7.4-6c-0.7-0.7-0.6-2.5-0.3-3.7
	c3.2-12.4,6.5-24.9,9.8-37.3c0.2-0.7,1-1.8,1.4-1.7c3.1,0.3,3.3-1.8,3.5-4.1C110.2,51.9,110,51.6,110.8,48.6z M141.5,125
	c-0.1-4.7,1.8-8,5.2-10.8c0.6-0.5,1.3-1,1.6-1.7c0.4-0.8,0.9-2,0.6-2.7c-3.4-9.4-7-18.6-10.6-27.9c-0.8-2.2-2.4-3.5-5-3.4
	c-3,0.1-5.9,0-8.9,0c-2,0-3.5,0.7-4.3,2.7c-3.2,7.8-6.2,15.6-9.7,23.2c-2.4,5-2,8.8,2.6,12c2.1,1.5,2.9,3.5,2.8,6.1
	c0,1.6,0.2,3.7,1.1,4.9c2,2.6,4.5,5,8.4,4.1c1.1-0.2,2.3,0,3.4,0c1.8,0,3.7,0,5.4,0.1C137.4,131.6,141.6,128.3,141.5,125z
	 M155.1,152.2c13.2-9.7,19.6-15.2,32.8-24.9c0.6-0.5,1.1-1,1.6-1.5c-0.1-0.2-0.7-1.2-1-1.5c-0.5,0.1-1.1,0.2-1.6,0.4
	c-15.1,6.7-23,10-38.2,16.7c-0.6,0.3-1.4,0.7-1.7,1.2c-2.2,3.5-4.4,7.1-6.6,10.5c4.4,0,8.7,0.1,12.9,0
	C153.9,153.1,154.6,152.6,155.1,152.2z M128,174.6c-2.3,3.8-4.4,7.4-6.5,11.1c-0.3,0.5-0.2,1.3-0.1,2c1.6,16.2,3.2,24.6,4.9,40.8
	c0,0.7,0.2,1.4,0.4,2.1c0.2,0,1.4-0.1,1.8,0c0.2-0.5,0.4-1.1,0.5-1.6c1.9-16.4,3-24.9,4.9-41.4c0-0.6,0.1-1.4-0.2-2
	C131.8,181.9,129.9,178.2,128,174.6z M162.3,62.9c1.1-3.2,1.2-5.8,0.1-9.1c-0.3-1.2-0.7-2.3-1.4-3.3c-2.8-4.1-5.9-8-8.7-12.1
	c-1.4-1.9-3.6-1.9-5.7-1.2l13.3,30.4C161.8,64.9,162,64.3,162.3,62.9z M98,67.6l13.3-30.4c-2.1-0.7-4.3-0.7-5.7,1.2
	c-2.8,4.1-5.9,8-8.7,12.1c-0.7,1-1.1,2.1-1.4,3.3c-1.1,3.3-1,5.9,0.1,9.1C96,64.3,96.1,64.9,98,67.6z M133.5,140.1
	c0.2-0.7-1.1-2.6-2-2.8c-1.8-0.4-3.9-0.4-5.7,0c-0.8,0.2-2.1,2-1.9,2.6c1.4,3.7,3.1,7.3,4.9,11.4
	C130.6,147.3,132.3,143.8,133.5,140.1z M110.2,165.5c-1.7,0.2-2.7,1.9-2,3.3c0.9,1.8,1.9,3.6,3,5.2c0.9,1.2,2.1,1.6,3.2,0.1
	c2.3-3.1,4.6-6.3,7.3-9.9C117.5,164.7,113.9,165.1,110.2,165.5z M147.6,165.8c-3.9-0.4-7.8-0.8-12.2-1.3c2.6,3.4,4.7,6.4,6.9,9.3
	c1.2,1.6,2.8,1.2,3.9-0.2c1.1-1.6,2.1-3.3,2.9-5C149.8,167.2,149.4,166,147.6,165.8z M109.9,143c-0.3-0.5-1.1-0.9-1.7-1.2
	c-15.2-6.7-23.1-10-38.2-16.7c-0.5-0.2-1.1-0.3-1.6-0.4c-0.2,0.3-0.8,1.3-1,1.5c0.5,0.5,1,1,1.6,1.5c13.2,9.7,19.6,15.2,32.8,24.9
	c0.5,0.4,1.2,0.9,1.8,0.9c4.2,0.1,8.5,0,12.9,0C114.3,150.1,112.1,146.5,109.9,143z M254.5,221.9c-0.9-3.2-3.3-4.7-5.1-6.8
	c-1.3-1.6-2.7-2.9-4.2-0.1c-2.7-2-2.6-2-1.9-4.6c0.1-0.5-0.3-1.4-0.7-1.9c-2.4-2.5-4.9-4.9-7.4-7.4c-2.2-2.2-2.6-2.2-4.8,0.1
	c-1.9-1.4-3.6-2.6-1.6-5.3c0.2-0.3-0.3-1.6-0.8-2.1c-9.1-9.1-18.2-18.1-27.4-27.1c-0.8-0.8-2.4-1.8-3.3-1.5c-3,0.8-5.9,2.2-8.9,3.4
	c0.9,1.4,0.9,3.4,1.7,4.3c6.9,7.3,18.8,16.3,25.8,23.6c1.6,1.6,1.8,3.2,0.6,5.1c-2.1,3.5-4.1,7.1-6.2,10.7
	c-4.2,7.3-2.7,6.2-10.4,4.4c-8.8-2-21.5-7.9-30.2-10.1c-0.9-0.2-2.5,0.9-3.8,0.9c0.4,2.8,0.9,5.4,1.1,8c0.1,2.1,1.2,3.1,3.1,3.6
	c12.6,3.5,25.1,6.9,37.7,10.3c0.6,0.2,1.9,0,2-0.4c1.3-3.1,3.2-2,5.3-1c-0.3,0.9-0.6,1.8-0.9,2.6c0.3,0.3,0.5,0.6,0.7,0.7
	c4.4,1.3,8.8,2.7,13.3,3.9c0.3,0.1,1-0.3,1.2-0.6c1.3-2.9,3.1-1.3,5-0.6c-1.3,2.1-0.7,3,1.4,3.4c1,0.2,1.9,0.5,2.8,0.8
	c6.5,1.8,9.7,0.4,13.1-5.4c0.5-0.9,1-2,1.7-2.9C255.3,227.4,255.3,225,254.5,221.9z M198.2,205.5c1.3-2.6,2.9-5.1,4.4-7.7
	c1-1.7,1.1-3.4-0.2-5.1c-5.2-6.7-10.5-13.2-15.3-20c-3.1-4.5-6.6-6.1-11.7-3.7c-2.3,1.1-4.5,0.8-6.7-0.6c-1.4-0.8-3.3-1.7-4.8-1.5
	c-3.3,0.4-6.5,1.4-7.7,5.2c-0.4,1.1-1.1,2-1.7,3c-0.9,1.6-1.9,3.2-2.7,4.7c-1.7,2.9-0.9,8.1,2,9.7c4.1,2.2,6,5.6,6.7,9.9
	c0.1,0.7,0.3,1.6,0.7,2.2c0.6,0.8,1.3,1.8,2.1,1.9c9.8,1.6,19.6,3.2,29.4,4.7C195,208.5,197,207.8,198.2,205.5z M196.8,238.5
	c2.3,2.6,4.5,4,7.9,4.7c1.2,0.3,2.4,0.5,3.6,0.4c5-0.4,9.9-1.1,14.9-1.5c2.4-0.2,3.4-2.2,3.9-4.3l-32.9-3.7
	C195.6,237.1,196.1,237.5,196.8,238.5z M246.7,201.7c-2.2-4.5-4-9.1-6.1-13.6c-0.5-1.1-1.3-2-2.1-2.9c-2.3-2.6-4.6-3.8-8-4.5
	c-1.5-0.3-2.1-0.5-5.3-0.2l19.7,26.7C246.5,205.7,247.7,203.8,246.7,201.7z M86.2,205.5c-8.7,2.2-21.4,8.1-30.2,10.1
	c-7.7,1.8-6.2,2.9-10.4-4.4c-2.1-3.6-4.1-7.2-6.2-10.7c-1.2-1.9-1-3.5,0.6-5.1c7-7.3,18.9-16.3,25.8-23.6c0.8-0.9,0.8-2.9,1.7-4.3
	c-3-1.2-5.9-2.6-8.9-3.4c-0.9-0.3-2.5,0.7-3.3,1.5c-9.2,9-18.3,18-27.4,27.1c-0.5,0.5-1,1.8-0.8,2.1c2,2.6,0.3,3.9-1.6,5.3
	c-2.2-2.3-2.6-2.3-4.8-0.1c-2.5,2.5-5,4.9-7.4,7.4c-0.4,0.5-0.8,1.4-0.7,1.9c0.7,2.6,0.8,2.6-1.9,4.6c-1.5-2.8-2.9-1.5-4.2,0.1
	c-1.8,2.1-4.2,3.6-5.1,6.8c-0.8,3.1-0.8,5.5,1.1,8c0.7,0.9,1.2,2,1.7,2.9c3.4,5.8,6.6,7.2,13.1,5.4c0.9-0.3,1.8-0.6,2.8-0.8
	c2.1-0.4,2.7-1.3,1.4-3.4c1.9-0.7,3.7-2.3,5,0.6c0.2,0.3,0.9,0.7,1.2,0.6c4.5-1.2,8.9-2.6,13.3-3.9c0.2-0.1,0.4-0.4,0.7-0.7
	c-0.3-0.8-0.6-1.7-0.9-2.6c2.1-1,4-2.1,5.3,1c0.1,0.4,1.4,0.6,2,0.4c12.6-3.4,25.1-6.8,37.7-10.3c1.9-0.5,3-1.5,3.1-3.6
	c0.2-2.6,0.7-5.2,1.1-8C88.7,206.4,87.1,205.3,86.2,205.5z M101.4,174c-0.6-1-1.3-1.9-1.7-3c-1.2-3.8-4.4-4.8-7.7-5.2
	c-1.5-0.2-3.4,0.7-4.8,1.5c-2.2,1.4-4.4,1.7-6.7,0.6c-5.1-2.4-8.6-0.8-11.7,3.7c-4.8,6.8-10.1,13.3-15.3,20
	c-1.3,1.7-1.2,3.4-0.2,5.1c1.5,2.6,3.1,5.1,4.4,7.7c1.2,2.3,3.2,3,5.5,2.7c9.8-1.5,19.6-3.1,29.4-4.7c0.8-0.1,1.5-1.1,2.1-1.9
	c0.4-0.6,0.6-1.5,0.7-2.2c0.7-4.3,2.6-7.7,6.7-9.9c2.9-1.6,3.7-6.8,2-9.7C103.2,177.1,102.3,175.6,101.4,174z M32.7,241
	c5,0.4,9.9,1.1,14.9,1.5c1.2,0.1,2.4-0.1,3.6-0.4c3.4-0.7,5.6-2.1,7.9-4.7c0.7-1,1.2-1.4,2.6-4.4l-32.9,3.7
	C29.3,238.8,30.3,240.8,32.7,241z M30.7,179.4c-3.2-0.3-3.9-0.1-5.3,0.2c-3.4,0.7-5.7,1.9-8,4.5c-0.8,0.9-1.6,1.8-2.1,2.9
	c-2.1,4.5-3.9,9.1-6.1,13.6c-1,2.1,0.2,4,1.8,5.5L30.7,179.4z"/>
</svg>
