<?xml version="1.0" encoding="utf-8"?>
<!-- Generator: Adobe Illustrator 23.0.1, SVG Export Plug-In . SVG Version: 6.00 Build 0)  -->
<svg version="1.1" id="Layer_1" xmlns="http://www.w3.org/2000/svg" xmlns:xlink="http://www.w3.org/1999/xlink" x="0px" y="0px"
	 viewBox="0 0 256 256" style="enable-background:new 0 0 256 256;" xml:space="preserve">
<style type="text/css">
	.st0{fill:#FFFFFF;}
</style>
<path class="st0" d="M128.9,224.2c-23.1,0-46.3,0-69.4,0c-2.4,0-4.3-0.5-6.1-2.1c-9.3-8.2-17.7-17.2-24.2-27.9
	c-1.4-2.3-1.1-3.5,1-4.7c7.9-4.4,15.7-8.8,23.6-13.2c2.2-1.2,3.3-0.4,4.4,1.4c6.7,11.1,15.5,20.3,26.8,26.7
	c6.1,3.5,12.5,6.8,19.2,8.7c10.5,3,21.3,4.3,32.3,3c7.7-0.9,15.3-1.9,22.5-4.7c11.4-4.4,21.9-10.6,30-19.9
	c4.6-5.3,8.5-11.3,12.8-16.9c0.5-0.7,2.1-1.2,2.8-0.9c7.9,4,15.8,8.2,23.7,12.5c3.8,2.1,3.8,2.3,1.6,6.2
	c-6.9,11.7-15.7,21.8-26.3,30.2c-1.2,1-3.2,1.3-4.8,1.3c-23.2,0.1-46.4,0.1-69.7,0.1C128.9,224.1,128.9,224.1,128.9,224.2z"/>
<path class="st0" d="M48.6,51.4c0.7,0.5,1.5,1,2.2,1.7C57.4,60,64,66.9,70.6,73.7c2.5,2.6,2.5,3.1-0.1,5.7
	c-8.6,8.4-15,18.3-19.2,29.5c-5.1,13.6-5.6,27.8-3.6,42c0.6,4.3,2.2,8.4,3.4,12.6c0.6,2.1,0.2,3.3-1.9,4.5
	c-7.9,4.3-15.7,8.9-23.5,13.4c-2.3,1.4-3.5,0.1-4.3-1.7c-1.4-3.2-2.9-6.4-3.8-9.8c-1.6-6.1-2.9-12.3-4.1-18.5
	c-2.6-12.9-2-25.9,0.6-38.7c4.7-23.3,15.6-43.4,32.6-60c0.3-0.3,0.7-0.7,1.1-1C48,51.6,48.2,51.5,48.6,51.4z"/>
<path class="st0" d="M235.8,179.4c-7-3.7-14-7.4-21.1-11c-1.8-0.9-3.6-1.8-5.4-2.8c-1.9-1-2.9-2.2-1.7-4.7s1.9-5.3,2.4-8.1
	c2.3-11,2.5-22.1,0-33.1c-3.7-16.4-11.7-30.5-24-42.1c-2.7-2.5-2.7-2.8-0.3-5.3c6.5-7,12.9-14,19.4-21c0.7-0.8,1.6-1.4,2.3-2.1
	C248.8,84.4,254.3,144.2,235.8,179.4z"/>
<path class="st0" d="M71.5,233.5c38,0,75.9,0,114.4,0C163,250.1,109.5,256.9,71.5,233.5z"/>
<rect x="60.1" y="116.4" class="st0" width="137.9" height="36"/>
<rect x="60.1" y="116.4" transform="matrix(6.123234e-17 -1 1 6.123234e-17 -5.2737 263.4421)" class="st0" width="137.9" height="36"/>
<path class="st0" d="M204.9,31.7c-6.2,7.1-12.6,15.7-18.7,22.9c-1.5,1.8-3.7,4.2-5.4,6c-1.7,1.9-2.4,1.8-5.4,0.6c-2.5-1-2.9-1.6-6-3
	c-12.1-5.7-24.9-9-38.3-9.2c-20-0.3-33.4,3.7-50.6,13.6c-3.6,2.4-4,2.3-6.2-1.1C66.3,52.1,60,44,52.4,34.4c-0.7-1-1.2-2.2-1.8-3.2
	C101.4-2.9,159-2.8,204.9,31.7z"/>
</svg>
