<?xml version="1.0" encoding="utf-8"?>
<!-- Generator: Adobe Illustrator 24.2.3, SVG Export Plug-In . SVG Version: 6.00 Build 0)  -->
<svg version="1.1" id="Layer_1" xmlns="http://www.w3.org/2000/svg" xmlns:xlink="http://www.w3.org/1999/xlink" x="0px" y="0px"
	 viewBox="0 0 256 256" style="enable-background:new 0 0 256 256;" xml:space="preserve">
<style type="text/css">
	.st0{fill:#FFFFFF;}
</style>
<path class="st0" d="M225.4,109.8c0.2,0.4-0.3,1.3-0.7,1.8c-7.1,9.7-14.3,19.3-21.6,28.9c-0.7,0.8-2,1.6-3,1.6
	c-5.9,0-10.4,2.4-13.5,7.6c-1.5,2.6-3.5,4.9-5.6,7.1c-12.1,12.8-23.7,30.7-27.2,37.4c-3.4,6.7-12,20.8-21,30.1
	c-5.3,5.5-12.2,11.1-16.9,14.8c-1.2,4.7,0.4,6.3,0.4,6.3c0-0.1-11-0.2-11-0.4c-4.7,0-5.6-0.2-10.2-0.2c-1.3,0-1.9-0.4-1.8-1.8
	c0.3-3.3,0.6-6.7,0.9-10c0-0.5,0.3-1,0.6-1.4c2.9-3.6,5.9-7.2,8.9-10.7c0.4-0.4,1.4-0.5,2-0.4c12.8,2.5,22.4-5,23.2-18.1
	c0.1-1.1,0.7-2.2,1.3-3c12.8-16,25.6-32,38.3-48c0.8-1,1.4-2.2,1.8-3.4c2.8-8.6,5.4-17.3,8.3-25.8c0.7-2.1,1.9-4.1,3.3-5.7
	c3.9-4.6,8-8.8,11.9-13.3c1.7-2.1,3.8-3.3,6.3-4.1c3.9-1.2,7.6-2.6,11.5-3.8c0.8-0.3,2-0.1,2.7,0.4c2,1.3,3.9,2.8,5.8,4.3l0,0
	C223.2,102.4,223.8,106.2,225.4,109.8z M172.2,183.4l-23.2,57c0.1,0.1,0,1.5,0.6,1.8c11-21.9,21.4-45.1,32.6-67.4
	C177.7,176.9,174.3,179,172.2,183.4z M109.8,209.2c3.9,0,7.1-3.2,7.1-7.1c0-3.9-3.2-7.1-7.1-7.1c-3.9,0-7.1,3.2-7.1,7.1
	C102.7,206,105.9,209.2,109.8,209.2z M134,157.1l-3.9-3.6l-7.6,7.9l3.6,3.6L134,157.1z M144.5,146.1l-3.8-3.6l-7.7,7.9l3.7,3.6
	L144.5,146.1z M155.2,135.4l-3.9-3.5l-7.6,7.9l3.6,3.5L155.2,135.4z M249.5,56.2L249.5,56.2c-4.1-3.1-7.9-6.6-11.9-9.9
	c-1.3-1.1-2.6-2.1-4-3.3c-6.1,6.1-12,12-17.8,18c-1.7,1.8-3.4,2.1-5.4,1.1l-2.7,2.8c-18.8,18.7-21,20.7-39.7,39.3
	c-1.6,1.6-2.3,3.2-2.5,5.4c-0.7,6.8-1.5,13.7-2.4,20.5c-0.2,1.3-0.8,2.8-1.8,3.8c-10.7,11.5-21.5,23-32.3,34.4
	c-0.9,0.9-2.3,1.6-3.5,1.7c-5.2,0.7-10.4,1.2-15.6,1.9c-1.4,0.2-2.9,0.9-4,1.9c-6.4,6.2-12.5,12.5-18.9,18.7
	c-1.8,1.8-2.5,3.6-2.6,6.1c-0.5,15.9-1.2,31.8-1.9,47.7c-0.1,3,2.3,5.8,5.3,5.9c10.1,0.5,20.3,1,30.4,1.5c4.1,0.2,8.7,1.5,12.2,0.1
	c3.5-1.4,6-5.4,8.9-8.4c1.9-1.8,3.7-3.7,5.5-5.6c-3.4-3.8-3.4-3.8-1.2-8.1c8.9-17.5,17.8-34.9,26.6-52.4c1.1-2.1,2.3-3.7,4.6-4.6
	c3.3-1.2,5.3-3.6,6.8-6.9c2.8-6.2,6-12.2,9-18.2c0.5-1,1-1.9,1.5-2.9c-0.1-0.1-0.3-0.1-0.4-0.2c-2.9,3.6-5.7,7.2-8.7,10.7
	c-7.4,8.7-13.8,17.9-18.7,28.2c-7.3,15.2-15.1,30.1-22.8,45.1c-0.6,1.2-1.3,2.4-2.3,3.4c-4.1,4.2-8.3,8.5-12.7,12.5
	c-0.9,0.9-2.5,1.5-3.8,1.4c-10.1-0.1-20.1-0.4-30.2-0.7c-0.7,0-1.5-0.1-2.4-0.2c0.3-4.7,0.4-9.7,0.8-13.8c0.5-4.1,6.9-17.5,6.9-17.5
	c-4.6-4.2-7.4-9.1-5.4-17.9c1.6-7.1,7.6-12.7,14.9-13.6c9.9-1.3,16.4,3.8,19.1,9.7l41-50c1.9-9.3,2.5-12.2,4-17.2s2.2-11.6,2.9-12.4
	c5.4-6,14.1-13.1,19.6-19c0.8-0.9,1.9-1.9,3-2.3c5.1-1.7,10.3-3.2,15.5-4.7c0.7-0.2,1.8-0.1,2.3,0.3c3.9,3.6,9.5,5.4,11.2,11.1
	c0.4-0.1,0.6-0.2,0.7-0.3c8.9-10.4,17.8-20.8,26.6-31.2c0.4-0.4,0.8-1.1,0.7-1.5C253.2,63.1,253.2,58.9,249.5,56.2z M99.5,76.3
	C86.7,88.3,68.7,100,62,103.4c-6.7,3.5-20.9,12.1-30.1,21c-5.5,5.3-11.1,12.2-14.8,16.9c-4.7,1.1-6.3-0.4-6.3-0.4
	c0.2,0,0.3,11,0.4,11c0,4.6,0.2,5.5,0.2,10.2c0,1.3,0.4,1.9,1.8,1.8c3.3-0.3,6.7-0.6,10-0.9c0.5,0,1-0.3,1.4-0.6
	c3.6-2.9,7.2-5.9,10.7-8.9c0.4-0.4,0.6-1.3,0.4-2c-2.5-12.8,5-22.4,18.1-23.2c1-0.1,2.1-0.6,3-1.3c16-12.7,32-25.5,48-38.3
	c1-0.8,2.2-1.4,3.4-1.8c8.6-2.8,17.2-5.4,25.8-8.3c2-0.7,4-1.9,5.7-3.3c4.5-3.8,8.8-8,13.3-11.9c2-1.8,3.3-3.8,4.1-6.3
	c1.2-3.9,2.6-7.6,3.8-11.5c0.2-0.8,0-2-0.4-2.7c-1.3-2-2.8-3.9-4.3-5.8c-2.4-3.2-6.2-3.8-9.5-5.3c-0.4-0.2-1.3,0.4-1.8,0.7
	c-9.7,7.2-19.3,14.4-28.9,21.6c-0.8,0.6-1.6,1.9-1.6,3c0,6-2.4,10.4-7.6,13.5C104,72.2,101.6,74.2,99.5,76.3z M15.6,108.2l57-23.2
	c4.4-2.1,6.4-5.5,8.7-10c-22.4,11.2-45.5,21.6-67.4,32.6C14.1,108.2,15.4,108.1,15.6,108.2z M46.7,147.4c0,3.9,3.2,7.1,7.1,7.1
	c3.9,0,7.1-3.2,7.1-7.1c0-3.9-3.2-7.1-7.1-7.1C49.9,140.3,46.7,143.5,46.7,147.4z M90.9,131l3.6,3.7l7.9-7.7l-3.6-3.8L90.9,131z
	 M113.4,116.5l-3.6-3.8l-7.9,7.8l3.6,3.7L113.4,116.5z M124.1,105.8l-3.6-3.8l-7.9,7.8l3.6,3.7L124.1,105.8z M85.9,131.6L85.9,131.6
	c0.2-1.2,0.9-2.6,1.7-3.5c11.4-10.8,22.9-21.6,34.4-32.3c1-0.9,2.5-1.6,3.8-1.8c6.8-0.9,13.6-1.7,20.5-2.4c2.2-0.2,3.8-0.9,5.4-2.5
	c18.7-18.8,20.7-21,39.3-39.7l2.8-2.7c-1-2-0.7-3.7,1.1-5.4c6-5.8,11.8-11.7,18-17.8c-1.2-1.4-2.2-2.7-3.3-4
	c-3.3-3.9-6.9-7.7-9.9-11.9c-2.8-3.7-7-3.7-10.7-5c-0.4-0.1-1.1,0.3-1.5,0.7c-10.4,8.9-20.8,17.7-31.2,26.6
	c-0.1,0.1-0.1,0.3-0.3,0.7c5.7,1.7,7.5,7.3,11.1,11.2c0.4,0.5,0.5,1.6,0.3,2.3c-1.5,5.2-3,10.4-4.7,15.5c-0.4,1.1-1.3,2.2-2.3,3
	c-5.9,5.5-13,14.2-19,19.6c-0.8,0.7-7.3,1.5-12.4,2.9c-5,1.5-8,2.1-17.2,4l-50,41c5.9,2.8,11,9.2,9.7,19.1
	c-0.9,7.3-6.5,13.3-13.6,14.9c-8.9,2-13.7-0.9-17.9-5.4c0,0-13.3,6.4-17.5,6.9c-4.2,0.5-9.1,0.6-13.8,0.8c-0.1-0.9-0.2-1.6-0.2-2.4
	c-0.3-10.1-0.6-20.1-0.7-30.2c0-1.3,0.6-2.9,1.4-3.8c4.1-4.3,8.3-8.5,12.5-12.7c1-0.9,2.2-1.7,3.4-2.3c15-7.6,29.9-15.5,45.1-22.8
	c10.4-4.9,19.6-11.4,28.2-18.7c3.5-3,7.2-5.8,10.7-8.7c-0.1-0.1-0.1-0.3-0.2-0.4c-1,0.5-1.9,1-2.9,1.5c-6.1,3-12.1,6.2-18.2,9
	c-3.2,1.5-5.7,3.5-6.9,6.8c-0.8,2.2-2.5,3.5-4.6,4.6c-17.5,8.8-34.9,17.7-52.4,26.6c-4.4,2.2-4.4,2.2-8.1-1.2
	c-1.8,1.8-3.7,3.7-5.6,5.5c-2.9,2.9-7,5.4-8.4,8.9c-1.4,3.5-0.1,8.1,0.1,12.2c0.5,10.1,1,20.3,1.5,30.4c0.1,3,2.9,5.4,5.9,5.3
	c15.9-0.7,31.8-1.3,47.7-1.9c2.5-0.1,4.3-0.8,6.1-2.6c6.2-6.4,12.5-12.5,18.7-18.9c1-1,1.7-2.6,1.9-4
	C84.8,142,85.2,136.8,85.9,131.6z"/>
</svg>
