<?xml version="1.0" encoding="utf-8"?>
<!-- Generator: Adobe Illustrator 23.0.1, SVG Export Plug-In . SVG Version: 6.00 Build 0)  -->
<svg version="1.1" id="Layer_1" xmlns="http://www.w3.org/2000/svg" xmlns:xlink="http://www.w3.org/1999/xlink" x="0px" y="0px"
	 viewBox="0 0 256 256" style="enable-background:new 0 0 256 256;" xml:space="preserve">
<style type="text/css">
	.st0{fill:#FFFFFF;}
</style>
<path class="st0" d="M128.1,151.6c16.9,0,30.6-13.7,30.6-30.6S145,90.5,128.1,90.5S97.5,104.1,97.5,121S111.3,151.6,128.1,151.6z"/>
<path class="st0" d="M78.2,193.3c-22.3-14.4-37.8-38.5-40.6-66.2H22.3c2.9,33.7,21.8,62.8,49,79.9L78.2,193.3z"/>
<path class="st0" d="M128.1,15.5c-17.3,0-33.7,4.2-48.1,11.6l8,13c12.1-6,25.7-9.4,40.1-9.4c14.7,0,28.6,3.5,40.9,9.8l8-13
	C162.4,19.8,145.8,15.5,128.1,15.5z"/>
<path class="st0" d="M217.3,131.9c-2.7,26.4-16.8,49.4-37.4,64l8,13c24.9-17.3,41.9-45.2,44.7-77H217.3z"/>
<path class="st0" d="M65.8,19.7c0,0-7.3,3.7-16.6,11.8l6.9,10.6l0.1,6.9c0,0-9.7,10.6-15.5,22.5S34.2,95,34.2,95l-4.8,4.4l-18.1-0.3
	c-1,6.1-1.7,12.5-1.8,19.4H80c0,0,2.4-25.9,23.5-37.7L65.8,19.7z"/>
<path class="st0" d="M44.8,34.5c-16,15-28.1,36.4-33.1,58.5L26,93.2l3.6-3.3c1.5-9,3.3-14.3,8.2-23.6s6.6-11.5,12.6-17.7l-0.1-5.1
	L44.8,34.5z"/>
<path class="st0" d="M128.1,140.5c10.7,0,19.4-8.7,19.4-19.4c0-10.7-8.7-19.4-19.4-19.4s-19.4,8.6-19.4,19.4
	S117.4,140.5,128.1,140.5z"/>
<path class="st0" d="M245,121.6c0,0,0.7-8.2-1.3-20.4l-12.6,0.3l-5.9-3.5c0,0-3.9-13.8-11-25c-7.1-11.2-16.4-18-16.4-18l-1.2-6.4
	l9.8-15.3c-4.6-4.1-9.8-8-15.5-11.7l-37.2,60c0,0,20.8,15.7,19.6,39.9L245,121.6z"/>
<path class="st0" d="M243.6,96c-4.3-21.5-16.1-43.1-32.3-58.9l-7.7,12l0.9,4.8c6.9,6.1,10.5,10.4,15.8,19.4s6.3,11.7,8.4,20l4.4,2.6
	L243.6,96z"/>
<path class="st0" d="M130.1,165.7c-7.4,0.4-15.9-0.7-24-5.2l-32.3,64.1c0,0,7,4.3,18.8,7.9l6.4-12.5l5.8-3.7c0,0,12,2.9,23.2,2.9
	s23.4-2.9,23.4-2.9l5.8,3.7l6.4,12.5c11.8-3.7,18.8-7.9,18.8-7.9l-32.3-64.1c-8.2,4.6-16.7,5.6-24,5.2"/>
<path class="st0" d="M129.6,238.5c-11,0.3-22-0.9-32.2-3.7l5.8-10.4l4.3-2.8c0,0,11.5,2.5,21.2,2.5s19.9-2.5,19.9-2.5l4.3,2.8
	l5.8,10.4c-10.2,2.8-21.1,4-32.2,3.7"/>
</svg>
