<?xml version="1.0" encoding="utf-8"?>
<!-- Generator: Adobe Illustrator 24.2.3, SVG Export Plug-In . SVG Version: 6.00 Build 0)  -->
<svg version="1.1" id="Layer_1" xmlns="http://www.w3.org/2000/svg" xmlns:xlink="http://www.w3.org/1999/xlink" x="0px" y="0px"
	 viewBox="0 0 256 256" style="enable-background:new 0 0 256 256;" xml:space="preserve">
<style type="text/css">
	.st0{fill:#FFFFFF;}
</style>
<path class="st0" d="M89.4,50.5c-0.2,28.8-0.1,57.7-0.1,86.6c0,29-0.1,58.1,0.1,87.1c0,4.1-1.2,5.5-5.4,5.5
	c-18.1,0-36.1,0.5-54.2,0.6c-2.3,0-4.8-1.4-6.9-2.7c-9.4-5.7-7.1-15-6.8-23.6c0-0.7,2.2-2,3.4-2c8.1-0.2,16.2-0.3,24.3-0.1
	c3.5,0.1,5.8-1.6,8.5-3.5c10.5-7.8,14-17.6,13.3-30.8c-1.2-25.1-0.3-50.3-0.4-75.4c0-2.3-1.8-4.5-2.7-6.7c-0.1-0.2-0.4-0.4-0.6-0.6
	c-7.4-11-17.8-14.4-30.5-12.6c-3.8,0.5-7.8,0-11.7,0.1c-2.6,0.1-3.7-0.8-3.6-3.5c0.1-2.7,0.3-5.5,0-8.2c-0.9-6.2,1.2-11,6.5-14.3
	c2.1-1.3,4.6-2.5,7-2.5c17.9-0.1,35.8,0.1,53.7,0.2C89.5,44.1,89.4,44.2,89.4,50.5z M56.5,93.1c-3.7-4-7.5-8.1-11.8-11.4
	c-1.7-1.3-4.9-0.8-7.5-0.8c-5.2-0.1-10.4,0.3-15.6-0.1c-4.4-0.4-5.6,1.1-5.6,5.5c0.2,34.1,0.1,68.2,0.1,102.3c0,1.4,0,2.9,0,4.8
	c9.4,0,18.3,0.1,27.1-0.1c0.7,0,1.5-0.7,2.1-1.3c3-3,6.3-6,9-9.3c1.3-1.6,2.4-4,2.4-6c0.2-26.7,0.1-53.5,0.1-80.2
	C56.8,95.3,57.1,93.7,56.5,93.1z M191.3,33.1c-5.7-0.2-11.5-0.1-17.7-0.1c-0.1,1.4-0.2,3-0.1,4.6c-0.1,64.7-0.1,129.5-0.1,194.2
	c0,10.6-1.2,9.4,9.6,9.1c1.3-0.1,2.6-0.1,3.9-0.1c6.2-0.2,6.3-0.2,6.3-6.6c0.4-65.3,0.7-130.6,1.1-195.9c0-0.9,0.3-2-0.1-2.6
	C193.4,34.6,192.3,33.1,191.3,33.1z M102,168.3c9.4-0.1,18.8,0,28.2,0c0,0.1,0,0.2,0,0.2c9,0,18.1,0,27.1,0c5.1,0,5.7-0.5,5.7-5.6
	c0-17.4,0-34.9,0-52.4c0-6.4-0.2-6.7-6.4-6.7c-18,0.1-36.1,0.4-54.1,0.6c-3,0-4.4,1-4.4,4.3c0.1,18.6,0.1,37.3,0,55.9
	C98.1,167.5,99.2,168.3,102,168.3z M130.2,168.5c-0.1,0-0.1,0-0.2,0C130.1,168.6,130.2,168.5,130.2,168.5z M158.7,180.1
	c-18.9,0.2-37.9,0.3-56.8,0.3c-2.5,0-3.7,0.8-3.7,3.5c0,13.9,0,27.7,0,42.1c21.8,0,43.1,0,64.8-0.1c0.1-1.6,0.3-2.8,0.3-4.1
	c0-12.2-0.1-24.5,0.1-36.8C163.4,181.4,162.2,180.1,158.7,180.1z M100.5,93.6c19.8,0,39.5,0,59.3,0.1c3.2,0,3.5-1.6,3.5-4.1
	c-0.1-12.6-0.2-25.1,0-37.7c0.1-3.4-1.1-4.5-4.4-4.5c-19.2,0.2-38.4,0.2-57.6,0.5c-1,0.1-2.9,1.7-2.9,2.6
	c-0.2,14.1-0.1,28.2-0.1,42.7C99.4,93.4,100,93.6,100.5,93.6z M242.4,163.5c0-19.7,0-39.3,0-59.6c-0.9-0.1-2.1-0.3-3.5-0.3
	c-10.1-0.1-20.2,0.1-30.3-0.1c-3.5,0-4.3,1.1-4.3,4.5c0.2,18.4,0.1,36.7,0.1,55.1c0,1.2,0.2,2.5,0.3,4.4c11.9,0,23.6,0,35.2,0
	C242.8,167.5,242.4,165.3,242.4,163.5z M223,93.4c0.8,0,2.2-1.5,2.2-2.4c0.2-13.4,0.2-26.8,0-40.2c0-1.1-1.5-2.9-2.4-2.9
	c-6-0.2-12-0.1-18.1-0.1c0,15.5,0,30.5,0,45.8C211,93.6,217,93.7,223,93.4z M221.7,180.4c-4.6,0.1-9.2,0.2-13.8,0.1
	c-2.6,0-3.6,1-3.5,3.6c0.2,6.3,0.2,12.7,0.2,19c0,7.5,0,15,0,22.9c6.1,0,11.6,0,16.9,0c2.9-0.1,3.6-1.9,3.6-4.4
	c0-12.6,0-25.2,0.1-37.7C225.3,181.3,224.2,180.3,221.7,180.4z M41.6,38.1c11.7,0.2,23.3,0.2,35,0.2c0.9,0,1.9-0.2,2.9-0.3
	c0-7.7,0-15.2,0-22.6c-5.3,0-10.7-1.5-14.6,0.2c-9,4-17.4,9.4-25.8,14.7c-1.3,0.8-1.5,4-1.5,6.1C37.6,37,40.2,38.1,41.6,38.1z"/>
</svg>
