<?xml version="1.0" encoding="utf-8"?>
<!-- Generator: Adobe Illustrator 21.0.1, SVG Export Plug-In . SVG Version: 6.00 Build 0)  -->
<svg version="1.1" id="Layer_1" xmlns="http://www.w3.org/2000/svg" xmlns:xlink="http://www.w3.org/1999/xlink" x="0px" y="0px"
	 viewBox="0 0 256 256" style="enable-background:new 0 0 256 256;" xml:space="preserve">
<style type="text/css">
	.st0{fill:#FFFFFF;}
</style>
<g>
	<path class="st0" d="M226.5,70.3h-35.9l-9-9h-23.2l-9,9H29.5c-11.1,0-16.3,5.1-16.3,16.3v91.9c0,11.1,5.1,16.3,16.3,16.3h197
		c11.1,0,16.3-5.1,16.3-16.3v-92C242.7,75.4,237.6,70.3,226.5,70.3z M159.9,66.5h20l6.6,6.4l-5.5,4.8h-23.1l-4.6-4.6L159.9,66.5z
		 M196.8,86.5v93.9H59.4V86.5H196.8z M27.9,172.4v-78c0-4.4,3.6-7.9,7.9-7.9H47v93.9H35.9C31.5,180.4,27.9,176.9,27.9,172.4z
		 M229.3,172.4c0,4.4-3.6,7.9-7.9,7.9h-12.3V86.5h12.3c4.4,0,7.9,3.6,7.9,7.9V172.4z"/>
	<polygon class="st0" points="87.4,175.3 128.1,132.9 128.4,141.3 154.5,114.3 155.5,120.8 184.6,91.5 65.4,91.5 65.4,175.3 	"/>
	<polygon class="st0" points="156.4,133.4 131.9,159.8 130.1,151.4 104.8,175.3 191.4,175.3 191.4,109.5 158.4,141.6 	"/>
</g>
</svg>
