<?xml version="1.0" encoding="utf-8"?>
<!-- Generator: Adobe Illustrator 24.2.3, SVG Export Plug-In . SVG Version: 6.00 Build 0)  -->
<svg version="1.1" id="Layer_1" xmlns="http://www.w3.org/2000/svg" xmlns:xlink="http://www.w3.org/1999/xlink" x="0px" y="0px"
	 viewBox="0 0 256 256" style="enable-background:new 0 0 256 256;" xml:space="preserve">
<style type="text/css">
	.st0{fill:#FFFFFF;}
</style>
<path class="st0" d="M213.9,183.2c2.9,3.6,6.5,6.7,10,10.1c12.9-22.7,13.5-71.2,5.3-78c-1.4,0.7-2.8,1.5-4.3,2.2
	c-3.6,1.6-5.2,3.6-4.2,8.1c1,4.8,0.4,9.9,0.6,14.9c0.2,3.6-1.3,5.1-5,5c-9-0.2-18,0-27-0.2c-1.6,0-3.7-0.6-4.9-1.7
	c-8-7.6-15.7-15.3-24.8-24.3c2.3-1.6,3.9-2.5,5.3-3.8c12.6-12.4,25-24.9,37.5-37.4c5.5-5.5,5.4-11.2-0.1-16.7
	c-2.5-2.6-5.1-5.2-7.7-7.8c-6.2-6.2-10.3-6.2-16.7,0.2c-12.7,12.7-25.4,25.4-38,38.2c-2.7,2.8-4.5,2.9-7.2,0
	c-5.9-6.3-12.2-12.2-18.2-18.4c-1.5-1.5-3.3-3.5-3.4-5.3c-0.4-10-0.5-20-0.3-30c0-1.4,1.7-3.8,2.8-3.9c5.1-0.4,10.9-1.5,15.3,0.3
	c5.9,2.4,7.7-0.1,9.7-4.3c0.8-1.6,1.6-3.2,2.7-5.3c-27.1-7.7-52.8-4.1-78.9,6.3c2.3,2.6,4.6,4.7,6.4,7.2c3.3,4.4,6.7,4.7,11.5,2.3
	c3.6-1.8,7.8-2.3,12.6-3.6c0,12.5-0.2,23.7,0.1,34.8c0,2.3,1.2,5.2,2.8,6.9c7.9,8.3,16,16.5,24.3,24.4c3.4,3.2,3.3,5.1,0,8.4
	c-24.4,24.2-48.7,48.7-73,73c-1.3,1.3-2.8,2.4-4.5,3.9c-0.3-1.1-0.6-1.5-0.6-2c-0.1-38.3-0.1-76.7-0.1-115c0-3.4,1.2-3.9,4.3-2.6
	c6.3,2.7,12.7,0.6,18.2-5.4c3.9-4.2,5.2-12.7,3.1-17.7c-3.8-9-12.4-11.5-18.3-10.7C39,36.7,34,44.6,34.1,53
	c0.3,43.7-0.1,87.3,0.4,131c0.1,9.8-1.6,17.5-9.8,23.2c-4.6,3.2-6,7.6-5.8,13.3c0.2,5.8,4.7,7.8,7.7,11c7.1,7.4,14.4,7.3,21.7,0
	c2-2,4.1-3.9,5.9-6.1c2.6-3.1,5.6-4,9.6-4c46,0.1,92,0.2,138,0.2c2.6,0,5.4,0.1,7.9-0.6c6.6-1.8,12.2-11.1,11.4-18.1
	c-0.9-8.3-8.3-15.1-16.2-15.7c-8.7-0.7-17.2,6.1-17.8,12.7c-0.4,4.3-0.1,8.8-0.1,13.5c-39.6,0-79.4,0-120,0c1.3-1.6,2.1-2.7,3-3.6
	c25-25,50.1-49.9,75-74.9c2.6-2.6,4.4-2.7,7,0c8.2,8.5,16.6,16.9,25.1,25.1c1.6,1.6,4.5,2.7,6.8,2.8c9.5,0.3,19,0.1,28.5,0.1
	c2.1,0,4.1,0.3,6.6,0.5c-1.7,5.2-3.3,9.7-4.6,14.3C213.9,179.5,213.1,182.2,213.9,183.2z M51.7,41.8c5.7,0.1,10.9,5.3,10.7,10.8
	c-0.2,5.6-5.4,10.3-11.2,10.1c-6.3-0.2-10.9-4.8-10.6-10.6C41,46,45.6,41.7,51.7,41.8z M203.2,193.2c5.2-0.8,10.4,5,10.5,10.8
	c0.1,5.8-4.8,11.4-10.2,11.1c-5-0.3-10.8-4.5-10.7-10.8C192.9,196.9,198,194,203.2,193.2z M178.2,63c4.5,5,8.9,9.8,13.4,14.9
	c-3.2,5.2-4,5.3-8.9,0.5c-3.1-3.1-6.5-5.9-10.2-9.2C174.5,67,176.3,65.1,178.2,63z M97.4,163.9c-1.7,1.7-3.2,3.9-5.1,5.4
	c-1.8,1.4-3.7,3.8-6.4,1.1c-2.8-2.8-1.1-4.8,0.9-6.8c6.7-6.7,13.5-13.3,20.2-20c19.2-19.2,38.4-38.3,57.5-57.5
	c1.1-1.1,2-2.3,3.2-3.6c-0.9-1.2-1.8-2-2.1-2.5c-0.1-1.6-0.4-4.1,0.5-4.7c1-0.8,3.7-0.7,4.8,0.1c3.1,2.2,5.7,5.1,8.5,7.7
	c4.9,4.6,4.8,5-1.2,9.2c-3.3-4.8-6-3-9.4,0.4C145.1,116.5,121.2,140.2,97.4,163.9z M155.2,62.1c8.7-0.3,16.3-8.3,16.2-16.9
	c-0.9-10.5-7.7-15.8-16.8-16.3c-8.6-0.4-16.4,8.3-16.2,16.8C138.6,54.3,146.9,62.4,155.2,62.1z M155.8,37.5c4.7,0.1,8.8,4.2,8.7,8.5
	c-0.1,3.5-5.6,8.8-9.1,8.7c-4.9-0.1-8-3.7-7.9-9.3C147.5,39.6,149.9,37.3,155.8,37.5z M210.6,84.8c-10,0-16.2,6.2-16.2,16
	c0,9.6,6.9,16.5,16.2,16.4c8.5-0.1,16.2-7.7,16.2-16.2C226.8,91.5,220.1,84.8,210.6,84.8z M210.2,109c-4.9-0.1-8.1-3.5-8.1-8.8
	c-0.1-5.2,3.1-8.7,8.1-8.8c4.1-0.1,9.1,5,9,9.1C219.1,104.4,214.2,109,210.2,109z M195.3,46c11.4-6.7,21.9-12.7,32.3-18.8
	c0.3,0.2,0.6,0.3,0.8,0.5c-1,1.9-1.9,3.7-3,5.6c-4.3,7.6-8.8,15.1-13,22.8c-1.6,3-3,3.6-5.5,1C203.6,53.5,199.8,50.2,195.3,46z
	 M114.2,109.5c-4.6,5.2-9.5,10.1-14.3,15.1c-0.4-0.2-0.8-0.5-1.2-0.7c0-10.8,0-21.6,0-32.3c0.5-0.3,0.9-0.6,1.2-0.9
	c4.8,5,9.6,10,14.2,15.1C114.8,106.5,114.8,108.8,114.2,109.5z M147.9,141c5.5,5.3,11.1,10.6,17.1,16.3c-11.1,0-21.7,0-33.2,0
	C138,151,143.3,145.7,147.9,141z"/>
</svg>
