<?xml version="1.0" encoding="utf-8"?>
<!-- Generator: Adobe Illustrator 23.0.1, SVG Export Plug-In . SVG Version: 6.00 Build 0)  -->
<svg version="1.1" id="Layer_1" xmlns="http://www.w3.org/2000/svg" xmlns:xlink="http://www.w3.org/1999/xlink" x="0px" y="0px"
	 viewBox="0 0 256 256" style="enable-background:new 0 0 256 256;" xml:space="preserve">
<style type="text/css">
	.st0{fill:#FFFFFF;}
</style>
<path class="st0" d="M133,163.6c1.6,4,5.8,5.8,8.3,9.2c-1.7,0.9-3,1.1-4.2-0.4c-1.1-1.3-2.5-2.3-3.5-3.7c-2.5-3.7-6-5.1-10.3-5.7
	c-13.5-2-22.2-10-27.3-22.3c-0.5-1.3-0.6-2.7-1-4c-0.5-1.4-1.4-2-2.7-0.7c-1.6,1.7-3.1,3.4-4.8,5c-0.6,0.5-1.6,0.6-2.3,0.9
	c0.1-0.9-0.1-2.1,0.4-2.6c2-2.2,4.2-4.2,6.4-6.2c1.4-1.3,2.1-2.7,2.1-4.7c0.3-14.6,9.6-27.2,23.3-32c0.8-0.3,1.7-0.3,2.5-0.5
	c0.7-0.3,1.9-0.6,2-1.2c0.1-0.6-0.5-1.6-1-2.1c-2.1-2.3-4.4-4.5-6.6-6.7c0.1-0.3,0.2-0.6,0.3-0.8c1.3,0.4,2.9,0.5,3.8,1.3
	c2,1.8,3.7,4,5.5,6.1c1.2,1.5,2.7,2,4.6,2.1c13.1,0.5,23.3,6.3,30,17.7c1.6,2.7,2.4,5.8,3.5,8.7c0.2,0.5,0.4,1,0.9,2.2
	c2.6-3,4.9-5.6,7.3-8.3c1.9,1.8,1.6,3,0.4,4.2c-1.6,1.6-3.3,3.2-5,4.7c-1.8,1.5-2.7,3.3-2.8,5.7c-0.3,7.4-2.2,14.3-6.7,20.3
	c-5.3,7.1-12.3,11.4-21,12.8c-0.5,0.1-1,0.2-1.5,0.3C133.7,163.2,133.5,163.4,133,163.6z"/>
<path class="st0" d="M113.8,180.4c-4.1,4.1-7.9,8.4-12.2,12.1c-9.7,8.5-19.3,17-29.6,24.8c-9,6.9-18.7,13-28.3,19.1
	c-5.9,3.8-12.4,6.3-19.2,8c-3.3,0.8-6.7,0.6-9.1-2c-2.4-2.6-2.3-6-1.3-9.4c3.7-13.7,11.5-25.2,20-36.1c8.7-11.3,18.2-22.1,27.3-33.1
	c0.3-0.4,0.6-0.9,1.1-1.1c1-0.5,2.1-0.9,3.2-1.4c0.4,1.6,2,2.7,0.6,4.8c-5.1,7.6-10.2,15.3-14.8,23.2c-2.9,4.9-4.9,10.3-4.1,16.3
	c0.4,2.8,2.6,4.8,5.4,5.2c4.2,0.5,8.2-0.6,12-2.1c12.8-5,24-12.9,35.4-20.5c3.9-2.6,7.9-5.3,11.9-7.9c0.4-0.3,1-0.3,1.6-0.4
	C113.6,180.2,113.7,180.3,113.8,180.4z"/>
<path class="st0" d="M179.9,145.7c2.4,2.3,4.8,4.6,7.1,7c11.7,12.1,22.7,24.8,32.4,38.5c6.5,9.1,12.5,18.7,18.2,28.3
	c3.1,5.3,5.6,11.1,5.6,17.6c0,5.7-2,7.8-7.7,7.8c-6.1,0-11.6-2.4-16.6-5.4c-9.3-5.5-18.6-11.4-27.3-17.8
	c-8.7-6.5-16.8-13.9-25.1-20.9c-1.9-1.6-3.8-3.2-5.5-5c-0.7-0.7-0.9-1.9-1.3-2.9c1.4-0.3,2.9-1,4.2-0.8c1.3,0.3,2.4,1.6,3.6,2.4
	c6.7,4.3,13.3,8.9,20.3,12.7c3.9,2.2,8.5,3.7,12.9,4.4c5.9,1,9.3-2.2,8.6-9c-0.8-8.4-4.6-15.7-8.8-22.7c-4.5-7.6-9.7-14.9-14.5-22.3
	c-2.1-3.2-4.2-6.5-6.3-9.8c-0.3-0.5-0.4-1.2-0.6-1.8C179.5,146,179.7,145.9,179.9,145.7z"/>
<path class="st0" d="M192.6,97c-0.7-1.1-1.4-1.8-1.6-2.7c-0.2-0.9-0.4-2.3,0.1-2.9c6.2-7.7,11.4-16.1,15.7-25
	c2-4.1,3.8-8.3,3.6-13.1c-0.2-4-2.6-7.1-6.6-6.9c-3.7,0.2-7.4,1-10.9,2.2c-10.9,3.7-20.2,10.2-29.8,16.3
	c-5.6,3.6-11.1,7.4-16.7,11.2c-0.7,0.5-1.5,0.8-2.3,1.2c-0.1-0.2-0.3-0.3-0.4-0.5c0.6-0.7,1.1-1.5,1.8-2.2
	c11.1-11.2,22.9-21.7,35.4-31.3c8.2-6.2,16.4-12.5,25.1-18c7-4.4,14.7-7.7,22.2-11.3c1.9-0.9,4.1-1.1,6.2-1.4c6-0.9,9.8,3.1,9.1,9.1
	c-0.7,5.9-3,11.2-5.7,16.3c-6.8,12.7-15.3,24.1-24.4,35.2c-6,7.3-12.4,14.3-18.6,21.5C194.2,95.6,193.4,96.2,192.6,97z"/>
<path class="st0" d="M78,114.2C72.5,109,66.8,104,61.7,98.6C50.9,86.8,40.7,74.5,31.8,61.1c-4.6-7-9.3-14-13.2-21.4
	c-2.8-5.3-5.2-10.9-5.4-17.3c-0.2-6.8,4.6-8.4,9.5-7.7c8,1.2,15,5,21.7,9.1C62.2,34.7,78.1,48,93.5,62c0.4,0.4,1,0.8,1.2,1.3
	c0.4,0.9,0.9,2.6,0.7,2.7c-1.1,0.6-1.9,2.4-3.7,1.1C87.4,64,83,60.9,78.5,58c-6.4-4.1-13-7.7-20.4-9.8c-2.1-0.6-4.5-0.6-6.6-0.2
	c-2.1,0.4-3.9,1.7-4.2,4.2c-0.5,4-0.1,7.8,1.2,11.8c2.3,7.1,5.8,13.5,9.6,19.8c3.2,5.3,6.8,10.3,10.2,15.4
	C71.7,104.2,74.9,109.1,78,114.2C78.1,114.1,77.9,114.3,78,114.2z"/>
<path class="st0" d="M146.8,65.8c-0.6,0.9-1.1,1.7-1.7,2.3c-2.9,3.1-5.8,6.3-8.9,9.2c-0.9,0.9-2.4,1.5-3.7,1.6
	c-5.4,0.7-10.9,0.5-16.1,1.8c-5.2,1.3-10.3,3.4-14.9,6.6c-6.5,4.5-11.9,10-16.1,16.7c-0.9,1.5-1.6,3.1-2.3,4.7
	c-0.7,1.7-1.9,2-2.8,0.6c-2.7-3.8-5.4-7.6-7.5-11.7c-0.6-1.2,0.1-3.7,1-4.9c3.8-4.8,7.6-9.6,12-13.8c4.3-4.1,9.5-7.2,15-9.6
	c4.6-2,9.4-3.4,14.3-4.7c7.7-2.1,15.4-0.9,23.1-1C140.8,63.7,143.5,65,146.8,65.8z"/>
<path class="st0" d="M193.2,128.5c0,3.5,0.2,7-0.1,10.5c-0.2,2.7-1,5.4-1.8,8.1c-0.4,1.2-1.4,1.7-2.6,0.6c-3.1-2.9-6.3-5.8-9.2-8.8
	c-0.6-0.7-0.7-2.1-0.6-3.2c0.4-4.5,1.1-9-0.6-13.4c-0.3-0.7-0.4-1.5-0.5-2.2c-0.7-6.7-3.6-12.5-7.2-18.1c-3.1-5-7.1-9.1-11.7-12.6
	c-3.3-2.4-7.1-4.1-10.8-6c-1.4-0.7-1.3-1.7-0.4-2.3c4.2-2.7,8.4-5.4,12.7-7.9c0.7-0.4,2.3-0.4,2.9,0.1c4.8,4,9.8,7.9,14,12.5
	c3.5,3.7,6.4,8,9.1,12.4c1.7,2.8,2.5,6.2,3.6,9.3c1,2.8,1.9,5.7,2.8,8.6c0.2,0.7,0.3,1.5,0.3,2.3
	C193.2,121.7,193.2,125.1,193.2,128.5z"/>
<path class="st0" d="M109.4,176.3c-1.2,1-2.2,2-3.4,2.8c-2,1.4-4,2.6-6,3.9c-3.9,2.4-5.1,2.1-8.9-0.6c-8.2-5.8-14.8-13-19.7-21.7
	c-2.3-4.2-3.7-8.9-5.5-13.4c-3-7.6-3.4-15.5-2.9-23.5c0.2-3.7,1-7.4,1.6-11c0.3-1.6,1.7-2,2.8-0.8c3.3,3.2,6.6,6.4,9.8,9.7
	c0.7,0.7,1,2,1,3c0.1,2.2,0,4.4,0,6.7c0,7.6,2.4,14.6,5.7,21.3c3.7,7.6,9.3,13.5,16.1,18.4C103,172.9,106.1,174.4,109.4,176.3z"/>
<path class="st0" d="M175.5,149.5c2.5,4.1,4.9,8,7.4,11.8c0.8,1.3,0.9,2,0,3.5c-3.8,6.1-8.9,11-14.3,15.4c-4.8,3.9-10.3,6.7-16,9.2
	c-10.1,4.3-20.6,4.8-31.2,4.3c-3.3-0.2-6.5-1-9.7-1.7c-1.5-0.3-1.3-1.6-0.5-2.4c3.2-3.2,6.5-6.3,9.8-9.3c0.5-0.5,1.6-0.4,2.4-0.4
	c2.9,0,5.8,0.2,8.7,0c5.8-0.3,11.2-2,16.6-4.2c8.4-3.3,14.8-9.1,20.3-16C171.4,156.6,173.3,153,175.5,149.5z"/>
</svg>
