<?xml version="1.0" encoding="utf-8"?>
<!-- Generator: Adobe Illustrator 24.2.3, SVG Export Plug-In . SVG Version: 6.00 Build 0)  -->
<svg version="1.1" id="Layer_1" xmlns="http://www.w3.org/2000/svg" xmlns:xlink="http://www.w3.org/1999/xlink" x="0px" y="0px"
	 viewBox="0 0 256 256" style="enable-background:new 0 0 256 256;" xml:space="preserve">
<style type="text/css">
	.st0{fill:#FFFFFF;}
</style>
<path class="st0" d="M128.1,90.5c16.9,0,30.6,13.6,30.6,30.5s-13.7,30.6-30.6,30.6c-16.8,0-30.6-13.7-30.6-30.6
	C97.5,104.1,111.2,90.5,128.1,90.5z M37.6,127.1H22.3c2.9,33.7,21.8,62.8,49,79.9l6.9-13.7C55.9,178.9,40.4,154.8,37.6,127.1z
	 M128.1,30.7c14.7,0,28.6,3.5,40.9,9.8l8-13c-14.6-7.7-31.2-12-48.9-12c-17.3,0-33.7,4.2-48.1,11.6l8,13
	C100.1,34.1,113.7,30.7,128.1,30.7z M179.9,195.9l8,13c24.9-17.3,41.9-45.2,44.7-77h-15.3C214.6,158.3,200.5,181.3,179.9,195.9z
	 M103.5,80.8L65.8,19.7c0,0-7.3,3.7-16.6,11.8l6.9,10.6l0.1,6.9c0,0-9.7,10.6-15.5,22.5S34.2,95,34.2,95l-4.8,4.4l-18.1-0.3
	c-1,6.1-1.7,12.5-1.8,19.4H80C80,118.5,82.4,92.6,103.5,80.8z M29.6,89.9c1.5-9,3.3-14.3,8.2-23.6c4.9-9.3,6.6-11.5,12.6-17.7
	l-0.1-5.1l-5.5-9c-16,15-28.1,36.4-33.1,58.5L26,93.2L29.6,89.9z M243.7,101.2l-12.6,0.3l-5.9-3.5c0,0-3.9-13.8-11-25
	c-7.1-11.2-16.4-18-16.4-18l-1.2-6.4l9.8-15.3c-4.6-4.1-9.8-8-15.5-11.7l-37.2,60c0,0,20.8,15.7,19.6,39.9l71.7,0.1
	C245,121.6,245.7,113.4,243.7,101.2z M204.5,53.9c6.9,6.1,10.5,10.4,15.8,19.4c5.3,9,6.3,11.7,8.4,20l4.4,2.6l10.5,0.1
	c-4.3-21.5-16.1-43.1-32.3-58.9l-7.7,12L204.5,53.9z M128,165.8c-6.9,0.1-14.6-1.2-21.9-5.3l-32.3,64.1c0,0,7,4.3,18.8,7.9L99,220
	l5.8-3.7c0,0,12,2.9,23.2,2.9s23.4-2.9,23.4-2.9l5.8,3.7l6.4,12.5c11.8-3.7,18.8-7.9,18.8-7.9l-32.3-64.1
	C142.6,164.7,134.9,165.9,128,165.8z M126.1,165.7c0.6,0,1.3,0.1,1.9,0.1c0.7,0,1.4,0,2.1-0.1H126.1z M148.6,221.6
	c0,0-10.2,2.5-19.9,2.5s-21.2-2.5-21.2-2.5l-4.3,2.8l-5.8,10.4c9.7,2.7,20.2,3.9,30.7,3.7c10.6,0.2,20.9-1,30.6-3.7l-5.8-10.4
	L148.6,221.6z"/>
</svg>
