<?xml version="1.0" encoding="utf-8"?>
<!-- Generator: Adobe Illustrator 23.0.1, SVG Export Plug-In . SVG Version: 6.00 Build 0)  -->
<svg version="1.1" id="Layer_1" xmlns="http://www.w3.org/2000/svg" xmlns:xlink="http://www.w3.org/1999/xlink" x="0px" y="0px"
	 viewBox="0 0 256 256" style="enable-background:new 0 0 256 256;" xml:space="preserve">
<style type="text/css">
	.st0{fill:#FFFFFF;}
</style>
<path class="st0" d="M156.8,135.5c-0.1,1.1-0.3,2.2-0.3,3.4c0,7.5-0.1,15,0,22.5c0,2.5-0.5,3.5-3.4,3.5c-17.6-0.1-35.1,0-52.7,0.1
	c-2.9,0-4.3-0.7-3.8-3.7c0.9-5.4-1.1-9.4-5.3-12.9c-3.8-3.1-7.1-6.9-10.6-10.4c-0.4-0.4-0.9-0.7-1.8-1.4c-0.2,1.6-0.4,2.6-0.5,3.7
	c0,7.2-0.1,14.4,0,21.7c0,2.1-0.5,2.8-2.8,2.8c-17.9,0-35.9,0-53.8,0.2c-2.7,0-3.3-0.8-3.3-3.3c0.1-40,0.1-80,0-120
	c0-2.9,0.9-3.5,3.7-3.5c17.2,0.1,34.3-0.1,51.5-0.2c4.4,0,4.9,0.1,4.4,4.6c-0.5,5.8,1.1,10.2,5.7,14c4.1,3.4,7.6,7.6,11.3,11.5
	c0.3-0.1,0.6-0.2,0.9-0.3c0.1-1.1,0.4-2.1,0.4-3.2c0-7.7,0.1-15.4,0-23.1c0-2.5,0.8-3.3,3.4-3.3c17.5,0,34.9-0.1,52.4-0.2
	c4.2,0,4.5,0,4.1,4.3c-0.5,5.1,1.1,8.8,5,12.1c4.9,4.1,9.1,8.9,14.2,13.9c0.3-1.4,0.6-2.5,0.6-3.5c0-7.8,0.1-15.6,0-23.4
	c0-2.4,0.8-3.1,3.2-3.1c17.6,0,35.1-0.1,52.7-0.2c3.8,0,3.9,0.1,3.9,3.9c0,39.7,0,79.4,0.1,119.1c0,2.9-0.9,3.8-3.9,3.8
	c-17.4-0.1-34.7,0-52.1,0.2c-2.8,0-4.3-0.7-3.8-3.7c0.9-5.3-1-9.2-5.1-12.6c-4.8-4.1-9.1-8.9-13.6-13.4
	C157.3,135.4,157.1,135.5,156.8,135.5z M190.1,101.5c0.1,0,0.2,0,0.3,0c0,14.7,0,31.4,0,46.1c0,2.8,1,3.8,3.8,3.8
	c6.7-0.1,17.4,0,24.2,0c4,0,4.1,0,4.1-4c0.2-9,0.1-19.9,0.3-28.9c0.4-20.4-0.1-42.7,0.4-63.1c0.1-2.6-0.6-3.7-3.4-3.6
	c-7.6,0.2-18.2,0.2-25.8,0c-2.9-0.1-3.9,0.9-3.8,3.9C190.2,70.2,190.1,86.9,190.1,101.5z M142.8,101.4c0.3,0,0.6,0,0.9,0
	c0.2-14.9,0.4-31.8,0.8-46.7c0.1-2.4-0.9-3-3.1-3c-7.8,0.1-19.6,0.1-27.4,0c-2.6,0-3.6,0.7-3.6,3.5c0.1,29.5,0.2,63.1,0.2,92.6
	c0,2.8,1.1,3.5,3.6,3.5c7.2-0.1,18.4-0.1,25.6,0c2.2,0,3-0.8,2.9-2.9c-0.1-1.8,0.1-3.5,0.1-5.3C142.8,129.9,142.8,114.7,142.8,101.4
	z M64.9,96.8c0.3-10.1,0.7-26.9,1.3-41.8c0.1-2.5-0.8-3.3-3.1-3.3c-7.9,0.1-19.8,0.1-27.7,0c-2.2,0-2.9,0.8-2.9,2.9
	c0,29.8,0,63.7,0,93.5c0,2.4,0.8,3.2,3.2,3.2c7.2-0.1,18.4-0.2,25.6,0c2.9,0.1,3.6-1,3.6-3.7C64.8,132.9,64.9,116.2,64.9,96.8z
	 M175.7,135.4c0.3-2,0.5-3.3,0.5-4.6c0-10.1-0.5-20.3,0.2-30.4c0.6-8.1-1.6-14.2-7.9-19.3c-3.9-3.2-7.1-7.3-10.6-11
	c-0.3,0.2-0.7,0.4-1,0.5c-0.1,1.3-0.4,2.6-0.4,3.9c0,10.3,0.5,20.7-0.2,31c-0.5,7.9,1.6,13.8,7.8,18.7
	C168.1,127.2,171.5,131.2,175.7,135.4z M95,135.4c0.4-0.3,0.9-0.5,1.3-0.8c0.1-0.9,0.3-1.9,0.3-2.8c0-13.4,0.1-26.7-0.1-40.1
	c0-1.5-0.9-3.2-1.9-4.3c-4.4-4.7-9-9.2-13.5-13.8c-0.5-0.5-1.1-0.9-2.2-1.7c-0.2,1.8-0.4,3-0.4,4.2c0,11.1,0.4,22.2-0.1,33.3
	c-0.3,6,1.3,10.5,5.9,14.5C88.2,127.4,91.5,131.6,95,135.4z"/>
<path class="st0" d="M47.6,239.6c-3.9-5.7-7.8-10.8-11.2-16.3c-2.9-4.8-5.6-9.7-7.8-14.9c-2.5-5.9-4.5-12-6.4-18.1
	c-1.2-3.9-1.9-8-3-12c-0.9-3.3-0.4-4.1,3-4.1c17.3,0,34.5,0,51.8-0.1c2.5,0,3.5,0.9,3,3.3c-1,5.3-1.7,10.6-3.3,15.7
	c-2.1,6.8-4.7,13.4-7.6,19.9c-2.3,5-5.2,9.7-8.2,14.3c-2.2,3.5-4.9,6.7-7.5,9.9C49.8,238,48.9,238.5,47.6,239.6z"/>
<path class="st0" d="M207.2,240c-2.5-2.6-4.7-4.3-6.1-6.6c-4.4-7-8.7-14.1-12.6-21.3c-2.5-4.6-4.6-9.5-6.5-14.4
	c-1.1-2.8-1.7-5.9-2.3-8.9c-0.8-3.7-1.4-7.4-1.9-11.1c-0.5-3.5-0.3-3.6,3.3-3.6c14,0,28.1-0.1,42.1-0.1c3.2,0,6.4-0.1,9.7-0.1
	c2,0,2.7,0.8,2.3,2.9c-1,5-1.5,10.1-2.7,15.1c-0.9,3.9-2.4,7.7-4,11.4c-2.5,5.5-5,11.1-8,16.3C216.4,226.4,211.9,232.8,207.2,240z"
	/>
<path class="st0" d="M127.1,239.9c-2.7-3.1-5.4-5.6-7.4-8.6c-3.7-5.5-7.2-11.1-10.4-17c-2.3-4.4-4.1-9.1-5.8-13.8
	c-1.8-4.9-3.5-10-4.8-15.1c-0.8-3.2-0.8-6.6-1.1-9.8c0-0.4,0.7-1.1,1.3-1.3c0.8-0.2,1.7-0.2,2.6-0.2c16.6,0,33.2,0,49.7,0
	c4.1,0,3.9,0,3.8,4.3c-0.1,6.7-2,13.1-4.2,19.1c-3.9,10.6-8.4,21-15.1,30.3C133,231.6,130.3,235.4,127.1,239.9z"/>
<path class="st0" d="M127.1,15c8.7,0,17.3,0.1,26,0c2.5,0,3.5,0.7,3.4,3.3c-0.2,3.3-0.1,6.6,0,9.9c0.1,1.9-0.7,2.6-2.6,2.6
	c-17.7,0-35.4,0-53.2,0.1c-2,0-2.8-0.7-2.7-2.8c0.1-3.4,0.2-6.8,0-10.2c-0.1-2.3,0.7-2.9,2.8-2.9C109.6,15,118.3,15,127.1,15z"/>
<path class="st0" d="M207.1,15c8.7,0,17.3,0.1,26,0c2.3,0,3.1,0.7,3,3c-0.2,3.3-0.1,6.6,0,9.9c0.1,1.9-0.5,2.8-2.6,2.8
	c-17.6,0-35.3,0-52.9,0.1c-2.2,0-2.9-0.8-2.8-2.9c0.1-3.3,0.2-6.6,0-9.9c-0.1-2.4,0.8-3,3.1-3C189.5,15,198.3,15,207.1,15z"/>
<path class="st0" d="M48.7,15c8.7,0,17.3,0.1,26,0c2.8,0,3.8,0.9,3.6,3.7c-0.3,3-0.1,6-0.2,9.1c0,2-1,3-3.1,3
	c-17.5,0-35.1,0-52.6,0.1c-2.2,0-3.2-0.8-3.1-3.1c0.1-3.6,0-7.2,0-10.8c0-2.5,1.9-1.8,3.2-1.8c8.3-0.1,16.6,0,24.8,0
	C47.7,15,48.2,15,48.7,15z"/>
</svg>
