<?xml version="1.0" encoding="utf-8"?>
<!-- Generator: Adobe Illustrator 23.0.1, SVG Export Plug-In . SVG Version: 6.00 Build 0)  -->
<svg version="1.1" id="Layer_1" xmlns="http://www.w3.org/2000/svg" xmlns:xlink="http://www.w3.org/1999/xlink" x="0px" y="0px"
	 viewBox="0 0 256 256" style="enable-background:new 0 0 256 256;" xml:space="preserve">
<style type="text/css">
	.st0{fill:#FFFFFF;}
</style>
<path class="st0" d="M100.9,186.6c-1.6-1-3.5-1.7-4.9-3c-7.9-7.8-15.8-15.5-23.3-23.6c-1.7-1.8-3.1-5.1-2.7-7.4
	c5.5-34.7,17.4-66.7,39.6-94.5c2.9-3.6,4.6-3.3,7.6-0.2c26.8,27,53.7,53.9,80.7,80.7c3,3,3.3,4.7-0.3,7.5
	c-21.4,16.8-45.2,28.5-71.6,34.8C117.8,183,109.6,184.7,100.9,186.6z"/>
<path class="st0" d="M177.9,12.8c1.2,0.8,3.1,1.5,4.4,2.9c19.2,19.1,38.3,38.3,57.5,57.5c2.3,2.3,3.1,4.8,2.2,8
	c-5.4,19.7-15.9,36.4-29.6,51.3c-2.5,2.7-4.2,2.7-6.8,0.1c-27.5-27.6-55-55.2-82.6-82.6c-2.6-2.6-2.8-4.2,0-6.8
	c14.9-13.7,31.6-24.3,51.3-29.6C175.3,13.3,176.2,13.2,177.9,12.8z M237.3,81.2c-1.6-2.5-2.3-4.4-3.6-5.7
	c-18.5-18.5-37-37-55.7-55.3c-1.3-1.3-4.4-2.1-6.1-1.5c-14.6,5.2-28.1,12.3-39.7,22.8c-2.7,2.4-3.4,4.1-0.4,7.1
	c25.2,24.8,50.4,49.7,75.4,74.8c3,3,4.9,3.1,7.3-0.4c3.9-5.8,8.4-11.2,11.7-17.4C230.3,97.7,233.6,89.4,237.3,81.2z"/>
<path class="st0" d="M101.3,193c21.1-2,40.5-8,59.3-16.6c0.3,0.3,0.7,0.6,1,0.9c-1.3,3-2.6,6-3.8,9c-7.5,18.2-15.1,36.4-22.5,54.7
	c-1.3,3.1-2.4,3.7-5.5,2.3c-6-2.9-12.4-5.1-18.4-8c-1.9-0.9-4.1-2.9-4.4-4.8c-2.2-10.8-3.9-21.7-5.7-32.6
	C101.1,196.5,101.3,195.1,101.3,193z M149.3,189.5c-13.9,3.5-27.1,6.9-40.3,10.2c1,6.8,1.8,13.9,3.2,20.8c0.7,3.3,0.1,7.5,4.2,9.2
	c3.6,1.5,7.2,2.8,10.9,4c2.9,1,4.7,0.6,6-2.9c3.5-9.7,7.6-19.3,11.4-28.9C146.3,197.7,147.8,193.4,149.3,189.5z"/>
<path class="st0" d="M78.7,95.2c-2.3,5.9-4.2,10.9-6.2,15.9c-5.3,13-8.3,26.6-10,40.5c-0.4,3.3-1.6,3.7-4.6,3.1
	c-11.2-2-22.4-3.7-33.5-5.9c-1.6-0.3-3.5-2-4.2-3.5c-3-6.3-5.5-12.8-8.4-19.2c-1.2-2.7-0.5-4.2,1.9-5.2c20.4-8.4,40.7-16.7,61.1-25
	C75.7,95.7,76.6,95.6,78.7,95.2z M65.9,106.7c-15.1,6-30.3,12-45.4,18c2.7,10.4,4.4,20.3,17.9,20.3c6,0,12.1,1.6,17,2.4
	C59.1,133.3,62.4,120.2,65.9,106.7z"/>
<path class="st0" d="M244.5,65.9c-18.4-18.4-36.2-36.2-54-54c5.7-3.5,14.9-2.6,19.7,2.2c10,9.9,19.5,20.3,29.9,29.6
	C247.5,50.3,245.9,57.5,244.5,65.9z"/>
<path class="st0" d="M218.6,11.7c12-0.5,25.3,12.7,25.4,26.4C235.4,29.2,226.7,20.2,218.6,11.7z"/>
<path class="st0" d="M95.8,199.8c-1.7-0.5-3.5-0.9-5.2-1.5c-4.3-1.5-4.7-1.3-5.3,3.2c-0.3,2.1-1.1,4.2-1.7,6.3c-0.4,0-0.8,0-1.1-0.1
	c-0.9-2.7-1.9-5.4-2.7-8.1c-1.1-4-2.3-4.4-5.5-1.8c-18.6,14.7-37.1,29.3-55.7,44c-2.2,1.7-4.6,3.1-7.6,4.2c0.6-1,1-2.1,1.7-2.9
	c14.1-17,28.2-33.9,42.3-50.8c2.2-2.7,4.5-5.3,6.7-8c2.1-2.6,1.8-3.6-1.2-4.7c-3.6-1.4-7.3-2.6-10.9-4c0-0.3,0-0.6,0-0.9
	c2.7-0.2,5.4-0.3,8.1-0.5c4.3-0.3,4.7-1,3.3-5c-0.6-1.6-0.9-3.3-1.4-5c0.4-0.3,0.8-0.5,1.3-0.8c11.9,11.7,23.9,23.5,35.8,35.2
	C96.2,199,96,199.4,95.8,199.8z"/>
</svg>
