<?xml version="1.0" encoding="utf-8"?>
<!-- Generator: Adobe Illustrator 24.2.3, SVG Export Plug-In . SVG Version: 6.00 Build 0)  -->
<svg version="1.1" id="Layer_1" xmlns="http://www.w3.org/2000/svg" xmlns:xlink="http://www.w3.org/1999/xlink" x="0px" y="0px"
	 viewBox="0 0 256 256" style="enable-background:new 0 0 256 256;" xml:space="preserve">
<style type="text/css">
	.st0{fill:#FFFFFF;}
</style>
<path class="st0" d="M49.1,37.3c-0.8-0.8-1.5-1.9-2.2-2.8c0.1-0.5,0.3-0.9,0.4-1.2c2.1,0,4.3,0,6.4,0c44.2-0.7,88.4-1.5,132.6-2.2
	c6.6-0.1,13.3-0.6,19.9-0.8c1,0,2.1,0.6,3.1,1c-0.6,0.9-1,2-1.7,2.8c-15.3,15.7-30.6,31.4-45.9,47.1c-9.5,9.7-18.9,19.4-28.3,29.2
	c-3.4,3.5-5,3.6-8.5,0.2c-19-18.2-37.9-36.5-56.8-54.7C61.7,49.7,55.4,43.5,49.1,37.3z M227.4,181.1c-7.9-4.3-15.8-8.5-23.7-12.5
	c-0.7-0.3-2.3,0.2-2.8,0.9c-4.3,5.6-8.2,11.6-12.8,16.9c-8.1,9.3-18.6,15.5-30,19.9c-7.2,2.8-14.8,3.8-22.5,4.7
	c-11,1.3-21.8,0-32.3-3c-6.7-1.9-13.1-5.2-19.2-8.7c-11.3-6.4-20.1-15.6-26.8-26.7c-1.1-1.8-2.2-2.6-4.4-1.4
	c-7.9,4.4-15.7,8.8-23.6,13.2c-2.1,1.2-2.4,2.4-1,4.7c6.5,10.7,14.9,19.7,24.2,27.9c1.8,1.6,3.7,2.1,6.1,2.1c23.1,0,46.3,0,69.4,0
	c0-0.1,0-0.1,0.2-0.2c23.3,0,46.5,0,69.7-0.1c1.6,0,3.6-0.3,4.8-1.3c10.6-8.4,19.4-18.5,26.3-30.2
	C231.2,183.4,231.2,183.2,227.4,181.1z M50.2,158.4c-1.2-4.2-2.8-8.3-3.4-12.6c-2-14.2-1.5-28.4,3.6-42C54.6,92.6,61,82.7,69.6,74.3
	c2.6-2.6,2.6-3.1,0.1-5.7C63.1,61.8,56.5,54.9,49.9,48c-0.7-0.7-1.5-1.2-2.2-1.7c-0.4,0.1-0.6,0.2-0.8,0.3c-0.4,0.3-0.8,0.7-1.1,1
	c-17,16.6-27.9,36.7-32.6,60c-2.6,12.8-3.2,25.8-0.6,38.7c1.2,6.2,2.5,12.4,4.1,18.5c0.9,3.4,2.4,6.6,3.8,9.8c0.8,1.8,2,3.1,4.3,1.7
	c7.8-4.5,15.6-9.1,23.5-13.4C50.4,161.7,50.8,160.5,50.2,158.4z M206.5,44.1c-0.7,0.7-1.6,1.3-2.3,2.1c-6.5,7-12.9,14-19.4,21
	c-2.4,2.5-2.4,2.8,0.3,5.3c12.3,11.6,20.3,25.7,24,42.1c2.5,11,2.3,22.1,0,33.1c-0.5,2.8-1.2,5.6-2.4,8.1s-0.2,3.7,1.7,4.7
	c1.8,1,3.6,1.9,5.4,2.8c7.1,3.6,14.1,7.3,21.1,11C253.4,139.1,247.9,79.3,206.5,44.1z M93.2,97.6c1.4-1.3,1.5-2.3,0.1-3.6
	c-2.3-2.2-4.6-4.3-6.8-6.5c-1.3-1.3-2.3-1.2-3.4,0.1c-1.5,1.7-3.1,3.2-4.5,5c-6.7,8.6-10.8,18.1-12.9,28.9c-2.1,11-0.4,21.4,3,31.6
	c2.5,7.3,6.6,13.8,11.8,19.6C92.4,186,107.4,192.8,125,194c7.9,0.6,15.8-0.3,23.2-3.3c5.9-2.4,11.8-5.1,17.1-8.5
	c8.9-5.7,15.3-13.8,20.1-23.3c3.4-6.7,5.5-13.9,6.2-21.3c1-10.7-0.6-21.1-5-31c-3.3-7.4-7.9-13.8-13.5-19.6
	c-1.7-1.8-3.3-1.7-4.9,0.2c-1.3,1.5-2.7,2.8-4.1,4.2c-3.4,3.5-3.4,3.5,0.1,7.1c8.6,9,13.1,19.9,13.4,32.3c0.1,4.1-1,8.3-1.5,12.4
	c-0.8,5.7-3.3,10.8-6.5,15.4c-9.9,14.3-23.5,22-42.7,21.9c-5.2,0.2-11.6-1-17.7-3.7c-9.3-3.8-16.5-10-22.1-18.2
	c-3.9-5.8-5.8-12.3-7.4-19.1c-1.7-7.3-0.4-14.2,1.3-21C83,110.5,87.4,103.5,93.2,97.6z M115,115.7c-0.3-1.8-3-3.1-4.4-4.8
	c-1.8-2.2-3.3-1.7-5,0.1c-8.1,9-11.5,19-8.1,31.1c3.5,12.4,15.7,22.9,28.6,23.6c5.1,0.3,9.8-1,14.4-3c12.7-5.6,18.8-15.6,19.5-29.2
	c0.5-7.1-3-15.4-7.5-20.2c-3.9-4.3-4.4-6.5-9.8-0.7c-3.3,3.5-3.7,3.6-0.2,6.8c6.3,5.7,6.4,18.5,2,25.1c-4.3,6.4-14.9,11.4-23.3,7.7
	c-7.7-3.3-11.8-9.9-12.9-16.2c-0.9-5.4,0.8-10.3,3.7-14.9C113.1,119.3,115.3,117.2,115,115.7z M185,228.4c-38.5,0-76.4,0-114.4,0
	C108.6,251.8,162.1,245,185,228.4z M172.8,24.3c-0.1-0.5-0.1-1,0-1.5c-31.4-10.7-62.7-10.9-93.6,2.7
	C110.4,26.5,141.6,23.8,172.8,24.3z"/>
</svg>
