<?xml version="1.0" encoding="utf-8"?>
<!-- Generator: Adobe Illustrator 23.0.1, SVG Export Plug-In . SVG Version: 6.00 Build 0)  -->
<svg version="1.1" id="Layer_1" xmlns="http://www.w3.org/2000/svg" xmlns:xlink="http://www.w3.org/1999/xlink" x="0px" y="0px"
	 viewBox="0 0 256 256" style="enable-background:new 0 0 256 256;" xml:space="preserve">
<style type="text/css">
	.st0{fill:#FFFFFF;}
</style>
<path class="st0" d="M89.3,137.1c0,29-0.1,58.1,0.1,87.1c0,4.1-1.2,5.5-5.4,5.5c-18.1,0-36.1,0.5-54.2,0.6c-2.3,0-4.8-1.4-6.9-2.7
	c-9.4-5.7-7.1-15-6.8-23.6c0-0.7,2.2-2,3.4-2c8.1-0.2,16.2-0.3,24.3-0.1c3.5,0.1,5.8-1.6,8.5-3.5c10.5-7.8,14-17.6,13.3-30.8
	c-1.2-25.1-0.3-50.3-0.4-75.4c0-2.3-1.8-4.5-2.7-6.7c-0.1-0.2-0.4-0.4-0.6-0.6c-7.4-11-17.8-14.4-30.5-12.6c-3.8,0.5-7.8,0-11.7,0.1
	c-2.6,0.1-3.7-0.8-3.6-3.5c0.1-2.7,0.3-5.5,0-8.2c-0.9-6.2,1.2-11,6.5-14.3c2.1-1.3,4.6-2.5,7-2.5c17.9-0.1,35.8,0.1,53.7,0.2
	c6.2,0,6.1,0.1,6.1,6.4C89.2,79.3,89.3,108.2,89.3,137.1L89.3,137.1z"/>
<path class="st0" d="M16.1,193.4c0-1.9,0-3.4,0-4.8c0-34.1,0.1-68.2-0.1-102.3c0-4.4,1.2-5.9,5.6-5.5c5.2,0.4,10.4,0,15.6,0.1
	c2.6,0,5.8-0.5,7.5,0.8c4.3,3.3,8.1,7.4,11.8,11.4c0.6,0.6,0.3,2.2,0.3,3.4c0,26.7,0.1,53.5-0.1,80.2c0,2-1.1,4.4-2.4,6
	c-2.7,3.3-6,6.3-9,9.3c-0.6,0.6-1.4,1.3-2.1,1.3C34.4,193.5,25.5,193.4,16.1,193.4z"/>
<path class="st0" d="M173.6,33c6.2,0,12-0.1,17.7,0.1c1,0,2.1,1.5,2.9,2.6c0.4,0.6,0.1,1.7,0.1,2.6c-0.4,65.3-0.7,130.6-1.1,195.9
	c0,6.4-0.1,6.4-6.3,6.6c-1.3,0-2.6,0-3.9,0.1c-10.8,0.3-9.6,1.5-9.6-9.1c0-64.7,0-129.5,0.1-194.2C173.4,36,173.5,34.4,173.6,33z"/>
<path class="st0" d="M130.2,168.3c-9.4,0-18.8-0.1-28.2,0c-2.8,0-3.9-0.8-3.9-3.7c0.1-18.6,0.1-37.3,0-55.9c0-3.3,1.4-4.3,4.4-4.3
	c18-0.2,36.1-0.5,54.1-0.6c6.2,0,6.4,0.3,6.4,6.7c0,17.5,0,35,0,52.4c0,5.1-0.6,5.6-5.7,5.6c-9.1,0-18.2,0-27.3,0
	C130.2,168.6,130.2,168.5,130.2,168.3z"/>
<path class="st0" d="M98.2,226c0-14.4,0-28.2,0-42.1c0-2.7,1.2-3.5,3.7-3.5c18.9,0,37.9-0.1,56.8-0.3c3.5,0,4.7,1.3,4.7,4.9
	c-0.2,12.3-0.1,24.6-0.1,36.8c0,1.3-0.2,2.5-0.3,4.1C141.3,226,120,226,98.2,226z"/>
<path class="st0" d="M98.3,93.2c0-14.5-0.1-28.6,0.1-42.7c0-0.9,1.9-2.5,2.9-2.6c19.2-0.3,38.4-0.3,57.6-0.5c3.3,0,4.5,1.1,4.4,4.5
	c-0.2,12.6-0.1,25.1,0,37.7c0,2.5-0.3,4.1-3.5,4.1c-19.8-0.1-39.5-0.1-59.3-0.1C100,93.6,99.4,93.4,98.3,93.2z"/>
<path class="st0" d="M242.4,103.9c0,20.3,0,39.9,0,59.6c0,1.8,0.4,4-2.5,4c-11.6,0-23.3,0-35.2,0c-0.1-1.9-0.3-3.2-0.3-4.4
	c0-18.4,0.1-36.7-0.1-55.1c0-3.4,0.8-4.5,4.3-4.5c10.1,0.2,20.2,0,30.3,0.1C240.3,103.6,241.5,103.8,242.4,103.9z"/>
<path class="st0" d="M204.7,93.6c0-15.3,0-30.3,0-45.8c6.1,0,12.1-0.1,18.1,0.1c0.9,0,2.4,1.8,2.4,2.9c0.2,13.4,0.2,26.8,0,40.2
	c0,0.9-1.4,2.4-2.2,2.4C217,93.7,211,93.6,204.7,93.6z"/>
<path class="st0" d="M204.6,226c0-7.9,0-15.4,0-22.9c0-6.3,0-12.7-0.2-19c-0.1-2.6,0.9-3.6,3.5-3.6c4.6,0.1,9.2,0,13.8-0.1
	c2.5-0.1,3.6,0.9,3.5,3.5c-0.1,12.5-0.1,25.1-0.1,37.7c0,2.5-0.7,4.3-3.6,4.4C216.2,226,210.7,226,204.6,226z"/>
<path class="st0" d="M79.5,15.4c0,7.4,0,14.9,0,22.6c-1,0.1-2,0.3-2.9,0.3c-11.7,0-23.3,0-35-0.2c-1.4,0-4-1.1-4-1.7
	c0-2.1,0.2-5.3,1.5-6.1c8.4-5.3,16.8-10.7,25.8-14.7C68.8,13.9,74.2,15.4,79.5,15.4z"/>
</svg>
