<?xml version="1.0" encoding="utf-8"?>
<!-- Generator: Adobe Illustrator 24.2.3, SVG Export Plug-In . SVG Version: 6.00 Build 0)  -->
<svg version="1.1" id="Layer_1" xmlns="http://www.w3.org/2000/svg" xmlns:xlink="http://www.w3.org/1999/xlink" x="0px" y="0px"
	 viewBox="0 0 256 256" style="enable-background:new 0 0 256 256;" xml:space="preserve">
<style type="text/css">
	.st0{fill:#FFFFFF;}
</style>
<path class="st0" d="M235.8,177.9c-8.8-4.6-17.8-9-26.3-14.1c-1.3-0.8-1.5-5.1-0.8-7.3c4.2-13.2,3.9-26.4,1.7-39.8
	c-2.1-13-7.5-24.5-15.4-34.5c-9.3-11.8-20.9-20.6-35.2-26.5c-14.2-5.8-28.7-6.3-43.4-4.9c-9.4,0.9-18.5,4.4-27,9.1
	c-11.3,6.5-21,14.5-28.3,25.1c-5.7,8.1-9.4,17.2-12.2,26.8c-3.6,12.7-4.1,25.2-1.6,38c0.7,3.4,1.6,6.8,2.9,10
	c1.5,3.7,0.7,5.8-2.8,7.7c-7.3,3.8-14.5,7.9-21.6,12.2c-2.9,1.8-4.3,0.9-5.5-1.8C11.9,159,9.1,139,11.6,118.8
	c2.8-22.7,12.1-42.9,27-60.7c14.8-18,33.2-30.1,54.8-37.8c4.1-1.4,8.5-2,13.4-3.2c0,6.8,0,12.8,0,18.8c0,2.5,0.2,4.4,3.5,4.3
	c12.3-0.3,24.6-0.4,36.8-0.6c0.8,0,1.5-0.3,3-0.7c0-7.4,0-14.7,0-22.7c42.5,9.8,72.7,33.1,88.4,73.3
	C251.3,122.3,247.3,160.2,235.8,177.9z M229.1,185.1c-8.4-4.5-16.9-8.9-26-13.6c-16.2,28.2-41,44.5-73,44.8
	c-31.9,0.3-57.6-14.4-74.4-43c-9.2,5.2-17.4,9.9-25.8,14.7c-2.8,1.6-3.4,2.9-1.6,6c6.3,10.5,15,18.9,24,26.9
	c1.9,1.7,5.2,2.6,7.8,2.7c6.4,0.2,12.7-0.6,19.1-0.6c39.7-0.2,79.4-0.3,119.1-0.6c2.3,0,5.3-0.4,7-1.8c10.2-8.6,18.4-18.8,25.3-30.2
	C232.3,187.6,231.3,186.3,229.1,185.1z M185.2,232.7c-38.6,0-76.2,0-113.4,0C84.3,252.1,163.2,253.2,185.2,232.7z M121,36.1
	c1.7,0,3.5,0,5.2,0c0-0.1,0-0.2,0.1-0.3c4.8,0,9.5,0.2,14.3,0c2.9-0.1,4.6-1.4,4.5-4.8c-0.2-6.6-0.2-13.1,0-19.6
	c0-3.1-1.1-4.2-4.2-4.1c-8.7,0.2-17.5,0.2-26.2,0.1c-3.2,0-4.2,1.3-4.1,4.3c0.1,4.6,0,9.2,0,13.8C110.6,36.1,110.6,36.1,121,36.1z
	 M55.3,130.6c-2.2,0-3.9,1.8-3.9,3.9c0,2.2,1.8,3.9,3.9,3.9h16.8c2.2,0,3.9-1.8,3.9-3.9c0-2.1-1.8-3.9-3.8-3.9H55.3z M203,138.4
	c2.2,0,3.9-1.8,3.9-3.9c0-2.1-1.7-3.9-3.9-3.9h-16.9c-2.2,0-3.9,1.8-3.9,3.9c0,2.2,1.8,3.9,3.9,3.9H203z M118.7,137.1
	c0,4.6,3.8,8.4,8.4,8.4c4.6,0,8.4-3.8,8.4-8.4c0-4.6-3.8-8.4-8.4-8.4C122.5,128.7,118.7,132.5,118.7,137.1z M80.9,111.6
	c-2.1,3.7-0.9,8.5,2.8,10.6l29.1,16.8c0-0.5,0-1.1,0-1.7c0-5.2,2.8-9.8,7-12.2l-28.3-16.3C87.8,106.7,83,107.9,80.9,111.6z
	 M140.8,137.6l42.8-24.2c3.3-1.8,4.4-5.8,2.6-9c-1.8-3.2-5.8-4.3-9-2.5l-41.9,23.6C139,128.3,141.1,132.8,140.8,137.6z M125.2,191.6
	v16.9c0,2.2,1.8,3.9,3.9,3.9c2.2,0,3.9-1.8,3.9-3.9v-16.9c0-2.2-1.8-3.9-3.9-3.9C127,187.7,125.3,189.4,125.2,191.6z M133,77.5V60.6
	c0-2.2-1.8-3.9-3.9-3.9c-2.1,0-3.8,1.8-3.9,3.9v16.9c0,2.2,1.8,3.9,3.9,3.9C131.3,81.4,133,79.6,133,77.5z M86.1,172.1L74.2,184
	c-1.5,1.5-1.5,4,0,5.5s4,1.5,5.5,0l11.9-11.9c1.5-1.5,1.5-4,0-5.5C90,170.6,87.6,170.6,86.1,172.1z M172.2,96.9L184.1,85
	c1.5-1.5,1.5-4,0-5.5s-3.9-1.5-5.5,0l-11.9,11.9c-1.5,1.5-1.5,4,0,5.5S170.7,98.4,172.2,96.9z M79.7,79.5c-1.5-1.5-4-1.5-5.5,0
	s-1.5,4,0,5.5l11.9,11.9c1.5,1.5,4,1.5,5.5,0s1.5-4,0-5.5L79.7,79.5z M166.7,172.1c-1.5,1.5-1.5,4,0,5.5l11.9,11.9
	c1.5,1.5,4,1.5,5.5,0s1.5-4,0-5.5l-11.9-11.9C170.7,170.6,168.2,170.6,166.7,172.1z"/>
</svg>
