<?xml version="1.0" encoding="utf-8"?>
<!-- Generator: Adobe Illustrator 24.2.3, SVG Export Plug-In . SVG Version: 6.00 Build 0)  -->
<svg version="1.1" id="Layer_1" xmlns="http://www.w3.org/2000/svg" xmlns:xlink="http://www.w3.org/1999/xlink" x="0px" y="0px"
	 viewBox="0 0 256 256" style="enable-background:new 0 0 256 256;" xml:space="preserve">
<style type="text/css">
	.st0{fill:#FFFFFF;}
</style>
<path class="st0" d="M181.6,148c0.1-27.8-21.6-53-53.2-52.9c-31.2,0.1-52.8,25.1-52.8,52.8c0.1,28.3,22.7,52.9,53.6,52.9
	C156.6,200.6,181.5,178.5,181.6,148z M129.1,190.1c-25.2,0.2-42.3-19.9-42.3-41.9c0.1-23.2,18.6-41.5,40.8-41.8
	c24.7-0.4,42.5,19.4,42.7,41.2C170.6,170.3,153,189.9,129.1,190.1z M60,91.3c-0.5,0-0.9,0-1.5,0.1c13-12.4,23.4-22.3,36.2-34.5
	c0.4-0.3,1-0.6,1.5-0.6c10.5-0.1,21-0.1,31.4-0.1c11,0,22,0.1,33,0.1c0.9,0,1.6,0.3,2.3,0.9c12,11.6,22.1,21.2,34.2,32.7
	c0.6,0.5,1.2,1,1.7,1.8c-0.4,0-0.9,0-1.2-0.1c-11.3-3.8-22-7.2-33.3-11c-0.3-0.1-0.5-0.2-0.7-0.4c-3.4-3.5-5.4-5.7-8.9-9.2
	c-0.4-0.4-1.2-0.7-1.7-0.7c-16.3,0-32.5,0-48.8,0c-0.6,0-1.3,0.3-1.7,0.8c-3.5,3.5-4.8,5.1-8.2,8.6c-0.2,0.2-0.5,0.3-0.7,0.4
	C82.3,84,71.3,87.4,60,91.3z M52.8,141.5c-0.1-0.4-0.2-0.8-0.4-1.2c-0.2-0.6-0.5-0.7-1.1-0.5c-2.2,0.6-4.5,1.3-6.8,1.7
	c-1.5,0.3-2.4,1-3.3,2.3c-5.6,8-11.3,16-17,23.9c-4.2,5.9-8.5,11.7-12.6,17.6c-3.9,5.5-2,13.1,3.7,17c0.8,0.6,1.9,1,2.9,1.2
	c6.3,1,12.5,1.9,18.8,2.8c10.4,1.6,20.8,3.1,31.2,4.7c2.4,0.4,4.7,0.7,7.3,1.1c-0.3-1-0.6-1.8-0.9-2.6
	C67.3,186.8,60.1,164.2,52.8,141.5z M52.4,178.6c-3.6,5.1-7.1,10.3-10.7,15.4c-1.2,1.7-2.6,3.1-4.6,3.8c-1.5,0.5-2.9,0.8-4.4,1.1
	c-7.5-0.4-12.8-6.7-11.3-13.9c0.2-1.2,0.7-2.5,1.4-3.5c2.8-4.3,5.7-8.6,8.6-12.8c1-1.5,1.9-2.9,3-4.3c4.3-5.5,14.4-5.3,18.5,2.1
	C55.2,170.5,55.2,174.6,52.4,178.6z M245.1,184.1c-7.2-9.8-14.2-19.7-21.3-29.6c-2.5-3.6-5.1-7.1-7.6-10.8c-0.7-1-1.4-1.6-2.6-1.8
	c-2.4-0.5-4.8-1.1-7.1-1.8c-0.9-0.3-1.3,0-1.5,0.8c-0.5,1.9-1.1,3.7-1.7,5.6c-7,21.9-14.1,43.7-21.2,65.8c0.8-0.1,1.4-0.2,1.9-0.2
	c9.8-1.5,19.5-2.9,29.2-4.4c8.3-1.3,16.7-2.6,25.1-3.8c2-0.3,3.8-1.1,5.3-2.5C247.9,197.6,250,190.8,245.1,184.1z M227.2,198.7
	c-0.7,0.1-1.4,0.1-2.1,0.2c-3.8,0.1-6.8-1.5-9-4.6c-3.8-5.5-7.6-11-11.4-16.5c-2.1-3-1.8-8.4,0.6-11.9c3.3-4.9,9.8-6.7,14.9-3.9
	c1.6,0.8,3,2.2,4.1,3.7c3.7,5.2,7.3,10.4,10.7,15.8C239.3,188.3,235.1,197.3,227.2,198.7z M168.8,88.8c13.7,4.7,27.3,9.5,41,14.2
	c0.8,0.3,1.5,0.7,2.3,1c-3.3,10.2-6.6,20.2-9.9,30.2c-1.3,3.9-2.5,7.8-3.9,11.7c-0.1,0.4-0.4,0.9-0.8,1.1c-3.6,2.1-7.3,4.2-11.2,6.5
	c0.9-11.3-1.1-21.8-6.1-31.6c-5-9.9-12.5-17.5-22.1-23.6c3.3-3.2,6.5-6.3,9.7-9.3C168,88.8,168.5,88.7,168.8,88.8z M46,105.4
	c-0.2-0.5-0.4-1-0.6-1.7c0.8-0.3,1.6-0.7,2.4-1C61.4,98,75,93.2,88.6,88.5c0.3-0.1,0.9,0,1.1,0.2c3.3,3.2,6.5,6.2,9.6,9.3
	c-19.9,13.2-29.4,31.3-28.2,55c-0.7-0.4-1.4-0.7-2.2-1.1c-2.9-1.7-5.9-3.4-8.8-5.1c-0.4-0.2-0.7-0.7-0.9-1.2
	C54.8,132.2,50.4,118.8,46,105.4z M120.4,205.7c-0.1,2-0.1,5-0.1,7c0,0.8,0,1.6,0,2.4c-0.8,0-1.4,0-2,0c-12.3,0-22.7,0-35,0.1
	c-1,0-1.4-0.3-1.7-1.3c-6.2-19.1-12.4-38.2-18.7-57.3c-0.1-0.3-0.2-0.6-0.3-1.1c2.4,1.4,4.5,2.8,6.8,3.9c2.4,1.1,3.5,2.8,4.2,5.3
	c3,10.5,8.9,19.3,17,26.5c8.7,7.7,16.9,11.3,28.4,12.9C120.1,204.2,120.5,204.6,120.4,205.7z M194.8,156.9
	c-6.2,19.1-12.4,38.2-18.6,57.2c-0.3,1-0.8,1.2-1.8,1.2c-12.3,0-22.5,0-34.8-0.1c-0.7,0-1.3,0-2.2,0c0-3.2,0-7.4,0-10.8
	c1.7-0.3,3.6-0.5,5.3-0.9c21.4-5,33.8-16.9,41-37.6c1.1-3.2,2.4-5.5,5.5-6.9c2.1-0.8,3.8-2,5.9-3.2
	C195,156.3,194.9,156.6,194.8,156.9z M112.7,50.5c0-1.8-0.2-3.6,0-5.4c0.2-3,2.1-5.6,5.5-5.5c7,0.1,14,0,21,0c2.2,0,4.1,1.3,4.8,3.5
	c0.3,1.2,0.4,2.4,0.5,3.6c0.1,1.2-0.1,2.4,0,3.6c0,1-0.3,1.4-1.4,1.4c-3.8,0-7.6,0-11.3,0c-1.1,0-2.2,0-3.3-0.1c-4.9,0-9.8,0-14.7,0
	C112.9,51.6,112.7,51.2,112.7,50.5z M128.6,121.1c-15.8,0-27.8,12.7-28.1,27.7c-0.3,15.8,12.2,28.6,28,28.8
	c15.1,0.2,28-12.4,28.2-27.8C156.9,134.3,145.1,121.2,128.6,121.1z M128.4,169.4c-9.3,0-19.8-6.7-19.9-19.9
	c0-10.3,8.1-19.1,19.2-19.5c11.8-0.5,20.8,8.3,20.9,19.9C148.7,160.7,139.6,169.4,128.4,169.4z"/>
</svg>
