<?xml version="1.0" encoding="utf-8"?>
<!-- Generator: Adobe Illustrator 23.0.1, SVG Export Plug-In . SVG Version: 6.00 Build 0)  -->
<svg version="1.1" id="Layer_1" xmlns="http://www.w3.org/2000/svg" xmlns:xlink="http://www.w3.org/1999/xlink" x="0px" y="0px"
	 viewBox="0 0 256 256" style="enable-background:new 0 0 256 256;" xml:space="preserve">
<style type="text/css">
	.st0{fill:#FFFFFF;}
</style>
<path class="st0" d="M86.6,29.1c1.5-1.4,3.1-2.6,4.5-4c1.2-1.3,2.1-1.2,3.4,0.1c12.2,12.4,24.6,24.7,37,37.1
	c1.5,1.5,3.1,2.4,5.4,2.3c6.6-0.1,13.2-0.1,19.8,0c1.3,0,3,0.5,3.8,1.4c10.9,10.7,21.8,21.5,32.6,32.4c1.3,1.3,1.3,2.4,0,3.7
	c-2.8,2.7-5.5,5.7-8.4,8.3c-2.1,1.9-2.1,4-1.1,6.3c2.1,4.8,1.7,6.5-2,10.2c-9,9-18,18-27,27.1c-2.6,2.6-4.4,3-7.8,1.4
	c-3.7-1.6-5.8-1.3-8.7,1.6c-2.5,2.5-5,4.9-7.4,7.4c-1.4,1.6-2.4,1.3-3.7,0c-8.6-8.7-17.1-17.8-26.2-26c-6-5.5-8.7-11.3-7.8-19.2
	c0.4-3.9,0.2-8.1-0.1-12c-0.1-1.4-0.8-3.2-1.9-4.3C78.7,90.4,66.5,78.3,54.2,66c-0.7-0.7-1.2-1.4-1.6-2c0.1-0.3,0.1-0.4,0.2-0.5
	c6.5-6.7,4.4-6.3,10.4-0.4C74.8,74.6,86.4,86.1,98,97.7c2.6,2.6,5.2,5.2,8.2,7.3c5.5,3.7,11.6,3.8,17.8,1.7
	c6.1-2.1,10.4-6.6,11.9-12.5c1.9-7.2,1.2-14.5-4.8-20.4C117,59.9,103,45.8,88.9,31.7C88.3,30.9,87.6,30.2,86.6,29.1z"/>
<path class="st0" d="M221.5,139.7l1.5,12.3c-5.7,5.4-11.2,10.9-16.5,16.5l-11-1.3l1.1,11.3c-5.7,5.4-11.2,10.9-16.6,16.4l-11-1.5
	l1.3,11.4c-5.1,4.9-8.6,8.6-13.6,13.6l-11.3,0.6c-3.4-2.5-6.6-5.4-9.5-8.3c-6.1-6-12.1-12.2-18.3-18.3c-1.4-1.4-1.3-2.3,0-3.6
	c8.4-8.3,16.8-16.6,25.1-25c1.6-1.6,3.4-1.7,5.1-0.9c3.7,1.7,6.5,1.3,9.5-1.9c10.9-11.3,22.2-22.3,33.3-33.3
	c2.3-2.3,2.8-5.7,1.2-8.9c-1-2-0.9-3.3,0.7-4.8c8.3-8.3,16.6-16.6,24.8-25c1.6-1.6,2.7-1.4,4.3,0.1c8,8,16.2,15.9,24.1,23.9L247,128
	c-4.7,4.5-9.3,9.2-13.9,13.8L221.5,139.7z"/>
<path class="st0" d="M87.2,119.8c0,3.4-0.2,6.9,0.1,10.3c0.2,1.7,1,3.7,2.2,4.9c11,11.2,22.2,22.3,33.3,33.3
	c1.7,1.7,1.7,2.8-0.1,4.6c-3.5,3.2-6.9,6.5-10.1,10c-1.6,1.7-2.7,1.6-4.4,0c-15.4-15.5-30.8-30.9-46.4-46.4c-11-11-22.1-22-33.1-33
	c-2.1-2.1-4.2-4-6.2-6c-1.5-1.4-1.3-2.5,0.1-3.8c7.1-7.1,14.2-14.3,21.3-21.4c5-5.1,4-4.2,8.3,0.1c10.9,11.2,22.1,22.4,33,33.8
	c0.8,0.8,1.3,2.2,1.4,3.3c0.2,3.4,0.1,6.9,0.1,10.3C86.9,119.8,87,119.8,87.2,119.8z"/>
<path class="st0" d="M123.9,11.7c5.8,0,11.5-0.1,17.3,0.1c1.4,0,3.1,0.7,4,1.6c22.1,22.1,44.2,44.2,66.3,66.3c1.6,1.6,1.6,2.7,0,4.4
	c-3.4,3.3-6.8,6.6-10,10.1c-1.6,1.7-2.8,1.9-4.6,0C186.1,83,175.2,72,164.4,60.9c-1.7-1.7-3.5-2.7-6-2.6c-6.6,0.1-13,0.1-19.6-0.1
	c-1.4,0-3.3-0.7-4.3-1.6c-11.9-11.6-23.7-23.4-35.6-35c-1.6-1.6-1.4-2.5,0-4.2c3.4-4.2,7.3-6.1,12.8-5.5
	C115.6,12.1,119.7,11.7,123.9,11.7L123.9,11.7z"/>
<path class="st0" d="M62,193.7c-5.7,5.5-9.4,9.6-14.6,14.8c-11.9,11.8-23.8,23.7-35.8,35.5c-0.4,0.4-1,1-1.5,1.4
	c-0.7,0.3-1.5,0.9-2,0.7c-0.4-0.2-0.9-1.2-0.9-1.9c0-8.5-0.1-16.9,0.1-25.5c0-1,0.9-2.2,1.6-3c11.9-11.9,22.3-22.8,34.3-34.6
	c2.8-2.8,3-2.8,5.8,0C53.2,185.2,57.3,189.1,62,193.7z"/>
<path class="st0" d="M54.7,136.6c6.7,7,12.8,13.4,19,19.8c8.6,8.7,17.5,17.4,26.2,26c2.5,2.5,2.5,2.7-0.1,5.2
	c-1.6,1.5-3.5,3.1-5,4.7c-1.5,1.7-2.7,1.4-4.3-0.1c-12.9-12.9-25.9-25.7-38.8-38.5c-1.7-1.6-3.6-3.3-5-5.1c-0.5-0.7-0.7-2.5-0.2-3.1
	C48.8,142.8,51.4,140.2,54.7,136.6z"/>
<path class="st0" d="M72.8,196.7c-10.3-10.3-19.7-19.6-29.3-29.2c2.1-2.1,4-4.3,6.2-6.2c1.3-1.2,2.6-0.3,3.8,0.8
	c6.1,6.1,12.4,12.4,18.6,18.5c2,2,3.8,3.9,5.8,5.8c1.5,1.4,1.5,2.6,0.1,4.2C76.1,192.4,74.5,194.7,72.8,196.7z"/>
<path class="st0" d="M132.8,85.7c-1.1,0.1-2.1,0.2-3,0.2c-9,0-17.9,0-26.9,0.1c-2.4,0-3.1-0.9-2.5-3.1c1.1-4.3,3.8-7.3,7.5-9.2
	c9.3-4.7,17.8-1.9,23.2,6.7C132,81.8,132.2,83.6,132.8,85.7z"/>
<path class="st0" d="M132.8,91.1c-1.3,4.7-3.5,8.2-7.1,10.8c-7.5,5.4-18.7,3.1-23.5-4.8c-0.4-0.7-0.9-1.3-1.2-2
	c-1.5-2.6-0.7-4.2,2.4-4.3c8.7,0,17.5-0.1,26.2-0.1C130.6,90.8,131.6,91,132.8,91.1z"/>
</svg>
