<?xml version="1.0" encoding="utf-8"?>
<!-- Generator: Adobe Illustrator 24.2.3, SVG Export Plug-In . SVG Version: 6.00 Build 0)  -->
<svg version="1.1" id="Layer_1" xmlns="http://www.w3.org/2000/svg" xmlns:xlink="http://www.w3.org/1999/xlink" x="0px" y="0px"
	 viewBox="0 0 256 256" style="enable-background:new 0 0 256 256;" xml:space="preserve">
<style type="text/css">
	.st0{fill:#FFFFFF;}
</style>
<path class="st0" d="M169.8,145.8c-26.2,0.1-52.3,0.1-78.5,0.1c0,0,0,0.1,0,0.1c-26.1,0-52,0.1-78.1,0c-2.3,0-3.1,0.5-3.1,3
	c0,26.5-0.1,53.1-0.1,79.6c0,4,0.1,4.1,3.8,4.1c51.5,0,102.9,0,154.4,0c3.9,0,3.9,0,3.9-3.9c0-15.4,0-30.9,0-46.3
	c0-11.2,0.1-22.4,0.1-33.6C172.2,147.3,172.4,145.8,169.8,145.8z M158.7,216.8c0,2.7-1.3,3-3.5,3c-21.6,0-43.3,0-64.9,0
	c-21.6,0-43.1,0-64.6-0.1c-3.9-0.1-4-0.1-4-4c0-17.7,0-35.5,0-53.3c0-3.3,0.5-3.8,3.7-3.8c43.2,0,86.5,0.1,129.8,0
	c2.6,0,3.5,0.9,3.5,3.4C158.6,180.3,158.6,198.5,158.7,216.8z M14.2,111.5c51.1,0,102.3,0,153.5,0c4.4,0,4.4,0,4.4-4.4
	c0-25.6,0.1-51.2,0.1-76.8c0-5.6,0-5.6-5.6-5.6c-25,0-50.1,0-75.1,0c0,0,0,0.1,0.1,0.3c-26.1,0-52.1,0-78.2-0.1
	c-2.7,0-3.4,0.7-3.4,3.3c0,26.3-0.1,52.7-0.1,79C9.9,111.4,10.1,111.5,14.2,111.5z M21.5,42.1c0-4.6,0.1-4.7,4.8-4.7
	c42.6,0,85.3,0,127.9,0c4.3,0,4.3,0,4.3,4.2c0,17.8,0,35.7,0.1,53.6c0,2.8-0.9,3.5-3.6,3.5c-21.6-0.1-43.3-0.1-64.9-0.1
	c-21.4,0-42.9,0-64.5,0.1c-4.1,0-4.1-0.1-4.1-4.1C21.5,77.1,21.5,59.6,21.5,42.1z M243.9,189.6c0.1-0.1,0.2-0.1,0.2-0.1
	c0,15.1,0,30.1,0,45.2c0,2.8-0.8,3.9-3.7,3.7c-3.5-0.2-7-0.1-10.4,0c-1.9,0-3.1-0.5-2.9-2.7c0.2-2.3-1.1-2.8-3.2-2.8
	c-8.7,0.1-17.3,0-26,0c-3.5,0-3.9-0.3-3.9-3.9c-0.1-15.1-0.1-30.3-0.1-45.4c0-11.2-0.1-22.4-0.1-33.6c0-3.8,0.1-3.9,4-3.9
	c8.6,0,17.1-0.1,25.7,0c2.3,0,3.8-0.4,4-3.1c0.1-0.7,1.4-1.8,2.3-1.8c4-0.2,8.1,0,12.1,0c1.9,0,2,1.3,2,2.7c0,6.2,0,12.4,0,18.6
	C243.9,171.5,243.9,180.6,243.9,189.6z M244.1,68.5c0,14.9,0,29.7,0,44.6c0,4-0.1,4-4.2,4c-3.3,0-6.6,0-9.9,0
	c-1.9,0-3.1-0.6-2.9-2.8s-1-3-3.1-2.9c-8.4,0.1-16.8,0-25.1,0c-4.7,0-4.9-0.1-4.9-5c-0.1-16.6-0.1-33.1-0.1-49.7
	c0-9.5-0.1-19-0.1-28.5c0-3.4,0.4-3.7,3.7-3.7c8.8,0,17.7-0.1,26.5-0.1c1.9,0,2.9-0.6,3.4-2.6c0.2-0.9,1.5-2.1,2.3-2.1
	c4-0.2,8.1,0,12.1,0c1.9,0,2,1.2,2,2.7c0,5,0,10,0,15c0,10.4,0,20.7,0,31.1C244,68.5,244.1,68.5,244.1,68.5z M187.2,149.4
	c0.1,13.4,0.1,26.7,0.1,40.1c0,13.1,0,26.2,0,39.2c0,1.3-0.5,3.5-1.1,3.7c-2,0.4-4.3,0.3-6.4,0c-0.5-0.1-0.9-1.9-0.9-3
	c-0.1-5.6-0.1-11.3-0.1-16.9c0-21,0.1-42,0.2-63c0-1.2,0.6-3.3,1.1-3.3c2.2-0.2,4.4,0,6.6,0.4C187,146.7,187.2,148.4,187.2,149.4z
	 M187.3,27.4c-0.1,8.3,0,16.6,0,24.8c0,5.3,0,10.5,0,15.7c0,13.2,0,26.3-0.1,39.5c0,1.3-0.5,3.5-1.1,3.6c-2,0.4-4.3,0.3-6.3-0.2
	c-0.5-0.1-0.9-2.1-0.9-3.3c-0.1-11.6,0-23.1,0-34.7c0-14.9,0.1-29.7,0.1-44.6c0-3.7,0-3.7,3.7-3.7c0.6,0,1.1,0.1,1.7,0
	C186.7,24.2,187.3,25.3,187.3,27.4z"/>
</svg>
