<?xml version="1.0" encoding="utf-8"?>
<!-- Generator: Adobe Illustrator 23.0.1, SVG Export Plug-In . SVG Version: 6.00 Build 0)  -->
<svg version="1.1" id="Layer_1" xmlns="http://www.w3.org/2000/svg" xmlns:xlink="http://www.w3.org/1999/xlink" x="0px" y="0px"
	 viewBox="0 0 256 256" style="enable-background:new 0 0 256 256;" xml:space="preserve">
<style type="text/css">
	.st0{fill:#FFFFFF;}
</style>
<path class="st0" d="M91.3,145.9c26.2,0,44.3,0,70.5-0.1l0.4,0.5c0,11.2-0.1,25-0.1,36.2c0,15.4,0,34.4-0.1,49.9l-0.7,0.4
	c-51.5,0-96.1,0-147.6,0c-3.7,0-3.8-0.1-3.8-4.1c0-26.5,0.1-53.1,0.1-79.6c0-2.5,0.8-3,3.1-3c26.1,0.1,52.1,0,78.2,0
	C91.3,146.1,91.3,146,91.3,145.9z M90.3,219.8c21.6,0,33.3,0,54.9,0c2.2,0,3.5-0.3,3.5-3c-0.1-18.3-0.1-36.5,0-54.8
	c0-2.5-0.9-3.4-3.5-3.4c-43.3,0.1-76.6,0-119.8,0c-3.2,0-3.7,0.5-3.7,3.8c0,17.8,0,35.6,0,53.3c0,3.9,0.1,3.9,4,4
	C47.2,219.8,68.7,219.8,90.3,219.8z"/>
<path class="st0" d="M91.5,24.7c25,0,40.1,0,65.1,0c5.6,0,5.6,0,5.6,5.6c0,25.6-0.1,51.2-0.1,76.8c0,4.4,0,4.4-4.4,4.4
	c-51.2,0-92.4,0-143.5,0c-4.1,0-4.3-0.1-4.3-4.3c0-26.3,0.1-52.7,0.1-79c0-2.6,0.7-3.3,3.4-3.3c26.1,0.1,52.1,0.1,78.2,0.1
	C91.5,24.8,91.5,24.7,91.5,24.7z M90.1,98.6C90.1,98.6,90.1,98.6,90.1,98.6c21.6,0,33.3,0,54.9,0.1c2.7,0,3.6-0.7,3.6-3.5
	c-0.1-17.9-0.1-35.8-0.1-53.6c0-4.2,0-4.2-4.3-4.2c-42.6,0-75.3,0-117.9,0c-4.7,0-4.8,0.1-4.8,4.7c0,17.5,0,35,0,52.5
	c0,4,0,4.1,4.1,4.1C47.2,98.6,68.7,98.6,90.1,98.6z"/>
<path class="st0" d="M244.1,189.5c0,15.1,0,30.1,0,45.2c0,2.8-0.8,3.9-3.7,3.7c-3.5-0.2-7-0.1-10.4,0c-1.9,0-3.1-0.5-2.9-2.7
	c0.2-2.3-1.1-2.8-3.2-2.8c-8.7,0.1-17.3,0-26,0c-3.5,0-3.9-0.3-3.9-3.9c-0.1-15.1-0.1-30.3-0.1-45.4c0-11.2-0.1-22.4-0.1-33.6
	c0-3.8,0.1-3.9,4-3.9c8.6,0,17.1-0.1,25.7,0c2.3,0,3.8-0.4,4-3.1c0.1-0.7,1.4-1.8,2.3-1.8c4-0.2,8.1,0,12.1,0c1.9,0,2,1.3,2,2.7
	c0,6.2,0,12.4,0,18.6c0,9,0,18.1,0,27.1C244,189.5,244.1,189.5,244.1,189.5z"/>
<path class="st0" d="M244.1,68.5c0,14.9,0,29.7,0,44.6c0,4-0.1,4-4.2,4c-3.3,0-6.6,0-9.9,0c-1.9,0-3.1-0.6-2.9-2.8
	c0.2-2.2-1-3-3.1-2.9c-8.4,0.1-16.8,0-25.1,0c-4.7,0-4.9-0.1-4.9-5c-0.1-16.6-0.1-33.1-0.1-49.7c0-9.5-0.1-19-0.1-28.5
	c0-3.4,0.4-3.7,3.7-3.7c8.8,0,17.7-0.1,26.5-0.1c1.9,0,2.9-0.6,3.4-2.6c0.2-0.9,1.5-2.1,2.3-2.1c4-0.2,8.1,0,12.1,0
	c1.9,0,2,1.2,2,2.7c0,5,0,10,0,15c0,10.4,0,20.7,0,31.1C244,68.5,244.1,68.5,244.1,68.5z"/>
<path class="st0" d="M187.3,189.5c0,13.1,0,26.2,0,39.2c0,1.3-0.5,3.5-1.1,3.7c-2,0.4-13.3,0.3-15.4,0c-0.5-0.1-0.9-1.9-0.9-3
	c-0.1-5.6-0.1-11.3-0.1-16.9c0-21,0.1-42,0.2-63c0-1.2,0.6-3.3,1.1-3.3c2.2-0.2,13.4,0,15.6,0.4c0.3,0.1,0.5,1.8,0.5,2.8
	C187.3,162.8,187.3,176.1,187.3,189.5z"/>
<path class="st0" d="M187.3,67.9c0,13.2,0,26.3-0.1,39.5c0,1.3-0.5,3.5-1.1,3.6c-2,0.4-13.3,0.3-15.3-0.2c-0.5-0.1-0.9-2.1-0.9-3.3
	c-0.1-11.6,0-23.1,0-34.7c0-14.9,0.1-29.7,0.1-44.6c0-3.7,9-3.7,12.7-3.7c0.6,0,1.1,0.1,1.7,0c2.3-0.3,2.9,0.8,2.9,2.9
	c-0.1,8.3,0,16.6,0,24.8C187.3,57.5,187.3,62.7,187.3,67.9z"/>
</svg>
