<?xml version="1.0" encoding="utf-8"?>
<!-- Generator: Adobe Illustrator 23.0.1, SVG Export Plug-In . SVG Version: 6.00 Build 0)  -->
<svg version="1.1" id="Layer_1" xmlns="http://www.w3.org/2000/svg" xmlns:xlink="http://www.w3.org/1999/xlink" x="0px" y="0px"
	 viewBox="0 0 256 256" style="enable-background:new 0 0 256 256;" xml:space="preserve">
<style type="text/css">
	.st0{fill:#FFFFFF;}
</style>
<path class="st0" d="M47.3,33.3c2.1,0,4.3,0,6.4,0c44.2-0.7,88.4-1.5,132.6-2.2c6.6-0.1,13.3-0.6,19.9-0.8c1,0,2.1,0.6,3.1,1
	c-0.6,0.9-1,2-1.7,2.8c-15.3,15.7-30.6,31.4-45.9,47.1c-9.5,9.7-18.9,19.4-28.3,29.2c-3.4,3.5-5,3.6-8.5,0.2
	c-19-18.2-37.9-36.5-56.8-54.7c-6.4-6.2-12.7-12.4-19-18.6c-0.8-0.8-1.5-1.9-2.2-2.8C47,34,47.2,33.6,47.3,33.3z"/>
<path class="st0" d="M128,219.1c-23.1,0-46.3,0-69.4,0c-2.4,0-4.3-0.5-6.1-2.1c-9.3-8.2-17.7-17.2-24.2-27.9c-1.4-2.3-1.1-3.5,1-4.7
	c7.9-4.4,15.7-8.8,23.6-13.2c2.2-1.2,3.3-0.4,4.4,1.4c6.7,11.1,15.5,20.3,26.8,26.7c6.1,3.5,12.5,6.8,19.2,8.7
	c10.5,3,21.3,4.3,32.3,3c7.7-0.9,15.3-1.9,22.5-4.7c11.4-4.4,21.9-10.6,30-19.9c4.6-5.3,8.5-11.3,12.8-16.9c0.5-0.7,2.1-1.2,2.8-0.9
	c7.9,4,15.8,8.2,23.7,12.5c3.8,2.1,3.8,2.3,1.6,6.2c-6.9,11.7-15.7,21.8-26.3,30.2c-1.2,1-3.2,1.3-4.8,1.3
	c-23.2,0.1-46.4,0.1-69.7,0.1C128,219,128,219,128,219.1z"/>
<path class="st0" d="M47.7,46.3c0.7,0.5,1.5,1,2.2,1.7c6.6,6.9,13.2,13.8,19.8,20.6c2.5,2.6,2.5,3.1-0.1,5.7
	c-8.6,8.4-15,18.3-19.2,29.5c-5.1,13.6-5.6,27.8-3.6,42c0.6,4.3,2.2,8.4,3.4,12.6c0.6,2.1,0.2,3.3-1.9,4.5
	c-7.9,4.3-15.7,8.9-23.5,13.4c-2.3,1.4-3.5,0.1-4.3-1.7c-1.4-3.2-2.9-6.4-3.8-9.8c-1.6-6.1-2.9-12.3-4.1-18.5
	c-2.6-12.9-2-25.9,0.6-38.7c4.7-23.3,15.6-43.4,32.6-60c0.3-0.3,0.7-0.7,1.1-1C47.1,46.5,47.3,46.4,47.7,46.3z"/>
<path class="st0" d="M234.9,174.3c-7-3.7-14-7.4-21.1-11c-1.8-0.9-3.6-1.8-5.4-2.8c-1.9-1-2.9-2.2-1.7-4.7c1.2-2.5,1.9-5.3,2.4-8.1
	c2.3-11,2.5-22.1,0-33.1c-3.7-16.4-11.7-30.5-24-42.1c-2.7-2.5-2.7-2.8-0.3-5.3c6.5-7,12.9-14,19.4-21c0.7-0.8,1.6-1.4,2.3-2.1
	C247.9,79.3,253.4,139.1,234.9,174.3z"/>
<path class="st0" d="M126.9,180.5c19.2,0.1,32.8-7.6,42.7-21.9c3.2-4.6,5.7-9.7,6.5-15.4c0.5-4.1,1.6-8.3,1.5-12.4
	c-0.3-12.4-4.8-23.3-13.4-32.3c-3.5-3.6-3.5-3.6-0.1-7.1c1.4-1.4,2.8-2.7,4.1-4.2c1.6-1.9,3.2-2,4.9-0.2
	c5.6,5.8,10.2,12.2,13.5,19.6c4.4,9.9,6,20.3,5,31c-0.7,7.4-2.8,14.6-6.2,21.3c-4.8,9.5-11.2,17.6-20.1,23.3
	c-5.3,3.4-11.2,6.1-17.1,8.5c-7.4,3-15.3,3.9-23.2,3.3c-17.6-1.2-32.6-8-44.5-21.3c-5.2-5.8-9.3-12.3-11.8-19.6
	c-3.4-10.2-5.1-20.6-3-31.6c2.1-10.8,6.2-20.3,12.9-28.9c1.4-1.8,3-3.3,4.5-5c1.1-1.3,2.1-1.4,3.4-0.1c2.2,2.2,4.5,4.3,6.8,6.5
	c1.4,1.3,1.3,2.3-0.1,3.6c-5.8,5.9-10.2,12.9-12.2,20.9c-1.7,6.8-3,13.7-1.3,21c1.6,6.8,3.5,13.3,7.4,19.1
	c5.6,8.2,12.8,14.4,22.1,18.2C115.3,179.5,121.7,180.7,126.9,180.5z"/>
<path class="st0" d="M160,133.5c-0.7,13.6-6.8,23.6-19.5,29.2c-4.6,2-9.3,3.3-14.4,3c-12.9-0.7-25.1-11.2-28.6-23.6
	c-3.4-12.1,0-22.1,8.1-31.1c1.7-1.8,3.2-2.3,5-0.1c1.4,1.7,4.1,3,4.4,4.8c0.3,1.5-1.9,3.6-3,5.4c-2.9,4.6-4.6,9.5-3.7,14.9
	c1.1,6.3,5.2,12.9,12.9,16.2c8.4,3.7,19-1.3,23.3-7.7c4.4-6.6,4.3-19.4-2-25.1c-3.5-3.2-3.1-3.3,0.2-6.8c5.4-5.8,5.9-3.6,9.8,0.7
	C157,118.1,160.5,126.4,160,133.5z"/>
<path class="st0" d="M70.6,228.4c38,0,75.9,0,114.4,0C162.1,245,108.6,251.8,70.6,228.4z"/>
<path class="st0" d="M172.8,24.3c-31.2-0.5-62.4,2.2-93.6,1.2c30.9-13.6,62.2-13.4,93.6-2.7C172.7,23.3,172.7,23.8,172.8,24.3z"/>
</svg>
