<?xml version="1.0" encoding="utf-8"?>
<!-- Generator: Adobe Illustrator 24.0.1, SVG Export Plug-In . SVG Version: 6.00 Build 0)  -->
<svg version="1.1" id="Layer_1" xmlns="http://www.w3.org/2000/svg" xmlns:xlink="http://www.w3.org/1999/xlink" x="0px" y="0px"
	 viewBox="0 0 256 256" style="enable-background:new 0 0 256 256;" xml:space="preserve">
<style type="text/css">
	.st0{fill:#FFFFFF;}
</style>
<path class="st0" d="M187.4,40.6c-19.1,0.8-36.3-4-39.3-4.2c-22.7-3.7-46.6,0.8-67,13.7c0,0-0.1,0-0.1,0.1c-0.8,0.5-1.7,1.1-2.5,1.6
	c-2.4,1.6-4.7,3.2-7,5.1c-2.5,2-4.7,4.2-6.9,6.4c-0.5,0.5-1,1.1-1.6,1.6c-0.3,0.3-0.6,0.6-0.9,1C52,76.8,47.1,84.5,42.9,103
	c-4.2,18.5,2,32.5-2.4,57s-15.8,44.1-22,63c-1.4,4.3,3.8,7.6,7.1,4.6l85.5-76.1L47,192.4l20.4-25.6l1.9-2.4c3.1-3.8,3.8-9,2.2-13.6
	c-0.3-1-0.7-2-0.9-3c-6.6-23,0.4-48.8,20.1-65c17.3-14.3,40.1-17.6,59.9-10.7c1.3,0.5,2.7,1,4,1.5c5,2.1,10.6,1.7,15.3-0.9l1.5-0.9
	l33.8-19.3c0,0-54.6,58.9-53.1,60.7l30.3-27l0.1,0.1l1.7-1.3l56.5-47.7c3.3-2.8,0.7-8.1-3.5-7.2C220,33.6,206.4,39.8,187.4,40.6z"/>
<g>
	<path class="st0" d="M130.5,82.8c11.6,0,22.1,4.3,30.3,11.3c1.2-1.5,2.5-3.2,3.5-4.5c-9.1-7.8-20.9-12.5-33.8-12.5
		c-28.8,0-52.2,23.4-52.2,52.2c0,11.4,3.7,22,9.9,30.6l4.8-3.1c-5.7-7.7-9-17.2-9-27.5C84,103.6,104.9,82.8,130.5,82.8z"/>
	<path class="st0" d="M174.2,100.9l-4.4,3.8c4.5,7.1,7.1,15.5,7.1,24.6c0,25.6-20.8,46.4-46.4,46.4c-10.8,0-20.8-3.7-28.7-10
		l-4.3,3.9c9,7.4,20.5,11.8,33,11.8c28.8,0,52.2-23.4,52.2-52.2C182.7,118.8,179.6,109,174.2,100.9z"/>
</g>
<circle class="st0" cx="170" cy="23.6" r="5.1"/>
<circle class="st0" cx="83.2" cy="228.4" r="5.1"/>
<circle class="st0" cx="241.6" cy="138.3" r="7.2"/>
<circle class="st0" cx="40.6" cy="52.8" r="7.2"/>
<circle class="st0" cx="207.6" cy="213.2" r="10.9"/>
<circle class="st0" cx="16" cy="147.5" r="9.2"/>
<path class="st0" d="M184.7,194.6c33.4-26.4,41.2-75.9,24.8-113.5l-23.6,21.1c12.4,25.6,5.9,57.3-17.4,75.7
	c-21.2,16.7-49.8,17.4-71.4,3.9l-19.9,17.8C109.2,217.9,154.3,218.6,184.7,194.6z"/>
</svg>
