<?xml version="1.0" encoding="utf-8"?>
<!-- Generator: Adobe Illustrator 23.0.1, SVG Export Plug-In . SVG Version: 6.00 Build 0)  -->
<svg version="1.1" id="Layer_1" xmlns="http://www.w3.org/2000/svg" xmlns:xlink="http://www.w3.org/1999/xlink" x="0px" y="0px"
	 viewBox="0 0 256 256" style="enable-background:new 0 0 256 256;" xml:space="preserve">
<style type="text/css">
	.st0{fill:#FFFFFF;}
</style>
<path class="st0" d="M159.6,119.3c9.1,9,16.8,16.7,24.8,24.3c1.2,1.1,3.3,1.7,4.9,1.7c9,0.2,18,0,27,0.2c3.7,0.1,5.2-1.4,5-5
	c-0.2-5,0.4-10.1-0.6-14.9c-1-4.5,0.6-6.5,4.2-8.1c1.5-0.7,2.9-1.5,4.3-2.2c8.2,6.8,7.6,55.3-5.3,78c-3.5-3.4-7.1-6.5-10-10.1
	c-0.8-1,0-3.7,0.5-5.5c1.3-4.6,2.9-9.1,4.6-14.3c-2.5-0.2-4.5-0.5-6.6-0.5c-9.5,0-19,0.2-28.5-0.1c-2.3-0.1-5.2-1.2-6.8-2.8
	c-8.5-8.2-16.9-16.6-25.1-25.1c-2.6-2.7-4.4-2.6-7,0c-24.9,25-50,49.9-75,74.9c-0.9,0.9-1.7,2-3,3.6c40.6,0,80.4,0,120,0
	c0-4.7-0.3-9.2,0.1-13.5c0.6-6.6,9.1-13.4,17.8-12.7c7.9,0.6,15.3,7.4,16.2,15.7c0.8,7-4.8,16.3-11.4,18.1c-2.5,0.7-5.3,0.6-7.9,0.6
	c-46,0-92-0.1-138-0.2c-4,0-7,0.9-9.6,4c-1.8,2.2-3.9,4.1-5.9,6.1c-7.3,7.3-14.6,7.4-21.7,0c-3-3.2-7.5-5.2-7.7-11
	c-0.2-5.7,1.2-10.1,5.8-13.3c8.2-5.7,9.9-13.4,9.8-23.2c-0.5-43.7-0.1-87.3-0.4-131c-0.1-8.4,4.9-16.3,15.1-17.7
	c5.9-0.8,14.5,1.7,18.3,10.7c2.1,5,0.8,13.5-3.1,17.7c-5.5,6-11.9,8.1-18.2,5.4c-3.1-1.3-4.3-0.8-4.3,2.6c0,38.3,0,76.7,0.1,115
	c0,0.5,0.3,0.9,0.6,2c1.7-1.5,3.2-2.6,4.5-3.9c24.3-24.3,48.6-48.8,73-73c3.3-3.3,3.4-5.2,0-8.4c-8.3-7.9-16.4-16.1-24.3-24.4
	c-1.6-1.7-2.8-4.6-2.8-6.9c-0.3-11.1-0.1-22.3-0.1-34.8c-4.8,1.3-9,1.8-12.6,3.6c-4.8,2.4-8.2,2.1-11.5-2.3
	c-1.8-2.5-4.1-4.6-6.4-7.2c26.1-10.4,51.8-14,78.9-6.3c-1.1,2.1-1.9,3.7-2.7,5.3c-2,4.2-3.8,6.7-9.7,4.3c-4.4-1.8-10.2-0.7-15.3-0.3
	c-1.1,0.1-2.8,2.5-2.8,3.9c-0.2,10-0.1,20,0.3,30c0.1,1.8,1.9,3.8,3.4,5.3c6,6.2,12.3,12.1,18.2,18.4c2.7,2.9,4.5,2.8,7.2,0
	c12.6-12.8,25.3-25.5,38-38.2c6.4-6.4,10.5-6.4,16.7-0.2c2.6,2.6,5.2,5.2,7.7,7.8c5.5,5.5,5.6,11.2,0.1,16.7
	c-12.5,12.5-24.9,25-37.5,37.4C163.5,116.8,161.9,117.7,159.6,119.3z M167.7,82.5c-1.2,1.3-2.1,2.5-3.2,3.6
	c-19.1,19.2-38.3,38.3-57.5,57.5c-6.7,6.7-13.5,13.3-20.2,20c-2,2-3.7,4-0.9,6.8c2.7,2.7,4.6,0.3,6.4-1.1c1.9-1.5,3.4-3.7,5.1-5.4
	c23.8-23.7,47.7-47.4,71.4-71.2c3.4-3.4,6.1-5.2,9.4-0.4c6-4.2,6.1-4.6,1.2-9.2c-2.8-2.6-5.4-5.5-8.5-7.7c-1.1-0.8-3.8-0.9-4.8-0.1
	c-0.9,0.6-0.6,3.1-0.5,4.7C165.9,80.5,166.8,81.3,167.7,82.5z M213.7,204c-0.1-5.8-5.3-11.6-10.5-10.8c-5.2,0.8-10.3,3.7-10.4,11.1
	c-0.1,6.3,5.7,10.5,10.7,10.8C208.9,215.4,213.8,209.8,213.7,204z M51.2,62.7c5.8,0.2,11-4.5,11.2-10.1c0.2-5.5-5-10.7-10.7-10.8
	C45.6,41.7,41,46,40.6,52.1C40.3,57.9,44.9,62.5,51.2,62.7z M172.5,69.2c3.7,3.3,7.1,6.1,10.2,9.2c4.9,4.8,5.7,4.7,8.9-0.5
	c-4.5-5.1-8.9-9.9-13.4-14.9C176.3,65.1,174.5,67,172.5,69.2z"/>
<path class="st0" d="M171.4,45.2c0.1,8.6-7.5,16.6-16.2,16.9c-8.3,0.3-16.6-7.8-16.8-16.4c-0.2-8.5,7.6-17.2,16.2-16.8
	C163.7,29.4,170.5,34.7,171.4,45.2z M147.5,45.4c-0.1,5.6,3,9.2,7.9,9.3c3.5,0.1,9-5.2,9.1-8.7c0.1-4.3-4-8.4-8.7-8.5
	C149.9,37.3,147.5,39.6,147.5,45.4z"/>
<path class="st0" d="M210.6,84.8c9.5,0,16.2,6.7,16.2,16.2c0,8.5-7.7,16.1-16.2,16.2c-9.3,0.1-16.2-6.8-16.2-16.4
	C194.4,91,200.6,84.8,210.6,84.8z M202.1,100.2c0,5.3,3.2,8.7,8.1,8.8c4,0,8.9-4.6,9-8.5c0.1-4.1-4.9-9.2-9-9.1
	C205.2,91.5,202,95,202.1,100.2z"/>
<path class="st0" d="M195.3,46c11.4-6.7,21.9-12.7,32.3-18.8c0.3,0.2,0.6,0.3,0.8,0.5c-1,1.9-1.9,3.7-3,5.6
	c-4.3,7.6-8.8,15.1-13,22.8c-1.6,3-3,3.6-5.5,1C203.6,53.5,199.8,50.2,195.3,46z"/>
<path class="st0" d="M99.9,90.7c4.8,5,9.6,10,14.2,15.1c0.7,0.7,0.7,3,0.1,3.7c-4.6,5.2-9.5,10.1-14.3,15.1
	c-0.4-0.2-0.8-0.5-1.2-0.7c0-10.8,0-21.6,0-32.3C99.2,91.3,99.6,91,99.9,90.7z"/>
<path class="st0" d="M131.8,157.3c6.2-6.3,11.5-11.6,16.1-16.3c5.5,5.3,11.1,10.6,17.1,16.3C153.9,157.3,143.3,157.3,131.8,157.3z"
	/>
</svg>
