<?xml version="1.0" encoding="utf-8"?>
<!-- Generator: Adobe Illustrator 23.0.1, SVG Export Plug-In . SVG Version: 6.00 Build 0)  -->
<svg version="1.1" id="Layer_1" xmlns="http://www.w3.org/2000/svg" xmlns:xlink="http://www.w3.org/1999/xlink" x="0px" y="0px"
	 viewBox="0 0 256 256" style="enable-background:new 0 0 256 256;" xml:space="preserve">
<style type="text/css">
	.st0{fill:#FFFFFF;}
</style>
<path class="st0" d="M106.4,17.7c0,6.8,0,12.8,0,18.8c0,2.5,0.2,4.4,3.5,4.3c12.3-0.3,24.6-0.4,36.8-0.6c0.8,0,1.5-0.3,3-0.7
	c0-7.4,0-14.7,0-22.7c42.5,9.8,72.7,33.1,88.4,73.3c12.8,32.8,8.8,70.7-2.7,88.4c-8.8-4.6-17.8-9-26.3-14.1
	c-1.3-0.8-1.5-5.1-0.8-7.3c4.2-13.2,3.9-26.4,1.7-39.8c-2.1-13-7.5-24.5-15.4-34.5c-9.3-11.8-20.9-20.6-35.2-26.5
	c-14.2-5.8-28.7-6.3-43.4-4.9c-9.4,0.9-18.5,4.4-27,9.1C77.7,67,68,75,60.7,85.6c-5.7,8.1-9.4,17.2-12.2,26.8
	c-3.6,12.7-4.1,25.2-1.6,38c0.7,3.4,1.6,6.8,2.9,10c1.5,3.7,0.7,5.8-2.8,7.7c-7.3,3.8-14.5,7.9-21.6,12.2c-2.9,1.8-4.3,0.9-5.5-1.8
	c-8.4-18.9-11.2-38.9-8.7-59.1c2.8-22.7,12.1-42.9,27-60.7C53,40.7,71.4,28.6,93,20.9C97.1,19.5,101.5,18.9,106.4,17.7z"/>
<path class="st0" d="M203.3,131.3c-4.6-3.6-8.9-7.2-13.5-10.6c-12.6-9.4-27-14.9-42.1-18.6c-3.5-0.8-7.1-1.5-10.7-1.8
	c-3.1-0.2-3.5-1.9-3.5-4.4c0-3,0.1-6.1-0.6-9c-0.6-2.8-2.2-6.2-5.7-4.7c-1.9,0.8-3.7,3.8-4.1,6c-0.7,3.7-0.2,7.5-0.2,11.6
	c-26.5,2.4-49.3,11.7-67.8,30.9c-2.9-15.2,7.7-41.9,28.6-57.2c27.9-20.3,59.5-19.8,86.1-3C195,86.4,205.2,116,203.3,131.3z"/>
<path class="st0" d="M204.3,136.9c-1.9,24.8-11.8,45.1-32.4,59.2c-25.9,17.8-57,18.7-84.5,1.2C65,183,52.5,154.1,54.7,137.4
	c3.4,2.9,6.6,5.7,9.8,8.4c11.8,9.8,25.2,16.4,40.2,19.4c4.2,0.8,8.4,1.5,12.7,1.8c3.9,0.3,5.9,1.5,5.5,5.8
	c-0.3,3.5-0.7,7.2,0.2,10.5c0.7,2.6,3.2,6.4,5.2,6.6c3.2,0.3,5.3-2.8,5.2-6.6c-0.1-4.1,0-8.3,0-12.4c0-2.6,1.1-3.7,3.7-3.9
	c24.9-1.9,45.9-12.4,64.2-29c0.5-0.4,1-0.8,1.5-1.1C203.1,136.8,203.2,136.9,204.3,136.9z"/>
<path class="st0" d="M55.3,173.9c16.8,28.6,42.5,43.3,74.4,43c32-0.3,56.8-16.6,73-44.8c9.1,4.7,17.6,9.1,26,13.6
	c2.2,1.2,3.2,2.5,1.5,5.3c-6.9,11.4-15.1,21.6-25.3,30.2c-1.7,1.4-4.7,1.8-7,1.8c-39.7,0.3-79.4,0.4-119.1,0.6
	c-6.4,0-12.7,0.8-19.1,0.6c-2.6-0.1-5.9-1-7.8-2.7c-9-8-17.7-16.4-24-26.9c-1.8-3.1-1.2-4.4,1.6-6C37.9,183.8,46.1,179.1,55.3,173.9
	z"/>
<path class="st0" d="M71.4,233.3c37.2,0,74.8,0,113.4,0C162.8,253.8,83.9,252.7,71.4,233.3z"/>
<path class="st0" d="M125.8,36.7c-1.7,0-3.5,0-5.2,0c-10.4,0-10.4,0-10.4-10.6c0-4.6,0.1-9.2,0-13.8c-0.1-3,0.9-4.3,4.1-4.3
	c8.7,0.1,17.5,0.1,26.2-0.1c3.1-0.1,4.2,1,4.2,4.1c-0.2,6.5-0.2,13,0,19.6c0.1,3.4-1.6,4.7-4.5,4.8c-4.8,0.2-9.5,0-14.3,0
	C125.8,36.5,125.8,36.6,125.8,36.7z"/>
<path class="st0" d="M127.7,141.6c-4.9,0-9.9-0.1-14.8,0c-3.5,0.1-5.9-1.3-6.3-4.9c-0.4-4.1,1.9-6.4,5.7-6.7
	c5.1-0.4,10.2-0.2,15.2-0.3c4.9,0,9.9-0.1,14.8,0c5,0.2,7.8,2.5,7.6,6c-0.2,3.4-3.4,5.8-7.9,5.8
	C137.2,141.7,132.5,141.6,127.7,141.6z"/>
<path class="st0" d="M97.7,109c-10.2,16.9-11,33-0.1,49c-7.6-0.2-8.7-1-11.4-7.7c-4.4-11.1-4.2-21.9,0-33.1
	C88.2,111.8,92.2,110.7,97.7,109z"/>
<path class="st0" d="M161.5,111.5c6.4-0.7,9.9,2.4,11.9,9.6c2.7,10.1,2.4,19.9-1.7,29.6c-1.8,4.3-4.7,6.3-10.7,6.7
	c3.7-7.4,7.2-14.5,7.1-23.1C168,126,165.6,118.6,161.5,111.5z"/>
</svg>
