<?xml version="1.0" encoding="utf-8"?>
<!-- Generator: Adobe Illustrator 21.0.1, SVG Export Plug-In . SVG Version: 6.00 Build 0)  -->
<svg version="1.1" id="Layer_1" xmlns="http://www.w3.org/2000/svg" xmlns:xlink="http://www.w3.org/1999/xlink" x="0px" y="0px"
	 viewBox="0 0 256 256" style="enable-background:new 0 0 256 256;" xml:space="preserve">
<style type="text/css">
	.st0{fill:#FFFFFF;}
</style>
<path class="st0" d="M129.2,28.3c12.2,0,26.3,3.3,41.6,12.9c0,0-2.5,2.3-6.2,5.9c2.7,1.3,4.6,2.7,4.6,2.7c4.3,2.3,41.2,26,36.8,79.3
	c4.1,0.9,7.3,2.1,7.3,2.1c13,3.6,25.6,27.5,24.7,30.2c-0.7,1.9-16.3,4.1-27.5,4.1c-4.4,0-8.2-0.3-10-1.1c0,0-3.3-0.5-7.2-1.4
	c-5.8,9-14.1,18.8-25.5,26.1c3.8,0.1,7.8,0.6,9.6,0.6c0.4,0,0.7,0,0.8-0.1c4.9,0.4,7.5,2.2,7.5,2.2c3.8,12.9-11.8,36.1-14.6,36.8
	c0,0-0.1,0-0.1,0c-3.2,0-20.2-19.2-21.2-26.1c0,0-0.7-2.1-1.3-4.7c-6.7,1.9-14.2,3-22.5,3c-6,0-11.6-0.7-16.7-1.9
	c1.1,2.8,1.2,5.3,1.2,5.3c-1,7-18,26.1-21.2,26.1c-0.1,0-0.1,0-0.1,0c-2.8-0.6-18.4-23.8-14.6-36.8c0,0,2.7-1.8,7.5-2.2
	c0.3,0.1,0.8,0.1,1.4,0.1c1.5,0,3.9-0.2,6.6-0.3C78.5,184,70,173.9,64,163.9c-5.4,1.7-11.6,2.3-17.7,2.3c-13.8,0-27-3.3-27.5-4.9
	c-0.8-2.4,13.6-28.7,31.1-33.5c-0.9-7-4.5-49.8,39.3-77c-0.1-0.2,1.7-1.3,4.5-2.5c-4.2-3.4-6.9-5.6-6.9-5.6S103.6,28.3,129.2,28.3
	 M129.2,22.5c-27.5,0-45.6,15.2-46.3,15.8L77.5,43l5.6,4.4c0,0,0.1,0.1,0.3,0.2c-9.5,6.3-17.5,13.8-23.7,22.4
	c-5.6,7.7-9.8,16.2-12.5,25.3c-3.6,12-3.8,22.5-3.5,28.7c-5.3,2.4-10.6,6.4-15.7,11.9c-6.6,7.1-10.7,14.3-12.2,17
	c-3.1,5.8-3.2,8.2-2.5,10.4c1,2.9,3.7,4.2,6.2,5.1c1.8,0.6,4.2,1.3,7,1.8c3.6,0.7,11,2,19.9,2c5.5,0,10.6-0.5,15.1-1.4
	c4.1,6.2,8.7,11.6,13.7,16.2c-2.1,0.7-3.3,1.5-3.7,1.8l-1.8,1.2l-0.6,2c-1.4,4.6-1,10.3,1,16.9c1.9,6,4.7,11.5,6.8,15
	c1.6,2.8,3.3,5.3,4.9,7.3c2.4,3,4.1,4.4,6.2,4.9c0.5,0.1,1,0.2,1.4,0.2c2.5,0,4.9-1.3,8.5-4.7c2.2-2.1,4.9-4.9,7.4-7.9
	c4.3-5.2,9.6-12.3,10.9-17.6c3.2,0.4,6.6,0.6,9.9,0.6c6.3,0,12.5-0.6,18.4-1.9c1.5,5.3,6.5,12.1,10.7,17.1c2.5,3,5.2,5.8,7.4,7.9
	c3.6,3.3,6,4.7,8.5,4.7c0.5,0,1-0.1,1.4-0.2c2.1-0.5,3.8-1.8,6.2-4.9c1.6-2,3.3-4.5,4.9-7.3c2.1-3.5,4.9-9,6.8-15
	c2-6.6,2.4-12.2,1-16.9l-0.6-2l-1.8-1.2c-0.5-0.3-2.5-1.6-5.9-2.4c4.7-4.4,9-9.4,12.9-15c1.3,0.3,2.4,0.4,3.1,0.6
	c1.8,0.6,5,1.3,11.6,1.3c5.7,0,12.6-0.5,18.6-1.4c3-0.4,5.6-0.9,7.5-1.5c1.9-0.5,5.7-1.6,7-5.2c0.7-2,0.8-4.9-3.2-12.3
	c-1.9-3.6-12-21.5-25.3-25.3c-0.4-0.2-1.5-0.5-2.9-0.9c0.4-11.2-0.8-21.8-3.8-31.8c-2.8-9.3-7.1-18.1-12.7-26
	c-7.6-10.6-16.4-17.7-21.5-21c0.4-0.3,0.6-0.5,0.6-0.5l5.6-5.1l-6.4-4C159.4,27.1,144.4,22.5,129.2,22.5L129.2,22.5z"/>
<g>
	<path class="st0" d="M119,140.5c0-2.9,0.3-11.9,1-14.3c1-9.2,4.4-15.8,9.2-25c4-7.6,6.9-14.5,6.9-20.6c0-6.1-2.9-9.5-7.1-9.5
		c-5.8,0-8.4,6.6-8.4,10.5v10h-15.5V80.2c0-13.1,8.9-24.7,24.5-24.7c15,0,24.2,10.5,24.2,24.7c0,9.7-4.2,18.1-8.9,25.3
		c-5,7.7-11,15.5-11.9,26.9c-0.2,1.1-0.3,6.8-0.3,8.1H119z M117.3,173.7v-19h16.6v19H117.3z"/>
</g>
<g>
</g>
<g>
</g>
<g>
</g>
<g>
</g>
<g>
</g>
<g>
</g>
<g>
</g>
<g>
</g>
<g>
</g>
<g>
</g>
<g>
</g>
<g>
</g>
<g>
</g>
<g>
</g>
<g>
</g>
</svg>
