<?xml version="1.0" encoding="utf-8"?>
<!-- Generator: Adobe Illustrator 21.0.1, SVG Export Plug-In . SVG Version: 6.00 Build 0)  -->
<svg version="1.1" id="Layer_1" xmlns="http://www.w3.org/2000/svg" xmlns:xlink="http://www.w3.org/1999/xlink" x="0px" y="0px"
	 viewBox="0 0 256 256" style="enable-background:new 0 0 256 256;" xml:space="preserve">
<style type="text/css">
	.st0{fill:#FFFFFF;}
</style>
<path class="st0" d="M173.8,31.4c-51.3-32.3-91.1,1.7-91.1,1.7s42.6,33,47.9,49.4C137.8,64.7,173.8,31.4,173.8,31.4z"/>
<path class="st0" d="M210.9,135.3c9.8-63.8-33.9-92-38.8-94.5c0,0-10.6,10.6-21.5,23.8c15.8,7,26.9,22.8,26.9,41.2
	c0,24.8-20.1,45-45,45s-45-20.1-45-45c0-17,9.5-31.8,23.4-39.5C98.4,52,88.3,44,85.3,41.9C33.6,74.1,43,126.3,43,126.3
	S57.4,204,125.3,204S210.9,135.3,210.9,135.3z"/>
<path class="st0" d="M214.5,146.9c3.4-7.9,5.3-18.1,5.3-18.1c14.1,3.9,27.8,29.7,26.8,32.7c-1,2.9-33.6,6.2-40.7,3.2
	C205.9,164.7,211.1,154.8,214.5,146.9z"/>
<path class="st0" d="M41.2,146.9c-3.4-7.9-5.3-18.1-5.3-18.1c-14.1,3.9-27.8,29.7-26.8,32.7c1,2.9,33.6,6.2,40.7,3.2
	C49.9,164.7,44.6,154.8,41.2,146.9z"/>
<path class="st0" d="M90.7,201.5c-7.2-2.9-10.5-7-13-7.7c-5.3,0.5-8.2,2.4-8.2,2.4c-4.1,14,12.8,39.1,15.8,39.8
	c3,0.7,22-20.6,23.1-28.3C108.5,207.7,97.9,204.4,90.7,201.5z"/>
<path class="st0" d="M168.8,199.6c7.2-2.9,10.5-7,13-7.7c5.3,0.5,8.2,2.4,8.2,2.4c4.1,14-12.8,39.1-15.8,39.8
	c-3,0.7-22-20.6-23.1-28.3C151,205.8,161.6,202.4,168.8,199.6z"/>
<path class="st0" d="M143.3,71.7c-4.8,4.9-9,12.4-12.7,19.4c-3.8-7.9-8.9-14.5-12.4-17.9c-11.9,5.5-20.2,17.5-20.2,31.4
	c0,19.1,15.5,34.5,34.5,34.5c19.1,0,34.5-15.5,34.5-34.5C167.2,89.2,157.2,76.2,143.3,71.7z"/>
</svg>
