<?xml version="1.0" encoding="UTF-8"?>
<svg width="256" height="256" version="1.1" viewBox="0 0 256 256" xmlns="http://www.w3.org/2000/svg">
  <style type="text/css">.st0 {
        }
        .gradient {
            fill: url(#gradient) #fff;
        }</style>
  <linearGradient id="gradient" x1="42.104" x2="42.104" y1="28.71" y2="214.42" gradientTransform="matrix(.92621 0 0 1.0797 3.01 0)" gradientUnits="userSpaceOnUse">
    <stop stop-color="#e3542a" offset="0"/>
    <stop stop-color="#3c211f" offset="1"/>
  </linearGradient>
  <path d="m28.01 17h100v14h-86c0 48.75-.01 97.49.01 146.24 28.38 18.47 57.12 36.37 85.87 54.26.26 6.54.05 13.08.13 19.63-33.31-20.83-66.8-41.38-100.06-62.29.1-57.28.02-114.56.05-171.84z" fill="#f77b2f"/>
  <path d="m128.01 17h100c.02 57.28-.04 114.56.03 171.84-33.24 20.91-66.69 41.52-100.02 62.29-.08-6.55.13-13.09-.13-19.63 28.61-18.25 57.7-35.77 86.12-54.33 0-48.72.01-97.44-.01-146.16-28.66-.02-57.33-.01-85.99-.01z" fill="#ac5018"/>
  <path class="gradient" d="m42.01 31h86c28.66 0 57.33-.01 85.99.01.02 48.72.01 97.44.01 146.16-28.42 18.56-57.51 36.08-86.12 54.33-28.75-17.89-57.49-35.79-85.87-54.26-.02-48.75-.01-97.49-.01-146.24z" fill="url(#gradient)"/>
</svg>
