<?xml version="1.0" encoding="UTF-8" standalone="no"?>
<!-- Generator: Adobe Illustrator 16.0.0, SVG Export Plug-In . SVG Version: 6.00 Build 0)  -->

<svg
   xmlns:dc="http://purl.org/dc/elements/1.1/"
   xmlns:cc="http://creativecommons.org/ns#"
   xmlns:rdf="http://www.w3.org/1999/02/22-rdf-syntax-ns#"
   xmlns:svg="http://www.w3.org/2000/svg"
   xmlns="http://www.w3.org/2000/svg"
   xmlns:sodipodi="http://sodipodi.sourceforge.net/DTD/sodipodi-0.dtd"
   xmlns:inkscape="http://www.inkscape.org/namespaces/inkscape"
   version="1.1"
   id="Capa_1"
   x="0px"
   y="0px"
   width="256"
   height="256"
   viewBox="0 0 256 256">
<style type="text/css">
	.st0{fill:#FFFFFF;}
</style>
  <path
     d="M 181.61331,141.41893 130.52058,87.468645 c -0.72999,-0.771673 -1.5698,-1.158119 -2.51981,-1.158119 -0.95002,0 -1.79136,0.386446 -2.52173,1.158119 L 74.390528,141.41893 c -0.731904,0.77289 -1.096704,1.65972 -1.096704,2.66334 0,1.00322 0.365952,1.89127 1.096704,2.66254 l 5.480448,5.78695 c 0.730752,0.77168 1.571712,1.1573 2.521728,1.1573 0.950016,0 1.790976,-0.38562 2.521728,-1.1573 l 43.086338,-45.49836 43.08787,45.5012 c 0.73037,0.77167 1.57171,1.15488 2.52019,1.15488 0.95155,0 1.79251,-0.38564 2.52288,-1.15488 l 5.48122,-5.78938 c 0.73037,-0.77126 1.09325,-1.65973 1.09325,-2.66254 3.8e-4,-1.00403 -0.3625,-1.89208 -1.09287,-2.66375 z"
     id="path2"
     class="st0"
     inkscape:connector-curvature="0"
     style="stroke-width:0.73530406" />
</svg>
