<?xml version="1.0" encoding="UTF-8" standalone="no"?>
<!-- Generator: Adobe Illustrator 16.0.0, SVG Export Plug-In . SVG Version: 6.00 Build 0)  -->

<svg
   xmlns:dc="http://purl.org/dc/elements/1.1/"
   xmlns:cc="http://creativecommons.org/ns#"
   xmlns:rdf="http://www.w3.org/1999/02/22-rdf-syntax-ns#"
   xmlns:svg="http://www.w3.org/2000/svg"
   xmlns="http://www.w3.org/2000/svg"
   xmlns:sodipodi="http://sodipodi.sourceforge.net/DTD/sodipodi-0.dtd"
   xmlns:inkscape="http://www.inkscape.org/namespaces/inkscape"
   version="1.1"
   id="Capa_1"
   x="0px"
   y="0px"
   width="256"
   height="256"
   viewBox="0 0 256 256">
<style type="text/css">
	.st0{fill:#FFFFFF;}
</style>
  <path
     d="M 171.42678,81.34933 130.04167,37.6496 c -0.59128,-0.62506 -1.27154,-0.93808 -2.04105,-0.93808 -0.76951,0 -1.45101,0.31302 -2.04259,0.93808 L 84.576329,81.34933 c -0.592842,0.62604 -0.88833,1.34437 -0.88833,2.15731 0,0.8126 0.296421,1.53193 0.88833,2.15665 l 4.439163,4.68743 c 0.591909,0.62507 1.273086,0.93742 2.042597,0.93742 0.769513,0 1.450691,-0.31236 2.0426,-0.93742 L 128.00062,53.49705 162.9018,90.35303 c 0.59159,0.62505 1.27309,0.93545 2.04136,0.93545 0.77075,0 1.45193,-0.31237 2.04353,-0.93545 l 4.43978,-4.6894 c 0.5916,-0.62472 0.88553,-1.34439 0.88553,-2.15666 3.1e-4,-0.81327 -0.29362,-1.53259 -0.88522,-2.15764 z"
     id="path1"
     class="st0"
     inkscape:connector-curvature="0"
     style="stroke-width:0.59559631" />
</svg>
