<?xml version="1.0" encoding="UTF-8" standalone="no"?>
<!-- Generator: Adobe Illustrator 16.0.0, SVG Export Plug-In . SVG Version: 6.00 Build 0)  -->

<svg
   xmlns:dc="http://purl.org/dc/elements/1.1/"
   xmlns:cc="http://creativecommons.org/ns#"
   xmlns:rdf="http://www.w3.org/1999/02/22-rdf-syntax-ns#"
   xmlns:svg="http://www.w3.org/2000/svg"
   xmlns="http://www.w3.org/2000/svg"
   xmlns:sodipodi="http://sodipodi.sourceforge.net/DTD/sodipodi-0.dtd"
   xmlns:inkscape="http://www.inkscape.org/namespaces/inkscape"
   version="1.1"
   id="Capa_1"
   x="0px"
   y="0px"
   width="256"
   height="256"
   viewBox="0 0 256 256">
<style type="text/css">
	.st0{fill:#FFFFFF;}
</style>
  <path
     d="m 192.8721,209.9169 -61.82221,-65.27985 c -0.88327,-0.93372 -1.89944,-1.40132 -3.04895,-1.40132 -1.14954,0 -2.16755,0.4676 -3.05131,1.40132 L 63.13254,209.9169 c -0.885604,0.9352 -1.327012,2.00826 -1.327012,3.22264 0,1.2139 0.442801,2.28845 1.327012,3.22168 l 6.631341,7.00221 c 0.884211,0.93373 1.901773,1.40034 3.051292,1.40034 1.149519,0 2.167081,-0.46661 3.051291,-1.40034 l 52.134476,-55.05302 52.13631,55.05646 c 0.88375,0.93372 1.90177,1.39739 3.04943,1.39739 1.15138,0 2.16895,-0.46662 3.05269,-1.39739 l 6.63227,-7.00516 c 0.88374,-0.93321 1.32283,-2.00827 1.32283,-3.22168 4.7e-4,-1.21486 -0.43861,-2.2894 -1.32237,-3.22313 z"
     id="path3"
     class="st0"
     inkscape:connector-curvature="0"
     style="stroke-width:0.88971788" />
</svg>
