<?xml version="1.0" encoding="utf-8"?>
<!-- Generator: Adobe Illustrator 24.0.1, SVG Export Plug-In . SVG Version: 6.00 Build 0)  -->
<svg version="1.1" id="Layer_1" xmlns="http://www.w3.org/2000/svg" xmlns:xlink="http://www.w3.org/1999/xlink" x="0px" y="0px"
	 viewBox="0 0 2048 2048" style="enable-background:new 0 0 2048 2048;" xml:space="preserve">
<style type="text/css">
	.st0{fill:#FFFFFF;}
</style>
<path class="st0" d="M987.32,178.57c-758.05,0-916.07,798.73-817.47,1102.49c177.43,135.18,253.47,288.93,317.3,449.46
	c113.59,53.51,314.6,137.5,518.2,137.5s474.96-59.12,529.46-103.71c76.98-188.69,138.94-345.26,319.56-463.53
	C1990.62,1008.46,1770.14,178.57,987.32,178.57z M584.43,1143.71l-86.33-59.65l114.37-167.89L440.66,803.68l56.92-97.05
	l143.89,99.41l71.33-147.26l105.73,59.97l-82.05,149.99l136.54,74.07l-57.93,99.94l-120.9-81.57L584.43,1143.71z M986.97,1476.29
	c-152.25,6.92-291.98,28.55-291.98,28.55l-12.8-71.26c0,0,153.95-50.95,303.9-50.95c149.95,0,305.66,15.32,305.66,15.32l4.61,112
	C1296.36,1509.94,1139.23,1469.37,986.97,1476.29z M1517.02,1081.09l-146.08-108.22l-91.12,153.26l-97.05-65.6l87.96-147.36
	l-123.66-78.32l59.36-88.23l111.85,72l99.85-144.03l97.13,62.61l-90.79,141.29l150.7,109.44L1517.02,1081.09z"/>
</svg>
