<?xml version="1.0" encoding="UTF-8"?>
<svg width="256" height="256" version="1.1" viewBox="0 0 256 256" xmlns="http://www.w3.org/2000/svg">
  <style type="text/css">.st0{}</style>
  <path class="st0" fill="#ff0000" d="m39.988 6.4-33.588 33.588v176.02l33.588 33.588h176.02l33.588-33.588v-176.02l-33.588-33.588z"/>
  <path d="m55.832 28.29-27.542 27.542v144.34l27.542 27.542h144.34l27.542-27.542v-144.34l-27.542-27.542z" fill="#000" opacity=".25"/>
  <path d="m99.061 86.483v83.034h12.578q21.51 0 32.812-10.664 11.393-10.664 11.393-30.99 0-20.234-11.302-30.807-11.302-10.573-32.904-10.573zm-35.091-26.523h37.005q30.99 0 46.12 4.4661 15.221 4.375 26.068 14.948 9.5703 9.2057 14.219 21.237 4.6484 12.031 4.6484 27.253 0 15.404-4.6484 27.526-4.6484 12.031-14.219 21.237-10.938 10.573-26.25 15.039-15.312 4.375-45.938 4.375h-37.005z" fill="#fff" />
</svg>
