<?xml version="1.0" encoding="UTF-8"?>
<svg width="256" height="256" version="1.1" viewBox="0 0 256 256" xmlns="http://www.w3.org/2000/svg">
  <style type="text/css">.st0{}</style>
  <path class="st0" fill="#ff0000" d="m39.988 6.4-33.588 33.588v176.02l33.588 33.588h176.02l33.588-33.588v-176.02l-33.588-33.588z"/>
  <path d="m55.832 28.29-27.542 27.542v144.34l27.542 27.542h144.34l27.542-27.542v-144.34l-27.542-27.542z" fill="#000" opacity=".25"/>
  <path d="m185.88 188.48q-9.6615 5.013-20.143 7.5651t-21.875 2.5521q-33.997 0-53.867-18.958-19.87-19.049-19.87-51.589 0-32.63 19.87-51.589 19.87-19.049 53.867-19.049 11.393 0 21.875 2.5521t20.143 7.5651v28.164q-9.7526-6.6536-19.232-9.7526-9.4792-3.099-19.961-3.099-18.776 0-29.531 12.031t-10.755 33.177q0 21.055 10.755 33.086t29.531 12.031q10.482 0 19.961-3.099 9.4792-3.099 19.232-9.7526z" fill="#fff"/>
</svg>
