<?xml version="1.0" encoding="UTF-8"?>
<svg width="256" height="256" version="1.1" viewBox="0 0 256 256" xmlns="http://www.w3.org/2000/svg">
  <style type="text/css">.st0{}</style>
  <path class="st0" fill="#ff0000" d="m39.988 6.4-33.588 33.588v176.02l33.588 33.588h176.02l33.588-33.588v-176.02l-33.588-33.588z"/>
  <path d="m55.832 28.29-27.542 27.542v144.34l27.542 27.542h144.34l27.542-27.542v-144.34l-27.542-27.542z" fill="#000" opacity=".25"/>
  <path d="m126.5 112.64q8.2943 0 12.578-3.6458 4.2838-3.6458 4.2838-10.755 0-7.0182-4.2838-10.664-4.2839-3.737-12.578-3.737h-19.414v28.802zm1.1849 59.518q10.573 0 15.859-4.4662 5.3776-4.4661 5.3776-13.49 0-8.8412-5.2865-13.216-5.2865-4.4661-15.951-4.4661h-20.599v35.638zm32.63-48.945q11.302 3.2812 17.5 12.122 6.1979 8.8412 6.1979 21.693 0 19.688-13.307 29.349t-40.469 9.6615h-58.242v-136.08h52.682q28.346 0 41.016 8.5677 12.76 8.5677 12.76 27.435 0 9.9349-4.6484 16.953-4.6484 6.9271-13.49 10.299z" fill="#fff"/>
</svg>
